G04 #@! TF.FileFunction,Copper,L1,Top,Signal*
%FSLAX46Y46*%
G04 Gerber Fmt 4.6, Leading zero omitted, Abs format (unit mm)*
G04 Created by KiCad (PCBNEW 4.0.2+dfsg1-stable) date Mon 29 Jan 2018 06:14:22 PM MST*
%MOMM*%
G01*
G04 APERTURE LIST*
%ADD10C,0.100000*%
%ADD11R,1.727200X1.727200*%
%ADD12O,1.727200X1.727200*%
%ADD13R,1.250000X1.500000*%
%ADD14R,0.910000X1.220000*%
%ADD15R,2.032000X2.032000*%
%ADD16O,2.032000X2.032000*%
%ADD17R,2.000000X2.000000*%
%ADD18C,2.000000*%
%ADD19R,1.800860X0.800100*%
%ADD20R,0.800100X1.800860*%
%ADD21R,1.500000X1.300000*%
%ADD22O,2.300000X1.500000*%
%ADD23C,1.500000*%
%ADD24R,0.600000X1.500000*%
%ADD25O,1.397000X2.540000*%
%ADD26C,3.649980*%
%ADD27R,1.501140X1.501140*%
%ADD28C,1.501140*%
%ADD29C,1.524000*%
%ADD30C,1.000000*%
%ADD31C,0.800000*%
%ADD32C,0.500000*%
%ADD33C,0.250000*%
%ADD34C,1.000000*%
%ADD35C,0.254000*%
G04 APERTURE END LIST*
D10*
D11*
X120142000Y-74930000D03*
D12*
X117602000Y-74930000D03*
X120142000Y-72390000D03*
X117602000Y-72390000D03*
X120142000Y-69850000D03*
X117602000Y-69850000D03*
D13*
X115570000Y-99929000D03*
X115570000Y-97429000D03*
D14*
X155210000Y-92710000D03*
X158480000Y-92710000D03*
X155210000Y-97790000D03*
X158480000Y-97790000D03*
X155210000Y-102870000D03*
X158480000Y-102870000D03*
X155210000Y-107950000D03*
X158480000Y-107950000D03*
X155210000Y-113030000D03*
X158480000Y-113030000D03*
D15*
X114046000Y-108204000D03*
D16*
X114046000Y-110744000D03*
D17*
X149860000Y-83058000D03*
D18*
X147320000Y-83058000D03*
D17*
X149860000Y-87439500D03*
D18*
X147320000Y-87439500D03*
D17*
X149860000Y-91821000D03*
D18*
X147320000Y-91821000D03*
D17*
X149860000Y-96202500D03*
D18*
X147320000Y-96202500D03*
D17*
X149860000Y-100584000D03*
D18*
X147320000Y-100584000D03*
D17*
X149860000Y-104965500D03*
D18*
X147320000Y-104965500D03*
D17*
X149860000Y-109347000D03*
D18*
X147320000Y-109347000D03*
D17*
X149860000Y-113728500D03*
D18*
X147320000Y-113728500D03*
D17*
X149860000Y-118110000D03*
D18*
X147320000Y-118110000D03*
D17*
X121920000Y-92710000D03*
D18*
X124460000Y-92710000D03*
D19*
X139423140Y-85659000D03*
X139423140Y-83759000D03*
X136420860Y-84709000D03*
X139423140Y-93279000D03*
X139423140Y-91379000D03*
X136420860Y-92329000D03*
X139423140Y-100899000D03*
X139423140Y-98999000D03*
X136420860Y-99949000D03*
X139423140Y-108519000D03*
X139423140Y-106619000D03*
X136420860Y-107569000D03*
X139423140Y-116139000D03*
X139423140Y-114239000D03*
X136420860Y-115189000D03*
D20*
X142052000Y-86210140D03*
X143952000Y-86210140D03*
X143002000Y-83207860D03*
X142052000Y-93830140D03*
X143952000Y-93830140D03*
X143002000Y-90827860D03*
X142052000Y-101450140D03*
X143952000Y-101450140D03*
X143002000Y-98447860D03*
X142052000Y-109070140D03*
X143952000Y-109070140D03*
X143002000Y-106067860D03*
X142052000Y-116563140D03*
X143952000Y-116563140D03*
X143002000Y-113560860D03*
D21*
X132762000Y-81915000D03*
X135462000Y-81915000D03*
X132762000Y-89535000D03*
X135462000Y-89535000D03*
X132762000Y-97155000D03*
X135462000Y-97155000D03*
X132762000Y-104775000D03*
X135462000Y-104775000D03*
X132762000Y-112395000D03*
X135462000Y-112395000D03*
X118825000Y-92710000D03*
X116125000Y-92710000D03*
X117522000Y-65532000D03*
X120222000Y-65532000D03*
D22*
X115817000Y-123953200D03*
X130817000Y-123953200D03*
X130817000Y-117753200D03*
D23*
X123317000Y-119603200D03*
X123317000Y-122103200D03*
X125317000Y-119603200D03*
X125317000Y-122103200D03*
X127317000Y-122103200D03*
X127317000Y-119603200D03*
X119317000Y-119603200D03*
X119317000Y-122103200D03*
D22*
X115817000Y-117753200D03*
D24*
X118364000Y-103284000D03*
X119634000Y-103284000D03*
X120904000Y-103284000D03*
X122174000Y-103284000D03*
X123444000Y-103284000D03*
X124714000Y-103284000D03*
X125984000Y-103284000D03*
X125984000Y-97884000D03*
X124714000Y-97884000D03*
X123444000Y-97884000D03*
X122174000Y-97884000D03*
X120904000Y-97884000D03*
X119634000Y-97884000D03*
X118364000Y-97884000D03*
D25*
X157353000Y-65532000D03*
D26*
X143794480Y-68580000D03*
X155663900Y-68580000D03*
D27*
X154178000Y-74930000D03*
D28*
X152908000Y-77470000D03*
X151638000Y-74930000D03*
X150368000Y-77470000D03*
X149098000Y-74930000D03*
X147828000Y-77470000D03*
X146558000Y-74930000D03*
X145288000Y-77470000D03*
D25*
X142113000Y-65532000D03*
D29*
X133858000Y-74930000D03*
X136398000Y-74930000D03*
X131318000Y-74930000D03*
X137668000Y-77470000D03*
X135128000Y-77470000D03*
X132588000Y-77470000D03*
D25*
X126619000Y-65532000D03*
X140335000Y-65532000D03*
D26*
X128397000Y-68580000D03*
X138557000Y-68580000D03*
D30*
X132715000Y-114554000D03*
X132715000Y-84709000D03*
X130683000Y-88519000D03*
X132715000Y-92329000D03*
X130683000Y-96139000D03*
X132715000Y-99949000D03*
X130683000Y-103759000D03*
X132715000Y-107569000D03*
X130683000Y-110490000D03*
X123444000Y-67183000D03*
X114046000Y-67183000D03*
X115824000Y-73660000D03*
X116078000Y-90424000D03*
X113919000Y-98298000D03*
X140335000Y-120650000D03*
X144018000Y-111506000D03*
X144018000Y-88519000D03*
X144018000Y-96139000D03*
X144018000Y-103759000D03*
X145288000Y-107569000D03*
X145288000Y-99949000D03*
X145288000Y-92329000D03*
X145288000Y-84709000D03*
X128524000Y-116586000D03*
D31*
X125984000Y-96266000D03*
X130683000Y-98933000D03*
X128016000Y-82804000D03*
X124714000Y-96266000D03*
X125984000Y-101727000D03*
X122174000Y-101727000D03*
X119634000Y-100076000D03*
X120904000Y-99314000D03*
X123444000Y-100076000D03*
X127000000Y-106553000D03*
X127000000Y-111760000D03*
D32*
X131699000Y-112395000D02*
X130683000Y-111379000D01*
X130683000Y-111379000D02*
X130683000Y-110490000D01*
X132762000Y-112395000D02*
X132762000Y-114507000D01*
D33*
X132762000Y-114507000D02*
X132715000Y-114554000D01*
D32*
X132762000Y-81915000D02*
X132762000Y-84662000D01*
D33*
X132762000Y-84662000D02*
X132715000Y-84709000D01*
D32*
X130683000Y-88519000D02*
X131699000Y-89535000D01*
X131699000Y-89535000D02*
X132762000Y-89535000D01*
D33*
X132762000Y-89535000D02*
X132715000Y-89582000D01*
D32*
X132715000Y-89582000D02*
X132715000Y-92329000D01*
X130683000Y-96139000D02*
X131699000Y-97155000D01*
X131699000Y-97155000D02*
X132762000Y-97155000D01*
D33*
X132762000Y-97155000D02*
X132715000Y-97202000D01*
D32*
X132715000Y-97202000D02*
X132715000Y-99949000D01*
X130683000Y-103759000D02*
X131699000Y-104775000D01*
X131699000Y-104775000D02*
X132762000Y-104775000D01*
D33*
X132762000Y-104775000D02*
X132715000Y-104822000D01*
D32*
X132715000Y-104822000D02*
X132715000Y-107569000D01*
X131699000Y-112395000D02*
X132762000Y-112395000D01*
D33*
X132762000Y-112395000D02*
X132715000Y-112442000D01*
X127317000Y-122103200D02*
X127387800Y-122174000D01*
X129794000Y-84709000D02*
X124079000Y-90424000D01*
X124079000Y-90424000D02*
X116078000Y-90424000D01*
X129794000Y-80518000D02*
X129794000Y-84709000D01*
X123444000Y-74168000D02*
X129794000Y-80518000D01*
X123444000Y-67183000D02*
X123444000Y-74168000D01*
X117602000Y-69850000D02*
X114935000Y-67183000D01*
X114935000Y-67183000D02*
X114046000Y-67183000D01*
X113919000Y-98298000D02*
X113919000Y-97917000D01*
X117602000Y-69850000D02*
X116380686Y-69850000D01*
X116380686Y-69850000D02*
X115824000Y-70406686D01*
X115824000Y-70406686D02*
X115824000Y-73660000D01*
X116125000Y-92710000D02*
X116125000Y-90471000D01*
X116125000Y-90471000D02*
X116078000Y-90424000D01*
X115570000Y-97429000D02*
X114407000Y-97429000D01*
X114407000Y-97429000D02*
X113919000Y-97917000D01*
X115824000Y-92409000D02*
X116125000Y-92710000D01*
X123317000Y-119603200D02*
X123317000Y-119507000D01*
X123317000Y-119507000D02*
X124714000Y-118110000D01*
X130810000Y-120650000D02*
X140335000Y-120650000D01*
X128270000Y-118110000D02*
X130810000Y-120650000D01*
X124714000Y-118110000D02*
X128270000Y-118110000D01*
X143952000Y-109070140D02*
X143952000Y-111440000D01*
X143952000Y-111440000D02*
X144018000Y-111506000D01*
X143952000Y-86210140D02*
X144018000Y-86276140D01*
X144018000Y-86276140D02*
X144018000Y-88519000D01*
X144018000Y-96139000D02*
X144018000Y-93896140D01*
X144018000Y-93896140D02*
X143952000Y-93830140D01*
X143952000Y-101450140D02*
X143952000Y-103693000D01*
X143952000Y-103693000D02*
X144018000Y-103759000D01*
X144675860Y-109070140D02*
X143952000Y-109070140D01*
X145288000Y-108458000D02*
X144675860Y-109070140D01*
X145288000Y-107569000D02*
X145288000Y-108458000D01*
X143952000Y-101450140D02*
X144675860Y-101450140D01*
X145288000Y-100838000D02*
X145288000Y-99949000D01*
X144675860Y-101450140D02*
X145288000Y-100838000D01*
X144675860Y-93830140D02*
X143952000Y-93830140D01*
X145288000Y-93218000D02*
X144675860Y-93830140D01*
X145288000Y-92329000D02*
X145288000Y-93218000D01*
X144675860Y-86210140D02*
X143952000Y-86210140D01*
X145288000Y-85598000D02*
X144675860Y-86210140D01*
X145288000Y-84709000D02*
X145288000Y-85598000D01*
D32*
X115570000Y-99929000D02*
X114695000Y-99929000D01*
X114695000Y-99929000D02*
X113645000Y-99929000D01*
X116840000Y-112776000D02*
X120650000Y-116586000D01*
X128524000Y-116586000D02*
X120650000Y-116586000D01*
X112522000Y-98806000D02*
X112522000Y-74930000D01*
X113645000Y-99929000D02*
X112522000Y-98806000D01*
X118364000Y-103284000D02*
X117508000Y-103284000D01*
X116312000Y-99929000D02*
X115570000Y-99929000D01*
X117094000Y-100711000D02*
X116312000Y-99929000D01*
X117094000Y-102870000D02*
X117094000Y-100711000D01*
X117508000Y-103284000D02*
X117094000Y-102870000D01*
X118364000Y-103284000D02*
X118364000Y-105283000D01*
X116840000Y-106807000D02*
X116840000Y-112776000D01*
X118364000Y-105283000D02*
X116840000Y-106807000D01*
X117602000Y-74930000D02*
X112522000Y-74930000D01*
X113792000Y-65532000D02*
X117522000Y-65532000D01*
X112522000Y-74930000D02*
X112522000Y-66802000D01*
X112522000Y-66802000D02*
X113792000Y-65532000D01*
D33*
X149860000Y-83058000D02*
X149860000Y-81280000D01*
X158480000Y-92710000D02*
X158480000Y-92186000D01*
X158480000Y-92186000D02*
X157734000Y-91440000D01*
X151130000Y-83058000D02*
X149860000Y-83058000D01*
X152146000Y-84074000D02*
X151130000Y-83058000D01*
X152146000Y-89408000D02*
X152146000Y-84074000D01*
X154178000Y-91440000D02*
X152146000Y-89408000D01*
X157734000Y-91440000D02*
X154178000Y-91440000D01*
X154178000Y-74930000D02*
X154178000Y-78740000D01*
X154178000Y-78740000D02*
X151638000Y-81280000D01*
X151638000Y-81280000D02*
X149860000Y-81280000D01*
X137668000Y-77470000D02*
X137668000Y-78740000D01*
X140208000Y-81280000D02*
X149860000Y-81280000D01*
X137668000Y-78740000D02*
X140208000Y-81280000D01*
X158496000Y-92694000D02*
X158480000Y-92710000D01*
X149860000Y-91821000D02*
X151384000Y-91821000D01*
X157734000Y-96520000D02*
X158480000Y-97266000D01*
X156083000Y-96520000D02*
X157734000Y-96520000D01*
X151384000Y-91821000D02*
X156083000Y-96520000D01*
X158480000Y-97266000D02*
X158480000Y-97790000D01*
X135128000Y-77470000D02*
X135128000Y-73914000D01*
X151638000Y-78740000D02*
X151638000Y-74930000D01*
X150114000Y-80264000D02*
X151638000Y-78740000D01*
X140716000Y-80264000D02*
X150114000Y-80264000D01*
X139192000Y-78740000D02*
X140716000Y-80264000D01*
X139192000Y-73914000D02*
X139192000Y-78740000D01*
X138684000Y-73406000D02*
X139192000Y-73914000D01*
X135636000Y-73406000D02*
X138684000Y-73406000D01*
X135128000Y-73914000D02*
X135636000Y-73406000D01*
X158480000Y-97790000D02*
X159258000Y-97790000D01*
X151638000Y-73914000D02*
X151638000Y-74930000D01*
X152146000Y-73406000D02*
X151638000Y-73914000D01*
X155194000Y-73406000D02*
X152146000Y-73406000D01*
X155702000Y-73914000D02*
X155194000Y-73406000D01*
X155702000Y-79756000D02*
X155702000Y-73914000D01*
X152908000Y-82550000D02*
X155702000Y-79756000D01*
X152908000Y-88900000D02*
X152908000Y-82550000D01*
X154686000Y-90678000D02*
X152908000Y-88900000D01*
X158496000Y-90678000D02*
X154686000Y-90678000D01*
X160147000Y-92329000D02*
X158496000Y-90678000D01*
X160147000Y-96901000D02*
X160147000Y-92329000D01*
X159258000Y-97790000D02*
X160147000Y-96901000D01*
X149860000Y-100584000D02*
X151384000Y-100584000D01*
X157734000Y-101600000D02*
X158480000Y-102346000D01*
X152400000Y-101600000D02*
X157734000Y-101600000D01*
X151384000Y-100584000D02*
X152400000Y-101600000D01*
X158480000Y-102346000D02*
X158480000Y-102870000D01*
X149098000Y-74930000D02*
X149098000Y-78740000D01*
X132588000Y-73914000D02*
X132588000Y-77470000D01*
X133731000Y-72771000D02*
X132588000Y-73914000D01*
X139065000Y-72771000D02*
X133731000Y-72771000D01*
X140208000Y-73914000D02*
X139065000Y-72771000D01*
X140208000Y-78740000D02*
X140208000Y-73914000D01*
X140716000Y-79248000D02*
X140208000Y-78740000D01*
X148590000Y-79248000D02*
X140716000Y-79248000D01*
X149098000Y-78740000D02*
X148590000Y-79248000D01*
X149098000Y-74930000D02*
X149098000Y-73914000D01*
X159258000Y-102870000D02*
X158480000Y-102870000D01*
X160782000Y-101346000D02*
X159258000Y-102870000D01*
X160782000Y-78105000D02*
X160782000Y-101346000D01*
X155448000Y-72771000D02*
X160782000Y-78105000D01*
X150241000Y-72771000D02*
X155448000Y-72771000D01*
X149098000Y-73914000D02*
X150241000Y-72771000D01*
X158480000Y-107950000D02*
X158480000Y-108474000D01*
X158480000Y-108474000D02*
X157607000Y-109347000D01*
X157607000Y-109347000D02*
X149860000Y-109347000D01*
X158480000Y-107950000D02*
X159258000Y-107950000D01*
X146558000Y-73914000D02*
X146558000Y-74930000D01*
X148336000Y-72136000D02*
X146558000Y-73914000D01*
X155702000Y-72136000D02*
X148336000Y-72136000D01*
X161417000Y-77851000D02*
X155702000Y-72136000D01*
X161417000Y-105791000D02*
X161417000Y-77851000D01*
X159258000Y-107950000D02*
X161417000Y-105791000D01*
X157353000Y-65532000D02*
X158369000Y-65532000D01*
X159258000Y-113030000D02*
X158480000Y-113030000D01*
X162052000Y-110236000D02*
X159258000Y-113030000D01*
X162052000Y-69215000D02*
X162052000Y-110236000D01*
X158369000Y-65532000D02*
X162052000Y-69215000D01*
D34*
X142113000Y-65532000D02*
X157353000Y-65532000D01*
D33*
X158480000Y-113030000D02*
X158480000Y-113554000D01*
X158480000Y-113554000D02*
X157734000Y-114300000D01*
X151384000Y-118110000D02*
X149860000Y-118110000D01*
X155194000Y-114300000D02*
X151384000Y-118110000D01*
X157734000Y-114300000D02*
X155194000Y-114300000D01*
D34*
X142113000Y-65532000D02*
X140335000Y-65532000D01*
X140335000Y-65532000D02*
X126619000Y-65532000D01*
D33*
X125984000Y-97884000D02*
X125984000Y-96266000D01*
X126111000Y-98933000D02*
X126111000Y-98011000D01*
X130683000Y-98933000D02*
X126111000Y-98933000D01*
X126111000Y-98011000D02*
X125984000Y-97884000D01*
X128016000Y-80137000D02*
X128016000Y-82804000D01*
X124714000Y-97884000D02*
X124714000Y-96266000D01*
X128016000Y-80137000D02*
X120269000Y-72390000D01*
X120269000Y-72390000D02*
X120142000Y-72390000D01*
X139423140Y-100899000D02*
X126553000Y-100899000D01*
X124714000Y-99060000D02*
X124714000Y-97884000D01*
X126553000Y-100899000D02*
X124714000Y-99060000D01*
X142052000Y-101450140D02*
X141455140Y-101450140D01*
X140904000Y-100899000D02*
X139423140Y-100899000D01*
X141455140Y-101450140D02*
X140904000Y-100899000D01*
X125984000Y-103284000D02*
X125984000Y-101727000D01*
X139423140Y-108519000D02*
X130236000Y-108519000D01*
X125984000Y-104267000D02*
X125984000Y-103284000D01*
X130236000Y-108519000D02*
X125984000Y-104267000D01*
X142052000Y-109070140D02*
X141455140Y-109070140D01*
X140904000Y-108519000D02*
X139423140Y-108519000D01*
X141455140Y-109070140D02*
X140904000Y-108519000D01*
X122174000Y-103284000D02*
X122174000Y-101727000D01*
X120142000Y-69850000D02*
X120222000Y-69770000D01*
X120222000Y-69770000D02*
X120222000Y-65532000D01*
X120904000Y-103284000D02*
X120904000Y-101346000D01*
X120904000Y-101346000D02*
X119634000Y-100076000D01*
X119634000Y-97884000D02*
X119634000Y-96266000D01*
X130241000Y-85659000D02*
X139423140Y-85659000D01*
X129540000Y-86360000D02*
X130241000Y-85659000D01*
X129540000Y-93980000D02*
X129540000Y-86360000D01*
X128778000Y-94742000D02*
X129540000Y-93980000D01*
X121158000Y-94742000D02*
X128778000Y-94742000D01*
X119634000Y-96266000D02*
X121158000Y-94742000D01*
X142052000Y-86210140D02*
X141455140Y-86210140D01*
X140904000Y-85659000D02*
X139423140Y-85659000D01*
X141455140Y-86210140D02*
X140904000Y-85659000D01*
X135462000Y-81915000D02*
X135462000Y-82884000D01*
X136420860Y-83842860D02*
X136420860Y-84709000D01*
X135462000Y-82884000D02*
X136420860Y-83842860D01*
X120904000Y-99314000D02*
X120904000Y-97884000D01*
X139423140Y-93279000D02*
X131511000Y-93279000D01*
X122174000Y-96266000D02*
X122174000Y-97884000D01*
X122936000Y-95504000D02*
X122174000Y-96266000D01*
X129286000Y-95504000D02*
X122936000Y-95504000D01*
X131511000Y-93279000D02*
X129286000Y-95504000D01*
X142052000Y-93830140D02*
X141455140Y-93830140D01*
X140904000Y-93279000D02*
X139423140Y-93279000D01*
X141455140Y-93830140D02*
X140904000Y-93279000D01*
X135462000Y-89535000D02*
X135462000Y-90504000D01*
X136420860Y-91462860D02*
X136420860Y-92329000D01*
X135462000Y-90504000D02*
X136420860Y-91462860D01*
X123444000Y-100076000D02*
X123444000Y-97884000D01*
X135462000Y-97155000D02*
X135462000Y-98124000D01*
X136420860Y-99082860D02*
X136420860Y-99949000D01*
X135462000Y-98124000D02*
X136420860Y-99082860D01*
X135462000Y-104775000D02*
X135462000Y-105744000D01*
X136420860Y-106702860D02*
X136420860Y-107569000D01*
X135462000Y-105744000D02*
X136420860Y-106702860D01*
X124714000Y-103284000D02*
X124714000Y-104267000D01*
X124714000Y-104267000D02*
X127000000Y-106553000D01*
X117602000Y-112268000D02*
X120904000Y-115570000D01*
X130363000Y-116139000D02*
X129794000Y-115570000D01*
X129794000Y-115570000D02*
X120904000Y-115570000D01*
X139423140Y-116139000D02*
X130363000Y-116139000D01*
X119634000Y-103284000D02*
X119634000Y-105283000D01*
X117602000Y-107315000D02*
X117602000Y-112268000D01*
X119634000Y-105283000D02*
X117602000Y-107315000D01*
X139362140Y-116078000D02*
X139423140Y-116139000D01*
X142052000Y-116563140D02*
X141328140Y-116563140D01*
X140904000Y-116139000D02*
X139423140Y-116139000D01*
X141328140Y-116563140D02*
X140904000Y-116139000D01*
X135462000Y-112395000D02*
X135462000Y-113364000D01*
X136420860Y-114322860D02*
X136420860Y-115189000D01*
X135462000Y-113364000D02*
X136420860Y-114322860D01*
X127000000Y-107823000D02*
X127000000Y-111760000D01*
X123444000Y-104267000D02*
X127000000Y-107823000D01*
X123444000Y-103284000D02*
X123444000Y-104267000D01*
X118825000Y-92710000D02*
X121920000Y-92710000D01*
X143002000Y-83207860D02*
X141455140Y-83207860D01*
X140904000Y-83759000D02*
X139423140Y-83759000D01*
X141455140Y-83207860D02*
X140904000Y-83759000D01*
X143002000Y-83207860D02*
X143024860Y-83185000D01*
X143024860Y-83185000D02*
X147193000Y-83185000D01*
X147193000Y-83185000D02*
X147320000Y-83058000D01*
X147320000Y-83058000D02*
X147320000Y-84709000D01*
X154178000Y-92710000D02*
X155210000Y-92710000D01*
X151384000Y-89916000D02*
X154178000Y-92710000D01*
X151384000Y-85725000D02*
X151384000Y-89916000D01*
X150876000Y-85217000D02*
X151384000Y-85725000D01*
X147828000Y-85217000D02*
X150876000Y-85217000D01*
X147320000Y-84709000D02*
X147828000Y-85217000D01*
X143002000Y-90827860D02*
X141455140Y-90827860D01*
X140904000Y-91379000D02*
X139423140Y-91379000D01*
X141455140Y-90827860D02*
X140904000Y-91379000D01*
X143002000Y-90827860D02*
X143106140Y-90932000D01*
X143106140Y-90932000D02*
X146431000Y-90932000D01*
X146431000Y-90932000D02*
X147320000Y-91821000D01*
X155210000Y-97790000D02*
X154813000Y-97790000D01*
X154813000Y-97790000D02*
X151003000Y-93980000D01*
X151003000Y-93980000D02*
X147828000Y-93980000D01*
X147828000Y-93980000D02*
X147320000Y-93472000D01*
X147320000Y-93472000D02*
X147320000Y-91821000D01*
X143002000Y-98447860D02*
X141455140Y-98447860D01*
X140904000Y-98999000D02*
X139423140Y-98999000D01*
X141455140Y-98447860D02*
X140904000Y-98999000D01*
X143002000Y-98447860D02*
X143024860Y-98425000D01*
X143024860Y-98425000D02*
X146558000Y-98425000D01*
X146558000Y-98425000D02*
X147320000Y-99187000D01*
X147320000Y-99187000D02*
X147320000Y-100584000D01*
X155210000Y-102870000D02*
X147828000Y-102870000D01*
X147320000Y-102362000D02*
X147320000Y-100584000D01*
X147828000Y-102870000D02*
X147320000Y-102362000D01*
X143002000Y-106067860D02*
X141455140Y-106067860D01*
X140904000Y-106619000D02*
X139423140Y-106619000D01*
X141455140Y-106067860D02*
X140904000Y-106619000D01*
X147320000Y-107569000D02*
X152527000Y-107569000D01*
X152908000Y-107950000D02*
X155210000Y-107950000D01*
X152527000Y-107569000D02*
X152908000Y-107950000D01*
X143002000Y-106067860D02*
X145945860Y-106067860D01*
X147320000Y-107442000D02*
X147320000Y-107569000D01*
X147320000Y-107569000D02*
X147320000Y-109347000D01*
X145945860Y-106067860D02*
X147320000Y-107442000D01*
X143002000Y-113560860D02*
X141455140Y-113560860D01*
X140777000Y-114239000D02*
X139423140Y-114239000D01*
X141455140Y-113560860D02*
X140777000Y-114239000D01*
X147320000Y-116332000D02*
X151003000Y-116332000D01*
X154305000Y-113030000D02*
X155210000Y-113030000D01*
X151003000Y-116332000D02*
X154305000Y-113030000D01*
X143002000Y-113560860D02*
X144548860Y-113560860D01*
X144548860Y-113560860D02*
X147320000Y-116332000D01*
X147320000Y-116332000D02*
X147320000Y-118110000D01*
D35*
G36*
X116209000Y-102869995D02*
X116208999Y-102870000D01*
X116259126Y-103122000D01*
X116276367Y-103208675D01*
X116409151Y-103407401D01*
X116468210Y-103495790D01*
X116882208Y-103909787D01*
X116882210Y-103909790D01*
X117141681Y-104083162D01*
X117169325Y-104101633D01*
X117439394Y-104155353D01*
X117460838Y-104269317D01*
X117479000Y-104297542D01*
X117479000Y-104916421D01*
X116214210Y-106181210D01*
X116022367Y-106468325D01*
X116022367Y-106468326D01*
X115954999Y-106807000D01*
X115955000Y-106807005D01*
X115955000Y-112775995D01*
X115954999Y-112776000D01*
X115995459Y-112979401D01*
X116022367Y-113114675D01*
X116160121Y-113320839D01*
X116214210Y-113401790D01*
X120024208Y-117211787D01*
X120024210Y-117211790D01*
X120311325Y-117403633D01*
X120367516Y-117414810D01*
X120650000Y-117471001D01*
X120650005Y-117471000D01*
X127803724Y-117471000D01*
X127880235Y-117547645D01*
X128297244Y-117720803D01*
X128748775Y-117721197D01*
X129026197Y-117606568D01*
X128997030Y-117753200D01*
X129102457Y-118283217D01*
X129402687Y-118732543D01*
X129852013Y-119032773D01*
X130382030Y-119138200D01*
X131251970Y-119138200D01*
X131781987Y-119032773D01*
X132231313Y-118732543D01*
X132531543Y-118283217D01*
X132636970Y-117753200D01*
X132531543Y-117223183D01*
X132314931Y-116899000D01*
X137999747Y-116899000D01*
X138058620Y-116990491D01*
X138270820Y-117135481D01*
X138522710Y-117186490D01*
X140323570Y-117186490D01*
X140558887Y-117142212D01*
X140725316Y-117035118D01*
X140790739Y-117100541D01*
X141004510Y-117243378D01*
X141004510Y-117463570D01*
X141048788Y-117698887D01*
X141187860Y-117915011D01*
X141400060Y-118060001D01*
X141651950Y-118111010D01*
X142452050Y-118111010D01*
X142687367Y-118066732D01*
X142903491Y-117927660D01*
X142998977Y-117787911D01*
X143013623Y-117823269D01*
X143192252Y-118001897D01*
X143425641Y-118098570D01*
X143666250Y-118098570D01*
X143825000Y-117939820D01*
X143825000Y-116690140D01*
X144079000Y-116690140D01*
X144079000Y-117939820D01*
X144237750Y-118098570D01*
X144478359Y-118098570D01*
X144711748Y-118001897D01*
X144890377Y-117823269D01*
X144987050Y-117589880D01*
X144987050Y-116848890D01*
X144828300Y-116690140D01*
X144079000Y-116690140D01*
X143825000Y-116690140D01*
X143805000Y-116690140D01*
X143805000Y-116436140D01*
X143825000Y-116436140D01*
X143825000Y-115186460D01*
X144079000Y-115186460D01*
X144079000Y-116436140D01*
X144828300Y-116436140D01*
X144987050Y-116277390D01*
X144987050Y-115536400D01*
X144890377Y-115303011D01*
X144711748Y-115124383D01*
X144478359Y-115027710D01*
X144237750Y-115027710D01*
X144079000Y-115186460D01*
X143825000Y-115186460D01*
X143677297Y-115038757D01*
X143853491Y-114925380D01*
X143998481Y-114713180D01*
X144049490Y-114461290D01*
X144049490Y-114320860D01*
X144234058Y-114320860D01*
X146560000Y-116646802D01*
X146560000Y-116654953D01*
X146395057Y-116723106D01*
X145934722Y-117182637D01*
X145685284Y-117783352D01*
X145684716Y-118433795D01*
X145933106Y-119034943D01*
X146392637Y-119495278D01*
X146993352Y-119744716D01*
X147643795Y-119745284D01*
X148244943Y-119496894D01*
X148311574Y-119430379D01*
X148395910Y-119561441D01*
X148608110Y-119706431D01*
X148860000Y-119757440D01*
X150860000Y-119757440D01*
X151095317Y-119713162D01*
X151311441Y-119574090D01*
X151456431Y-119361890D01*
X151507440Y-119110000D01*
X151507440Y-118845446D01*
X151674839Y-118812148D01*
X151921401Y-118647401D01*
X155508802Y-115060000D01*
X157734000Y-115060000D01*
X158024839Y-115002148D01*
X158271401Y-114837401D01*
X158821362Y-114287440D01*
X158935000Y-114287440D01*
X159170317Y-114243162D01*
X159386441Y-114104090D01*
X159531431Y-113891890D01*
X159566118Y-113720603D01*
X159795401Y-113567401D01*
X161850000Y-111512802D01*
X161850000Y-125020000D01*
X132100424Y-125020000D01*
X132231313Y-124932543D01*
X132531543Y-124483217D01*
X132636970Y-123953200D01*
X132531543Y-123423183D01*
X132231313Y-122973857D01*
X131781987Y-122673627D01*
X131251970Y-122568200D01*
X130382030Y-122568200D01*
X129852013Y-122673627D01*
X129402687Y-122973857D01*
X129102457Y-123423183D01*
X128997030Y-123953200D01*
X129102457Y-124483217D01*
X129402687Y-124932543D01*
X129533576Y-125020000D01*
X117100424Y-125020000D01*
X117231313Y-124932543D01*
X117531543Y-124483217D01*
X117636970Y-123953200D01*
X117531543Y-123423183D01*
X117231313Y-122973857D01*
X116781987Y-122673627D01*
X116251970Y-122568200D01*
X115382030Y-122568200D01*
X114852013Y-122673627D01*
X114402687Y-122973857D01*
X114102457Y-123423183D01*
X113997030Y-123953200D01*
X114102457Y-124483217D01*
X114402687Y-124932543D01*
X114533576Y-125020000D01*
X112470000Y-125020000D01*
X112470000Y-122377485D01*
X117931760Y-122377485D01*
X118142169Y-122886715D01*
X118531436Y-123276661D01*
X119040298Y-123487959D01*
X119591285Y-123488440D01*
X120100515Y-123278031D01*
X120490461Y-122888764D01*
X120701759Y-122379902D01*
X120701761Y-122377485D01*
X121931760Y-122377485D01*
X122142169Y-122886715D01*
X122531436Y-123276661D01*
X123040298Y-123487959D01*
X123591285Y-123488440D01*
X124100515Y-123278031D01*
X124317036Y-123061887D01*
X124531436Y-123276661D01*
X125040298Y-123487959D01*
X125591285Y-123488440D01*
X126100515Y-123278031D01*
X126317036Y-123061887D01*
X126531436Y-123276661D01*
X127040298Y-123487959D01*
X127591285Y-123488440D01*
X128100515Y-123278031D01*
X128490461Y-122888764D01*
X128701759Y-122379902D01*
X128701974Y-122133164D01*
X154145214Y-122133164D01*
X154659463Y-123377743D01*
X155610848Y-124330790D01*
X156854528Y-124847211D01*
X158201164Y-124848386D01*
X159445743Y-124334137D01*
X160398790Y-123382752D01*
X160915211Y-122139072D01*
X160916386Y-120792436D01*
X160402137Y-119547857D01*
X159450752Y-118594810D01*
X158207072Y-118078389D01*
X156860436Y-118077214D01*
X155615857Y-118591463D01*
X154662810Y-119542848D01*
X154146389Y-120786528D01*
X154145214Y-122133164D01*
X128701974Y-122133164D01*
X128702240Y-121828915D01*
X128491831Y-121319685D01*
X128102564Y-120929739D01*
X127918414Y-120853273D01*
X128100515Y-120778031D01*
X128490461Y-120388764D01*
X128701759Y-119879902D01*
X128702240Y-119328915D01*
X128491831Y-118819685D01*
X128102564Y-118429739D01*
X127593702Y-118218441D01*
X127042715Y-118217960D01*
X126533485Y-118428369D01*
X126316964Y-118644513D01*
X126102564Y-118429739D01*
X125593702Y-118218441D01*
X125042715Y-118217960D01*
X124533485Y-118428369D01*
X124143539Y-118817636D01*
X124045099Y-119054706D01*
X123496605Y-119603200D01*
X124045033Y-120151628D01*
X124142169Y-120386715D01*
X124531436Y-120776661D01*
X124715586Y-120853127D01*
X124533485Y-120928369D01*
X124316964Y-121144513D01*
X124102564Y-120929739D01*
X123934246Y-120859847D01*
X124040923Y-120815660D01*
X124108912Y-120574717D01*
X123317000Y-119782805D01*
X122525088Y-120574717D01*
X122593077Y-120815660D01*
X122707611Y-120856422D01*
X122533485Y-120928369D01*
X122143539Y-121317636D01*
X121932241Y-121826498D01*
X121931760Y-122377485D01*
X120701761Y-122377485D01*
X120702240Y-121828915D01*
X120491831Y-121319685D01*
X120102564Y-120929739D01*
X119934246Y-120859847D01*
X120040923Y-120815660D01*
X120108912Y-120574717D01*
X119317000Y-119782805D01*
X118525088Y-120574717D01*
X118593077Y-120815660D01*
X118707611Y-120856422D01*
X118533485Y-120928369D01*
X118143539Y-121317636D01*
X117932241Y-121826498D01*
X117931760Y-122377485D01*
X112470000Y-122377485D01*
X112470000Y-119398371D01*
X117919799Y-119398371D01*
X117947770Y-119948648D01*
X118104540Y-120327123D01*
X118345483Y-120395112D01*
X119137395Y-119603200D01*
X119496605Y-119603200D01*
X120288517Y-120395112D01*
X120529460Y-120327123D01*
X120714201Y-119808029D01*
X120693378Y-119398371D01*
X121919799Y-119398371D01*
X121947770Y-119948648D01*
X122104540Y-120327123D01*
X122345483Y-120395112D01*
X123137395Y-119603200D01*
X122345483Y-118811288D01*
X122104540Y-118879277D01*
X121919799Y-119398371D01*
X120693378Y-119398371D01*
X120686230Y-119257752D01*
X120529460Y-118879277D01*
X120288517Y-118811288D01*
X119496605Y-119603200D01*
X119137395Y-119603200D01*
X118345483Y-118811288D01*
X118104540Y-118879277D01*
X117919799Y-119398371D01*
X112470000Y-119398371D01*
X112470000Y-117753200D01*
X113997030Y-117753200D01*
X114102457Y-118283217D01*
X114402687Y-118732543D01*
X114852013Y-119032773D01*
X115382030Y-119138200D01*
X116251970Y-119138200D01*
X116781987Y-119032773D01*
X117231313Y-118732543D01*
X117298705Y-118631683D01*
X118525088Y-118631683D01*
X119317000Y-119423595D01*
X120108912Y-118631683D01*
X122525088Y-118631683D01*
X123317000Y-119423595D01*
X124108912Y-118631683D01*
X124040923Y-118390740D01*
X123521829Y-118205999D01*
X122971552Y-118233970D01*
X122593077Y-118390740D01*
X122525088Y-118631683D01*
X120108912Y-118631683D01*
X120040923Y-118390740D01*
X119521829Y-118205999D01*
X118971552Y-118233970D01*
X118593077Y-118390740D01*
X118525088Y-118631683D01*
X117298705Y-118631683D01*
X117531543Y-118283217D01*
X117636970Y-117753200D01*
X117531543Y-117223183D01*
X117231313Y-116773857D01*
X116781987Y-116473627D01*
X116251970Y-116368200D01*
X115382030Y-116368200D01*
X114852013Y-116473627D01*
X114402687Y-116773857D01*
X114102457Y-117223183D01*
X113997030Y-117753200D01*
X112470000Y-117753200D01*
X112470000Y-111283659D01*
X112488330Y-111375810D01*
X112846222Y-111911433D01*
X113381845Y-112269325D01*
X114013655Y-112395000D01*
X114078345Y-112395000D01*
X114710155Y-112269325D01*
X115245778Y-111911433D01*
X115603670Y-111375810D01*
X115729345Y-110744000D01*
X115603670Y-110112190D01*
X115379034Y-109775999D01*
X115421698Y-109758327D01*
X115600327Y-109579699D01*
X115697000Y-109346310D01*
X115697000Y-108489750D01*
X115538250Y-108331000D01*
X114173000Y-108331000D01*
X114173000Y-108351000D01*
X113919000Y-108351000D01*
X113919000Y-108331000D01*
X113899000Y-108331000D01*
X113899000Y-108077000D01*
X113919000Y-108077000D01*
X113919000Y-106711750D01*
X114173000Y-106711750D01*
X114173000Y-108077000D01*
X115538250Y-108077000D01*
X115697000Y-107918250D01*
X115697000Y-107061690D01*
X115600327Y-106828301D01*
X115421698Y-106649673D01*
X115188309Y-106553000D01*
X114331750Y-106553000D01*
X114173000Y-106711750D01*
X113919000Y-106711750D01*
X113760250Y-106553000D01*
X112903691Y-106553000D01*
X112670302Y-106649673D01*
X112491673Y-106828301D01*
X112470000Y-106880624D01*
X112470000Y-103959369D01*
X112976839Y-104467093D01*
X113669405Y-104754672D01*
X114419305Y-104755326D01*
X115112372Y-104468957D01*
X115643093Y-103939161D01*
X115930672Y-103246595D01*
X115931326Y-102496695D01*
X115644957Y-101803628D01*
X115168601Y-101326440D01*
X116195000Y-101326440D01*
X116209000Y-101323806D01*
X116209000Y-102869995D01*
X116209000Y-102869995D01*
G37*
X116209000Y-102869995D02*
X116208999Y-102870000D01*
X116259126Y-103122000D01*
X116276367Y-103208675D01*
X116409151Y-103407401D01*
X116468210Y-103495790D01*
X116882208Y-103909787D01*
X116882210Y-103909790D01*
X117141681Y-104083162D01*
X117169325Y-104101633D01*
X117439394Y-104155353D01*
X117460838Y-104269317D01*
X117479000Y-104297542D01*
X117479000Y-104916421D01*
X116214210Y-106181210D01*
X116022367Y-106468325D01*
X116022367Y-106468326D01*
X115954999Y-106807000D01*
X115955000Y-106807005D01*
X115955000Y-112775995D01*
X115954999Y-112776000D01*
X115995459Y-112979401D01*
X116022367Y-113114675D01*
X116160121Y-113320839D01*
X116214210Y-113401790D01*
X120024208Y-117211787D01*
X120024210Y-117211790D01*
X120311325Y-117403633D01*
X120367516Y-117414810D01*
X120650000Y-117471001D01*
X120650005Y-117471000D01*
X127803724Y-117471000D01*
X127880235Y-117547645D01*
X128297244Y-117720803D01*
X128748775Y-117721197D01*
X129026197Y-117606568D01*
X128997030Y-117753200D01*
X129102457Y-118283217D01*
X129402687Y-118732543D01*
X129852013Y-119032773D01*
X130382030Y-119138200D01*
X131251970Y-119138200D01*
X131781987Y-119032773D01*
X132231313Y-118732543D01*
X132531543Y-118283217D01*
X132636970Y-117753200D01*
X132531543Y-117223183D01*
X132314931Y-116899000D01*
X137999747Y-116899000D01*
X138058620Y-116990491D01*
X138270820Y-117135481D01*
X138522710Y-117186490D01*
X140323570Y-117186490D01*
X140558887Y-117142212D01*
X140725316Y-117035118D01*
X140790739Y-117100541D01*
X141004510Y-117243378D01*
X141004510Y-117463570D01*
X141048788Y-117698887D01*
X141187860Y-117915011D01*
X141400060Y-118060001D01*
X141651950Y-118111010D01*
X142452050Y-118111010D01*
X142687367Y-118066732D01*
X142903491Y-117927660D01*
X142998977Y-117787911D01*
X143013623Y-117823269D01*
X143192252Y-118001897D01*
X143425641Y-118098570D01*
X143666250Y-118098570D01*
X143825000Y-117939820D01*
X143825000Y-116690140D01*
X144079000Y-116690140D01*
X144079000Y-117939820D01*
X144237750Y-118098570D01*
X144478359Y-118098570D01*
X144711748Y-118001897D01*
X144890377Y-117823269D01*
X144987050Y-117589880D01*
X144987050Y-116848890D01*
X144828300Y-116690140D01*
X144079000Y-116690140D01*
X143825000Y-116690140D01*
X143805000Y-116690140D01*
X143805000Y-116436140D01*
X143825000Y-116436140D01*
X143825000Y-115186460D01*
X144079000Y-115186460D01*
X144079000Y-116436140D01*
X144828300Y-116436140D01*
X144987050Y-116277390D01*
X144987050Y-115536400D01*
X144890377Y-115303011D01*
X144711748Y-115124383D01*
X144478359Y-115027710D01*
X144237750Y-115027710D01*
X144079000Y-115186460D01*
X143825000Y-115186460D01*
X143677297Y-115038757D01*
X143853491Y-114925380D01*
X143998481Y-114713180D01*
X144049490Y-114461290D01*
X144049490Y-114320860D01*
X144234058Y-114320860D01*
X146560000Y-116646802D01*
X146560000Y-116654953D01*
X146395057Y-116723106D01*
X145934722Y-117182637D01*
X145685284Y-117783352D01*
X145684716Y-118433795D01*
X145933106Y-119034943D01*
X146392637Y-119495278D01*
X146993352Y-119744716D01*
X147643795Y-119745284D01*
X148244943Y-119496894D01*
X148311574Y-119430379D01*
X148395910Y-119561441D01*
X148608110Y-119706431D01*
X148860000Y-119757440D01*
X150860000Y-119757440D01*
X151095317Y-119713162D01*
X151311441Y-119574090D01*
X151456431Y-119361890D01*
X151507440Y-119110000D01*
X151507440Y-118845446D01*
X151674839Y-118812148D01*
X151921401Y-118647401D01*
X155508802Y-115060000D01*
X157734000Y-115060000D01*
X158024839Y-115002148D01*
X158271401Y-114837401D01*
X158821362Y-114287440D01*
X158935000Y-114287440D01*
X159170317Y-114243162D01*
X159386441Y-114104090D01*
X159531431Y-113891890D01*
X159566118Y-113720603D01*
X159795401Y-113567401D01*
X161850000Y-111512802D01*
X161850000Y-125020000D01*
X132100424Y-125020000D01*
X132231313Y-124932543D01*
X132531543Y-124483217D01*
X132636970Y-123953200D01*
X132531543Y-123423183D01*
X132231313Y-122973857D01*
X131781987Y-122673627D01*
X131251970Y-122568200D01*
X130382030Y-122568200D01*
X129852013Y-122673627D01*
X129402687Y-122973857D01*
X129102457Y-123423183D01*
X128997030Y-123953200D01*
X129102457Y-124483217D01*
X129402687Y-124932543D01*
X129533576Y-125020000D01*
X117100424Y-125020000D01*
X117231313Y-124932543D01*
X117531543Y-124483217D01*
X117636970Y-123953200D01*
X117531543Y-123423183D01*
X117231313Y-122973857D01*
X116781987Y-122673627D01*
X116251970Y-122568200D01*
X115382030Y-122568200D01*
X114852013Y-122673627D01*
X114402687Y-122973857D01*
X114102457Y-123423183D01*
X113997030Y-123953200D01*
X114102457Y-124483217D01*
X114402687Y-124932543D01*
X114533576Y-125020000D01*
X112470000Y-125020000D01*
X112470000Y-122377485D01*
X117931760Y-122377485D01*
X118142169Y-122886715D01*
X118531436Y-123276661D01*
X119040298Y-123487959D01*
X119591285Y-123488440D01*
X120100515Y-123278031D01*
X120490461Y-122888764D01*
X120701759Y-122379902D01*
X120701761Y-122377485D01*
X121931760Y-122377485D01*
X122142169Y-122886715D01*
X122531436Y-123276661D01*
X123040298Y-123487959D01*
X123591285Y-123488440D01*
X124100515Y-123278031D01*
X124317036Y-123061887D01*
X124531436Y-123276661D01*
X125040298Y-123487959D01*
X125591285Y-123488440D01*
X126100515Y-123278031D01*
X126317036Y-123061887D01*
X126531436Y-123276661D01*
X127040298Y-123487959D01*
X127591285Y-123488440D01*
X128100515Y-123278031D01*
X128490461Y-122888764D01*
X128701759Y-122379902D01*
X128701974Y-122133164D01*
X154145214Y-122133164D01*
X154659463Y-123377743D01*
X155610848Y-124330790D01*
X156854528Y-124847211D01*
X158201164Y-124848386D01*
X159445743Y-124334137D01*
X160398790Y-123382752D01*
X160915211Y-122139072D01*
X160916386Y-120792436D01*
X160402137Y-119547857D01*
X159450752Y-118594810D01*
X158207072Y-118078389D01*
X156860436Y-118077214D01*
X155615857Y-118591463D01*
X154662810Y-119542848D01*
X154146389Y-120786528D01*
X154145214Y-122133164D01*
X128701974Y-122133164D01*
X128702240Y-121828915D01*
X128491831Y-121319685D01*
X128102564Y-120929739D01*
X127918414Y-120853273D01*
X128100515Y-120778031D01*
X128490461Y-120388764D01*
X128701759Y-119879902D01*
X128702240Y-119328915D01*
X128491831Y-118819685D01*
X128102564Y-118429739D01*
X127593702Y-118218441D01*
X127042715Y-118217960D01*
X126533485Y-118428369D01*
X126316964Y-118644513D01*
X126102564Y-118429739D01*
X125593702Y-118218441D01*
X125042715Y-118217960D01*
X124533485Y-118428369D01*
X124143539Y-118817636D01*
X124045099Y-119054706D01*
X123496605Y-119603200D01*
X124045033Y-120151628D01*
X124142169Y-120386715D01*
X124531436Y-120776661D01*
X124715586Y-120853127D01*
X124533485Y-120928369D01*
X124316964Y-121144513D01*
X124102564Y-120929739D01*
X123934246Y-120859847D01*
X124040923Y-120815660D01*
X124108912Y-120574717D01*
X123317000Y-119782805D01*
X122525088Y-120574717D01*
X122593077Y-120815660D01*
X122707611Y-120856422D01*
X122533485Y-120928369D01*
X122143539Y-121317636D01*
X121932241Y-121826498D01*
X121931760Y-122377485D01*
X120701761Y-122377485D01*
X120702240Y-121828915D01*
X120491831Y-121319685D01*
X120102564Y-120929739D01*
X119934246Y-120859847D01*
X120040923Y-120815660D01*
X120108912Y-120574717D01*
X119317000Y-119782805D01*
X118525088Y-120574717D01*
X118593077Y-120815660D01*
X118707611Y-120856422D01*
X118533485Y-120928369D01*
X118143539Y-121317636D01*
X117932241Y-121826498D01*
X117931760Y-122377485D01*
X112470000Y-122377485D01*
X112470000Y-119398371D01*
X117919799Y-119398371D01*
X117947770Y-119948648D01*
X118104540Y-120327123D01*
X118345483Y-120395112D01*
X119137395Y-119603200D01*
X119496605Y-119603200D01*
X120288517Y-120395112D01*
X120529460Y-120327123D01*
X120714201Y-119808029D01*
X120693378Y-119398371D01*
X121919799Y-119398371D01*
X121947770Y-119948648D01*
X122104540Y-120327123D01*
X122345483Y-120395112D01*
X123137395Y-119603200D01*
X122345483Y-118811288D01*
X122104540Y-118879277D01*
X121919799Y-119398371D01*
X120693378Y-119398371D01*
X120686230Y-119257752D01*
X120529460Y-118879277D01*
X120288517Y-118811288D01*
X119496605Y-119603200D01*
X119137395Y-119603200D01*
X118345483Y-118811288D01*
X118104540Y-118879277D01*
X117919799Y-119398371D01*
X112470000Y-119398371D01*
X112470000Y-117753200D01*
X113997030Y-117753200D01*
X114102457Y-118283217D01*
X114402687Y-118732543D01*
X114852013Y-119032773D01*
X115382030Y-119138200D01*
X116251970Y-119138200D01*
X116781987Y-119032773D01*
X117231313Y-118732543D01*
X117298705Y-118631683D01*
X118525088Y-118631683D01*
X119317000Y-119423595D01*
X120108912Y-118631683D01*
X122525088Y-118631683D01*
X123317000Y-119423595D01*
X124108912Y-118631683D01*
X124040923Y-118390740D01*
X123521829Y-118205999D01*
X122971552Y-118233970D01*
X122593077Y-118390740D01*
X122525088Y-118631683D01*
X120108912Y-118631683D01*
X120040923Y-118390740D01*
X119521829Y-118205999D01*
X118971552Y-118233970D01*
X118593077Y-118390740D01*
X118525088Y-118631683D01*
X117298705Y-118631683D01*
X117531543Y-118283217D01*
X117636970Y-117753200D01*
X117531543Y-117223183D01*
X117231313Y-116773857D01*
X116781987Y-116473627D01*
X116251970Y-116368200D01*
X115382030Y-116368200D01*
X114852013Y-116473627D01*
X114402687Y-116773857D01*
X114102457Y-117223183D01*
X113997030Y-117753200D01*
X112470000Y-117753200D01*
X112470000Y-111283659D01*
X112488330Y-111375810D01*
X112846222Y-111911433D01*
X113381845Y-112269325D01*
X114013655Y-112395000D01*
X114078345Y-112395000D01*
X114710155Y-112269325D01*
X115245778Y-111911433D01*
X115603670Y-111375810D01*
X115729345Y-110744000D01*
X115603670Y-110112190D01*
X115379034Y-109775999D01*
X115421698Y-109758327D01*
X115600327Y-109579699D01*
X115697000Y-109346310D01*
X115697000Y-108489750D01*
X115538250Y-108331000D01*
X114173000Y-108331000D01*
X114173000Y-108351000D01*
X113919000Y-108351000D01*
X113919000Y-108331000D01*
X113899000Y-108331000D01*
X113899000Y-108077000D01*
X113919000Y-108077000D01*
X113919000Y-106711750D01*
X114173000Y-106711750D01*
X114173000Y-108077000D01*
X115538250Y-108077000D01*
X115697000Y-107918250D01*
X115697000Y-107061690D01*
X115600327Y-106828301D01*
X115421698Y-106649673D01*
X115188309Y-106553000D01*
X114331750Y-106553000D01*
X114173000Y-106711750D01*
X113919000Y-106711750D01*
X113760250Y-106553000D01*
X112903691Y-106553000D01*
X112670302Y-106649673D01*
X112491673Y-106828301D01*
X112470000Y-106880624D01*
X112470000Y-103959369D01*
X112976839Y-104467093D01*
X113669405Y-104754672D01*
X114419305Y-104755326D01*
X115112372Y-104468957D01*
X115643093Y-103939161D01*
X115930672Y-103246595D01*
X115931326Y-102496695D01*
X115644957Y-101803628D01*
X115168601Y-101326440D01*
X116195000Y-101326440D01*
X116209000Y-101323806D01*
X116209000Y-102869995D01*
G36*
X121622110Y-104630431D02*
X121874000Y-104681440D01*
X122474000Y-104681440D01*
X122709317Y-104637162D01*
X122769135Y-104598670D01*
X122906599Y-104804401D01*
X126240000Y-108137802D01*
X126240000Y-111056239D01*
X126123081Y-111172954D01*
X125965180Y-111553223D01*
X125964821Y-111964971D01*
X126122058Y-112345515D01*
X126412954Y-112636919D01*
X126793223Y-112794820D01*
X127204971Y-112795179D01*
X127585515Y-112637942D01*
X127876919Y-112347046D01*
X128034820Y-111966777D01*
X128035179Y-111555029D01*
X127877942Y-111174485D01*
X127760000Y-111056337D01*
X127760000Y-107823000D01*
X127702148Y-107532161D01*
X127702148Y-107532160D01*
X127614910Y-107401599D01*
X127829540Y-107187342D01*
X129698599Y-109056401D01*
X129945161Y-109221148D01*
X130236000Y-109279000D01*
X137999747Y-109279000D01*
X138058620Y-109370491D01*
X138270820Y-109515481D01*
X138522710Y-109566490D01*
X140323570Y-109566490D01*
X140558887Y-109522212D01*
X140725316Y-109415118D01*
X140917739Y-109607541D01*
X141004510Y-109665519D01*
X141004510Y-109970570D01*
X141048788Y-110205887D01*
X141187860Y-110422011D01*
X141400060Y-110567001D01*
X141651950Y-110618010D01*
X142452050Y-110618010D01*
X142687367Y-110573732D01*
X142903491Y-110434660D01*
X142998977Y-110294911D01*
X143013623Y-110330269D01*
X143192252Y-110508897D01*
X143425641Y-110605570D01*
X143666250Y-110605570D01*
X143825000Y-110446820D01*
X143825000Y-109197140D01*
X144079000Y-109197140D01*
X144079000Y-110446820D01*
X144237750Y-110605570D01*
X144478359Y-110605570D01*
X144711748Y-110508897D01*
X144890377Y-110330269D01*
X144987050Y-110096880D01*
X144987050Y-109355890D01*
X144828300Y-109197140D01*
X144079000Y-109197140D01*
X143825000Y-109197140D01*
X143805000Y-109197140D01*
X143805000Y-108943140D01*
X143825000Y-108943140D01*
X143825000Y-107693460D01*
X144079000Y-107693460D01*
X144079000Y-108943140D01*
X144828300Y-108943140D01*
X144987050Y-108784390D01*
X144987050Y-108043400D01*
X144890377Y-107810011D01*
X144711748Y-107631383D01*
X144478359Y-107534710D01*
X144237750Y-107534710D01*
X144079000Y-107693460D01*
X143825000Y-107693460D01*
X143677297Y-107545757D01*
X143853491Y-107432380D01*
X143998481Y-107220180D01*
X144049490Y-106968290D01*
X144049490Y-106827860D01*
X145631058Y-106827860D01*
X146560000Y-107756802D01*
X146560000Y-107891953D01*
X146395057Y-107960106D01*
X145934722Y-108419637D01*
X145685284Y-109020352D01*
X145684716Y-109670795D01*
X145933106Y-110271943D01*
X146392637Y-110732278D01*
X146993352Y-110981716D01*
X147643795Y-110982284D01*
X148244943Y-110733894D01*
X148311574Y-110667379D01*
X148395910Y-110798441D01*
X148608110Y-110943431D01*
X148860000Y-110994440D01*
X150860000Y-110994440D01*
X151095317Y-110950162D01*
X151311441Y-110811090D01*
X151456431Y-110598890D01*
X151507440Y-110347000D01*
X151507440Y-110107000D01*
X157607000Y-110107000D01*
X157897839Y-110049148D01*
X158144401Y-109884401D01*
X158821362Y-109207440D01*
X158935000Y-109207440D01*
X159170317Y-109163162D01*
X159386441Y-109024090D01*
X159531431Y-108811890D01*
X159566118Y-108640603D01*
X159795401Y-108487401D01*
X161292000Y-106990802D01*
X161292000Y-109921198D01*
X159307334Y-111905864D01*
X159186890Y-111823569D01*
X158935000Y-111772560D01*
X158025000Y-111772560D01*
X157789683Y-111816838D01*
X157573559Y-111955910D01*
X157428569Y-112168110D01*
X157377560Y-112420000D01*
X157377560Y-113540000D01*
X156312440Y-113540000D01*
X156312440Y-112420000D01*
X156268162Y-112184683D01*
X156129090Y-111968559D01*
X155916890Y-111823569D01*
X155665000Y-111772560D01*
X154755000Y-111772560D01*
X154519683Y-111816838D01*
X154303559Y-111955910D01*
X154158569Y-112168110D01*
X154130924Y-112304626D01*
X154014160Y-112327852D01*
X153767599Y-112492599D01*
X151501280Y-114758918D01*
X151507440Y-114728500D01*
X151507440Y-112728500D01*
X151463162Y-112493183D01*
X151324090Y-112277059D01*
X151111890Y-112132069D01*
X150860000Y-112081060D01*
X148860000Y-112081060D01*
X148624683Y-112125338D01*
X148408559Y-112264410D01*
X148311090Y-112407061D01*
X148247363Y-112343222D01*
X147646648Y-112093784D01*
X146996205Y-112093216D01*
X146395057Y-112341606D01*
X145934722Y-112801137D01*
X145685284Y-113401852D01*
X145685092Y-113622290D01*
X145086261Y-113023459D01*
X144839699Y-112858712D01*
X144548860Y-112800860D01*
X144049490Y-112800860D01*
X144049490Y-112660430D01*
X144005212Y-112425113D01*
X143866140Y-112208989D01*
X143653940Y-112063999D01*
X143402050Y-112012990D01*
X142601950Y-112012990D01*
X142366633Y-112057268D01*
X142150509Y-112196340D01*
X142005519Y-112408540D01*
X141954510Y-112660430D01*
X141954510Y-112800860D01*
X141455140Y-112800860D01*
X141164301Y-112858712D01*
X140917739Y-113023459D01*
X140648662Y-113292536D01*
X140575460Y-113242519D01*
X140323570Y-113191510D01*
X138522710Y-113191510D01*
X138287393Y-113235788D01*
X138071269Y-113374860D01*
X137926279Y-113587060D01*
X137875270Y-113838950D01*
X137875270Y-114477202D01*
X137785380Y-114337509D01*
X137573180Y-114192519D01*
X137321290Y-114141510D01*
X137144787Y-114141510D01*
X137123008Y-114032021D01*
X136958261Y-113785459D01*
X136670931Y-113498129D01*
X136808431Y-113296890D01*
X136859440Y-113045000D01*
X136859440Y-111745000D01*
X136815162Y-111509683D01*
X136676090Y-111293559D01*
X136463890Y-111148569D01*
X136212000Y-111097560D01*
X134712000Y-111097560D01*
X134476683Y-111141838D01*
X134260559Y-111280910D01*
X134115569Y-111493110D01*
X134112919Y-111506197D01*
X133976090Y-111293559D01*
X133763890Y-111148569D01*
X133512000Y-111097560D01*
X132012000Y-111097560D01*
X131776683Y-111141838D01*
X131728453Y-111172873D01*
X131657760Y-111102180D01*
X131817803Y-110716756D01*
X131818197Y-110265225D01*
X131645767Y-109847914D01*
X131326765Y-109528355D01*
X130909756Y-109355197D01*
X130458225Y-109354803D01*
X130040914Y-109527233D01*
X129721355Y-109846235D01*
X129548197Y-110263244D01*
X129547803Y-110714775D01*
X129720233Y-111132086D01*
X129798000Y-111209989D01*
X129798000Y-111378995D01*
X129797999Y-111379000D01*
X129846972Y-111625197D01*
X129865367Y-111717675D01*
X129936123Y-111823569D01*
X130057210Y-112004790D01*
X131073208Y-113020787D01*
X131073210Y-113020790D01*
X131360325Y-113212633D01*
X131397494Y-113220026D01*
X131408838Y-113280317D01*
X131547910Y-113496441D01*
X131760110Y-113641431D01*
X131877000Y-113665102D01*
X131877000Y-113786806D01*
X131753355Y-113910235D01*
X131580197Y-114327244D01*
X131579803Y-114778775D01*
X131752233Y-115196086D01*
X131934828Y-115379000D01*
X130677802Y-115379000D01*
X130331401Y-115032599D01*
X130084839Y-114867852D01*
X129794000Y-114810000D01*
X121218802Y-114810000D01*
X118362000Y-111953198D01*
X118362000Y-110449164D01*
X118737614Y-110449164D01*
X119251863Y-111693743D01*
X120203248Y-112646790D01*
X121446928Y-113163211D01*
X122793564Y-113164386D01*
X124038143Y-112650137D01*
X124991190Y-111698752D01*
X125507611Y-110455072D01*
X125508786Y-109108436D01*
X124994537Y-107863857D01*
X124043152Y-106910810D01*
X122799472Y-106394389D01*
X121452836Y-106393214D01*
X120208257Y-106907463D01*
X119255210Y-107858848D01*
X118738789Y-109102528D01*
X118737614Y-110449164D01*
X118362000Y-110449164D01*
X118362000Y-107629802D01*
X120171401Y-105820401D01*
X120336148Y-105573839D01*
X120394000Y-105283000D01*
X120394000Y-104638914D01*
X120604000Y-104681440D01*
X121204000Y-104681440D01*
X121439317Y-104637162D01*
X121538528Y-104573322D01*
X121622110Y-104630431D01*
X121622110Y-104630431D01*
G37*
X121622110Y-104630431D02*
X121874000Y-104681440D01*
X122474000Y-104681440D01*
X122709317Y-104637162D01*
X122769135Y-104598670D01*
X122906599Y-104804401D01*
X126240000Y-108137802D01*
X126240000Y-111056239D01*
X126123081Y-111172954D01*
X125965180Y-111553223D01*
X125964821Y-111964971D01*
X126122058Y-112345515D01*
X126412954Y-112636919D01*
X126793223Y-112794820D01*
X127204971Y-112795179D01*
X127585515Y-112637942D01*
X127876919Y-112347046D01*
X128034820Y-111966777D01*
X128035179Y-111555029D01*
X127877942Y-111174485D01*
X127760000Y-111056337D01*
X127760000Y-107823000D01*
X127702148Y-107532161D01*
X127702148Y-107532160D01*
X127614910Y-107401599D01*
X127829540Y-107187342D01*
X129698599Y-109056401D01*
X129945161Y-109221148D01*
X130236000Y-109279000D01*
X137999747Y-109279000D01*
X138058620Y-109370491D01*
X138270820Y-109515481D01*
X138522710Y-109566490D01*
X140323570Y-109566490D01*
X140558887Y-109522212D01*
X140725316Y-109415118D01*
X140917739Y-109607541D01*
X141004510Y-109665519D01*
X141004510Y-109970570D01*
X141048788Y-110205887D01*
X141187860Y-110422011D01*
X141400060Y-110567001D01*
X141651950Y-110618010D01*
X142452050Y-110618010D01*
X142687367Y-110573732D01*
X142903491Y-110434660D01*
X142998977Y-110294911D01*
X143013623Y-110330269D01*
X143192252Y-110508897D01*
X143425641Y-110605570D01*
X143666250Y-110605570D01*
X143825000Y-110446820D01*
X143825000Y-109197140D01*
X144079000Y-109197140D01*
X144079000Y-110446820D01*
X144237750Y-110605570D01*
X144478359Y-110605570D01*
X144711748Y-110508897D01*
X144890377Y-110330269D01*
X144987050Y-110096880D01*
X144987050Y-109355890D01*
X144828300Y-109197140D01*
X144079000Y-109197140D01*
X143825000Y-109197140D01*
X143805000Y-109197140D01*
X143805000Y-108943140D01*
X143825000Y-108943140D01*
X143825000Y-107693460D01*
X144079000Y-107693460D01*
X144079000Y-108943140D01*
X144828300Y-108943140D01*
X144987050Y-108784390D01*
X144987050Y-108043400D01*
X144890377Y-107810011D01*
X144711748Y-107631383D01*
X144478359Y-107534710D01*
X144237750Y-107534710D01*
X144079000Y-107693460D01*
X143825000Y-107693460D01*
X143677297Y-107545757D01*
X143853491Y-107432380D01*
X143998481Y-107220180D01*
X144049490Y-106968290D01*
X144049490Y-106827860D01*
X145631058Y-106827860D01*
X146560000Y-107756802D01*
X146560000Y-107891953D01*
X146395057Y-107960106D01*
X145934722Y-108419637D01*
X145685284Y-109020352D01*
X145684716Y-109670795D01*
X145933106Y-110271943D01*
X146392637Y-110732278D01*
X146993352Y-110981716D01*
X147643795Y-110982284D01*
X148244943Y-110733894D01*
X148311574Y-110667379D01*
X148395910Y-110798441D01*
X148608110Y-110943431D01*
X148860000Y-110994440D01*
X150860000Y-110994440D01*
X151095317Y-110950162D01*
X151311441Y-110811090D01*
X151456431Y-110598890D01*
X151507440Y-110347000D01*
X151507440Y-110107000D01*
X157607000Y-110107000D01*
X157897839Y-110049148D01*
X158144401Y-109884401D01*
X158821362Y-109207440D01*
X158935000Y-109207440D01*
X159170317Y-109163162D01*
X159386441Y-109024090D01*
X159531431Y-108811890D01*
X159566118Y-108640603D01*
X159795401Y-108487401D01*
X161292000Y-106990802D01*
X161292000Y-109921198D01*
X159307334Y-111905864D01*
X159186890Y-111823569D01*
X158935000Y-111772560D01*
X158025000Y-111772560D01*
X157789683Y-111816838D01*
X157573559Y-111955910D01*
X157428569Y-112168110D01*
X157377560Y-112420000D01*
X157377560Y-113540000D01*
X156312440Y-113540000D01*
X156312440Y-112420000D01*
X156268162Y-112184683D01*
X156129090Y-111968559D01*
X155916890Y-111823569D01*
X155665000Y-111772560D01*
X154755000Y-111772560D01*
X154519683Y-111816838D01*
X154303559Y-111955910D01*
X154158569Y-112168110D01*
X154130924Y-112304626D01*
X154014160Y-112327852D01*
X153767599Y-112492599D01*
X151501280Y-114758918D01*
X151507440Y-114728500D01*
X151507440Y-112728500D01*
X151463162Y-112493183D01*
X151324090Y-112277059D01*
X151111890Y-112132069D01*
X150860000Y-112081060D01*
X148860000Y-112081060D01*
X148624683Y-112125338D01*
X148408559Y-112264410D01*
X148311090Y-112407061D01*
X148247363Y-112343222D01*
X147646648Y-112093784D01*
X146996205Y-112093216D01*
X146395057Y-112341606D01*
X145934722Y-112801137D01*
X145685284Y-113401852D01*
X145685092Y-113622290D01*
X145086261Y-113023459D01*
X144839699Y-112858712D01*
X144548860Y-112800860D01*
X144049490Y-112800860D01*
X144049490Y-112660430D01*
X144005212Y-112425113D01*
X143866140Y-112208989D01*
X143653940Y-112063999D01*
X143402050Y-112012990D01*
X142601950Y-112012990D01*
X142366633Y-112057268D01*
X142150509Y-112196340D01*
X142005519Y-112408540D01*
X141954510Y-112660430D01*
X141954510Y-112800860D01*
X141455140Y-112800860D01*
X141164301Y-112858712D01*
X140917739Y-113023459D01*
X140648662Y-113292536D01*
X140575460Y-113242519D01*
X140323570Y-113191510D01*
X138522710Y-113191510D01*
X138287393Y-113235788D01*
X138071269Y-113374860D01*
X137926279Y-113587060D01*
X137875270Y-113838950D01*
X137875270Y-114477202D01*
X137785380Y-114337509D01*
X137573180Y-114192519D01*
X137321290Y-114141510D01*
X137144787Y-114141510D01*
X137123008Y-114032021D01*
X136958261Y-113785459D01*
X136670931Y-113498129D01*
X136808431Y-113296890D01*
X136859440Y-113045000D01*
X136859440Y-111745000D01*
X136815162Y-111509683D01*
X136676090Y-111293559D01*
X136463890Y-111148569D01*
X136212000Y-111097560D01*
X134712000Y-111097560D01*
X134476683Y-111141838D01*
X134260559Y-111280910D01*
X134115569Y-111493110D01*
X134112919Y-111506197D01*
X133976090Y-111293559D01*
X133763890Y-111148569D01*
X133512000Y-111097560D01*
X132012000Y-111097560D01*
X131776683Y-111141838D01*
X131728453Y-111172873D01*
X131657760Y-111102180D01*
X131817803Y-110716756D01*
X131818197Y-110265225D01*
X131645767Y-109847914D01*
X131326765Y-109528355D01*
X130909756Y-109355197D01*
X130458225Y-109354803D01*
X130040914Y-109527233D01*
X129721355Y-109846235D01*
X129548197Y-110263244D01*
X129547803Y-110714775D01*
X129720233Y-111132086D01*
X129798000Y-111209989D01*
X129798000Y-111378995D01*
X129797999Y-111379000D01*
X129846972Y-111625197D01*
X129865367Y-111717675D01*
X129936123Y-111823569D01*
X130057210Y-112004790D01*
X131073208Y-113020787D01*
X131073210Y-113020790D01*
X131360325Y-113212633D01*
X131397494Y-113220026D01*
X131408838Y-113280317D01*
X131547910Y-113496441D01*
X131760110Y-113641431D01*
X131877000Y-113665102D01*
X131877000Y-113786806D01*
X131753355Y-113910235D01*
X131580197Y-114327244D01*
X131579803Y-114778775D01*
X131752233Y-115196086D01*
X131934828Y-115379000D01*
X130677802Y-115379000D01*
X130331401Y-115032599D01*
X130084839Y-114867852D01*
X129794000Y-114810000D01*
X121218802Y-114810000D01*
X118362000Y-111953198D01*
X118362000Y-110449164D01*
X118737614Y-110449164D01*
X119251863Y-111693743D01*
X120203248Y-112646790D01*
X121446928Y-113163211D01*
X122793564Y-113164386D01*
X124038143Y-112650137D01*
X124991190Y-111698752D01*
X125507611Y-110455072D01*
X125508786Y-109108436D01*
X124994537Y-107863857D01*
X124043152Y-106910810D01*
X122799472Y-106394389D01*
X121452836Y-106393214D01*
X120208257Y-106907463D01*
X119255210Y-107858848D01*
X118738789Y-109102528D01*
X118737614Y-110449164D01*
X118362000Y-110449164D01*
X118362000Y-107629802D01*
X120171401Y-105820401D01*
X120336148Y-105573839D01*
X120394000Y-105283000D01*
X120394000Y-104638914D01*
X120604000Y-104681440D01*
X121204000Y-104681440D01*
X121439317Y-104637162D01*
X121538528Y-104573322D01*
X121622110Y-104630431D01*
G36*
X146325119Y-99266921D02*
X145934722Y-99656637D01*
X145685284Y-100257352D01*
X145684716Y-100907795D01*
X145933106Y-101508943D01*
X146392637Y-101969278D01*
X146560000Y-102038773D01*
X146560000Y-102362000D01*
X146617852Y-102652839D01*
X146782599Y-102899401D01*
X147213604Y-103330406D01*
X146996205Y-103330216D01*
X146395057Y-103578606D01*
X145934722Y-104038137D01*
X145685284Y-104638852D01*
X145684716Y-105289295D01*
X145692387Y-105307860D01*
X144049490Y-105307860D01*
X144049490Y-105167430D01*
X144005212Y-104932113D01*
X143866140Y-104715989D01*
X143653940Y-104570999D01*
X143402050Y-104519990D01*
X142601950Y-104519990D01*
X142366633Y-104564268D01*
X142150509Y-104703340D01*
X142005519Y-104915540D01*
X141954510Y-105167430D01*
X141954510Y-105307860D01*
X141455140Y-105307860D01*
X141164301Y-105365712D01*
X140917739Y-105530459D01*
X140724110Y-105724088D01*
X140575460Y-105622519D01*
X140323570Y-105571510D01*
X138522710Y-105571510D01*
X138287393Y-105615788D01*
X138071269Y-105754860D01*
X137926279Y-105967060D01*
X137875270Y-106218950D01*
X137875270Y-106857202D01*
X137785380Y-106717509D01*
X137573180Y-106572519D01*
X137321290Y-106521510D01*
X137144787Y-106521510D01*
X137123008Y-106412021D01*
X136958261Y-106165459D01*
X136670931Y-105878129D01*
X136808431Y-105676890D01*
X136859440Y-105425000D01*
X136859440Y-104125000D01*
X136815162Y-103889683D01*
X136676090Y-103673559D01*
X136463890Y-103528569D01*
X136212000Y-103477560D01*
X134712000Y-103477560D01*
X134476683Y-103521838D01*
X134260559Y-103660910D01*
X134115569Y-103873110D01*
X134112919Y-103886197D01*
X133976090Y-103673559D01*
X133763890Y-103528569D01*
X133512000Y-103477560D01*
X132012000Y-103477560D01*
X131810453Y-103515484D01*
X131645767Y-103116914D01*
X131326765Y-102797355D01*
X130909756Y-102624197D01*
X130458225Y-102623803D01*
X130040914Y-102796233D01*
X129721355Y-103115235D01*
X129548197Y-103532244D01*
X129547803Y-103983775D01*
X129720233Y-104401086D01*
X130039235Y-104720645D01*
X130456244Y-104893803D01*
X130566320Y-104893899D01*
X131073208Y-105400787D01*
X131073210Y-105400790D01*
X131360325Y-105592633D01*
X131397494Y-105600026D01*
X131408838Y-105660317D01*
X131547910Y-105876441D01*
X131760110Y-106021431D01*
X131830000Y-106035584D01*
X131830000Y-106848724D01*
X131753355Y-106925235D01*
X131580197Y-107342244D01*
X131579833Y-107759000D01*
X130550802Y-107759000D01*
X126913650Y-104121848D01*
X126931440Y-104034000D01*
X126931440Y-102534000D01*
X126887162Y-102298683D01*
X126875089Y-102279921D01*
X127018820Y-101933777D01*
X127019060Y-101659000D01*
X137999747Y-101659000D01*
X138058620Y-101750491D01*
X138270820Y-101895481D01*
X138522710Y-101946490D01*
X140323570Y-101946490D01*
X140558887Y-101902212D01*
X140725316Y-101795118D01*
X140917739Y-101987541D01*
X141004510Y-102045519D01*
X141004510Y-102350570D01*
X141048788Y-102585887D01*
X141187860Y-102802011D01*
X141400060Y-102947001D01*
X141651950Y-102998010D01*
X142452050Y-102998010D01*
X142687367Y-102953732D01*
X142903491Y-102814660D01*
X142998977Y-102674911D01*
X143013623Y-102710269D01*
X143192252Y-102888897D01*
X143425641Y-102985570D01*
X143666250Y-102985570D01*
X143825000Y-102826820D01*
X143825000Y-101577140D01*
X144079000Y-101577140D01*
X144079000Y-102826820D01*
X144237750Y-102985570D01*
X144478359Y-102985570D01*
X144711748Y-102888897D01*
X144890377Y-102710269D01*
X144987050Y-102476880D01*
X144987050Y-101735890D01*
X144828300Y-101577140D01*
X144079000Y-101577140D01*
X143825000Y-101577140D01*
X143805000Y-101577140D01*
X143805000Y-101323140D01*
X143825000Y-101323140D01*
X143825000Y-100073460D01*
X144079000Y-100073460D01*
X144079000Y-101323140D01*
X144828300Y-101323140D01*
X144987050Y-101164390D01*
X144987050Y-100423400D01*
X144890377Y-100190011D01*
X144711748Y-100011383D01*
X144478359Y-99914710D01*
X144237750Y-99914710D01*
X144079000Y-100073460D01*
X143825000Y-100073460D01*
X143677297Y-99925757D01*
X143853491Y-99812380D01*
X143998481Y-99600180D01*
X144049490Y-99348290D01*
X144049490Y-99185000D01*
X146243198Y-99185000D01*
X146325119Y-99266921D01*
X146325119Y-99266921D01*
G37*
X146325119Y-99266921D02*
X145934722Y-99656637D01*
X145685284Y-100257352D01*
X145684716Y-100907795D01*
X145933106Y-101508943D01*
X146392637Y-101969278D01*
X146560000Y-102038773D01*
X146560000Y-102362000D01*
X146617852Y-102652839D01*
X146782599Y-102899401D01*
X147213604Y-103330406D01*
X146996205Y-103330216D01*
X146395057Y-103578606D01*
X145934722Y-104038137D01*
X145685284Y-104638852D01*
X145684716Y-105289295D01*
X145692387Y-105307860D01*
X144049490Y-105307860D01*
X144049490Y-105167430D01*
X144005212Y-104932113D01*
X143866140Y-104715989D01*
X143653940Y-104570999D01*
X143402050Y-104519990D01*
X142601950Y-104519990D01*
X142366633Y-104564268D01*
X142150509Y-104703340D01*
X142005519Y-104915540D01*
X141954510Y-105167430D01*
X141954510Y-105307860D01*
X141455140Y-105307860D01*
X141164301Y-105365712D01*
X140917739Y-105530459D01*
X140724110Y-105724088D01*
X140575460Y-105622519D01*
X140323570Y-105571510D01*
X138522710Y-105571510D01*
X138287393Y-105615788D01*
X138071269Y-105754860D01*
X137926279Y-105967060D01*
X137875270Y-106218950D01*
X137875270Y-106857202D01*
X137785380Y-106717509D01*
X137573180Y-106572519D01*
X137321290Y-106521510D01*
X137144787Y-106521510D01*
X137123008Y-106412021D01*
X136958261Y-106165459D01*
X136670931Y-105878129D01*
X136808431Y-105676890D01*
X136859440Y-105425000D01*
X136859440Y-104125000D01*
X136815162Y-103889683D01*
X136676090Y-103673559D01*
X136463890Y-103528569D01*
X136212000Y-103477560D01*
X134712000Y-103477560D01*
X134476683Y-103521838D01*
X134260559Y-103660910D01*
X134115569Y-103873110D01*
X134112919Y-103886197D01*
X133976090Y-103673559D01*
X133763890Y-103528569D01*
X133512000Y-103477560D01*
X132012000Y-103477560D01*
X131810453Y-103515484D01*
X131645767Y-103116914D01*
X131326765Y-102797355D01*
X130909756Y-102624197D01*
X130458225Y-102623803D01*
X130040914Y-102796233D01*
X129721355Y-103115235D01*
X129548197Y-103532244D01*
X129547803Y-103983775D01*
X129720233Y-104401086D01*
X130039235Y-104720645D01*
X130456244Y-104893803D01*
X130566320Y-104893899D01*
X131073208Y-105400787D01*
X131073210Y-105400790D01*
X131360325Y-105592633D01*
X131397494Y-105600026D01*
X131408838Y-105660317D01*
X131547910Y-105876441D01*
X131760110Y-106021431D01*
X131830000Y-106035584D01*
X131830000Y-106848724D01*
X131753355Y-106925235D01*
X131580197Y-107342244D01*
X131579833Y-107759000D01*
X130550802Y-107759000D01*
X126913650Y-104121848D01*
X126931440Y-104034000D01*
X126931440Y-102534000D01*
X126887162Y-102298683D01*
X126875089Y-102279921D01*
X127018820Y-101933777D01*
X127019060Y-101659000D01*
X137999747Y-101659000D01*
X138058620Y-101750491D01*
X138270820Y-101895481D01*
X138522710Y-101946490D01*
X140323570Y-101946490D01*
X140558887Y-101902212D01*
X140725316Y-101795118D01*
X140917739Y-101987541D01*
X141004510Y-102045519D01*
X141004510Y-102350570D01*
X141048788Y-102585887D01*
X141187860Y-102802011D01*
X141400060Y-102947001D01*
X141651950Y-102998010D01*
X142452050Y-102998010D01*
X142687367Y-102953732D01*
X142903491Y-102814660D01*
X142998977Y-102674911D01*
X143013623Y-102710269D01*
X143192252Y-102888897D01*
X143425641Y-102985570D01*
X143666250Y-102985570D01*
X143825000Y-102826820D01*
X143825000Y-101577140D01*
X144079000Y-101577140D01*
X144079000Y-102826820D01*
X144237750Y-102985570D01*
X144478359Y-102985570D01*
X144711748Y-102888897D01*
X144890377Y-102710269D01*
X144987050Y-102476880D01*
X144987050Y-101735890D01*
X144828300Y-101577140D01*
X144079000Y-101577140D01*
X143825000Y-101577140D01*
X143805000Y-101577140D01*
X143805000Y-101323140D01*
X143825000Y-101323140D01*
X143825000Y-100073460D01*
X144079000Y-100073460D01*
X144079000Y-101323140D01*
X144828300Y-101323140D01*
X144987050Y-101164390D01*
X144987050Y-100423400D01*
X144890377Y-100190011D01*
X144711748Y-100011383D01*
X144478359Y-99914710D01*
X144237750Y-99914710D01*
X144079000Y-100073460D01*
X143825000Y-100073460D01*
X143677297Y-99925757D01*
X143853491Y-99812380D01*
X143998481Y-99600180D01*
X144049490Y-99348290D01*
X144049490Y-99185000D01*
X146243198Y-99185000D01*
X146325119Y-99266921D01*
G36*
X125387007Y-64412871D02*
X125285500Y-64923179D01*
X125285500Y-66140821D01*
X125387007Y-66651129D01*
X125676073Y-67083748D01*
X126108692Y-67372814D01*
X126225021Y-67395953D01*
X125937438Y-68088531D01*
X125936584Y-69067175D01*
X126310306Y-69971652D01*
X127001708Y-70664262D01*
X127905531Y-71039562D01*
X128884175Y-71040416D01*
X129788652Y-70666694D01*
X130481262Y-69975292D01*
X130856562Y-69071469D01*
X130857416Y-68092825D01*
X130483694Y-67188348D01*
X129963255Y-66667000D01*
X136991351Y-66667000D01*
X136472738Y-67184708D01*
X136097438Y-68088531D01*
X136096584Y-69067175D01*
X136470306Y-69971652D01*
X137161708Y-70664262D01*
X138065531Y-71039562D01*
X139044175Y-71040416D01*
X139948652Y-70666694D01*
X140641262Y-69975292D01*
X141016562Y-69071469D01*
X141017416Y-68092825D01*
X140729437Y-67395862D01*
X140845308Y-67372814D01*
X141224000Y-67119781D01*
X141602692Y-67372814D01*
X141629865Y-67378219D01*
X141334918Y-68088531D01*
X141334064Y-69067175D01*
X141707786Y-69971652D01*
X142399188Y-70664262D01*
X143303011Y-71039562D01*
X144281655Y-71040416D01*
X145186132Y-70666694D01*
X145878742Y-69975292D01*
X146254042Y-69071469D01*
X146254896Y-68092825D01*
X145881174Y-67188348D01*
X145360735Y-66667000D01*
X154098251Y-66667000D01*
X153579638Y-67184708D01*
X153204338Y-68088531D01*
X153203484Y-69067175D01*
X153577206Y-69971652D01*
X154268608Y-70664262D01*
X155172431Y-71039562D01*
X156151075Y-71040416D01*
X157055552Y-70666694D01*
X157748162Y-69975292D01*
X158123462Y-69071469D01*
X158124316Y-68092825D01*
X157829585Y-67379522D01*
X157863308Y-67372814D01*
X158295927Y-67083748D01*
X158516233Y-66754035D01*
X161292000Y-69529802D01*
X161292000Y-76651197D01*
X156239401Y-71598599D01*
X155992839Y-71433852D01*
X155702000Y-71376000D01*
X148336000Y-71376000D01*
X148045161Y-71433852D01*
X147798599Y-71598599D01*
X146020599Y-73376599D01*
X145855852Y-73623161D01*
X145834662Y-73729688D01*
X145774163Y-73754686D01*
X145384056Y-74144113D01*
X145172671Y-74653184D01*
X145172190Y-75204398D01*
X145382686Y-75713837D01*
X145772113Y-76103944D01*
X146281184Y-76315329D01*
X146832398Y-76315810D01*
X147341837Y-76105314D01*
X147731944Y-75715887D01*
X147827975Y-75484619D01*
X147922686Y-75713837D01*
X148312113Y-76103944D01*
X148338000Y-76114693D01*
X148338000Y-76181498D01*
X148104816Y-76084671D01*
X147553602Y-76084190D01*
X147044163Y-76294686D01*
X146654056Y-76684113D01*
X146558025Y-76915381D01*
X146463314Y-76686163D01*
X146073887Y-76296056D01*
X145564816Y-76084671D01*
X145013602Y-76084190D01*
X144504163Y-76294686D01*
X144114056Y-76684113D01*
X143902671Y-77193184D01*
X143902190Y-77744398D01*
X144112686Y-78253837D01*
X144346441Y-78488000D01*
X141030802Y-78488000D01*
X140968000Y-78425198D01*
X140968000Y-73914000D01*
X140910148Y-73623161D01*
X140745401Y-73376599D01*
X139602401Y-72233599D01*
X139355839Y-72068852D01*
X139065000Y-72011000D01*
X133731000Y-72011000D01*
X133440161Y-72068852D01*
X133193599Y-72233599D01*
X132050599Y-73376599D01*
X131885852Y-73623161D01*
X131880343Y-73650856D01*
X131597100Y-73533243D01*
X131041339Y-73532758D01*
X130527697Y-73744990D01*
X130134371Y-74137630D01*
X129921243Y-74650900D01*
X129920758Y-75206661D01*
X130132990Y-75720303D01*
X130525630Y-76113629D01*
X131038900Y-76326757D01*
X131594661Y-76327242D01*
X131828000Y-76230829D01*
X131828000Y-76272469D01*
X131797697Y-76284990D01*
X131404371Y-76677630D01*
X131191243Y-77190900D01*
X131190758Y-77746661D01*
X131402990Y-78260303D01*
X131795630Y-78653629D01*
X132308900Y-78866757D01*
X132864661Y-78867242D01*
X133378303Y-78655010D01*
X133771629Y-78262370D01*
X133857949Y-78054488D01*
X133942990Y-78260303D01*
X134335630Y-78653629D01*
X134848900Y-78866757D01*
X135404661Y-78867242D01*
X135918303Y-78655010D01*
X136311629Y-78262370D01*
X136397949Y-78054488D01*
X136482990Y-78260303D01*
X136875630Y-78653629D01*
X136908000Y-78667070D01*
X136908000Y-78740000D01*
X136965852Y-79030839D01*
X137130599Y-79277401D01*
X139670599Y-81817401D01*
X139917160Y-81982148D01*
X139965414Y-81991746D01*
X140208000Y-82040000D01*
X142016137Y-82040000D01*
X142005519Y-82055540D01*
X141954510Y-82307430D01*
X141954510Y-82447860D01*
X141455140Y-82447860D01*
X141164301Y-82505712D01*
X140917739Y-82670459D01*
X140724110Y-82864088D01*
X140575460Y-82762519D01*
X140323570Y-82711510D01*
X138522710Y-82711510D01*
X138287393Y-82755788D01*
X138071269Y-82894860D01*
X137926279Y-83107060D01*
X137875270Y-83358950D01*
X137875270Y-83997202D01*
X137785380Y-83857509D01*
X137573180Y-83712519D01*
X137321290Y-83661510D01*
X137144787Y-83661510D01*
X137123008Y-83552021D01*
X136958261Y-83305459D01*
X136670931Y-83018129D01*
X136808431Y-82816890D01*
X136859440Y-82565000D01*
X136859440Y-81265000D01*
X136815162Y-81029683D01*
X136676090Y-80813559D01*
X136463890Y-80668569D01*
X136212000Y-80617560D01*
X134712000Y-80617560D01*
X134476683Y-80661838D01*
X134260559Y-80800910D01*
X134115569Y-81013110D01*
X134112919Y-81026197D01*
X133976090Y-80813559D01*
X133763890Y-80668569D01*
X133512000Y-80617560D01*
X132012000Y-80617560D01*
X131776683Y-80661838D01*
X131560559Y-80800910D01*
X131415569Y-81013110D01*
X131364560Y-81265000D01*
X131364560Y-82565000D01*
X131408838Y-82800317D01*
X131547910Y-83016441D01*
X131760110Y-83161431D01*
X131877000Y-83185102D01*
X131877000Y-83941806D01*
X131753355Y-84065235D01*
X131580197Y-84482244D01*
X131579833Y-84899000D01*
X130241000Y-84899000D01*
X129950161Y-84956852D01*
X129703599Y-85121599D01*
X129002599Y-85822599D01*
X128837852Y-86069161D01*
X128780000Y-86360000D01*
X128780000Y-93665198D01*
X128463198Y-93982000D01*
X125500038Y-93982000D01*
X125845278Y-93637363D01*
X126094716Y-93036648D01*
X126095284Y-92386205D01*
X125846894Y-91785057D01*
X125387363Y-91324722D01*
X124786648Y-91075284D01*
X124136205Y-91074716D01*
X123535057Y-91323106D01*
X123468426Y-91389621D01*
X123384090Y-91258559D01*
X123171890Y-91113569D01*
X122920000Y-91062560D01*
X120920000Y-91062560D01*
X120684683Y-91106838D01*
X120468559Y-91245910D01*
X120323569Y-91458110D01*
X120272560Y-91710000D01*
X120272560Y-91950000D01*
X120201742Y-91950000D01*
X120178162Y-91824683D01*
X120039090Y-91608559D01*
X119826890Y-91463569D01*
X119575000Y-91412560D01*
X118075000Y-91412560D01*
X117839683Y-91456838D01*
X117623559Y-91595910D01*
X117478569Y-91808110D01*
X117471809Y-91841490D01*
X117413327Y-91700301D01*
X117234698Y-91521673D01*
X117001309Y-91425000D01*
X116410750Y-91425000D01*
X116252000Y-91583750D01*
X116252000Y-92583000D01*
X116272000Y-92583000D01*
X116272000Y-92837000D01*
X116252000Y-92837000D01*
X116252000Y-93836250D01*
X116410750Y-93995000D01*
X117001309Y-93995000D01*
X117234698Y-93898327D01*
X117413327Y-93719699D01*
X117469654Y-93583713D01*
X117471838Y-93595317D01*
X117610910Y-93811441D01*
X117823110Y-93956431D01*
X118075000Y-94007440D01*
X119575000Y-94007440D01*
X119810317Y-93963162D01*
X120026441Y-93824090D01*
X120171431Y-93611890D01*
X120200164Y-93470000D01*
X120272560Y-93470000D01*
X120272560Y-93710000D01*
X120316838Y-93945317D01*
X120455910Y-94161441D01*
X120579388Y-94245810D01*
X119096599Y-95728599D01*
X118931852Y-95975161D01*
X118874000Y-96266000D01*
X118874000Y-96533666D01*
X118790310Y-96499000D01*
X118649750Y-96499000D01*
X118491000Y-96657750D01*
X118491000Y-97757000D01*
X118511000Y-97757000D01*
X118511000Y-98011000D01*
X118491000Y-98011000D01*
X118491000Y-99110250D01*
X118649750Y-99269000D01*
X118790310Y-99269000D01*
X119007122Y-99179194D01*
X119042896Y-99203637D01*
X118757081Y-99488954D01*
X118599180Y-99869223D01*
X118598821Y-100280971D01*
X118756058Y-100661515D01*
X119046954Y-100952919D01*
X119427223Y-101110820D01*
X119594164Y-101110966D01*
X120144000Y-101660802D01*
X120144000Y-101929086D01*
X119934000Y-101886560D01*
X119334000Y-101886560D01*
X119098683Y-101930838D01*
X118999472Y-101994678D01*
X118915890Y-101937569D01*
X118664000Y-101886560D01*
X118064000Y-101886560D01*
X117979000Y-101902554D01*
X117979000Y-100711005D01*
X117979001Y-100711000D01*
X117922810Y-100428516D01*
X117911633Y-100372325D01*
X117719790Y-100085210D01*
X117719787Y-100085208D01*
X116937790Y-99303210D01*
X116886591Y-99269000D01*
X116842440Y-99239500D01*
X116842440Y-99179000D01*
X116798162Y-98943683D01*
X116659090Y-98727559D01*
X116590994Y-98681031D01*
X116733327Y-98538698D01*
X116830000Y-98305309D01*
X116830000Y-98169750D01*
X117429000Y-98169750D01*
X117429000Y-98760309D01*
X117525673Y-98993698D01*
X117704301Y-99172327D01*
X117937690Y-99269000D01*
X118078250Y-99269000D01*
X118237000Y-99110250D01*
X118237000Y-98011000D01*
X117587750Y-98011000D01*
X117429000Y-98169750D01*
X116830000Y-98169750D01*
X116830000Y-97714750D01*
X116671250Y-97556000D01*
X115697000Y-97556000D01*
X115697000Y-97576000D01*
X115443000Y-97576000D01*
X115443000Y-97556000D01*
X114468750Y-97556000D01*
X114310000Y-97714750D01*
X114310000Y-98305309D01*
X114406673Y-98538698D01*
X114547910Y-98679936D01*
X114493559Y-98714910D01*
X114348569Y-98927110D01*
X114324898Y-99044000D01*
X114011579Y-99044000D01*
X113407000Y-98439420D01*
X113407000Y-96552691D01*
X114310000Y-96552691D01*
X114310000Y-97143250D01*
X114468750Y-97302000D01*
X115443000Y-97302000D01*
X115443000Y-96202750D01*
X115697000Y-96202750D01*
X115697000Y-97302000D01*
X116671250Y-97302000D01*
X116830000Y-97143250D01*
X116830000Y-97007691D01*
X117429000Y-97007691D01*
X117429000Y-97598250D01*
X117587750Y-97757000D01*
X118237000Y-97757000D01*
X118237000Y-96657750D01*
X118078250Y-96499000D01*
X117937690Y-96499000D01*
X117704301Y-96595673D01*
X117525673Y-96774302D01*
X117429000Y-97007691D01*
X116830000Y-97007691D01*
X116830000Y-96552691D01*
X116733327Y-96319302D01*
X116554699Y-96140673D01*
X116321310Y-96044000D01*
X115855750Y-96044000D01*
X115697000Y-96202750D01*
X115443000Y-96202750D01*
X115284250Y-96044000D01*
X114818690Y-96044000D01*
X114585301Y-96140673D01*
X114406673Y-96319302D01*
X114310000Y-96552691D01*
X113407000Y-96552691D01*
X113407000Y-92995750D01*
X114740000Y-92995750D01*
X114740000Y-93486310D01*
X114836673Y-93719699D01*
X115015302Y-93898327D01*
X115248691Y-93995000D01*
X115839250Y-93995000D01*
X115998000Y-93836250D01*
X115998000Y-92837000D01*
X114898750Y-92837000D01*
X114740000Y-92995750D01*
X113407000Y-92995750D01*
X113407000Y-91933690D01*
X114740000Y-91933690D01*
X114740000Y-92424250D01*
X114898750Y-92583000D01*
X115998000Y-92583000D01*
X115998000Y-91583750D01*
X115839250Y-91425000D01*
X115248691Y-91425000D01*
X115015302Y-91521673D01*
X114836673Y-91700301D01*
X114740000Y-91933690D01*
X113407000Y-91933690D01*
X113407000Y-85963564D01*
X116451614Y-85963564D01*
X116965863Y-87208143D01*
X117917248Y-88161190D01*
X119160928Y-88677611D01*
X120507564Y-88678786D01*
X121752143Y-88164537D01*
X122705190Y-87213152D01*
X123221611Y-85969472D01*
X123222786Y-84622836D01*
X122708537Y-83378257D01*
X121757152Y-82425210D01*
X120513472Y-81908789D01*
X119166836Y-81907614D01*
X117922257Y-82421863D01*
X116969210Y-83373248D01*
X116452789Y-84616928D01*
X116451614Y-85963564D01*
X113407000Y-85963564D01*
X113407000Y-75815000D01*
X116396260Y-75815000D01*
X116512971Y-75989670D01*
X116999152Y-76314526D01*
X117572641Y-76428600D01*
X117631359Y-76428600D01*
X118204848Y-76314526D01*
X118670442Y-76003426D01*
X118675238Y-76028917D01*
X118814310Y-76245041D01*
X119026510Y-76390031D01*
X119278400Y-76441040D01*
X121005600Y-76441040D01*
X121240917Y-76396762D01*
X121457041Y-76257690D01*
X121602031Y-76045490D01*
X121653040Y-75793600D01*
X121653040Y-74848842D01*
X127256000Y-80451802D01*
X127256000Y-82100239D01*
X127139081Y-82216954D01*
X126981180Y-82597223D01*
X126980821Y-83008971D01*
X127138058Y-83389515D01*
X127428954Y-83680919D01*
X127809223Y-83838820D01*
X128220971Y-83839179D01*
X128601515Y-83681942D01*
X128892919Y-83391046D01*
X129050820Y-83010777D01*
X129051179Y-82599029D01*
X128893942Y-82218485D01*
X128776000Y-82100337D01*
X128776000Y-80137000D01*
X128718148Y-79846161D01*
X128718148Y-79846160D01*
X128553401Y-79599599D01*
X121615846Y-72662044D01*
X121669959Y-72390000D01*
X121555885Y-71816511D01*
X121231029Y-71330330D01*
X120916248Y-71120000D01*
X121231029Y-70909670D01*
X121555885Y-70423489D01*
X121669959Y-69850000D01*
X121555885Y-69276511D01*
X121231029Y-68790330D01*
X120982000Y-68623934D01*
X120982000Y-66827558D01*
X121207317Y-66785162D01*
X121423441Y-66646090D01*
X121568431Y-66433890D01*
X121619440Y-66182000D01*
X121619440Y-64882000D01*
X121575162Y-64646683D01*
X121436090Y-64430559D01*
X121223890Y-64285569D01*
X120972000Y-64234560D01*
X119472000Y-64234560D01*
X119236683Y-64278838D01*
X119020559Y-64417910D01*
X118875569Y-64630110D01*
X118872919Y-64643197D01*
X118736090Y-64430559D01*
X118523890Y-64285569D01*
X118272000Y-64234560D01*
X116772000Y-64234560D01*
X116536683Y-64278838D01*
X116320559Y-64417910D01*
X116175569Y-64630110D01*
X116172149Y-64647000D01*
X113792005Y-64647000D01*
X113792000Y-64646999D01*
X113453325Y-64714367D01*
X113166210Y-64906210D01*
X113166208Y-64906213D01*
X112470000Y-65602420D01*
X112470000Y-64210000D01*
X125522561Y-64210000D01*
X125387007Y-64412871D01*
X125387007Y-64412871D01*
G37*
X125387007Y-64412871D02*
X125285500Y-64923179D01*
X125285500Y-66140821D01*
X125387007Y-66651129D01*
X125676073Y-67083748D01*
X126108692Y-67372814D01*
X126225021Y-67395953D01*
X125937438Y-68088531D01*
X125936584Y-69067175D01*
X126310306Y-69971652D01*
X127001708Y-70664262D01*
X127905531Y-71039562D01*
X128884175Y-71040416D01*
X129788652Y-70666694D01*
X130481262Y-69975292D01*
X130856562Y-69071469D01*
X130857416Y-68092825D01*
X130483694Y-67188348D01*
X129963255Y-66667000D01*
X136991351Y-66667000D01*
X136472738Y-67184708D01*
X136097438Y-68088531D01*
X136096584Y-69067175D01*
X136470306Y-69971652D01*
X137161708Y-70664262D01*
X138065531Y-71039562D01*
X139044175Y-71040416D01*
X139948652Y-70666694D01*
X140641262Y-69975292D01*
X141016562Y-69071469D01*
X141017416Y-68092825D01*
X140729437Y-67395862D01*
X140845308Y-67372814D01*
X141224000Y-67119781D01*
X141602692Y-67372814D01*
X141629865Y-67378219D01*
X141334918Y-68088531D01*
X141334064Y-69067175D01*
X141707786Y-69971652D01*
X142399188Y-70664262D01*
X143303011Y-71039562D01*
X144281655Y-71040416D01*
X145186132Y-70666694D01*
X145878742Y-69975292D01*
X146254042Y-69071469D01*
X146254896Y-68092825D01*
X145881174Y-67188348D01*
X145360735Y-66667000D01*
X154098251Y-66667000D01*
X153579638Y-67184708D01*
X153204338Y-68088531D01*
X153203484Y-69067175D01*
X153577206Y-69971652D01*
X154268608Y-70664262D01*
X155172431Y-71039562D01*
X156151075Y-71040416D01*
X157055552Y-70666694D01*
X157748162Y-69975292D01*
X158123462Y-69071469D01*
X158124316Y-68092825D01*
X157829585Y-67379522D01*
X157863308Y-67372814D01*
X158295927Y-67083748D01*
X158516233Y-66754035D01*
X161292000Y-69529802D01*
X161292000Y-76651197D01*
X156239401Y-71598599D01*
X155992839Y-71433852D01*
X155702000Y-71376000D01*
X148336000Y-71376000D01*
X148045161Y-71433852D01*
X147798599Y-71598599D01*
X146020599Y-73376599D01*
X145855852Y-73623161D01*
X145834662Y-73729688D01*
X145774163Y-73754686D01*
X145384056Y-74144113D01*
X145172671Y-74653184D01*
X145172190Y-75204398D01*
X145382686Y-75713837D01*
X145772113Y-76103944D01*
X146281184Y-76315329D01*
X146832398Y-76315810D01*
X147341837Y-76105314D01*
X147731944Y-75715887D01*
X147827975Y-75484619D01*
X147922686Y-75713837D01*
X148312113Y-76103944D01*
X148338000Y-76114693D01*
X148338000Y-76181498D01*
X148104816Y-76084671D01*
X147553602Y-76084190D01*
X147044163Y-76294686D01*
X146654056Y-76684113D01*
X146558025Y-76915381D01*
X146463314Y-76686163D01*
X146073887Y-76296056D01*
X145564816Y-76084671D01*
X145013602Y-76084190D01*
X144504163Y-76294686D01*
X144114056Y-76684113D01*
X143902671Y-77193184D01*
X143902190Y-77744398D01*
X144112686Y-78253837D01*
X144346441Y-78488000D01*
X141030802Y-78488000D01*
X140968000Y-78425198D01*
X140968000Y-73914000D01*
X140910148Y-73623161D01*
X140745401Y-73376599D01*
X139602401Y-72233599D01*
X139355839Y-72068852D01*
X139065000Y-72011000D01*
X133731000Y-72011000D01*
X133440161Y-72068852D01*
X133193599Y-72233599D01*
X132050599Y-73376599D01*
X131885852Y-73623161D01*
X131880343Y-73650856D01*
X131597100Y-73533243D01*
X131041339Y-73532758D01*
X130527697Y-73744990D01*
X130134371Y-74137630D01*
X129921243Y-74650900D01*
X129920758Y-75206661D01*
X130132990Y-75720303D01*
X130525630Y-76113629D01*
X131038900Y-76326757D01*
X131594661Y-76327242D01*
X131828000Y-76230829D01*
X131828000Y-76272469D01*
X131797697Y-76284990D01*
X131404371Y-76677630D01*
X131191243Y-77190900D01*
X131190758Y-77746661D01*
X131402990Y-78260303D01*
X131795630Y-78653629D01*
X132308900Y-78866757D01*
X132864661Y-78867242D01*
X133378303Y-78655010D01*
X133771629Y-78262370D01*
X133857949Y-78054488D01*
X133942990Y-78260303D01*
X134335630Y-78653629D01*
X134848900Y-78866757D01*
X135404661Y-78867242D01*
X135918303Y-78655010D01*
X136311629Y-78262370D01*
X136397949Y-78054488D01*
X136482990Y-78260303D01*
X136875630Y-78653629D01*
X136908000Y-78667070D01*
X136908000Y-78740000D01*
X136965852Y-79030839D01*
X137130599Y-79277401D01*
X139670599Y-81817401D01*
X139917160Y-81982148D01*
X139965414Y-81991746D01*
X140208000Y-82040000D01*
X142016137Y-82040000D01*
X142005519Y-82055540D01*
X141954510Y-82307430D01*
X141954510Y-82447860D01*
X141455140Y-82447860D01*
X141164301Y-82505712D01*
X140917739Y-82670459D01*
X140724110Y-82864088D01*
X140575460Y-82762519D01*
X140323570Y-82711510D01*
X138522710Y-82711510D01*
X138287393Y-82755788D01*
X138071269Y-82894860D01*
X137926279Y-83107060D01*
X137875270Y-83358950D01*
X137875270Y-83997202D01*
X137785380Y-83857509D01*
X137573180Y-83712519D01*
X137321290Y-83661510D01*
X137144787Y-83661510D01*
X137123008Y-83552021D01*
X136958261Y-83305459D01*
X136670931Y-83018129D01*
X136808431Y-82816890D01*
X136859440Y-82565000D01*
X136859440Y-81265000D01*
X136815162Y-81029683D01*
X136676090Y-80813559D01*
X136463890Y-80668569D01*
X136212000Y-80617560D01*
X134712000Y-80617560D01*
X134476683Y-80661838D01*
X134260559Y-80800910D01*
X134115569Y-81013110D01*
X134112919Y-81026197D01*
X133976090Y-80813559D01*
X133763890Y-80668569D01*
X133512000Y-80617560D01*
X132012000Y-80617560D01*
X131776683Y-80661838D01*
X131560559Y-80800910D01*
X131415569Y-81013110D01*
X131364560Y-81265000D01*
X131364560Y-82565000D01*
X131408838Y-82800317D01*
X131547910Y-83016441D01*
X131760110Y-83161431D01*
X131877000Y-83185102D01*
X131877000Y-83941806D01*
X131753355Y-84065235D01*
X131580197Y-84482244D01*
X131579833Y-84899000D01*
X130241000Y-84899000D01*
X129950161Y-84956852D01*
X129703599Y-85121599D01*
X129002599Y-85822599D01*
X128837852Y-86069161D01*
X128780000Y-86360000D01*
X128780000Y-93665198D01*
X128463198Y-93982000D01*
X125500038Y-93982000D01*
X125845278Y-93637363D01*
X126094716Y-93036648D01*
X126095284Y-92386205D01*
X125846894Y-91785057D01*
X125387363Y-91324722D01*
X124786648Y-91075284D01*
X124136205Y-91074716D01*
X123535057Y-91323106D01*
X123468426Y-91389621D01*
X123384090Y-91258559D01*
X123171890Y-91113569D01*
X122920000Y-91062560D01*
X120920000Y-91062560D01*
X120684683Y-91106838D01*
X120468559Y-91245910D01*
X120323569Y-91458110D01*
X120272560Y-91710000D01*
X120272560Y-91950000D01*
X120201742Y-91950000D01*
X120178162Y-91824683D01*
X120039090Y-91608559D01*
X119826890Y-91463569D01*
X119575000Y-91412560D01*
X118075000Y-91412560D01*
X117839683Y-91456838D01*
X117623559Y-91595910D01*
X117478569Y-91808110D01*
X117471809Y-91841490D01*
X117413327Y-91700301D01*
X117234698Y-91521673D01*
X117001309Y-91425000D01*
X116410750Y-91425000D01*
X116252000Y-91583750D01*
X116252000Y-92583000D01*
X116272000Y-92583000D01*
X116272000Y-92837000D01*
X116252000Y-92837000D01*
X116252000Y-93836250D01*
X116410750Y-93995000D01*
X117001309Y-93995000D01*
X117234698Y-93898327D01*
X117413327Y-93719699D01*
X117469654Y-93583713D01*
X117471838Y-93595317D01*
X117610910Y-93811441D01*
X117823110Y-93956431D01*
X118075000Y-94007440D01*
X119575000Y-94007440D01*
X119810317Y-93963162D01*
X120026441Y-93824090D01*
X120171431Y-93611890D01*
X120200164Y-93470000D01*
X120272560Y-93470000D01*
X120272560Y-93710000D01*
X120316838Y-93945317D01*
X120455910Y-94161441D01*
X120579388Y-94245810D01*
X119096599Y-95728599D01*
X118931852Y-95975161D01*
X118874000Y-96266000D01*
X118874000Y-96533666D01*
X118790310Y-96499000D01*
X118649750Y-96499000D01*
X118491000Y-96657750D01*
X118491000Y-97757000D01*
X118511000Y-97757000D01*
X118511000Y-98011000D01*
X118491000Y-98011000D01*
X118491000Y-99110250D01*
X118649750Y-99269000D01*
X118790310Y-99269000D01*
X119007122Y-99179194D01*
X119042896Y-99203637D01*
X118757081Y-99488954D01*
X118599180Y-99869223D01*
X118598821Y-100280971D01*
X118756058Y-100661515D01*
X119046954Y-100952919D01*
X119427223Y-101110820D01*
X119594164Y-101110966D01*
X120144000Y-101660802D01*
X120144000Y-101929086D01*
X119934000Y-101886560D01*
X119334000Y-101886560D01*
X119098683Y-101930838D01*
X118999472Y-101994678D01*
X118915890Y-101937569D01*
X118664000Y-101886560D01*
X118064000Y-101886560D01*
X117979000Y-101902554D01*
X117979000Y-100711005D01*
X117979001Y-100711000D01*
X117922810Y-100428516D01*
X117911633Y-100372325D01*
X117719790Y-100085210D01*
X117719787Y-100085208D01*
X116937790Y-99303210D01*
X116886591Y-99269000D01*
X116842440Y-99239500D01*
X116842440Y-99179000D01*
X116798162Y-98943683D01*
X116659090Y-98727559D01*
X116590994Y-98681031D01*
X116733327Y-98538698D01*
X116830000Y-98305309D01*
X116830000Y-98169750D01*
X117429000Y-98169750D01*
X117429000Y-98760309D01*
X117525673Y-98993698D01*
X117704301Y-99172327D01*
X117937690Y-99269000D01*
X118078250Y-99269000D01*
X118237000Y-99110250D01*
X118237000Y-98011000D01*
X117587750Y-98011000D01*
X117429000Y-98169750D01*
X116830000Y-98169750D01*
X116830000Y-97714750D01*
X116671250Y-97556000D01*
X115697000Y-97556000D01*
X115697000Y-97576000D01*
X115443000Y-97576000D01*
X115443000Y-97556000D01*
X114468750Y-97556000D01*
X114310000Y-97714750D01*
X114310000Y-98305309D01*
X114406673Y-98538698D01*
X114547910Y-98679936D01*
X114493559Y-98714910D01*
X114348569Y-98927110D01*
X114324898Y-99044000D01*
X114011579Y-99044000D01*
X113407000Y-98439420D01*
X113407000Y-96552691D01*
X114310000Y-96552691D01*
X114310000Y-97143250D01*
X114468750Y-97302000D01*
X115443000Y-97302000D01*
X115443000Y-96202750D01*
X115697000Y-96202750D01*
X115697000Y-97302000D01*
X116671250Y-97302000D01*
X116830000Y-97143250D01*
X116830000Y-97007691D01*
X117429000Y-97007691D01*
X117429000Y-97598250D01*
X117587750Y-97757000D01*
X118237000Y-97757000D01*
X118237000Y-96657750D01*
X118078250Y-96499000D01*
X117937690Y-96499000D01*
X117704301Y-96595673D01*
X117525673Y-96774302D01*
X117429000Y-97007691D01*
X116830000Y-97007691D01*
X116830000Y-96552691D01*
X116733327Y-96319302D01*
X116554699Y-96140673D01*
X116321310Y-96044000D01*
X115855750Y-96044000D01*
X115697000Y-96202750D01*
X115443000Y-96202750D01*
X115284250Y-96044000D01*
X114818690Y-96044000D01*
X114585301Y-96140673D01*
X114406673Y-96319302D01*
X114310000Y-96552691D01*
X113407000Y-96552691D01*
X113407000Y-92995750D01*
X114740000Y-92995750D01*
X114740000Y-93486310D01*
X114836673Y-93719699D01*
X115015302Y-93898327D01*
X115248691Y-93995000D01*
X115839250Y-93995000D01*
X115998000Y-93836250D01*
X115998000Y-92837000D01*
X114898750Y-92837000D01*
X114740000Y-92995750D01*
X113407000Y-92995750D01*
X113407000Y-91933690D01*
X114740000Y-91933690D01*
X114740000Y-92424250D01*
X114898750Y-92583000D01*
X115998000Y-92583000D01*
X115998000Y-91583750D01*
X115839250Y-91425000D01*
X115248691Y-91425000D01*
X115015302Y-91521673D01*
X114836673Y-91700301D01*
X114740000Y-91933690D01*
X113407000Y-91933690D01*
X113407000Y-85963564D01*
X116451614Y-85963564D01*
X116965863Y-87208143D01*
X117917248Y-88161190D01*
X119160928Y-88677611D01*
X120507564Y-88678786D01*
X121752143Y-88164537D01*
X122705190Y-87213152D01*
X123221611Y-85969472D01*
X123222786Y-84622836D01*
X122708537Y-83378257D01*
X121757152Y-82425210D01*
X120513472Y-81908789D01*
X119166836Y-81907614D01*
X117922257Y-82421863D01*
X116969210Y-83373248D01*
X116452789Y-84616928D01*
X116451614Y-85963564D01*
X113407000Y-85963564D01*
X113407000Y-75815000D01*
X116396260Y-75815000D01*
X116512971Y-75989670D01*
X116999152Y-76314526D01*
X117572641Y-76428600D01*
X117631359Y-76428600D01*
X118204848Y-76314526D01*
X118670442Y-76003426D01*
X118675238Y-76028917D01*
X118814310Y-76245041D01*
X119026510Y-76390031D01*
X119278400Y-76441040D01*
X121005600Y-76441040D01*
X121240917Y-76396762D01*
X121457041Y-76257690D01*
X121602031Y-76045490D01*
X121653040Y-75793600D01*
X121653040Y-74848842D01*
X127256000Y-80451802D01*
X127256000Y-82100239D01*
X127139081Y-82216954D01*
X126981180Y-82597223D01*
X126980821Y-83008971D01*
X127138058Y-83389515D01*
X127428954Y-83680919D01*
X127809223Y-83838820D01*
X128220971Y-83839179D01*
X128601515Y-83681942D01*
X128892919Y-83391046D01*
X129050820Y-83010777D01*
X129051179Y-82599029D01*
X128893942Y-82218485D01*
X128776000Y-82100337D01*
X128776000Y-80137000D01*
X128718148Y-79846161D01*
X128718148Y-79846160D01*
X128553401Y-79599599D01*
X121615846Y-72662044D01*
X121669959Y-72390000D01*
X121555885Y-71816511D01*
X121231029Y-71330330D01*
X120916248Y-71120000D01*
X121231029Y-70909670D01*
X121555885Y-70423489D01*
X121669959Y-69850000D01*
X121555885Y-69276511D01*
X121231029Y-68790330D01*
X120982000Y-68623934D01*
X120982000Y-66827558D01*
X121207317Y-66785162D01*
X121423441Y-66646090D01*
X121568431Y-66433890D01*
X121619440Y-66182000D01*
X121619440Y-64882000D01*
X121575162Y-64646683D01*
X121436090Y-64430559D01*
X121223890Y-64285569D01*
X120972000Y-64234560D01*
X119472000Y-64234560D01*
X119236683Y-64278838D01*
X119020559Y-64417910D01*
X118875569Y-64630110D01*
X118872919Y-64643197D01*
X118736090Y-64430559D01*
X118523890Y-64285569D01*
X118272000Y-64234560D01*
X116772000Y-64234560D01*
X116536683Y-64278838D01*
X116320559Y-64417910D01*
X116175569Y-64630110D01*
X116172149Y-64647000D01*
X113792005Y-64647000D01*
X113792000Y-64646999D01*
X113453325Y-64714367D01*
X113166210Y-64906210D01*
X113166208Y-64906213D01*
X112470000Y-65602420D01*
X112470000Y-64210000D01*
X125522561Y-64210000D01*
X125387007Y-64412871D01*
G36*
X145684716Y-92144795D02*
X145933106Y-92745943D01*
X146392637Y-93206278D01*
X146560000Y-93275773D01*
X146560000Y-93472000D01*
X146617852Y-93762839D01*
X146782599Y-94009401D01*
X147290599Y-94517401D01*
X147365635Y-94567539D01*
X146996205Y-94567216D01*
X146395057Y-94815606D01*
X145934722Y-95275137D01*
X145685284Y-95875852D01*
X145684716Y-96526295D01*
X145933106Y-97127443D01*
X146392637Y-97587778D01*
X146597559Y-97672869D01*
X146558000Y-97665000D01*
X144049490Y-97665000D01*
X144049490Y-97547430D01*
X144005212Y-97312113D01*
X143866140Y-97095989D01*
X143653940Y-96950999D01*
X143402050Y-96899990D01*
X142601950Y-96899990D01*
X142366633Y-96944268D01*
X142150509Y-97083340D01*
X142005519Y-97295540D01*
X141954510Y-97547430D01*
X141954510Y-97687860D01*
X141455140Y-97687860D01*
X141164301Y-97745712D01*
X140917739Y-97910459D01*
X140724110Y-98104088D01*
X140575460Y-98002519D01*
X140323570Y-97951510D01*
X138522710Y-97951510D01*
X138287393Y-97995788D01*
X138071269Y-98134860D01*
X137926279Y-98347060D01*
X137875270Y-98598950D01*
X137875270Y-99237202D01*
X137785380Y-99097509D01*
X137573180Y-98952519D01*
X137321290Y-98901510D01*
X137144787Y-98901510D01*
X137123008Y-98792021D01*
X136958261Y-98545459D01*
X136670931Y-98258129D01*
X136808431Y-98056890D01*
X136859440Y-97805000D01*
X136859440Y-96505000D01*
X136815162Y-96269683D01*
X136676090Y-96053559D01*
X136463890Y-95908569D01*
X136212000Y-95857560D01*
X134712000Y-95857560D01*
X134476683Y-95901838D01*
X134260559Y-96040910D01*
X134115569Y-96253110D01*
X134112919Y-96266197D01*
X133976090Y-96053559D01*
X133763890Y-95908569D01*
X133512000Y-95857560D01*
X132012000Y-95857560D01*
X131810453Y-95895484D01*
X131645767Y-95496914D01*
X131326765Y-95177355D01*
X130909756Y-95004197D01*
X130860648Y-95004154D01*
X131825802Y-94039000D01*
X137999747Y-94039000D01*
X138058620Y-94130491D01*
X138270820Y-94275481D01*
X138522710Y-94326490D01*
X140323570Y-94326490D01*
X140558887Y-94282212D01*
X140725316Y-94175118D01*
X140917739Y-94367541D01*
X141004510Y-94425519D01*
X141004510Y-94730570D01*
X141048788Y-94965887D01*
X141187860Y-95182011D01*
X141400060Y-95327001D01*
X141651950Y-95378010D01*
X142452050Y-95378010D01*
X142687367Y-95333732D01*
X142903491Y-95194660D01*
X142998977Y-95054911D01*
X143013623Y-95090269D01*
X143192252Y-95268897D01*
X143425641Y-95365570D01*
X143666250Y-95365570D01*
X143825000Y-95206820D01*
X143825000Y-93957140D01*
X144079000Y-93957140D01*
X144079000Y-95206820D01*
X144237750Y-95365570D01*
X144478359Y-95365570D01*
X144711748Y-95268897D01*
X144890377Y-95090269D01*
X144987050Y-94856880D01*
X144987050Y-94115890D01*
X144828300Y-93957140D01*
X144079000Y-93957140D01*
X143825000Y-93957140D01*
X143805000Y-93957140D01*
X143805000Y-93703140D01*
X143825000Y-93703140D01*
X143825000Y-92453460D01*
X144079000Y-92453460D01*
X144079000Y-93703140D01*
X144828300Y-93703140D01*
X144987050Y-93544390D01*
X144987050Y-92803400D01*
X144890377Y-92570011D01*
X144711748Y-92391383D01*
X144478359Y-92294710D01*
X144237750Y-92294710D01*
X144079000Y-92453460D01*
X143825000Y-92453460D01*
X143677297Y-92305757D01*
X143853491Y-92192380D01*
X143998481Y-91980180D01*
X144049490Y-91728290D01*
X144049490Y-91692000D01*
X145685111Y-91692000D01*
X145684716Y-92144795D01*
X145684716Y-92144795D01*
G37*
X145684716Y-92144795D02*
X145933106Y-92745943D01*
X146392637Y-93206278D01*
X146560000Y-93275773D01*
X146560000Y-93472000D01*
X146617852Y-93762839D01*
X146782599Y-94009401D01*
X147290599Y-94517401D01*
X147365635Y-94567539D01*
X146996205Y-94567216D01*
X146395057Y-94815606D01*
X145934722Y-95275137D01*
X145685284Y-95875852D01*
X145684716Y-96526295D01*
X145933106Y-97127443D01*
X146392637Y-97587778D01*
X146597559Y-97672869D01*
X146558000Y-97665000D01*
X144049490Y-97665000D01*
X144049490Y-97547430D01*
X144005212Y-97312113D01*
X143866140Y-97095989D01*
X143653940Y-96950999D01*
X143402050Y-96899990D01*
X142601950Y-96899990D01*
X142366633Y-96944268D01*
X142150509Y-97083340D01*
X142005519Y-97295540D01*
X141954510Y-97547430D01*
X141954510Y-97687860D01*
X141455140Y-97687860D01*
X141164301Y-97745712D01*
X140917739Y-97910459D01*
X140724110Y-98104088D01*
X140575460Y-98002519D01*
X140323570Y-97951510D01*
X138522710Y-97951510D01*
X138287393Y-97995788D01*
X138071269Y-98134860D01*
X137926279Y-98347060D01*
X137875270Y-98598950D01*
X137875270Y-99237202D01*
X137785380Y-99097509D01*
X137573180Y-98952519D01*
X137321290Y-98901510D01*
X137144787Y-98901510D01*
X137123008Y-98792021D01*
X136958261Y-98545459D01*
X136670931Y-98258129D01*
X136808431Y-98056890D01*
X136859440Y-97805000D01*
X136859440Y-96505000D01*
X136815162Y-96269683D01*
X136676090Y-96053559D01*
X136463890Y-95908569D01*
X136212000Y-95857560D01*
X134712000Y-95857560D01*
X134476683Y-95901838D01*
X134260559Y-96040910D01*
X134115569Y-96253110D01*
X134112919Y-96266197D01*
X133976090Y-96053559D01*
X133763890Y-95908569D01*
X133512000Y-95857560D01*
X132012000Y-95857560D01*
X131810453Y-95895484D01*
X131645767Y-95496914D01*
X131326765Y-95177355D01*
X130909756Y-95004197D01*
X130860648Y-95004154D01*
X131825802Y-94039000D01*
X137999747Y-94039000D01*
X138058620Y-94130491D01*
X138270820Y-94275481D01*
X138522710Y-94326490D01*
X140323570Y-94326490D01*
X140558887Y-94282212D01*
X140725316Y-94175118D01*
X140917739Y-94367541D01*
X141004510Y-94425519D01*
X141004510Y-94730570D01*
X141048788Y-94965887D01*
X141187860Y-95182011D01*
X141400060Y-95327001D01*
X141651950Y-95378010D01*
X142452050Y-95378010D01*
X142687367Y-95333732D01*
X142903491Y-95194660D01*
X142998977Y-95054911D01*
X143013623Y-95090269D01*
X143192252Y-95268897D01*
X143425641Y-95365570D01*
X143666250Y-95365570D01*
X143825000Y-95206820D01*
X143825000Y-93957140D01*
X144079000Y-93957140D01*
X144079000Y-95206820D01*
X144237750Y-95365570D01*
X144478359Y-95365570D01*
X144711748Y-95268897D01*
X144890377Y-95090269D01*
X144987050Y-94856880D01*
X144987050Y-94115890D01*
X144828300Y-93957140D01*
X144079000Y-93957140D01*
X143825000Y-93957140D01*
X143805000Y-93957140D01*
X143805000Y-93703140D01*
X143825000Y-93703140D01*
X143825000Y-92453460D01*
X144079000Y-92453460D01*
X144079000Y-93703140D01*
X144828300Y-93703140D01*
X144987050Y-93544390D01*
X144987050Y-92803400D01*
X144890377Y-92570011D01*
X144711748Y-92391383D01*
X144478359Y-92294710D01*
X144237750Y-92294710D01*
X144079000Y-92453460D01*
X143825000Y-92453460D01*
X143677297Y-92305757D01*
X143853491Y-92192380D01*
X143998481Y-91980180D01*
X144049490Y-91728290D01*
X144049490Y-91692000D01*
X145685111Y-91692000D01*
X145684716Y-92144795D01*
G36*
X145933106Y-83982943D02*
X146392637Y-84443278D01*
X146560000Y-84512773D01*
X146560000Y-84709000D01*
X146617852Y-84999839D01*
X146782599Y-85246401D01*
X147290599Y-85754401D01*
X147365635Y-85804539D01*
X146996205Y-85804216D01*
X146395057Y-86052606D01*
X145934722Y-86512137D01*
X145685284Y-87112852D01*
X145684716Y-87763295D01*
X145933106Y-88364443D01*
X146392637Y-88824778D01*
X146993352Y-89074216D01*
X147643795Y-89074784D01*
X148244943Y-88826394D01*
X148311574Y-88759879D01*
X148395910Y-88890941D01*
X148608110Y-89035931D01*
X148860000Y-89086940D01*
X150624000Y-89086940D01*
X150624000Y-89916000D01*
X150675232Y-90173560D01*
X148860000Y-90173560D01*
X148624683Y-90217838D01*
X148408559Y-90356910D01*
X148311090Y-90499561D01*
X148247363Y-90435722D01*
X147646648Y-90186284D01*
X146996205Y-90185716D01*
X146785860Y-90272629D01*
X146721839Y-90229852D01*
X146431000Y-90172000D01*
X144049490Y-90172000D01*
X144049490Y-89927430D01*
X144005212Y-89692113D01*
X143866140Y-89475989D01*
X143653940Y-89330999D01*
X143402050Y-89279990D01*
X142601950Y-89279990D01*
X142366633Y-89324268D01*
X142150509Y-89463340D01*
X142005519Y-89675540D01*
X141954510Y-89927430D01*
X141954510Y-90067860D01*
X141455140Y-90067860D01*
X141164301Y-90125712D01*
X140917739Y-90290459D01*
X140724110Y-90484088D01*
X140575460Y-90382519D01*
X140323570Y-90331510D01*
X138522710Y-90331510D01*
X138287393Y-90375788D01*
X138071269Y-90514860D01*
X137926279Y-90727060D01*
X137875270Y-90978950D01*
X137875270Y-91617202D01*
X137785380Y-91477509D01*
X137573180Y-91332519D01*
X137321290Y-91281510D01*
X137144787Y-91281510D01*
X137123008Y-91172021D01*
X136958261Y-90925459D01*
X136670931Y-90638129D01*
X136808431Y-90436890D01*
X136859440Y-90185000D01*
X136859440Y-88885000D01*
X136815162Y-88649683D01*
X136676090Y-88433559D01*
X136463890Y-88288569D01*
X136212000Y-88237560D01*
X134712000Y-88237560D01*
X134476683Y-88281838D01*
X134260559Y-88420910D01*
X134115569Y-88633110D01*
X134112919Y-88646197D01*
X133976090Y-88433559D01*
X133763890Y-88288569D01*
X133512000Y-88237560D01*
X132012000Y-88237560D01*
X131810453Y-88275484D01*
X131645767Y-87876914D01*
X131326765Y-87557355D01*
X130909756Y-87384197D01*
X130458225Y-87383803D01*
X130300000Y-87449180D01*
X130300000Y-86674802D01*
X130555802Y-86419000D01*
X137999747Y-86419000D01*
X138058620Y-86510491D01*
X138270820Y-86655481D01*
X138522710Y-86706490D01*
X140323570Y-86706490D01*
X140558887Y-86662212D01*
X140725316Y-86555118D01*
X140917739Y-86747541D01*
X141004510Y-86805519D01*
X141004510Y-87110570D01*
X141048788Y-87345887D01*
X141187860Y-87562011D01*
X141400060Y-87707001D01*
X141651950Y-87758010D01*
X142452050Y-87758010D01*
X142687367Y-87713732D01*
X142903491Y-87574660D01*
X142998977Y-87434911D01*
X143013623Y-87470269D01*
X143192252Y-87648897D01*
X143425641Y-87745570D01*
X143666250Y-87745570D01*
X143825000Y-87586820D01*
X143825000Y-86337140D01*
X144079000Y-86337140D01*
X144079000Y-87586820D01*
X144237750Y-87745570D01*
X144478359Y-87745570D01*
X144711748Y-87648897D01*
X144890377Y-87470269D01*
X144987050Y-87236880D01*
X144987050Y-86495890D01*
X144828300Y-86337140D01*
X144079000Y-86337140D01*
X143825000Y-86337140D01*
X143805000Y-86337140D01*
X143805000Y-86083140D01*
X143825000Y-86083140D01*
X143825000Y-84833460D01*
X144079000Y-84833460D01*
X144079000Y-86083140D01*
X144828300Y-86083140D01*
X144987050Y-85924390D01*
X144987050Y-85183400D01*
X144890377Y-84950011D01*
X144711748Y-84771383D01*
X144478359Y-84674710D01*
X144237750Y-84674710D01*
X144079000Y-84833460D01*
X143825000Y-84833460D01*
X143677297Y-84685757D01*
X143853491Y-84572380D01*
X143998481Y-84360180D01*
X144049490Y-84108290D01*
X144049490Y-83945000D01*
X145917428Y-83945000D01*
X145933106Y-83982943D01*
X145933106Y-83982943D01*
G37*
X145933106Y-83982943D02*
X146392637Y-84443278D01*
X146560000Y-84512773D01*
X146560000Y-84709000D01*
X146617852Y-84999839D01*
X146782599Y-85246401D01*
X147290599Y-85754401D01*
X147365635Y-85804539D01*
X146996205Y-85804216D01*
X146395057Y-86052606D01*
X145934722Y-86512137D01*
X145685284Y-87112852D01*
X145684716Y-87763295D01*
X145933106Y-88364443D01*
X146392637Y-88824778D01*
X146993352Y-89074216D01*
X147643795Y-89074784D01*
X148244943Y-88826394D01*
X148311574Y-88759879D01*
X148395910Y-88890941D01*
X148608110Y-89035931D01*
X148860000Y-89086940D01*
X150624000Y-89086940D01*
X150624000Y-89916000D01*
X150675232Y-90173560D01*
X148860000Y-90173560D01*
X148624683Y-90217838D01*
X148408559Y-90356910D01*
X148311090Y-90499561D01*
X148247363Y-90435722D01*
X147646648Y-90186284D01*
X146996205Y-90185716D01*
X146785860Y-90272629D01*
X146721839Y-90229852D01*
X146431000Y-90172000D01*
X144049490Y-90172000D01*
X144049490Y-89927430D01*
X144005212Y-89692113D01*
X143866140Y-89475989D01*
X143653940Y-89330999D01*
X143402050Y-89279990D01*
X142601950Y-89279990D01*
X142366633Y-89324268D01*
X142150509Y-89463340D01*
X142005519Y-89675540D01*
X141954510Y-89927430D01*
X141954510Y-90067860D01*
X141455140Y-90067860D01*
X141164301Y-90125712D01*
X140917739Y-90290459D01*
X140724110Y-90484088D01*
X140575460Y-90382519D01*
X140323570Y-90331510D01*
X138522710Y-90331510D01*
X138287393Y-90375788D01*
X138071269Y-90514860D01*
X137926279Y-90727060D01*
X137875270Y-90978950D01*
X137875270Y-91617202D01*
X137785380Y-91477509D01*
X137573180Y-91332519D01*
X137321290Y-91281510D01*
X137144787Y-91281510D01*
X137123008Y-91172021D01*
X136958261Y-90925459D01*
X136670931Y-90638129D01*
X136808431Y-90436890D01*
X136859440Y-90185000D01*
X136859440Y-88885000D01*
X136815162Y-88649683D01*
X136676090Y-88433559D01*
X136463890Y-88288569D01*
X136212000Y-88237560D01*
X134712000Y-88237560D01*
X134476683Y-88281838D01*
X134260559Y-88420910D01*
X134115569Y-88633110D01*
X134112919Y-88646197D01*
X133976090Y-88433559D01*
X133763890Y-88288569D01*
X133512000Y-88237560D01*
X132012000Y-88237560D01*
X131810453Y-88275484D01*
X131645767Y-87876914D01*
X131326765Y-87557355D01*
X130909756Y-87384197D01*
X130458225Y-87383803D01*
X130300000Y-87449180D01*
X130300000Y-86674802D01*
X130555802Y-86419000D01*
X137999747Y-86419000D01*
X138058620Y-86510491D01*
X138270820Y-86655481D01*
X138522710Y-86706490D01*
X140323570Y-86706490D01*
X140558887Y-86662212D01*
X140725316Y-86555118D01*
X140917739Y-86747541D01*
X141004510Y-86805519D01*
X141004510Y-87110570D01*
X141048788Y-87345887D01*
X141187860Y-87562011D01*
X141400060Y-87707001D01*
X141651950Y-87758010D01*
X142452050Y-87758010D01*
X142687367Y-87713732D01*
X142903491Y-87574660D01*
X142998977Y-87434911D01*
X143013623Y-87470269D01*
X143192252Y-87648897D01*
X143425641Y-87745570D01*
X143666250Y-87745570D01*
X143825000Y-87586820D01*
X143825000Y-86337140D01*
X144079000Y-86337140D01*
X144079000Y-87586820D01*
X144237750Y-87745570D01*
X144478359Y-87745570D01*
X144711748Y-87648897D01*
X144890377Y-87470269D01*
X144987050Y-87236880D01*
X144987050Y-86495890D01*
X144828300Y-86337140D01*
X144079000Y-86337140D01*
X143825000Y-86337140D01*
X143805000Y-86337140D01*
X143805000Y-86083140D01*
X143825000Y-86083140D01*
X143825000Y-84833460D01*
X144079000Y-84833460D01*
X144079000Y-86083140D01*
X144828300Y-86083140D01*
X144987050Y-85924390D01*
X144987050Y-85183400D01*
X144890377Y-84950011D01*
X144711748Y-84771383D01*
X144478359Y-84674710D01*
X144237750Y-84674710D01*
X144079000Y-84833460D01*
X143825000Y-84833460D01*
X143677297Y-84685757D01*
X143853491Y-84572380D01*
X143998481Y-84360180D01*
X144049490Y-84108290D01*
X144049490Y-83945000D01*
X145917428Y-83945000D01*
X145933106Y-83982943D01*
G36*
X116168838Y-66417317D02*
X116307910Y-66633441D01*
X116520110Y-66778431D01*
X116772000Y-66829440D01*
X118272000Y-66829440D01*
X118507317Y-66785162D01*
X118723441Y-66646090D01*
X118868431Y-66433890D01*
X118871081Y-66420803D01*
X119007910Y-66633441D01*
X119220110Y-66778431D01*
X119462000Y-66827415D01*
X119462000Y-68517025D01*
X119052971Y-68790330D01*
X118872008Y-69061161D01*
X118490490Y-68643179D01*
X117961027Y-68395032D01*
X117729000Y-68515531D01*
X117729000Y-69723000D01*
X117749000Y-69723000D01*
X117749000Y-69977000D01*
X117729000Y-69977000D01*
X117729000Y-69997000D01*
X117475000Y-69997000D01*
X117475000Y-69977000D01*
X116268183Y-69977000D01*
X116147042Y-70209026D01*
X116319312Y-70624947D01*
X116713510Y-71056821D01*
X116836228Y-71114336D01*
X116512971Y-71330330D01*
X116188115Y-71816511D01*
X116074041Y-72390000D01*
X116188115Y-72963489D01*
X116512971Y-73449670D01*
X116827752Y-73660000D01*
X116512971Y-73870330D01*
X116396260Y-74045000D01*
X113407000Y-74045000D01*
X113407000Y-69490974D01*
X116147042Y-69490974D01*
X116268183Y-69723000D01*
X117475000Y-69723000D01*
X117475000Y-68515531D01*
X117242973Y-68395032D01*
X116713510Y-68643179D01*
X116319312Y-69075053D01*
X116147042Y-69490974D01*
X113407000Y-69490974D01*
X113407000Y-67168580D01*
X114158579Y-66417000D01*
X116168778Y-66417000D01*
X116168838Y-66417317D01*
X116168838Y-66417317D01*
G37*
X116168838Y-66417317D02*
X116307910Y-66633441D01*
X116520110Y-66778431D01*
X116772000Y-66829440D01*
X118272000Y-66829440D01*
X118507317Y-66785162D01*
X118723441Y-66646090D01*
X118868431Y-66433890D01*
X118871081Y-66420803D01*
X119007910Y-66633441D01*
X119220110Y-66778431D01*
X119462000Y-66827415D01*
X119462000Y-68517025D01*
X119052971Y-68790330D01*
X118872008Y-69061161D01*
X118490490Y-68643179D01*
X117961027Y-68395032D01*
X117729000Y-68515531D01*
X117729000Y-69723000D01*
X117749000Y-69723000D01*
X117749000Y-69977000D01*
X117729000Y-69977000D01*
X117729000Y-69997000D01*
X117475000Y-69997000D01*
X117475000Y-69977000D01*
X116268183Y-69977000D01*
X116147042Y-70209026D01*
X116319312Y-70624947D01*
X116713510Y-71056821D01*
X116836228Y-71114336D01*
X116512971Y-71330330D01*
X116188115Y-71816511D01*
X116074041Y-72390000D01*
X116188115Y-72963489D01*
X116512971Y-73449670D01*
X116827752Y-73660000D01*
X116512971Y-73870330D01*
X116396260Y-74045000D01*
X113407000Y-74045000D01*
X113407000Y-69490974D01*
X116147042Y-69490974D01*
X116268183Y-69723000D01*
X117475000Y-69723000D01*
X117475000Y-68515531D01*
X117242973Y-68395032D01*
X116713510Y-68643179D01*
X116319312Y-69075053D01*
X116147042Y-69490974D01*
X113407000Y-69490974D01*
X113407000Y-67168580D01*
X114158579Y-66417000D01*
X116168778Y-66417000D01*
X116168838Y-66417317D01*
M02*
