G04 #@! TF.FileFunction,Soldermask,Top*
%FSLAX46Y46*%
G04 Gerber Fmt 4.6, Leading zero omitted, Abs format (unit mm)*
G04 Created by KiCad (PCBNEW 4.0.2+dfsg1-stable) date Sat 10 Feb 2018 12:11:43 PM MST*
%MOMM*%
G01*
G04 APERTURE LIST*
%ADD10C,0.100000*%
%ADD11R,2.127200X2.127200*%
%ADD12O,2.127200X2.127200*%
%ADD13R,1.650000X1.900000*%
%ADD14R,1.310000X1.620000*%
%ADD15R,2.432000X2.432000*%
%ADD16O,2.432000X2.432000*%
%ADD17R,2.400000X2.400000*%
%ADD18C,2.400000*%
%ADD19R,2.200860X1.200100*%
%ADD20R,1.200100X2.200860*%
%ADD21R,1.900000X1.700000*%
%ADD22O,2.700000X1.900000*%
%ADD23C,1.900000*%
%ADD24R,1.000000X1.900000*%
%ADD25O,1.797000X2.940000*%
%ADD26C,4.049980*%
%ADD27R,1.901140X1.901140*%
%ADD28C,1.901140*%
%ADD29C,1.924000*%
G04 APERTURE END LIST*
D10*
D11*
X120142000Y-74930000D03*
D12*
X117602000Y-74930000D03*
X120142000Y-72390000D03*
X117602000Y-72390000D03*
X120142000Y-69850000D03*
X117602000Y-69850000D03*
D13*
X115570000Y-99929000D03*
X115570000Y-97429000D03*
D14*
X155210000Y-92710000D03*
X158480000Y-92710000D03*
X155210000Y-97790000D03*
X158480000Y-97790000D03*
X155210000Y-102870000D03*
X158480000Y-102870000D03*
X155210000Y-107950000D03*
X158480000Y-107950000D03*
X155210000Y-113030000D03*
X158480000Y-113030000D03*
D15*
X114046000Y-108204000D03*
D16*
X114046000Y-110744000D03*
D17*
X149860000Y-83058000D03*
D18*
X147320000Y-83058000D03*
D17*
X149860000Y-87439500D03*
D18*
X147320000Y-87439500D03*
D17*
X149860000Y-91821000D03*
D18*
X147320000Y-91821000D03*
D17*
X149860000Y-96202500D03*
D18*
X147320000Y-96202500D03*
D17*
X149860000Y-100584000D03*
D18*
X147320000Y-100584000D03*
D17*
X149860000Y-104965500D03*
D18*
X147320000Y-104965500D03*
D17*
X149860000Y-109347000D03*
D18*
X147320000Y-109347000D03*
D17*
X149860000Y-113728500D03*
D18*
X147320000Y-113728500D03*
D17*
X149860000Y-118110000D03*
D18*
X147320000Y-118110000D03*
D17*
X121920000Y-92710000D03*
D18*
X124460000Y-92710000D03*
D19*
X139423140Y-85659000D03*
X139423140Y-83759000D03*
X136420860Y-84709000D03*
X139423140Y-93279000D03*
X139423140Y-91379000D03*
X136420860Y-92329000D03*
X139423140Y-100899000D03*
X139423140Y-98999000D03*
X136420860Y-99949000D03*
X139423140Y-108519000D03*
X139423140Y-106619000D03*
X136420860Y-107569000D03*
X139423140Y-116139000D03*
X139423140Y-114239000D03*
X136420860Y-115189000D03*
D20*
X142052000Y-86210140D03*
X143952000Y-86210140D03*
X143002000Y-83207860D03*
X142052000Y-93830140D03*
X143952000Y-93830140D03*
X143002000Y-90827860D03*
X142052000Y-101450140D03*
X143952000Y-101450140D03*
X143002000Y-98447860D03*
X142052000Y-109070140D03*
X143952000Y-109070140D03*
X143002000Y-106067860D03*
X142052000Y-116563140D03*
X143952000Y-116563140D03*
X143002000Y-113560860D03*
D21*
X132762000Y-81915000D03*
X135462000Y-81915000D03*
X132762000Y-89535000D03*
X135462000Y-89535000D03*
X132762000Y-97155000D03*
X135462000Y-97155000D03*
X132762000Y-104775000D03*
X135462000Y-104775000D03*
X132762000Y-112395000D03*
X135462000Y-112395000D03*
X118825000Y-92710000D03*
X116125000Y-92710000D03*
X117522000Y-65532000D03*
X120222000Y-65532000D03*
D22*
X115817000Y-123953200D03*
X130817000Y-123953200D03*
X130817000Y-117753200D03*
D23*
X123317000Y-119603200D03*
X123317000Y-122103200D03*
X125317000Y-119603200D03*
X125317000Y-122103200D03*
X127317000Y-122103200D03*
X127317000Y-119603200D03*
X119317000Y-119603200D03*
X119317000Y-122103200D03*
D22*
X115817000Y-117753200D03*
D24*
X118364000Y-103284000D03*
X119634000Y-103284000D03*
X120904000Y-103284000D03*
X122174000Y-103284000D03*
X123444000Y-103284000D03*
X124714000Y-103284000D03*
X125984000Y-103284000D03*
X125984000Y-97884000D03*
X124714000Y-97884000D03*
X123444000Y-97884000D03*
X122174000Y-97884000D03*
X120904000Y-97884000D03*
X119634000Y-97884000D03*
X118364000Y-97884000D03*
D25*
X157353000Y-65532000D03*
D26*
X143794480Y-68580000D03*
X155663900Y-68580000D03*
D27*
X154178000Y-74930000D03*
D28*
X152908000Y-77470000D03*
X151638000Y-74930000D03*
X150368000Y-77470000D03*
X149098000Y-74930000D03*
X147828000Y-77470000D03*
X146558000Y-74930000D03*
X145288000Y-77470000D03*
D25*
X142113000Y-65532000D03*
D29*
X132858000Y-74930000D03*
X135398000Y-74930000D03*
X130318000Y-74930000D03*
X136668000Y-77470000D03*
X134128000Y-77470000D03*
X131588000Y-77470000D03*
D25*
X126619000Y-65532000D03*
X140335000Y-65532000D03*
D26*
X128397000Y-68580000D03*
X138557000Y-68580000D03*
M02*
