M48
;DRILL file {KiCad 4.0.2+dfsg1-stable} date Sat 24 Feb 2018 03:40:30 PM MST
;FORMAT={-:-/ absolute / inch / decimal}
FMAT,2
INCH,TZ
T1C0.012
T2C0.020
T3C0.030
T4C0.031
T5C0.032
T6C0.035
T7C0.039
T8C0.040
T9C0.106
T10C0.217
%
G90
G05
M72
T1
X4.71Y-3.928
X4.76Y-3.898
X4.81Y-3.993
X4.86Y-3.928
X4.91Y-3.778
X4.96Y-3.778
X4.96Y-3.993
X5.Y-4.183
X5.Y-4.388
X5.04Y-3.248
X5.145Y-3.883
T2
X4.485Y-3.858
X4.49Y-2.633
X4.56Y-2.888
X4.57Y-3.548
X4.86Y-2.633
X5.06Y-4.578
X5.145Y-3.473
X5.145Y-3.773
X5.145Y-4.073
X5.145Y-4.338
X5.225Y-3.323
X5.225Y-3.623
X5.225Y-3.923
X5.225Y-4.223
X5.225Y-4.498
X5.525Y-4.738
X5.67Y-3.473
X5.67Y-3.773
X5.67Y-4.073
X5.67Y-4.378
X5.72Y-3.323
X5.72Y-3.623
X5.72Y-3.923
X5.72Y-4.223
T4
X4.6975Y-4.6968
X4.6975Y-4.7952
X4.855Y-4.6968
X4.855Y-4.7952
X4.9337Y-4.6968
X4.9337Y-4.7952
X5.0125Y-4.6968
X5.0125Y-4.7952
T5
X5.1306Y-2.95
X5.1806Y-3.05
X5.2306Y-2.95
X5.2806Y-3.05
X5.3306Y-2.95
X5.3806Y-3.05
T6
X5.72Y-3.05
X5.77Y-2.95
X5.82Y-3.05
X5.87Y-2.95
X5.92Y-3.05
X5.97Y-2.95
X6.02Y-3.05
X6.07Y-2.95
T7
X4.8Y-3.638
X4.9Y-3.638
X5.8Y-3.258
X5.8Y-3.4305
X5.8Y-3.603
X5.8Y-3.7755
X5.8Y-3.948
X5.8Y-4.1205
X5.8Y-4.293
X5.8Y-4.4655
X5.8Y-4.638
X5.9Y-3.258
X5.9Y-3.4305
X5.9Y-3.603
X5.9Y-3.7755
X5.9Y-3.948
X5.9Y-4.1205
X5.9Y-4.293
X5.9Y-4.4655
X5.9Y-4.638
T8
X4.49Y-4.248
X4.49Y-4.348
X4.63Y-2.738
X4.63Y-2.838
X4.63Y-2.938
X4.73Y-2.738
X4.73Y-2.838
X4.73Y-2.938
T9
X4.49Y-4.05
T10
X4.6654Y-3.3463
X4.7638Y-4.3305
X6.2008Y-3.3463
X6.2008Y-4.7746
T3
X4.985Y-2.6025G85X4.985Y-2.5575
G05
X5.525Y-2.6025G85X5.525Y-2.5575
G05
X5.595Y-2.6025G85X5.595Y-2.5575
G05
X6.195Y-2.6025G85X6.195Y-2.5575
G05
T4
X4.544Y-4.624G85X4.5755Y-4.624
G05
X4.544Y-4.868G85X4.5755Y-4.868
G05
X5.1345Y-4.624G85X5.166Y-4.624
G05
X5.1345Y-4.868G85X5.166Y-4.868
G05
T0
M30
