G04 #@! TF.FileFunction,Legend,Bot*
%FSLAX46Y46*%
G04 Gerber Fmt 4.6, Leading zero omitted, Abs format (unit mm)*
G04 Created by KiCad (PCBNEW 4.0.2+dfsg1-stable) date Sat 24 Feb 2018 04:01:08 PM MST*
%MOMM*%
G01*
G04 APERTURE LIST*
%ADD10C,0.100000*%
%ADD11C,0.150000*%
G04 APERTURE END LIST*
D10*
D11*
X133770000Y-120591200D02*
X133770000Y-119591200D01*
X135470000Y-119591200D02*
X135470000Y-120591200D01*
X142410000Y-117770200D02*
X142410000Y-117915200D01*
X138260000Y-117770200D02*
X138260000Y-117915200D01*
X138260000Y-122920200D02*
X138260000Y-122775200D01*
X142410000Y-122920200D02*
X142410000Y-122775200D01*
X142410000Y-117770200D02*
X138260000Y-117770200D01*
X142410000Y-122920200D02*
X138260000Y-122920200D01*
X142410000Y-117915200D02*
X143810000Y-117915200D01*
X141105000Y-115050200D02*
X142105000Y-115050200D01*
X142105000Y-116750200D02*
X141105000Y-116750200D01*
X157162500Y-94945200D02*
X157543500Y-94945200D01*
X156146500Y-94945200D02*
X156527500Y-94945200D01*
X156527500Y-94945200D02*
X157162500Y-95326200D01*
X157162500Y-95326200D02*
X157162500Y-94564200D01*
X157162500Y-94564200D02*
X156527500Y-94945200D01*
X156527500Y-95453200D02*
X156527500Y-94437200D01*
X154845000Y-94045200D02*
X158385000Y-94045200D01*
X154845000Y-95845200D02*
X158385000Y-95845200D01*
X157162500Y-100025200D02*
X157543500Y-100025200D01*
X156146500Y-100025200D02*
X156527500Y-100025200D01*
X156527500Y-100025200D02*
X157162500Y-100406200D01*
X157162500Y-100406200D02*
X157162500Y-99644200D01*
X157162500Y-99644200D02*
X156527500Y-100025200D01*
X156527500Y-100533200D02*
X156527500Y-99517200D01*
X154845000Y-99125200D02*
X158385000Y-99125200D01*
X154845000Y-100925200D02*
X158385000Y-100925200D01*
X157162500Y-105105200D02*
X157543500Y-105105200D01*
X156146500Y-105105200D02*
X156527500Y-105105200D01*
X156527500Y-105105200D02*
X157162500Y-105486200D01*
X157162500Y-105486200D02*
X157162500Y-104724200D01*
X157162500Y-104724200D02*
X156527500Y-105105200D01*
X156527500Y-105613200D02*
X156527500Y-104597200D01*
X154845000Y-104205200D02*
X158385000Y-104205200D01*
X154845000Y-106005200D02*
X158385000Y-106005200D01*
X157162500Y-110185200D02*
X157543500Y-110185200D01*
X156146500Y-110185200D02*
X156527500Y-110185200D01*
X156527500Y-110185200D02*
X157162500Y-110566200D01*
X157162500Y-110566200D02*
X157162500Y-109804200D01*
X157162500Y-109804200D02*
X156527500Y-110185200D01*
X156527500Y-110693200D02*
X156527500Y-109677200D01*
X154845000Y-109285200D02*
X158385000Y-109285200D01*
X154845000Y-111085200D02*
X158385000Y-111085200D01*
X137972800Y-82904380D02*
X137271760Y-82904380D01*
X137271760Y-82904380D02*
X137271760Y-83153300D01*
X137271760Y-85703360D02*
X137271760Y-85904020D01*
X137271760Y-85904020D02*
X137972800Y-85904020D01*
X137972800Y-90524380D02*
X137271760Y-90524380D01*
X137271760Y-90524380D02*
X137271760Y-90773300D01*
X137271760Y-93323360D02*
X137271760Y-93524020D01*
X137271760Y-93524020D02*
X137972800Y-93524020D01*
X137972800Y-98144380D02*
X137271760Y-98144380D01*
X137271760Y-98144380D02*
X137271760Y-98393300D01*
X137271760Y-100943360D02*
X137271760Y-101144020D01*
X137271760Y-101144020D02*
X137972800Y-101144020D01*
X137972800Y-105764380D02*
X137271760Y-105764380D01*
X137271760Y-105764380D02*
X137271760Y-106013300D01*
X137271760Y-108563360D02*
X137271760Y-108764020D01*
X137271760Y-108764020D02*
X137972800Y-108764020D01*
X141502180Y-84353400D02*
X141502180Y-85054440D01*
X141502180Y-85054440D02*
X141751100Y-85054440D01*
X144301160Y-85054440D02*
X144501820Y-85054440D01*
X144501820Y-85054440D02*
X144501820Y-84353400D01*
X141502180Y-91973400D02*
X141502180Y-92674440D01*
X141502180Y-92674440D02*
X141751100Y-92674440D01*
X144301160Y-92674440D02*
X144501820Y-92674440D01*
X144501820Y-92674440D02*
X144501820Y-91973400D01*
X141502180Y-99593400D02*
X141502180Y-100294440D01*
X141502180Y-100294440D02*
X141751100Y-100294440D01*
X144301160Y-100294440D02*
X144501820Y-100294440D01*
X144501820Y-100294440D02*
X144501820Y-99593400D01*
X141502180Y-107213400D02*
X141502180Y-107914440D01*
X141502180Y-107914440D02*
X141751100Y-107914440D01*
X144301160Y-107914440D02*
X144501820Y-107914440D01*
X144501820Y-107914440D02*
X144501820Y-107213400D01*
X134712000Y-86323200D02*
X133512000Y-86323200D01*
X133512000Y-88073200D02*
X134712000Y-88073200D01*
X134712000Y-93943200D02*
X133512000Y-93943200D01*
X133512000Y-95693200D02*
X134712000Y-95693200D01*
X134712000Y-101563200D02*
X133512000Y-101563200D01*
X133512000Y-103313200D02*
X134712000Y-103313200D01*
X134712000Y-109183200D02*
X133512000Y-109183200D01*
X133512000Y-110933200D02*
X134712000Y-110933200D01*
X127543000Y-114616200D02*
X128743000Y-114616200D01*
X128743000Y-112866200D02*
X127543000Y-112866200D01*
X135072381Y-116424534D02*
X135072381Y-115853105D01*
X135072381Y-116138819D02*
X134072381Y-116138819D01*
X134215238Y-116043581D01*
X134310476Y-115948343D01*
X134358095Y-115853105D01*
X134405714Y-117281677D02*
X135072381Y-117281677D01*
X134405714Y-116853105D02*
X134929524Y-116853105D01*
X135024762Y-116900724D01*
X135072381Y-116995962D01*
X135072381Y-117138820D01*
X135024762Y-117234058D01*
X134977143Y-117281677D01*
X142501667Y-123297581D02*
X141835000Y-123297581D01*
X142263572Y-124297581D01*
X141311191Y-123726152D02*
X141406429Y-123678533D01*
X141454048Y-123630914D01*
X141501667Y-123535676D01*
X141501667Y-123488057D01*
X141454048Y-123392819D01*
X141406429Y-123345200D01*
X141311191Y-123297581D01*
X141120714Y-123297581D01*
X141025476Y-123345200D01*
X140977857Y-123392819D01*
X140930238Y-123488057D01*
X140930238Y-123535676D01*
X140977857Y-123630914D01*
X141025476Y-123678533D01*
X141120714Y-123726152D01*
X141311191Y-123726152D01*
X141406429Y-123773771D01*
X141454048Y-123821390D01*
X141501667Y-123916629D01*
X141501667Y-124107105D01*
X141454048Y-124202343D01*
X141406429Y-124249962D01*
X141311191Y-124297581D01*
X141120714Y-124297581D01*
X141025476Y-124249962D01*
X140977857Y-124202343D01*
X140930238Y-124107105D01*
X140930238Y-123916629D01*
X140977857Y-123821390D01*
X141025476Y-123773771D01*
X141120714Y-123726152D01*
X140025476Y-124297581D02*
X140501667Y-124297581D01*
X140501667Y-123297581D01*
X139501667Y-123297581D02*
X139406428Y-123297581D01*
X139311190Y-123345200D01*
X139263571Y-123392819D01*
X139215952Y-123488057D01*
X139168333Y-123678533D01*
X139168333Y-123916629D01*
X139215952Y-124107105D01*
X139263571Y-124202343D01*
X139311190Y-124249962D01*
X139406428Y-124297581D01*
X139501667Y-124297581D01*
X139596905Y-124249962D01*
X139644524Y-124202343D01*
X139692143Y-124107105D01*
X139739762Y-123916629D01*
X139739762Y-123678533D01*
X139692143Y-123488057D01*
X139644524Y-123392819D01*
X139596905Y-123345200D01*
X139501667Y-123297581D01*
X138263571Y-123297581D02*
X138739762Y-123297581D01*
X138787381Y-123773771D01*
X138739762Y-123726152D01*
X138644524Y-123678533D01*
X138406428Y-123678533D01*
X138311190Y-123726152D01*
X138263571Y-123773771D01*
X138215952Y-123869010D01*
X138215952Y-124107105D01*
X138263571Y-124202343D01*
X138311190Y-124249962D01*
X138406428Y-124297581D01*
X138644524Y-124297581D01*
X138739762Y-124249962D01*
X138787381Y-124202343D01*
X141771666Y-114452581D02*
X142343095Y-114452581D01*
X142057381Y-114452581D02*
X142057381Y-113452581D01*
X142152619Y-113595438D01*
X142247857Y-113690676D01*
X142343095Y-113738295D01*
X140914523Y-113785914D02*
X140914523Y-114452581D01*
X141343095Y-113785914D02*
X141343095Y-114309724D01*
X141295476Y-114404962D01*
X141200238Y-114452581D01*
X141057380Y-114452581D01*
X140962142Y-114404962D01*
X140914523Y-114357343D01*
X157583095Y-97397581D02*
X157583095Y-96397581D01*
X157345000Y-96397581D01*
X157202142Y-96445200D01*
X157106904Y-96540438D01*
X157059285Y-96635676D01*
X157011666Y-96826152D01*
X157011666Y-96969010D01*
X157059285Y-97159486D01*
X157106904Y-97254724D01*
X157202142Y-97349962D01*
X157345000Y-97397581D01*
X157583095Y-97397581D01*
X156630714Y-96492819D02*
X156583095Y-96445200D01*
X156487857Y-96397581D01*
X156249761Y-96397581D01*
X156154523Y-96445200D01*
X156106904Y-96492819D01*
X156059285Y-96588057D01*
X156059285Y-96683295D01*
X156106904Y-96826152D01*
X156678333Y-97397581D01*
X156059285Y-97397581D01*
X157583095Y-102477581D02*
X157583095Y-101477581D01*
X157345000Y-101477581D01*
X157202142Y-101525200D01*
X157106904Y-101620438D01*
X157059285Y-101715676D01*
X157011666Y-101906152D01*
X157011666Y-102049010D01*
X157059285Y-102239486D01*
X157106904Y-102334724D01*
X157202142Y-102429962D01*
X157345000Y-102477581D01*
X157583095Y-102477581D01*
X156154523Y-101810914D02*
X156154523Y-102477581D01*
X156392619Y-101429962D02*
X156630714Y-102144248D01*
X156011666Y-102144248D01*
X157583095Y-107557581D02*
X157583095Y-106557581D01*
X157345000Y-106557581D01*
X157202142Y-106605200D01*
X157106904Y-106700438D01*
X157059285Y-106795676D01*
X157011666Y-106986152D01*
X157011666Y-107129010D01*
X157059285Y-107319486D01*
X157106904Y-107414724D01*
X157202142Y-107509962D01*
X157345000Y-107557581D01*
X157583095Y-107557581D01*
X156154523Y-106557581D02*
X156345000Y-106557581D01*
X156440238Y-106605200D01*
X156487857Y-106652819D01*
X156583095Y-106795676D01*
X156630714Y-106986152D01*
X156630714Y-107367105D01*
X156583095Y-107462343D01*
X156535476Y-107509962D01*
X156440238Y-107557581D01*
X156249761Y-107557581D01*
X156154523Y-107509962D01*
X156106904Y-107462343D01*
X156059285Y-107367105D01*
X156059285Y-107129010D01*
X156106904Y-107033771D01*
X156154523Y-106986152D01*
X156249761Y-106938533D01*
X156440238Y-106938533D01*
X156535476Y-106986152D01*
X156583095Y-107033771D01*
X156630714Y-107129010D01*
X157583095Y-112637581D02*
X157583095Y-111637581D01*
X157345000Y-111637581D01*
X157202142Y-111685200D01*
X157106904Y-111780438D01*
X157059285Y-111875676D01*
X157011666Y-112066152D01*
X157011666Y-112209010D01*
X157059285Y-112399486D01*
X157106904Y-112494724D01*
X157202142Y-112589962D01*
X157345000Y-112637581D01*
X157583095Y-112637581D01*
X156440238Y-112066152D02*
X156535476Y-112018533D01*
X156583095Y-111970914D01*
X156630714Y-111875676D01*
X156630714Y-111828057D01*
X156583095Y-111732819D01*
X156535476Y-111685200D01*
X156440238Y-111637581D01*
X156249761Y-111637581D01*
X156154523Y-111685200D01*
X156106904Y-111732819D01*
X156059285Y-111828057D01*
X156059285Y-111875676D01*
X156106904Y-111970914D01*
X156154523Y-112018533D01*
X156249761Y-112066152D01*
X156440238Y-112066152D01*
X156535476Y-112113771D01*
X156583095Y-112161390D01*
X156630714Y-112256629D01*
X156630714Y-112447105D01*
X156583095Y-112542343D01*
X156535476Y-112589962D01*
X156440238Y-112637581D01*
X156249761Y-112637581D01*
X156154523Y-112589962D01*
X156106904Y-112542343D01*
X156059285Y-112447105D01*
X156059285Y-112256629D01*
X156106904Y-112161390D01*
X156154523Y-112113771D01*
X156249761Y-112066152D01*
X134659619Y-84308962D02*
X134612000Y-84213724D01*
X134516762Y-84118486D01*
X134373905Y-83975629D01*
X134326286Y-83880390D01*
X134326286Y-83785152D01*
X134564381Y-83832771D02*
X134516762Y-83737533D01*
X134421524Y-83642295D01*
X134231048Y-83594676D01*
X133897714Y-83594676D01*
X133707238Y-83642295D01*
X133612000Y-83737533D01*
X133564381Y-83832771D01*
X133564381Y-84023248D01*
X133612000Y-84118486D01*
X133707238Y-84213724D01*
X133897714Y-84261343D01*
X134231048Y-84261343D01*
X134421524Y-84213724D01*
X134516762Y-84118486D01*
X134564381Y-84023248D01*
X134564381Y-83832771D01*
X133659619Y-84642295D02*
X133612000Y-84689914D01*
X133564381Y-84785152D01*
X133564381Y-85023248D01*
X133612000Y-85118486D01*
X133659619Y-85166105D01*
X133754857Y-85213724D01*
X133850095Y-85213724D01*
X133992952Y-85166105D01*
X134564381Y-84594676D01*
X134564381Y-85213724D01*
X134659619Y-91928962D02*
X134612000Y-91833724D01*
X134516762Y-91738486D01*
X134373905Y-91595629D01*
X134326286Y-91500390D01*
X134326286Y-91405152D01*
X134564381Y-91452771D02*
X134516762Y-91357533D01*
X134421524Y-91262295D01*
X134231048Y-91214676D01*
X133897714Y-91214676D01*
X133707238Y-91262295D01*
X133612000Y-91357533D01*
X133564381Y-91452771D01*
X133564381Y-91643248D01*
X133612000Y-91738486D01*
X133707238Y-91833724D01*
X133897714Y-91881343D01*
X134231048Y-91881343D01*
X134421524Y-91833724D01*
X134516762Y-91738486D01*
X134564381Y-91643248D01*
X134564381Y-91452771D01*
X133897714Y-92738486D02*
X134564381Y-92738486D01*
X133516762Y-92500390D02*
X134231048Y-92262295D01*
X134231048Y-92881343D01*
X134659619Y-99548962D02*
X134612000Y-99453724D01*
X134516762Y-99358486D01*
X134373905Y-99215629D01*
X134326286Y-99120390D01*
X134326286Y-99025152D01*
X134564381Y-99072771D02*
X134516762Y-98977533D01*
X134421524Y-98882295D01*
X134231048Y-98834676D01*
X133897714Y-98834676D01*
X133707238Y-98882295D01*
X133612000Y-98977533D01*
X133564381Y-99072771D01*
X133564381Y-99263248D01*
X133612000Y-99358486D01*
X133707238Y-99453724D01*
X133897714Y-99501343D01*
X134231048Y-99501343D01*
X134421524Y-99453724D01*
X134516762Y-99358486D01*
X134564381Y-99263248D01*
X134564381Y-99072771D01*
X133564381Y-100358486D02*
X133564381Y-100168009D01*
X133612000Y-100072771D01*
X133659619Y-100025152D01*
X133802476Y-99929914D01*
X133992952Y-99882295D01*
X134373905Y-99882295D01*
X134469143Y-99929914D01*
X134516762Y-99977533D01*
X134564381Y-100072771D01*
X134564381Y-100263248D01*
X134516762Y-100358486D01*
X134469143Y-100406105D01*
X134373905Y-100453724D01*
X134135810Y-100453724D01*
X134040571Y-100406105D01*
X133992952Y-100358486D01*
X133945333Y-100263248D01*
X133945333Y-100072771D01*
X133992952Y-99977533D01*
X134040571Y-99929914D01*
X134135810Y-99882295D01*
X134659619Y-107168962D02*
X134612000Y-107073724D01*
X134516762Y-106978486D01*
X134373905Y-106835629D01*
X134326286Y-106740390D01*
X134326286Y-106645152D01*
X134564381Y-106692771D02*
X134516762Y-106597533D01*
X134421524Y-106502295D01*
X134231048Y-106454676D01*
X133897714Y-106454676D01*
X133707238Y-106502295D01*
X133612000Y-106597533D01*
X133564381Y-106692771D01*
X133564381Y-106883248D01*
X133612000Y-106978486D01*
X133707238Y-107073724D01*
X133897714Y-107121343D01*
X134231048Y-107121343D01*
X134421524Y-107073724D01*
X134516762Y-106978486D01*
X134564381Y-106883248D01*
X134564381Y-106692771D01*
X133992952Y-107692771D02*
X133945333Y-107597533D01*
X133897714Y-107549914D01*
X133802476Y-107502295D01*
X133754857Y-107502295D01*
X133659619Y-107549914D01*
X133612000Y-107597533D01*
X133564381Y-107692771D01*
X133564381Y-107883248D01*
X133612000Y-107978486D01*
X133659619Y-108026105D01*
X133754857Y-108073724D01*
X133802476Y-108073724D01*
X133897714Y-108026105D01*
X133945333Y-107978486D01*
X133992952Y-107883248D01*
X133992952Y-107692771D01*
X134040571Y-107597533D01*
X134088190Y-107549914D01*
X134183429Y-107502295D01*
X134373905Y-107502295D01*
X134469143Y-107549914D01*
X134516762Y-107597533D01*
X134564381Y-107692771D01*
X134564381Y-107883248D01*
X134516762Y-107978486D01*
X134469143Y-108026105D01*
X134373905Y-108073724D01*
X134183429Y-108073724D01*
X134088190Y-108026105D01*
X134040571Y-107978486D01*
X133992952Y-107883248D01*
X141323428Y-87701819D02*
X141418666Y-87654200D01*
X141513904Y-87558962D01*
X141656761Y-87416105D01*
X141752000Y-87368486D01*
X141847238Y-87368486D01*
X141799619Y-87606581D02*
X141894857Y-87558962D01*
X141990095Y-87463724D01*
X142037714Y-87273248D01*
X142037714Y-86939914D01*
X141990095Y-86749438D01*
X141894857Y-86654200D01*
X141799619Y-86606581D01*
X141609142Y-86606581D01*
X141513904Y-86654200D01*
X141418666Y-86749438D01*
X141371047Y-86939914D01*
X141371047Y-87273248D01*
X141418666Y-87463724D01*
X141513904Y-87558962D01*
X141609142Y-87606581D01*
X141799619Y-87606581D01*
X140418666Y-87606581D02*
X140990095Y-87606581D01*
X140704381Y-87606581D02*
X140704381Y-86606581D01*
X140799619Y-86749438D01*
X140894857Y-86844676D01*
X140990095Y-86892295D01*
X139466285Y-87606581D02*
X140037714Y-87606581D01*
X139752000Y-87606581D02*
X139752000Y-86606581D01*
X139847238Y-86749438D01*
X139942476Y-86844676D01*
X140037714Y-86892295D01*
X141323428Y-95321819D02*
X141418666Y-95274200D01*
X141513904Y-95178962D01*
X141656761Y-95036105D01*
X141752000Y-94988486D01*
X141847238Y-94988486D01*
X141799619Y-95226581D02*
X141894857Y-95178962D01*
X141990095Y-95083724D01*
X142037714Y-94893248D01*
X142037714Y-94559914D01*
X141990095Y-94369438D01*
X141894857Y-94274200D01*
X141799619Y-94226581D01*
X141609142Y-94226581D01*
X141513904Y-94274200D01*
X141418666Y-94369438D01*
X141371047Y-94559914D01*
X141371047Y-94893248D01*
X141418666Y-95083724D01*
X141513904Y-95178962D01*
X141609142Y-95226581D01*
X141799619Y-95226581D01*
X140418666Y-95226581D02*
X140990095Y-95226581D01*
X140704381Y-95226581D02*
X140704381Y-94226581D01*
X140799619Y-94369438D01*
X140894857Y-94464676D01*
X140990095Y-94512295D01*
X140085333Y-94226581D02*
X139466285Y-94226581D01*
X139799619Y-94607533D01*
X139656761Y-94607533D01*
X139561523Y-94655152D01*
X139513904Y-94702771D01*
X139466285Y-94798010D01*
X139466285Y-95036105D01*
X139513904Y-95131343D01*
X139561523Y-95178962D01*
X139656761Y-95226581D01*
X139942476Y-95226581D01*
X140037714Y-95178962D01*
X140085333Y-95131343D01*
X141323428Y-102941819D02*
X141418666Y-102894200D01*
X141513904Y-102798962D01*
X141656761Y-102656105D01*
X141752000Y-102608486D01*
X141847238Y-102608486D01*
X141799619Y-102846581D02*
X141894857Y-102798962D01*
X141990095Y-102703724D01*
X142037714Y-102513248D01*
X142037714Y-102179914D01*
X141990095Y-101989438D01*
X141894857Y-101894200D01*
X141799619Y-101846581D01*
X141609142Y-101846581D01*
X141513904Y-101894200D01*
X141418666Y-101989438D01*
X141371047Y-102179914D01*
X141371047Y-102513248D01*
X141418666Y-102703724D01*
X141513904Y-102798962D01*
X141609142Y-102846581D01*
X141799619Y-102846581D01*
X140418666Y-102846581D02*
X140990095Y-102846581D01*
X140704381Y-102846581D02*
X140704381Y-101846581D01*
X140799619Y-101989438D01*
X140894857Y-102084676D01*
X140990095Y-102132295D01*
X139513904Y-101846581D02*
X139990095Y-101846581D01*
X140037714Y-102322771D01*
X139990095Y-102275152D01*
X139894857Y-102227533D01*
X139656761Y-102227533D01*
X139561523Y-102275152D01*
X139513904Y-102322771D01*
X139466285Y-102418010D01*
X139466285Y-102656105D01*
X139513904Y-102751343D01*
X139561523Y-102798962D01*
X139656761Y-102846581D01*
X139894857Y-102846581D01*
X139990095Y-102798962D01*
X140037714Y-102751343D01*
X141323428Y-110561819D02*
X141418666Y-110514200D01*
X141513904Y-110418962D01*
X141656761Y-110276105D01*
X141752000Y-110228486D01*
X141847238Y-110228486D01*
X141799619Y-110466581D02*
X141894857Y-110418962D01*
X141990095Y-110323724D01*
X142037714Y-110133248D01*
X142037714Y-109799914D01*
X141990095Y-109609438D01*
X141894857Y-109514200D01*
X141799619Y-109466581D01*
X141609142Y-109466581D01*
X141513904Y-109514200D01*
X141418666Y-109609438D01*
X141371047Y-109799914D01*
X141371047Y-110133248D01*
X141418666Y-110323724D01*
X141513904Y-110418962D01*
X141609142Y-110466581D01*
X141799619Y-110466581D01*
X140418666Y-110466581D02*
X140990095Y-110466581D01*
X140704381Y-110466581D02*
X140704381Y-109466581D01*
X140799619Y-109609438D01*
X140894857Y-109704676D01*
X140990095Y-109752295D01*
X140085333Y-109466581D02*
X139418666Y-109466581D01*
X139847238Y-110466581D01*
X130778666Y-87650581D02*
X131350095Y-87650581D01*
X131064381Y-87650581D02*
X131064381Y-86650581D01*
X131159619Y-86793438D01*
X131254857Y-86888676D01*
X131350095Y-86936295D01*
X130159619Y-86650581D02*
X130064380Y-86650581D01*
X129969142Y-86698200D01*
X129921523Y-86745819D01*
X129873904Y-86841057D01*
X129826285Y-87031533D01*
X129826285Y-87269629D01*
X129873904Y-87460105D01*
X129921523Y-87555343D01*
X129969142Y-87602962D01*
X130064380Y-87650581D01*
X130159619Y-87650581D01*
X130254857Y-87602962D01*
X130302476Y-87555343D01*
X130350095Y-87460105D01*
X130397714Y-87269629D01*
X130397714Y-87031533D01*
X130350095Y-86841057D01*
X130302476Y-86745819D01*
X130254857Y-86698200D01*
X130159619Y-86650581D01*
X129207238Y-86650581D02*
X129111999Y-86650581D01*
X129016761Y-86698200D01*
X128969142Y-86745819D01*
X128921523Y-86841057D01*
X128873904Y-87031533D01*
X128873904Y-87269629D01*
X128921523Y-87460105D01*
X128969142Y-87555343D01*
X129016761Y-87602962D01*
X129111999Y-87650581D01*
X129207238Y-87650581D01*
X129302476Y-87602962D01*
X129350095Y-87555343D01*
X129397714Y-87460105D01*
X129445333Y-87269629D01*
X129445333Y-87031533D01*
X129397714Y-86841057D01*
X129350095Y-86745819D01*
X129302476Y-86698200D01*
X129207238Y-86650581D01*
X130778666Y-95270581D02*
X131350095Y-95270581D01*
X131064381Y-95270581D02*
X131064381Y-94270581D01*
X131159619Y-94413438D01*
X131254857Y-94508676D01*
X131350095Y-94556295D01*
X130159619Y-94270581D02*
X130064380Y-94270581D01*
X129969142Y-94318200D01*
X129921523Y-94365819D01*
X129873904Y-94461057D01*
X129826285Y-94651533D01*
X129826285Y-94889629D01*
X129873904Y-95080105D01*
X129921523Y-95175343D01*
X129969142Y-95222962D01*
X130064380Y-95270581D01*
X130159619Y-95270581D01*
X130254857Y-95222962D01*
X130302476Y-95175343D01*
X130350095Y-95080105D01*
X130397714Y-94889629D01*
X130397714Y-94651533D01*
X130350095Y-94461057D01*
X130302476Y-94365819D01*
X130254857Y-94318200D01*
X130159619Y-94270581D01*
X129207238Y-94270581D02*
X129111999Y-94270581D01*
X129016761Y-94318200D01*
X128969142Y-94365819D01*
X128921523Y-94461057D01*
X128873904Y-94651533D01*
X128873904Y-94889629D01*
X128921523Y-95080105D01*
X128969142Y-95175343D01*
X129016761Y-95222962D01*
X129111999Y-95270581D01*
X129207238Y-95270581D01*
X129302476Y-95222962D01*
X129350095Y-95175343D01*
X129397714Y-95080105D01*
X129445333Y-94889629D01*
X129445333Y-94651533D01*
X129397714Y-94461057D01*
X129350095Y-94365819D01*
X129302476Y-94318200D01*
X129207238Y-94270581D01*
X130778666Y-102890581D02*
X131350095Y-102890581D01*
X131064381Y-102890581D02*
X131064381Y-101890581D01*
X131159619Y-102033438D01*
X131254857Y-102128676D01*
X131350095Y-102176295D01*
X130159619Y-101890581D02*
X130064380Y-101890581D01*
X129969142Y-101938200D01*
X129921523Y-101985819D01*
X129873904Y-102081057D01*
X129826285Y-102271533D01*
X129826285Y-102509629D01*
X129873904Y-102700105D01*
X129921523Y-102795343D01*
X129969142Y-102842962D01*
X130064380Y-102890581D01*
X130159619Y-102890581D01*
X130254857Y-102842962D01*
X130302476Y-102795343D01*
X130350095Y-102700105D01*
X130397714Y-102509629D01*
X130397714Y-102271533D01*
X130350095Y-102081057D01*
X130302476Y-101985819D01*
X130254857Y-101938200D01*
X130159619Y-101890581D01*
X129207238Y-101890581D02*
X129111999Y-101890581D01*
X129016761Y-101938200D01*
X128969142Y-101985819D01*
X128921523Y-102081057D01*
X128873904Y-102271533D01*
X128873904Y-102509629D01*
X128921523Y-102700105D01*
X128969142Y-102795343D01*
X129016761Y-102842962D01*
X129111999Y-102890581D01*
X129207238Y-102890581D01*
X129302476Y-102842962D01*
X129350095Y-102795343D01*
X129397714Y-102700105D01*
X129445333Y-102509629D01*
X129445333Y-102271533D01*
X129397714Y-102081057D01*
X129350095Y-101985819D01*
X129302476Y-101938200D01*
X129207238Y-101890581D01*
X130778666Y-110510581D02*
X131350095Y-110510581D01*
X131064381Y-110510581D02*
X131064381Y-109510581D01*
X131159619Y-109653438D01*
X131254857Y-109748676D01*
X131350095Y-109796295D01*
X130159619Y-109510581D02*
X130064380Y-109510581D01*
X129969142Y-109558200D01*
X129921523Y-109605819D01*
X129873904Y-109701057D01*
X129826285Y-109891533D01*
X129826285Y-110129629D01*
X129873904Y-110320105D01*
X129921523Y-110415343D01*
X129969142Y-110462962D01*
X130064380Y-110510581D01*
X130159619Y-110510581D01*
X130254857Y-110462962D01*
X130302476Y-110415343D01*
X130350095Y-110320105D01*
X130397714Y-110129629D01*
X130397714Y-109891533D01*
X130350095Y-109701057D01*
X130302476Y-109605819D01*
X130254857Y-109558200D01*
X130159619Y-109510581D01*
X129207238Y-109510581D02*
X129111999Y-109510581D01*
X129016761Y-109558200D01*
X128969142Y-109605819D01*
X128921523Y-109701057D01*
X128873904Y-109891533D01*
X128873904Y-110129629D01*
X128921523Y-110320105D01*
X128969142Y-110415343D01*
X129016761Y-110462962D01*
X129111999Y-110510581D01*
X129207238Y-110510581D01*
X129302476Y-110462962D01*
X129350095Y-110415343D01*
X129397714Y-110320105D01*
X129445333Y-110129629D01*
X129445333Y-109891533D01*
X129397714Y-109701057D01*
X129350095Y-109605819D01*
X129302476Y-109558200D01*
X129207238Y-109510581D01*
X128833476Y-116293581D02*
X129404905Y-116293581D01*
X129119191Y-116293581D02*
X129119191Y-115293581D01*
X129214429Y-115436438D01*
X129309667Y-115531676D01*
X129404905Y-115579295D01*
X128214429Y-115293581D02*
X128119190Y-115293581D01*
X128023952Y-115341200D01*
X127976333Y-115388819D01*
X127928714Y-115484057D01*
X127881095Y-115674533D01*
X127881095Y-115912629D01*
X127928714Y-116103105D01*
X127976333Y-116198343D01*
X128023952Y-116245962D01*
X128119190Y-116293581D01*
X128214429Y-116293581D01*
X128309667Y-116245962D01*
X128357286Y-116198343D01*
X128404905Y-116103105D01*
X128452524Y-115912629D01*
X128452524Y-115674533D01*
X128404905Y-115484057D01*
X128357286Y-115388819D01*
X128309667Y-115341200D01*
X128214429Y-115293581D01*
X127452524Y-116293581D02*
X127452524Y-115293581D01*
X126881095Y-116293581D02*
X127309667Y-115722152D01*
X126881095Y-115293581D02*
X127452524Y-115865010D01*
M02*
