G04 #@! TF.FileFunction,Legend,Top*
%FSLAX46Y46*%
G04 Gerber Fmt 4.6, Leading zero omitted, Abs format (unit mm)*
G04 Created by KiCad (PCBNEW 4.0.2+dfsg1-stable) date Sun 18 Mar 2018 06:27:08 PM MDT*
%MOMM*%
G01*
G04 APERTURE LIST*
%ADD10C,0.100000*%
%ADD11C,0.200000*%
%ADD12C,0.150000*%
G04 APERTURE END LIST*
D10*
D11*
X134359143Y-123194771D02*
X134502000Y-123242390D01*
X134549619Y-123290010D01*
X134597238Y-123385248D01*
X134597238Y-123528105D01*
X134549619Y-123623343D01*
X134502000Y-123670962D01*
X134406762Y-123718581D01*
X134025809Y-123718581D01*
X134025809Y-122718581D01*
X134359143Y-122718581D01*
X134454381Y-122766200D01*
X134502000Y-122813819D01*
X134549619Y-122909057D01*
X134549619Y-123004295D01*
X134502000Y-123099533D01*
X134454381Y-123147152D01*
X134359143Y-123194771D01*
X134025809Y-123194771D01*
X134930571Y-123051914D02*
X135168666Y-123718581D01*
X135406762Y-123051914D02*
X135168666Y-123718581D01*
X135073428Y-123956676D01*
X135025809Y-124004295D01*
X134930571Y-124051914D01*
X136835334Y-122718581D02*
X136835334Y-123432867D01*
X136787714Y-123575724D01*
X136692476Y-123670962D01*
X136549619Y-123718581D01*
X136454381Y-123718581D01*
X137740096Y-123051914D02*
X137740096Y-123718581D01*
X137311524Y-123051914D02*
X137311524Y-123575724D01*
X137359143Y-123670962D01*
X137454381Y-123718581D01*
X137597239Y-123718581D01*
X137692477Y-123670962D01*
X137740096Y-123623343D01*
X138216286Y-123051914D02*
X138216286Y-123718581D01*
X138216286Y-123147152D02*
X138263905Y-123099533D01*
X138359143Y-123051914D01*
X138502001Y-123051914D01*
X138597239Y-123099533D01*
X138644858Y-123194771D01*
X138644858Y-123718581D01*
X139121048Y-123718581D02*
X139121048Y-123051914D01*
X139121048Y-122718581D02*
X139073429Y-122766200D01*
X139121048Y-122813819D01*
X139168667Y-122766200D01*
X139121048Y-122718581D01*
X139121048Y-122813819D01*
X139597238Y-123051914D02*
X139597238Y-124051914D01*
X139597238Y-123099533D02*
X139692476Y-123051914D01*
X139882953Y-123051914D01*
X139978191Y-123099533D01*
X140025810Y-123147152D01*
X140073429Y-123242390D01*
X140073429Y-123528105D01*
X140025810Y-123623343D01*
X139978191Y-123670962D01*
X139882953Y-123718581D01*
X139692476Y-123718581D01*
X139597238Y-123670962D01*
X140882953Y-123670962D02*
X140787715Y-123718581D01*
X140597238Y-123718581D01*
X140502000Y-123670962D01*
X140454381Y-123575724D01*
X140454381Y-123194771D01*
X140502000Y-123099533D01*
X140597238Y-123051914D01*
X140787715Y-123051914D01*
X140882953Y-123099533D01*
X140930572Y-123194771D01*
X140930572Y-123290010D01*
X140454381Y-123385248D01*
X141359143Y-123718581D02*
X141359143Y-123051914D01*
X141359143Y-123242390D02*
X141406762Y-123147152D01*
X141454381Y-123099533D01*
X141549619Y-123051914D01*
X141644858Y-123051914D01*
X142930572Y-122718581D02*
X143025811Y-122718581D01*
X143121049Y-122766200D01*
X143168668Y-122813819D01*
X143216287Y-122909057D01*
X143263906Y-123099533D01*
X143263906Y-123337629D01*
X143216287Y-123528105D01*
X143168668Y-123623343D01*
X143121049Y-123670962D01*
X143025811Y-123718581D01*
X142930572Y-123718581D01*
X142835334Y-123670962D01*
X142787715Y-123623343D01*
X142740096Y-123528105D01*
X142692477Y-123337629D01*
X142692477Y-123099533D01*
X142740096Y-122909057D01*
X142787715Y-122813819D01*
X142835334Y-122766200D01*
X142930572Y-122718581D01*
X143644858Y-122813819D02*
X143692477Y-122766200D01*
X143787715Y-122718581D01*
X144025811Y-122718581D01*
X144121049Y-122766200D01*
X144168668Y-122813819D01*
X144216287Y-122909057D01*
X144216287Y-123004295D01*
X144168668Y-123147152D01*
X143597239Y-123718581D01*
X144216287Y-123718581D01*
X145359144Y-122670962D02*
X144502001Y-123956676D01*
X145644858Y-122813819D02*
X145692477Y-122766200D01*
X145787715Y-122718581D01*
X146025811Y-122718581D01*
X146121049Y-122766200D01*
X146168668Y-122813819D01*
X146216287Y-122909057D01*
X146216287Y-123004295D01*
X146168668Y-123147152D01*
X145597239Y-123718581D01*
X146216287Y-123718581D01*
X146597239Y-122813819D02*
X146644858Y-122766200D01*
X146740096Y-122718581D01*
X146978192Y-122718581D01*
X147073430Y-122766200D01*
X147121049Y-122813819D01*
X147168668Y-122909057D01*
X147168668Y-123004295D01*
X147121049Y-123147152D01*
X146549620Y-123718581D01*
X147168668Y-123718581D01*
X148311525Y-122670962D02*
X147454382Y-123956676D01*
X148597239Y-122813819D02*
X148644858Y-122766200D01*
X148740096Y-122718581D01*
X148978192Y-122718581D01*
X149073430Y-122766200D01*
X149121049Y-122813819D01*
X149168668Y-122909057D01*
X149168668Y-123004295D01*
X149121049Y-123147152D01*
X148549620Y-123718581D01*
X149168668Y-123718581D01*
X149787715Y-122718581D02*
X149882954Y-122718581D01*
X149978192Y-122766200D01*
X150025811Y-122813819D01*
X150073430Y-122909057D01*
X150121049Y-123099533D01*
X150121049Y-123337629D01*
X150073430Y-123528105D01*
X150025811Y-123623343D01*
X149978192Y-123670962D01*
X149882954Y-123718581D01*
X149787715Y-123718581D01*
X149692477Y-123670962D01*
X149644858Y-123623343D01*
X149597239Y-123528105D01*
X149549620Y-123337629D01*
X149549620Y-123099533D01*
X149597239Y-122909057D01*
X149644858Y-122813819D01*
X149692477Y-122766200D01*
X149787715Y-122718581D01*
X151073430Y-123718581D02*
X150502001Y-123718581D01*
X150787715Y-123718581D02*
X150787715Y-122718581D01*
X150692477Y-122861438D01*
X150597239Y-122956676D01*
X150502001Y-123004295D01*
X151644858Y-123147152D02*
X151549620Y-123099533D01*
X151502001Y-123051914D01*
X151454382Y-122956676D01*
X151454382Y-122909057D01*
X151502001Y-122813819D01*
X151549620Y-122766200D01*
X151644858Y-122718581D01*
X151835335Y-122718581D01*
X151930573Y-122766200D01*
X151978192Y-122813819D01*
X152025811Y-122909057D01*
X152025811Y-122956676D01*
X151978192Y-123051914D01*
X151930573Y-123099533D01*
X151835335Y-123147152D01*
X151644858Y-123147152D01*
X151549620Y-123194771D01*
X151502001Y-123242390D01*
X151454382Y-123337629D01*
X151454382Y-123528105D01*
X151502001Y-123623343D01*
X151549620Y-123670962D01*
X151644858Y-123718581D01*
X151835335Y-123718581D01*
X151930573Y-123670962D01*
X151978192Y-123623343D01*
X152025811Y-123528105D01*
X152025811Y-123337629D01*
X151978192Y-123242390D01*
X151930573Y-123194771D01*
X151835335Y-123147152D01*
X134565522Y-121845343D02*
X134517903Y-121892962D01*
X134375046Y-121940581D01*
X134279808Y-121940581D01*
X134136950Y-121892962D01*
X134041712Y-121797724D01*
X133994093Y-121702486D01*
X133946474Y-121512010D01*
X133946474Y-121369152D01*
X133994093Y-121178676D01*
X134041712Y-121083438D01*
X134136950Y-120988200D01*
X134279808Y-120940581D01*
X134375046Y-120940581D01*
X134517903Y-120988200D01*
X134565522Y-121035819D01*
X135422665Y-121940581D02*
X135422665Y-121416771D01*
X135375046Y-121321533D01*
X135279808Y-121273914D01*
X135089331Y-121273914D01*
X134994093Y-121321533D01*
X135422665Y-121892962D02*
X135327427Y-121940581D01*
X135089331Y-121940581D01*
X134994093Y-121892962D01*
X134946474Y-121797724D01*
X134946474Y-121702486D01*
X134994093Y-121607248D01*
X135089331Y-121559629D01*
X135327427Y-121559629D01*
X135422665Y-121512010D01*
X135898855Y-121940581D02*
X135898855Y-120940581D01*
X135898855Y-121321533D02*
X135994093Y-121273914D01*
X136184570Y-121273914D01*
X136279808Y-121321533D01*
X136327427Y-121369152D01*
X136375046Y-121464390D01*
X136375046Y-121750105D01*
X136327427Y-121845343D01*
X136279808Y-121892962D01*
X136184570Y-121940581D01*
X135994093Y-121940581D01*
X135898855Y-121892962D01*
X136946474Y-121940581D02*
X136851236Y-121892962D01*
X136803617Y-121797724D01*
X136803617Y-120940581D01*
X137708380Y-121892962D02*
X137613142Y-121940581D01*
X137422665Y-121940581D01*
X137327427Y-121892962D01*
X137279808Y-121797724D01*
X137279808Y-121416771D01*
X137327427Y-121321533D01*
X137422665Y-121273914D01*
X137613142Y-121273914D01*
X137708380Y-121321533D01*
X137755999Y-121416771D01*
X137755999Y-121512010D01*
X137279808Y-121607248D01*
X138803618Y-120940581D02*
X139375047Y-120940581D01*
X139089332Y-121940581D02*
X139089332Y-120940581D01*
X140089333Y-121892962D02*
X139994095Y-121940581D01*
X139803618Y-121940581D01*
X139708380Y-121892962D01*
X139660761Y-121797724D01*
X139660761Y-121416771D01*
X139708380Y-121321533D01*
X139803618Y-121273914D01*
X139994095Y-121273914D01*
X140089333Y-121321533D01*
X140136952Y-121416771D01*
X140136952Y-121512010D01*
X139660761Y-121607248D01*
X140517904Y-121892962D02*
X140613142Y-121940581D01*
X140803618Y-121940581D01*
X140898857Y-121892962D01*
X140946476Y-121797724D01*
X140946476Y-121750105D01*
X140898857Y-121654867D01*
X140803618Y-121607248D01*
X140660761Y-121607248D01*
X140565523Y-121559629D01*
X140517904Y-121464390D01*
X140517904Y-121416771D01*
X140565523Y-121321533D01*
X140660761Y-121273914D01*
X140803618Y-121273914D01*
X140898857Y-121321533D01*
X141232190Y-121273914D02*
X141613142Y-121273914D01*
X141375047Y-120940581D02*
X141375047Y-121797724D01*
X141422666Y-121892962D01*
X141517904Y-121940581D01*
X141613142Y-121940581D01*
X142327429Y-121892962D02*
X142232191Y-121940581D01*
X142041714Y-121940581D01*
X141946476Y-121892962D01*
X141898857Y-121797724D01*
X141898857Y-121416771D01*
X141946476Y-121321533D01*
X142041714Y-121273914D01*
X142232191Y-121273914D01*
X142327429Y-121321533D01*
X142375048Y-121416771D01*
X142375048Y-121512010D01*
X141898857Y-121607248D01*
X142803619Y-121940581D02*
X142803619Y-121273914D01*
X142803619Y-121464390D02*
X142851238Y-121369152D01*
X142898857Y-121321533D01*
X142994095Y-121273914D01*
X143089334Y-121273914D01*
X144184572Y-121940581D02*
X144184572Y-120940581D01*
X144517906Y-121654867D01*
X144851239Y-120940581D01*
X144851239Y-121940581D01*
X145756001Y-121940581D02*
X145756001Y-121416771D01*
X145708382Y-121321533D01*
X145613144Y-121273914D01*
X145422667Y-121273914D01*
X145327429Y-121321533D01*
X145756001Y-121892962D02*
X145660763Y-121940581D01*
X145422667Y-121940581D01*
X145327429Y-121892962D01*
X145279810Y-121797724D01*
X145279810Y-121702486D01*
X145327429Y-121607248D01*
X145422667Y-121559629D01*
X145660763Y-121559629D01*
X145756001Y-121512010D01*
X146184572Y-121892962D02*
X146279810Y-121940581D01*
X146470286Y-121940581D01*
X146565525Y-121892962D01*
X146613144Y-121797724D01*
X146613144Y-121750105D01*
X146565525Y-121654867D01*
X146470286Y-121607248D01*
X146327429Y-121607248D01*
X146232191Y-121559629D01*
X146184572Y-121464390D01*
X146184572Y-121416771D01*
X146232191Y-121321533D01*
X146327429Y-121273914D01*
X146470286Y-121273914D01*
X146565525Y-121321533D01*
X146898858Y-121273914D02*
X147279810Y-121273914D01*
X147041715Y-120940581D02*
X147041715Y-121797724D01*
X147089334Y-121892962D01*
X147184572Y-121940581D01*
X147279810Y-121940581D01*
X147994097Y-121892962D02*
X147898859Y-121940581D01*
X147708382Y-121940581D01*
X147613144Y-121892962D01*
X147565525Y-121797724D01*
X147565525Y-121416771D01*
X147613144Y-121321533D01*
X147708382Y-121273914D01*
X147898859Y-121273914D01*
X147994097Y-121321533D01*
X148041716Y-121416771D01*
X148041716Y-121512010D01*
X147565525Y-121607248D01*
X148470287Y-121940581D02*
X148470287Y-121273914D01*
X148470287Y-121464390D02*
X148517906Y-121369152D01*
X148565525Y-121321533D01*
X148660763Y-121273914D01*
X148756002Y-121273914D01*
X149756002Y-121273914D02*
X149994097Y-121940581D01*
X150232193Y-121273914D01*
X150803621Y-120940581D02*
X150898860Y-120940581D01*
X150994098Y-120988200D01*
X151041717Y-121035819D01*
X151089336Y-121131057D01*
X151136955Y-121321533D01*
X151136955Y-121559629D01*
X151089336Y-121750105D01*
X151041717Y-121845343D01*
X150994098Y-121892962D01*
X150898860Y-121940581D01*
X150803621Y-121940581D01*
X150708383Y-121892962D01*
X150660764Y-121845343D01*
X150613145Y-121750105D01*
X150565526Y-121559629D01*
X150565526Y-121321533D01*
X150613145Y-121131057D01*
X150660764Y-121035819D01*
X150708383Y-120988200D01*
X150803621Y-120940581D01*
X151565526Y-121845343D02*
X151613145Y-121892962D01*
X151565526Y-121940581D01*
X151517907Y-121892962D01*
X151565526Y-121845343D01*
X151565526Y-121940581D01*
X152470288Y-121273914D02*
X152470288Y-121940581D01*
X152232192Y-120892962D02*
X151994097Y-121607248D01*
X152613145Y-121607248D01*
D12*
X141502180Y-99695000D02*
X141502180Y-98993960D01*
X141502180Y-98993960D02*
X141751100Y-98993960D01*
X144301160Y-98993960D02*
X144501820Y-98993960D01*
X144501820Y-98993960D02*
X144501820Y-99695000D01*
X141502180Y-92075000D02*
X141502180Y-91373960D01*
X141502180Y-91373960D02*
X141751100Y-91373960D01*
X144301160Y-91373960D02*
X144501820Y-91373960D01*
X144501820Y-91373960D02*
X144501820Y-92075000D01*
X141502180Y-84455000D02*
X141502180Y-83753960D01*
X141502180Y-83753960D02*
X141751100Y-83753960D01*
X144301160Y-83753960D02*
X144501820Y-83753960D01*
X144501820Y-83753960D02*
X144501820Y-84455000D01*
X121412000Y-73355200D02*
X121412000Y-68275200D01*
X121692000Y-76175200D02*
X120142000Y-76175200D01*
X118872000Y-75895200D02*
X118872000Y-73355200D01*
X118872000Y-73355200D02*
X121412000Y-73355200D01*
X121412000Y-68275200D02*
X116332000Y-68275200D01*
X116332000Y-68275200D02*
X116332000Y-73355200D01*
X121692000Y-76175200D02*
X121692000Y-74625200D01*
X116332000Y-75895200D02*
X118872000Y-75895200D01*
X116332000Y-73355200D02*
X116332000Y-75895200D01*
X114720000Y-97874200D02*
X114720000Y-98874200D01*
X116420000Y-98874200D02*
X116420000Y-97874200D01*
X157162500Y-92405200D02*
X157543500Y-92405200D01*
X156146500Y-92405200D02*
X156527500Y-92405200D01*
X156527500Y-92405200D02*
X157162500Y-92024200D01*
X157162500Y-92024200D02*
X157162500Y-92786200D01*
X157162500Y-92786200D02*
X156527500Y-92405200D01*
X156527500Y-91897200D02*
X156527500Y-92913200D01*
X154845000Y-93305200D02*
X158385000Y-93305200D01*
X154845000Y-91505200D02*
X158385000Y-91505200D01*
X157162500Y-97485200D02*
X157543500Y-97485200D01*
X156146500Y-97485200D02*
X156527500Y-97485200D01*
X156527500Y-97485200D02*
X157162500Y-97104200D01*
X157162500Y-97104200D02*
X157162500Y-97866200D01*
X157162500Y-97866200D02*
X156527500Y-97485200D01*
X156527500Y-96977200D02*
X156527500Y-97993200D01*
X154845000Y-98385200D02*
X158385000Y-98385200D01*
X154845000Y-96585200D02*
X158385000Y-96585200D01*
X157162500Y-102565200D02*
X157543500Y-102565200D01*
X156146500Y-102565200D02*
X156527500Y-102565200D01*
X156527500Y-102565200D02*
X157162500Y-102184200D01*
X157162500Y-102184200D02*
X157162500Y-102946200D01*
X157162500Y-102946200D02*
X156527500Y-102565200D01*
X156527500Y-102057200D02*
X156527500Y-103073200D01*
X154845000Y-103465200D02*
X158385000Y-103465200D01*
X154845000Y-101665200D02*
X158385000Y-101665200D01*
X157162500Y-107645200D02*
X157543500Y-107645200D01*
X156146500Y-107645200D02*
X156527500Y-107645200D01*
X156527500Y-107645200D02*
X157162500Y-107264200D01*
X157162500Y-107264200D02*
X157162500Y-108026200D01*
X157162500Y-108026200D02*
X156527500Y-107645200D01*
X156527500Y-107137200D02*
X156527500Y-108153200D01*
X154845000Y-108545200D02*
X158385000Y-108545200D01*
X154845000Y-106745200D02*
X158385000Y-106745200D01*
X157162500Y-112725200D02*
X157543500Y-112725200D01*
X156146500Y-112725200D02*
X156527500Y-112725200D01*
X156527500Y-112725200D02*
X157162500Y-112344200D01*
X157162500Y-112344200D02*
X157162500Y-113106200D01*
X157162500Y-113106200D02*
X156527500Y-112725200D01*
X156527500Y-112217200D02*
X156527500Y-113233200D01*
X154845000Y-113625200D02*
X158385000Y-113625200D01*
X154845000Y-111825200D02*
X158385000Y-111825200D01*
X115316000Y-109169200D02*
X115316000Y-111709200D01*
X115596000Y-106349200D02*
X115596000Y-107899200D01*
X115316000Y-109169200D02*
X112776000Y-109169200D01*
X112496000Y-107899200D02*
X112496000Y-106349200D01*
X112496000Y-106349200D02*
X115596000Y-106349200D01*
X112776000Y-109169200D02*
X112776000Y-111709200D01*
X112776000Y-111709200D02*
X115316000Y-111709200D01*
X150059000Y-81439200D02*
X150059000Y-81639200D01*
X150059000Y-84033200D02*
X150059000Y-83853200D01*
X146831256Y-83722843D02*
G75*
G03X150059000Y-84039200I1727744J1003643D01*
G01*
X147506994Y-83852268D02*
G75*
G03X149610000Y-83853200I1052006J1133068D01*
G01*
X150046220Y-81412474D02*
G75*
G03X146809000Y-81759200I-1497220J-1306726D01*
G01*
X149572889Y-81639947D02*
G75*
G03X147525000Y-81659200I-1013889J-1079253D01*
G01*
X150059000Y-85820700D02*
X150059000Y-86020700D01*
X150059000Y-88414700D02*
X150059000Y-88234700D01*
X146831256Y-88104343D02*
G75*
G03X150059000Y-88420700I1727744J1003643D01*
G01*
X147506994Y-88233768D02*
G75*
G03X149610000Y-88234700I1052006J1133068D01*
G01*
X150046220Y-85793974D02*
G75*
G03X146809000Y-86140700I-1497220J-1306726D01*
G01*
X149572889Y-86021447D02*
G75*
G03X147525000Y-86040700I-1013889J-1079253D01*
G01*
X150059000Y-90202200D02*
X150059000Y-90402200D01*
X150059000Y-92796200D02*
X150059000Y-92616200D01*
X146831256Y-92485843D02*
G75*
G03X150059000Y-92802200I1727744J1003643D01*
G01*
X147506994Y-92615268D02*
G75*
G03X149610000Y-92616200I1052006J1133068D01*
G01*
X150046220Y-90175474D02*
G75*
G03X146809000Y-90522200I-1497220J-1306726D01*
G01*
X149572889Y-90402947D02*
G75*
G03X147525000Y-90422200I-1013889J-1079253D01*
G01*
X150059000Y-94583700D02*
X150059000Y-94783700D01*
X150059000Y-97177700D02*
X150059000Y-96997700D01*
X146831256Y-96867343D02*
G75*
G03X150059000Y-97183700I1727744J1003643D01*
G01*
X147506994Y-96996768D02*
G75*
G03X149610000Y-96997700I1052006J1133068D01*
G01*
X150046220Y-94556974D02*
G75*
G03X146809000Y-94903700I-1497220J-1306726D01*
G01*
X149572889Y-94784447D02*
G75*
G03X147525000Y-94803700I-1013889J-1079253D01*
G01*
X150059000Y-98965200D02*
X150059000Y-99165200D01*
X150059000Y-101559200D02*
X150059000Y-101379200D01*
X146831256Y-101248843D02*
G75*
G03X150059000Y-101565200I1727744J1003643D01*
G01*
X147506994Y-101378268D02*
G75*
G03X149610000Y-101379200I1052006J1133068D01*
G01*
X150046220Y-98938474D02*
G75*
G03X146809000Y-99285200I-1497220J-1306726D01*
G01*
X149572889Y-99165947D02*
G75*
G03X147525000Y-99185200I-1013889J-1079253D01*
G01*
X150059000Y-103346700D02*
X150059000Y-103546700D01*
X150059000Y-105940700D02*
X150059000Y-105760700D01*
X146831256Y-105630343D02*
G75*
G03X150059000Y-105946700I1727744J1003643D01*
G01*
X147506994Y-105759768D02*
G75*
G03X149610000Y-105760700I1052006J1133068D01*
G01*
X150046220Y-103319974D02*
G75*
G03X146809000Y-103666700I-1497220J-1306726D01*
G01*
X149572889Y-103547447D02*
G75*
G03X147525000Y-103566700I-1013889J-1079253D01*
G01*
X150059000Y-107728200D02*
X150059000Y-107928200D01*
X150059000Y-110322200D02*
X150059000Y-110142200D01*
X146831256Y-110011843D02*
G75*
G03X150059000Y-110328200I1727744J1003643D01*
G01*
X147506994Y-110141268D02*
G75*
G03X149610000Y-110142200I1052006J1133068D01*
G01*
X150046220Y-107701474D02*
G75*
G03X146809000Y-108048200I-1497220J-1306726D01*
G01*
X149572889Y-107928947D02*
G75*
G03X147525000Y-107948200I-1013889J-1079253D01*
G01*
X150059000Y-112109700D02*
X150059000Y-112309700D01*
X150059000Y-114703700D02*
X150059000Y-114523700D01*
X146831256Y-114393343D02*
G75*
G03X150059000Y-114709700I1727744J1003643D01*
G01*
X147506994Y-114522768D02*
G75*
G03X149610000Y-114523700I1052006J1133068D01*
G01*
X150046220Y-112082974D02*
G75*
G03X146809000Y-112429700I-1497220J-1306726D01*
G01*
X149572889Y-112310447D02*
G75*
G03X147525000Y-112329700I-1013889J-1079253D01*
G01*
X150059000Y-116491200D02*
X150059000Y-116691200D01*
X150059000Y-119085200D02*
X150059000Y-118905200D01*
X146831256Y-118774843D02*
G75*
G03X150059000Y-119091200I1727744J1003643D01*
G01*
X147506994Y-118904268D02*
G75*
G03X149610000Y-118905200I1052006J1133068D01*
G01*
X150046220Y-116464474D02*
G75*
G03X146809000Y-116811200I-1497220J-1306726D01*
G01*
X149572889Y-116691947D02*
G75*
G03X147525000Y-116711200I-1013889J-1079253D01*
G01*
X121721000Y-93719200D02*
X121721000Y-93519200D01*
X121721000Y-91125200D02*
X121721000Y-91305200D01*
X124948744Y-91435557D02*
G75*
G03X121721000Y-91119200I-1727744J-1003643D01*
G01*
X124273006Y-91306132D02*
G75*
G03X122170000Y-91305200I-1052006J-1133068D01*
G01*
X121733780Y-93745926D02*
G75*
G03X124971000Y-93399200I1497220J1306726D01*
G01*
X122207111Y-93518453D02*
G75*
G03X124255000Y-93499200I1013889J1079253D01*
G01*
X137972800Y-85904020D02*
X137271760Y-85904020D01*
X137271760Y-85904020D02*
X137271760Y-85655100D01*
X137271760Y-83105040D02*
X137271760Y-82904380D01*
X137271760Y-82904380D02*
X137972800Y-82904380D01*
X137972800Y-93524020D02*
X137271760Y-93524020D01*
X137271760Y-93524020D02*
X137271760Y-93275100D01*
X137271760Y-90725040D02*
X137271760Y-90524380D01*
X137271760Y-90524380D02*
X137972800Y-90524380D01*
X137972800Y-101144020D02*
X137271760Y-101144020D01*
X137271760Y-101144020D02*
X137271760Y-100895100D01*
X137271760Y-98345040D02*
X137271760Y-98144380D01*
X137271760Y-98144380D02*
X137972800Y-98144380D01*
X137972800Y-108764020D02*
X137271760Y-108764020D01*
X137271760Y-108764020D02*
X137271760Y-108515100D01*
X137271760Y-105965040D02*
X137271760Y-105764380D01*
X137271760Y-105764380D02*
X137972800Y-105764380D01*
X137972800Y-116384020D02*
X137271760Y-116384020D01*
X137271760Y-116384020D02*
X137271760Y-116135100D01*
X137271760Y-113585040D02*
X137271760Y-113384380D01*
X137271760Y-113384380D02*
X137972800Y-113384380D01*
X141502180Y-107315000D02*
X141502180Y-106613960D01*
X141502180Y-106613960D02*
X141751100Y-106613960D01*
X144301160Y-106613960D02*
X144501820Y-106613960D01*
X144501820Y-106613960D02*
X144501820Y-107315000D01*
X141502180Y-114808000D02*
X141502180Y-114106960D01*
X141502180Y-114106960D02*
X141751100Y-114106960D01*
X144301160Y-114106960D02*
X144501820Y-114106960D01*
X144501820Y-114106960D02*
X144501820Y-114808000D01*
X134712000Y-82485200D02*
X133512000Y-82485200D01*
X133512000Y-80735200D02*
X134712000Y-80735200D01*
X134712000Y-90105200D02*
X133512000Y-90105200D01*
X133512000Y-88355200D02*
X134712000Y-88355200D01*
X134712000Y-97725200D02*
X133512000Y-97725200D01*
X133512000Y-95975200D02*
X134712000Y-95975200D01*
X134712000Y-105345200D02*
X133512000Y-105345200D01*
X133512000Y-103595200D02*
X134712000Y-103595200D01*
X134712000Y-112965200D02*
X133512000Y-112965200D01*
X133512000Y-111215200D02*
X134712000Y-111215200D01*
X116875000Y-91530200D02*
X118075000Y-91530200D01*
X118075000Y-93280200D02*
X116875000Y-93280200D01*
X119472000Y-66102200D02*
X118272000Y-66102200D01*
X118272000Y-64352200D02*
X119472000Y-64352200D01*
X117724000Y-102354200D02*
X117839000Y-102354200D01*
X117724000Y-98204200D02*
X117839000Y-98204200D01*
X126624000Y-98204200D02*
X126509000Y-98204200D01*
X126624000Y-102354200D02*
X126509000Y-102354200D01*
X117724000Y-102354200D02*
X117724000Y-98204200D01*
X126624000Y-102354200D02*
X126624000Y-98204200D01*
X117839000Y-102354200D02*
X117839000Y-103729200D01*
X140335000Y-69596000D02*
X140335000Y-78740000D01*
X140335000Y-78740000D02*
X126619000Y-78740000D01*
X126619000Y-78740000D02*
X126619000Y-69596000D01*
X126619000Y-67564000D02*
X126619000Y-67056000D01*
X140335000Y-67691000D02*
X140335000Y-67056000D01*
X140335000Y-64008000D02*
X140335000Y-63754000D01*
X140335000Y-63754000D02*
X126619000Y-63754000D01*
X126619000Y-63754000D02*
X126619000Y-64008000D01*
X142113000Y-69596000D02*
X142113000Y-78740000D01*
X142113000Y-78740000D02*
X157353000Y-78740000D01*
X157353000Y-78740000D02*
X157353000Y-69596000D01*
X142113000Y-64008000D02*
X142113000Y-63754000D01*
X142113000Y-63754000D02*
X157353000Y-63754000D01*
X157353000Y-63754000D02*
X157353000Y-64008000D01*
X157353000Y-67056000D02*
X157353000Y-67564000D01*
X142113000Y-67564000D02*
X142113000Y-67056000D01*
X140180572Y-97441819D02*
X140085334Y-97394200D01*
X139990096Y-97298962D01*
X139847239Y-97156105D01*
X139752000Y-97108486D01*
X139656762Y-97108486D01*
X139704381Y-97346581D02*
X139609143Y-97298962D01*
X139513905Y-97203724D01*
X139466286Y-97013248D01*
X139466286Y-96679914D01*
X139513905Y-96489438D01*
X139609143Y-96394200D01*
X139704381Y-96346581D01*
X139894858Y-96346581D01*
X139990096Y-96394200D01*
X140085334Y-96489438D01*
X140132953Y-96679914D01*
X140132953Y-97013248D01*
X140085334Y-97203724D01*
X139990096Y-97298962D01*
X139894858Y-97346581D01*
X139704381Y-97346581D01*
X141085334Y-97346581D02*
X140513905Y-97346581D01*
X140799619Y-97346581D02*
X140799619Y-96346581D01*
X140704381Y-96489438D01*
X140609143Y-96584676D01*
X140513905Y-96632295D01*
X141942477Y-96679914D02*
X141942477Y-97346581D01*
X141704381Y-96298962D02*
X141466286Y-97013248D01*
X142085334Y-97013248D01*
X140180572Y-89821819D02*
X140085334Y-89774200D01*
X139990096Y-89678962D01*
X139847239Y-89536105D01*
X139752000Y-89488486D01*
X139656762Y-89488486D01*
X139704381Y-89726581D02*
X139609143Y-89678962D01*
X139513905Y-89583724D01*
X139466286Y-89393248D01*
X139466286Y-89059914D01*
X139513905Y-88869438D01*
X139609143Y-88774200D01*
X139704381Y-88726581D01*
X139894858Y-88726581D01*
X139990096Y-88774200D01*
X140085334Y-88869438D01*
X140132953Y-89059914D01*
X140132953Y-89393248D01*
X140085334Y-89583724D01*
X139990096Y-89678962D01*
X139894858Y-89726581D01*
X139704381Y-89726581D01*
X141085334Y-89726581D02*
X140513905Y-89726581D01*
X140799619Y-89726581D02*
X140799619Y-88726581D01*
X140704381Y-88869438D01*
X140609143Y-88964676D01*
X140513905Y-89012295D01*
X141466286Y-88821819D02*
X141513905Y-88774200D01*
X141609143Y-88726581D01*
X141847239Y-88726581D01*
X141942477Y-88774200D01*
X141990096Y-88821819D01*
X142037715Y-88917057D01*
X142037715Y-89012295D01*
X141990096Y-89155152D01*
X141418667Y-89726581D01*
X142037715Y-89726581D01*
X140180572Y-82201819D02*
X140085334Y-82154200D01*
X139990096Y-82058962D01*
X139847239Y-81916105D01*
X139752000Y-81868486D01*
X139656762Y-81868486D01*
X139704381Y-82106581D02*
X139609143Y-82058962D01*
X139513905Y-81963724D01*
X139466286Y-81773248D01*
X139466286Y-81439914D01*
X139513905Y-81249438D01*
X139609143Y-81154200D01*
X139704381Y-81106581D01*
X139894858Y-81106581D01*
X139990096Y-81154200D01*
X140085334Y-81249438D01*
X140132953Y-81439914D01*
X140132953Y-81773248D01*
X140085334Y-81963724D01*
X139990096Y-82058962D01*
X139894858Y-82106581D01*
X139704381Y-82106581D01*
X141085334Y-82106581D02*
X140513905Y-82106581D01*
X140799619Y-82106581D02*
X140799619Y-81106581D01*
X140704381Y-81249438D01*
X140609143Y-81344676D01*
X140513905Y-81392295D01*
X141704381Y-81106581D02*
X141799620Y-81106581D01*
X141894858Y-81154200D01*
X141942477Y-81201819D01*
X141990096Y-81297057D01*
X142037715Y-81487533D01*
X142037715Y-81725629D01*
X141990096Y-81916105D01*
X141942477Y-82011343D01*
X141894858Y-82058962D01*
X141799620Y-82106581D01*
X141704381Y-82106581D01*
X141609143Y-82058962D01*
X141561524Y-82011343D01*
X141513905Y-81916105D01*
X141466286Y-81725629D01*
X141466286Y-81487533D01*
X141513905Y-81297057D01*
X141561524Y-81201819D01*
X141609143Y-81154200D01*
X141704381Y-81106581D01*
X118165810Y-78177581D02*
X118165810Y-77177581D01*
X118594381Y-78129962D02*
X118737238Y-78177581D01*
X118975334Y-78177581D01*
X119070572Y-78129962D01*
X119118191Y-78082343D01*
X119165810Y-77987105D01*
X119165810Y-77891867D01*
X119118191Y-77796629D01*
X119070572Y-77749010D01*
X118975334Y-77701390D01*
X118784857Y-77653771D01*
X118689619Y-77606152D01*
X118642000Y-77558533D01*
X118594381Y-77463295D01*
X118594381Y-77368057D01*
X118642000Y-77272819D01*
X118689619Y-77225200D01*
X118784857Y-77177581D01*
X119022953Y-77177581D01*
X119165810Y-77225200D01*
X119594381Y-78177581D02*
X119594381Y-77177581D01*
X119975334Y-77177581D01*
X120070572Y-77225200D01*
X120118191Y-77272819D01*
X120165810Y-77368057D01*
X120165810Y-77510914D01*
X120118191Y-77606152D01*
X120070572Y-77653771D01*
X119975334Y-77701390D01*
X119594381Y-77701390D01*
X112922381Y-99588486D02*
X112922381Y-99493247D01*
X112970000Y-99398009D01*
X113017619Y-99350390D01*
X113112857Y-99302771D01*
X113303333Y-99255152D01*
X113541429Y-99255152D01*
X113731905Y-99302771D01*
X113827143Y-99350390D01*
X113874762Y-99398009D01*
X113922381Y-99493247D01*
X113922381Y-99588486D01*
X113874762Y-99683724D01*
X113827143Y-99731343D01*
X113731905Y-99778962D01*
X113541429Y-99826581D01*
X113303333Y-99826581D01*
X113112857Y-99778962D01*
X113017619Y-99731343D01*
X112970000Y-99683724D01*
X112922381Y-99588486D01*
X113827143Y-98826581D02*
X113874762Y-98778962D01*
X113922381Y-98826581D01*
X113874762Y-98874200D01*
X113827143Y-98826581D01*
X113922381Y-98826581D01*
X113922381Y-97826581D02*
X113922381Y-98398010D01*
X113922381Y-98112296D02*
X112922381Y-98112296D01*
X113065238Y-98207534D01*
X113160476Y-98302772D01*
X113208095Y-98398010D01*
X113255714Y-96969438D02*
X113922381Y-96969438D01*
X113255714Y-97398010D02*
X113779524Y-97398010D01*
X113874762Y-97350391D01*
X113922381Y-97255153D01*
X113922381Y-97112295D01*
X113874762Y-97017057D01*
X113827143Y-96969438D01*
X156106905Y-90857581D02*
X156106905Y-89857581D01*
X156345000Y-89857581D01*
X156487858Y-89905200D01*
X156583096Y-90000438D01*
X156630715Y-90095676D01*
X156678334Y-90286152D01*
X156678334Y-90429010D01*
X156630715Y-90619486D01*
X156583096Y-90714724D01*
X156487858Y-90809962D01*
X156345000Y-90857581D01*
X156106905Y-90857581D01*
X157630715Y-90857581D02*
X157059286Y-90857581D01*
X157345000Y-90857581D02*
X157345000Y-89857581D01*
X157249762Y-90000438D01*
X157154524Y-90095676D01*
X157059286Y-90143295D01*
X156106905Y-95937581D02*
X156106905Y-94937581D01*
X156345000Y-94937581D01*
X156487858Y-94985200D01*
X156583096Y-95080438D01*
X156630715Y-95175676D01*
X156678334Y-95366152D01*
X156678334Y-95509010D01*
X156630715Y-95699486D01*
X156583096Y-95794724D01*
X156487858Y-95889962D01*
X156345000Y-95937581D01*
X156106905Y-95937581D01*
X157011667Y-94937581D02*
X157630715Y-94937581D01*
X157297381Y-95318533D01*
X157440239Y-95318533D01*
X157535477Y-95366152D01*
X157583096Y-95413771D01*
X157630715Y-95509010D01*
X157630715Y-95747105D01*
X157583096Y-95842343D01*
X157535477Y-95889962D01*
X157440239Y-95937581D01*
X157154524Y-95937581D01*
X157059286Y-95889962D01*
X157011667Y-95842343D01*
X156106905Y-101017581D02*
X156106905Y-100017581D01*
X156345000Y-100017581D01*
X156487858Y-100065200D01*
X156583096Y-100160438D01*
X156630715Y-100255676D01*
X156678334Y-100446152D01*
X156678334Y-100589010D01*
X156630715Y-100779486D01*
X156583096Y-100874724D01*
X156487858Y-100969962D01*
X156345000Y-101017581D01*
X156106905Y-101017581D01*
X157583096Y-100017581D02*
X157106905Y-100017581D01*
X157059286Y-100493771D01*
X157106905Y-100446152D01*
X157202143Y-100398533D01*
X157440239Y-100398533D01*
X157535477Y-100446152D01*
X157583096Y-100493771D01*
X157630715Y-100589010D01*
X157630715Y-100827105D01*
X157583096Y-100922343D01*
X157535477Y-100969962D01*
X157440239Y-101017581D01*
X157202143Y-101017581D01*
X157106905Y-100969962D01*
X157059286Y-100922343D01*
X156106905Y-106097581D02*
X156106905Y-105097581D01*
X156345000Y-105097581D01*
X156487858Y-105145200D01*
X156583096Y-105240438D01*
X156630715Y-105335676D01*
X156678334Y-105526152D01*
X156678334Y-105669010D01*
X156630715Y-105859486D01*
X156583096Y-105954724D01*
X156487858Y-106049962D01*
X156345000Y-106097581D01*
X156106905Y-106097581D01*
X157011667Y-105097581D02*
X157678334Y-105097581D01*
X157249762Y-106097581D01*
X156106905Y-111177581D02*
X156106905Y-110177581D01*
X156345000Y-110177581D01*
X156487858Y-110225200D01*
X156583096Y-110320438D01*
X156630715Y-110415676D01*
X156678334Y-110606152D01*
X156678334Y-110749010D01*
X156630715Y-110939486D01*
X156583096Y-111034724D01*
X156487858Y-111129962D01*
X156345000Y-111177581D01*
X156106905Y-111177581D01*
X157154524Y-111177581D02*
X157345000Y-111177581D01*
X157440239Y-111129962D01*
X157487858Y-111082343D01*
X157583096Y-110939486D01*
X157630715Y-110749010D01*
X157630715Y-110368057D01*
X157583096Y-110272819D01*
X157535477Y-110225200D01*
X157440239Y-110177581D01*
X157249762Y-110177581D01*
X157154524Y-110225200D01*
X157106905Y-110272819D01*
X157059286Y-110368057D01*
X157059286Y-110606152D01*
X157106905Y-110701390D01*
X157154524Y-110749010D01*
X157249762Y-110796629D01*
X157440239Y-110796629D01*
X157535477Y-110749010D01*
X157583096Y-110701390D01*
X157630715Y-110606152D01*
X112712667Y-105251581D02*
X112712667Y-104251581D01*
X113093620Y-104251581D01*
X113188858Y-104299200D01*
X113236477Y-104346819D01*
X113284096Y-104442057D01*
X113284096Y-104584914D01*
X113236477Y-104680152D01*
X113188858Y-104727771D01*
X113093620Y-104775390D01*
X112712667Y-104775390D01*
X113617429Y-104251581D02*
X113855524Y-105251581D01*
X114046001Y-104537295D01*
X114236477Y-105251581D01*
X114474572Y-104251581D01*
X115426953Y-105251581D02*
X115093619Y-104775390D01*
X114855524Y-105251581D02*
X114855524Y-104251581D01*
X115236477Y-104251581D01*
X115331715Y-104299200D01*
X115379334Y-104346819D01*
X115426953Y-104442057D01*
X115426953Y-104584914D01*
X115379334Y-104680152D01*
X115331715Y-104727771D01*
X115236477Y-104775390D01*
X114855524Y-104775390D01*
X151740953Y-83205581D02*
X151264762Y-83205581D01*
X151264762Y-82205581D01*
X152074286Y-82681771D02*
X152407620Y-82681771D01*
X152550477Y-83205581D02*
X152074286Y-83205581D01*
X152074286Y-82205581D01*
X152550477Y-82205581D01*
X152979048Y-83205581D02*
X152979048Y-82205581D01*
X153217143Y-82205581D01*
X153360001Y-82253200D01*
X153455239Y-82348438D01*
X153502858Y-82443676D01*
X153550477Y-82634152D01*
X153550477Y-82777010D01*
X153502858Y-82967486D01*
X153455239Y-83062724D01*
X153360001Y-83157962D01*
X153217143Y-83205581D01*
X152979048Y-83205581D01*
X154502858Y-83205581D02*
X153931429Y-83205581D01*
X154217143Y-83205581D02*
X154217143Y-82205581D01*
X154121905Y-82348438D01*
X154026667Y-82443676D01*
X153931429Y-82491295D01*
X151288095Y-81465581D02*
X151288095Y-80465581D01*
X151859524Y-81465581D02*
X151430952Y-80894152D01*
X151859524Y-80465581D02*
X151288095Y-81037010D01*
X151740953Y-87587081D02*
X151264762Y-87587081D01*
X151264762Y-86587081D01*
X152074286Y-87063271D02*
X152407620Y-87063271D01*
X152550477Y-87587081D02*
X152074286Y-87587081D01*
X152074286Y-86587081D01*
X152550477Y-86587081D01*
X152979048Y-87587081D02*
X152979048Y-86587081D01*
X153217143Y-86587081D01*
X153360001Y-86634700D01*
X153455239Y-86729938D01*
X153502858Y-86825176D01*
X153550477Y-87015652D01*
X153550477Y-87158510D01*
X153502858Y-87348986D01*
X153455239Y-87444224D01*
X153360001Y-87539462D01*
X153217143Y-87587081D01*
X152979048Y-87587081D01*
X153931429Y-86682319D02*
X153979048Y-86634700D01*
X154074286Y-86587081D01*
X154312382Y-86587081D01*
X154407620Y-86634700D01*
X154455239Y-86682319D01*
X154502858Y-86777557D01*
X154502858Y-86872795D01*
X154455239Y-87015652D01*
X153883810Y-87587081D01*
X154502858Y-87587081D01*
X151288095Y-85847081D02*
X151288095Y-84847081D01*
X151859524Y-85847081D02*
X151430952Y-85275652D01*
X151859524Y-84847081D02*
X151288095Y-85418510D01*
X151740953Y-91968581D02*
X151264762Y-91968581D01*
X151264762Y-90968581D01*
X152074286Y-91444771D02*
X152407620Y-91444771D01*
X152550477Y-91968581D02*
X152074286Y-91968581D01*
X152074286Y-90968581D01*
X152550477Y-90968581D01*
X152979048Y-91968581D02*
X152979048Y-90968581D01*
X153217143Y-90968581D01*
X153360001Y-91016200D01*
X153455239Y-91111438D01*
X153502858Y-91206676D01*
X153550477Y-91397152D01*
X153550477Y-91540010D01*
X153502858Y-91730486D01*
X153455239Y-91825724D01*
X153360001Y-91920962D01*
X153217143Y-91968581D01*
X152979048Y-91968581D01*
X153883810Y-90968581D02*
X154502858Y-90968581D01*
X154169524Y-91349533D01*
X154312382Y-91349533D01*
X154407620Y-91397152D01*
X154455239Y-91444771D01*
X154502858Y-91540010D01*
X154502858Y-91778105D01*
X154455239Y-91873343D01*
X154407620Y-91920962D01*
X154312382Y-91968581D01*
X154026667Y-91968581D01*
X153931429Y-91920962D01*
X153883810Y-91873343D01*
X151288095Y-90228581D02*
X151288095Y-89228581D01*
X151859524Y-90228581D02*
X151430952Y-89657152D01*
X151859524Y-89228581D02*
X151288095Y-89800010D01*
X151740953Y-96350081D02*
X151264762Y-96350081D01*
X151264762Y-95350081D01*
X152074286Y-95826271D02*
X152407620Y-95826271D01*
X152550477Y-96350081D02*
X152074286Y-96350081D01*
X152074286Y-95350081D01*
X152550477Y-95350081D01*
X152979048Y-96350081D02*
X152979048Y-95350081D01*
X153217143Y-95350081D01*
X153360001Y-95397700D01*
X153455239Y-95492938D01*
X153502858Y-95588176D01*
X153550477Y-95778652D01*
X153550477Y-95921510D01*
X153502858Y-96111986D01*
X153455239Y-96207224D01*
X153360001Y-96302462D01*
X153217143Y-96350081D01*
X152979048Y-96350081D01*
X154407620Y-95683414D02*
X154407620Y-96350081D01*
X154169524Y-95302462D02*
X153931429Y-96016748D01*
X154550477Y-96016748D01*
X151288095Y-94610081D02*
X151288095Y-93610081D01*
X151859524Y-94610081D02*
X151430952Y-94038652D01*
X151859524Y-93610081D02*
X151288095Y-94181510D01*
X151740953Y-100731581D02*
X151264762Y-100731581D01*
X151264762Y-99731581D01*
X152074286Y-100207771D02*
X152407620Y-100207771D01*
X152550477Y-100731581D02*
X152074286Y-100731581D01*
X152074286Y-99731581D01*
X152550477Y-99731581D01*
X152979048Y-100731581D02*
X152979048Y-99731581D01*
X153217143Y-99731581D01*
X153360001Y-99779200D01*
X153455239Y-99874438D01*
X153502858Y-99969676D01*
X153550477Y-100160152D01*
X153550477Y-100303010D01*
X153502858Y-100493486D01*
X153455239Y-100588724D01*
X153360001Y-100683962D01*
X153217143Y-100731581D01*
X152979048Y-100731581D01*
X154455239Y-99731581D02*
X153979048Y-99731581D01*
X153931429Y-100207771D01*
X153979048Y-100160152D01*
X154074286Y-100112533D01*
X154312382Y-100112533D01*
X154407620Y-100160152D01*
X154455239Y-100207771D01*
X154502858Y-100303010D01*
X154502858Y-100541105D01*
X154455239Y-100636343D01*
X154407620Y-100683962D01*
X154312382Y-100731581D01*
X154074286Y-100731581D01*
X153979048Y-100683962D01*
X153931429Y-100636343D01*
X151288095Y-98991581D02*
X151288095Y-97991581D01*
X151859524Y-98991581D02*
X151430952Y-98420152D01*
X151859524Y-97991581D02*
X151288095Y-98563010D01*
X151740953Y-105113081D02*
X151264762Y-105113081D01*
X151264762Y-104113081D01*
X152074286Y-104589271D02*
X152407620Y-104589271D01*
X152550477Y-105113081D02*
X152074286Y-105113081D01*
X152074286Y-104113081D01*
X152550477Y-104113081D01*
X152979048Y-105113081D02*
X152979048Y-104113081D01*
X153217143Y-104113081D01*
X153360001Y-104160700D01*
X153455239Y-104255938D01*
X153502858Y-104351176D01*
X153550477Y-104541652D01*
X153550477Y-104684510D01*
X153502858Y-104874986D01*
X153455239Y-104970224D01*
X153360001Y-105065462D01*
X153217143Y-105113081D01*
X152979048Y-105113081D01*
X154407620Y-104113081D02*
X154217143Y-104113081D01*
X154121905Y-104160700D01*
X154074286Y-104208319D01*
X153979048Y-104351176D01*
X153931429Y-104541652D01*
X153931429Y-104922605D01*
X153979048Y-105017843D01*
X154026667Y-105065462D01*
X154121905Y-105113081D01*
X154312382Y-105113081D01*
X154407620Y-105065462D01*
X154455239Y-105017843D01*
X154502858Y-104922605D01*
X154502858Y-104684510D01*
X154455239Y-104589271D01*
X154407620Y-104541652D01*
X154312382Y-104494033D01*
X154121905Y-104494033D01*
X154026667Y-104541652D01*
X153979048Y-104589271D01*
X153931429Y-104684510D01*
X151288095Y-103373081D02*
X151288095Y-102373081D01*
X151859524Y-103373081D02*
X151430952Y-102801652D01*
X151859524Y-102373081D02*
X151288095Y-102944510D01*
X151740953Y-109494581D02*
X151264762Y-109494581D01*
X151264762Y-108494581D01*
X152074286Y-108970771D02*
X152407620Y-108970771D01*
X152550477Y-109494581D02*
X152074286Y-109494581D01*
X152074286Y-108494581D01*
X152550477Y-108494581D01*
X152979048Y-109494581D02*
X152979048Y-108494581D01*
X153217143Y-108494581D01*
X153360001Y-108542200D01*
X153455239Y-108637438D01*
X153502858Y-108732676D01*
X153550477Y-108923152D01*
X153550477Y-109066010D01*
X153502858Y-109256486D01*
X153455239Y-109351724D01*
X153360001Y-109446962D01*
X153217143Y-109494581D01*
X152979048Y-109494581D01*
X153883810Y-108494581D02*
X154550477Y-108494581D01*
X154121905Y-109494581D01*
X151288095Y-107754581D02*
X151288095Y-106754581D01*
X151859524Y-107754581D02*
X151430952Y-107183152D01*
X151859524Y-106754581D02*
X151288095Y-107326010D01*
X151740953Y-113876081D02*
X151264762Y-113876081D01*
X151264762Y-112876081D01*
X152074286Y-113352271D02*
X152407620Y-113352271D01*
X152550477Y-113876081D02*
X152074286Y-113876081D01*
X152074286Y-112876081D01*
X152550477Y-112876081D01*
X152979048Y-113876081D02*
X152979048Y-112876081D01*
X153217143Y-112876081D01*
X153360001Y-112923700D01*
X153455239Y-113018938D01*
X153502858Y-113114176D01*
X153550477Y-113304652D01*
X153550477Y-113447510D01*
X153502858Y-113637986D01*
X153455239Y-113733224D01*
X153360001Y-113828462D01*
X153217143Y-113876081D01*
X152979048Y-113876081D01*
X154121905Y-113304652D02*
X154026667Y-113257033D01*
X153979048Y-113209414D01*
X153931429Y-113114176D01*
X153931429Y-113066557D01*
X153979048Y-112971319D01*
X154026667Y-112923700D01*
X154121905Y-112876081D01*
X154312382Y-112876081D01*
X154407620Y-112923700D01*
X154455239Y-112971319D01*
X154502858Y-113066557D01*
X154502858Y-113114176D01*
X154455239Y-113209414D01*
X154407620Y-113257033D01*
X154312382Y-113304652D01*
X154121905Y-113304652D01*
X154026667Y-113352271D01*
X153979048Y-113399890D01*
X153931429Y-113495129D01*
X153931429Y-113685605D01*
X153979048Y-113780843D01*
X154026667Y-113828462D01*
X154121905Y-113876081D01*
X154312382Y-113876081D01*
X154407620Y-113828462D01*
X154455239Y-113780843D01*
X154502858Y-113685605D01*
X154502858Y-113495129D01*
X154455239Y-113399890D01*
X154407620Y-113352271D01*
X154312382Y-113304652D01*
X151288095Y-112136081D02*
X151288095Y-111136081D01*
X151859524Y-112136081D02*
X151430952Y-111564652D01*
X151859524Y-111136081D02*
X151288095Y-111707510D01*
X151740953Y-118257581D02*
X151264762Y-118257581D01*
X151264762Y-117257581D01*
X152074286Y-117733771D02*
X152407620Y-117733771D01*
X152550477Y-118257581D02*
X152074286Y-118257581D01*
X152074286Y-117257581D01*
X152550477Y-117257581D01*
X152979048Y-118257581D02*
X152979048Y-117257581D01*
X153217143Y-117257581D01*
X153360001Y-117305200D01*
X153455239Y-117400438D01*
X153502858Y-117495676D01*
X153550477Y-117686152D01*
X153550477Y-117829010D01*
X153502858Y-118019486D01*
X153455239Y-118114724D01*
X153360001Y-118209962D01*
X153217143Y-118257581D01*
X152979048Y-118257581D01*
X154026667Y-118257581D02*
X154217143Y-118257581D01*
X154312382Y-118209962D01*
X154360001Y-118162343D01*
X154455239Y-118019486D01*
X154502858Y-117829010D01*
X154502858Y-117448057D01*
X154455239Y-117352819D01*
X154407620Y-117305200D01*
X154312382Y-117257581D01*
X154121905Y-117257581D01*
X154026667Y-117305200D01*
X153979048Y-117352819D01*
X153931429Y-117448057D01*
X153931429Y-117686152D01*
X153979048Y-117781390D01*
X154026667Y-117829010D01*
X154121905Y-117876629D01*
X154312382Y-117876629D01*
X154407620Y-117829010D01*
X154455239Y-117781390D01*
X154502858Y-117686152D01*
X151288095Y-116517581D02*
X151288095Y-115517581D01*
X151859524Y-116517581D02*
X151430952Y-115946152D01*
X151859524Y-115517581D02*
X151288095Y-116089010D01*
X122234762Y-89797581D02*
X121758571Y-89797581D01*
X121758571Y-88797581D01*
X122568095Y-89273771D02*
X122901429Y-89273771D01*
X123044286Y-89797581D02*
X122568095Y-89797581D01*
X122568095Y-88797581D01*
X123044286Y-88797581D01*
X123472857Y-89797581D02*
X123472857Y-88797581D01*
X123710952Y-88797581D01*
X123853810Y-88845200D01*
X123949048Y-88940438D01*
X123996667Y-89035676D01*
X124044286Y-89226152D01*
X124044286Y-89369010D01*
X123996667Y-89559486D01*
X123949048Y-89654724D01*
X123853810Y-89749962D01*
X123710952Y-89797581D01*
X123472857Y-89797581D01*
X124996667Y-89797581D02*
X124425238Y-89797581D01*
X124710952Y-89797581D02*
X124710952Y-88797581D01*
X124615714Y-88940438D01*
X124520476Y-89035676D01*
X124425238Y-89083295D01*
X125615714Y-88797581D02*
X125710953Y-88797581D01*
X125806191Y-88845200D01*
X125853810Y-88892819D01*
X125901429Y-88988057D01*
X125949048Y-89178533D01*
X125949048Y-89416629D01*
X125901429Y-89607105D01*
X125853810Y-89702343D01*
X125806191Y-89749962D01*
X125710953Y-89797581D01*
X125615714Y-89797581D01*
X125520476Y-89749962D01*
X125472857Y-89702343D01*
X125425238Y-89607105D01*
X125377619Y-89416629D01*
X125377619Y-89178533D01*
X125425238Y-88988057D01*
X125472857Y-88892819D01*
X125520476Y-88845200D01*
X125615714Y-88797581D01*
X119968095Y-94597581D02*
X119968095Y-93597581D01*
X120539524Y-94597581D02*
X120110952Y-94026152D01*
X120539524Y-93597581D02*
X119968095Y-94169010D01*
X134659619Y-84499438D02*
X134612000Y-84594676D01*
X134516762Y-84689914D01*
X134373905Y-84832771D01*
X134326286Y-84928010D01*
X134326286Y-85023248D01*
X134564381Y-84975629D02*
X134516762Y-85070867D01*
X134421524Y-85166105D01*
X134231048Y-85213724D01*
X133897714Y-85213724D01*
X133707238Y-85166105D01*
X133612000Y-85070867D01*
X133564381Y-84975629D01*
X133564381Y-84785152D01*
X133612000Y-84689914D01*
X133707238Y-84594676D01*
X133897714Y-84547057D01*
X134231048Y-84547057D01*
X134421524Y-84594676D01*
X134516762Y-84689914D01*
X134564381Y-84785152D01*
X134564381Y-84975629D01*
X134564381Y-83594676D02*
X134564381Y-84166105D01*
X134564381Y-83880391D02*
X133564381Y-83880391D01*
X133707238Y-83975629D01*
X133802476Y-84070867D01*
X133850095Y-84166105D01*
X134659619Y-92119438D02*
X134612000Y-92214676D01*
X134516762Y-92309914D01*
X134373905Y-92452771D01*
X134326286Y-92548010D01*
X134326286Y-92643248D01*
X134564381Y-92595629D02*
X134516762Y-92690867D01*
X134421524Y-92786105D01*
X134231048Y-92833724D01*
X133897714Y-92833724D01*
X133707238Y-92786105D01*
X133612000Y-92690867D01*
X133564381Y-92595629D01*
X133564381Y-92405152D01*
X133612000Y-92309914D01*
X133707238Y-92214676D01*
X133897714Y-92167057D01*
X134231048Y-92167057D01*
X134421524Y-92214676D01*
X134516762Y-92309914D01*
X134564381Y-92405152D01*
X134564381Y-92595629D01*
X133564381Y-91833724D02*
X133564381Y-91214676D01*
X133945333Y-91548010D01*
X133945333Y-91405152D01*
X133992952Y-91309914D01*
X134040571Y-91262295D01*
X134135810Y-91214676D01*
X134373905Y-91214676D01*
X134469143Y-91262295D01*
X134516762Y-91309914D01*
X134564381Y-91405152D01*
X134564381Y-91690867D01*
X134516762Y-91786105D01*
X134469143Y-91833724D01*
X134659619Y-99739438D02*
X134612000Y-99834676D01*
X134516762Y-99929914D01*
X134373905Y-100072771D01*
X134326286Y-100168010D01*
X134326286Y-100263248D01*
X134564381Y-100215629D02*
X134516762Y-100310867D01*
X134421524Y-100406105D01*
X134231048Y-100453724D01*
X133897714Y-100453724D01*
X133707238Y-100406105D01*
X133612000Y-100310867D01*
X133564381Y-100215629D01*
X133564381Y-100025152D01*
X133612000Y-99929914D01*
X133707238Y-99834676D01*
X133897714Y-99787057D01*
X134231048Y-99787057D01*
X134421524Y-99834676D01*
X134516762Y-99929914D01*
X134564381Y-100025152D01*
X134564381Y-100215629D01*
X133564381Y-98882295D02*
X133564381Y-99358486D01*
X134040571Y-99406105D01*
X133992952Y-99358486D01*
X133945333Y-99263248D01*
X133945333Y-99025152D01*
X133992952Y-98929914D01*
X134040571Y-98882295D01*
X134135810Y-98834676D01*
X134373905Y-98834676D01*
X134469143Y-98882295D01*
X134516762Y-98929914D01*
X134564381Y-99025152D01*
X134564381Y-99263248D01*
X134516762Y-99358486D01*
X134469143Y-99406105D01*
X134659619Y-107359438D02*
X134612000Y-107454676D01*
X134516762Y-107549914D01*
X134373905Y-107692771D01*
X134326286Y-107788010D01*
X134326286Y-107883248D01*
X134564381Y-107835629D02*
X134516762Y-107930867D01*
X134421524Y-108026105D01*
X134231048Y-108073724D01*
X133897714Y-108073724D01*
X133707238Y-108026105D01*
X133612000Y-107930867D01*
X133564381Y-107835629D01*
X133564381Y-107645152D01*
X133612000Y-107549914D01*
X133707238Y-107454676D01*
X133897714Y-107407057D01*
X134231048Y-107407057D01*
X134421524Y-107454676D01*
X134516762Y-107549914D01*
X134564381Y-107645152D01*
X134564381Y-107835629D01*
X133564381Y-107073724D02*
X133564381Y-106407057D01*
X134564381Y-106835629D01*
X134659619Y-114979438D02*
X134612000Y-115074676D01*
X134516762Y-115169914D01*
X134373905Y-115312771D01*
X134326286Y-115408010D01*
X134326286Y-115503248D01*
X134564381Y-115455629D02*
X134516762Y-115550867D01*
X134421524Y-115646105D01*
X134231048Y-115693724D01*
X133897714Y-115693724D01*
X133707238Y-115646105D01*
X133612000Y-115550867D01*
X133564381Y-115455629D01*
X133564381Y-115265152D01*
X133612000Y-115169914D01*
X133707238Y-115074676D01*
X133897714Y-115027057D01*
X134231048Y-115027057D01*
X134421524Y-115074676D01*
X134516762Y-115169914D01*
X134564381Y-115265152D01*
X134564381Y-115455629D01*
X134564381Y-114550867D02*
X134564381Y-114360391D01*
X134516762Y-114265152D01*
X134469143Y-114217533D01*
X134326286Y-114122295D01*
X134135810Y-114074676D01*
X133754857Y-114074676D01*
X133659619Y-114122295D01*
X133612000Y-114169914D01*
X133564381Y-114265152D01*
X133564381Y-114455629D01*
X133612000Y-114550867D01*
X133659619Y-114598486D01*
X133754857Y-114646105D01*
X133992952Y-114646105D01*
X134088190Y-114598486D01*
X134135810Y-114550867D01*
X134183429Y-114455629D01*
X134183429Y-114265152D01*
X134135810Y-114169914D01*
X134088190Y-114122295D01*
X133992952Y-114074676D01*
X140180572Y-105061819D02*
X140085334Y-105014200D01*
X139990096Y-104918962D01*
X139847239Y-104776105D01*
X139752000Y-104728486D01*
X139656762Y-104728486D01*
X139704381Y-104966581D02*
X139609143Y-104918962D01*
X139513905Y-104823724D01*
X139466286Y-104633248D01*
X139466286Y-104299914D01*
X139513905Y-104109438D01*
X139609143Y-104014200D01*
X139704381Y-103966581D01*
X139894858Y-103966581D01*
X139990096Y-104014200D01*
X140085334Y-104109438D01*
X140132953Y-104299914D01*
X140132953Y-104633248D01*
X140085334Y-104823724D01*
X139990096Y-104918962D01*
X139894858Y-104966581D01*
X139704381Y-104966581D01*
X141085334Y-104966581D02*
X140513905Y-104966581D01*
X140799619Y-104966581D02*
X140799619Y-103966581D01*
X140704381Y-104109438D01*
X140609143Y-104204676D01*
X140513905Y-104252295D01*
X141942477Y-103966581D02*
X141752000Y-103966581D01*
X141656762Y-104014200D01*
X141609143Y-104061819D01*
X141513905Y-104204676D01*
X141466286Y-104395152D01*
X141466286Y-104776105D01*
X141513905Y-104871343D01*
X141561524Y-104918962D01*
X141656762Y-104966581D01*
X141847239Y-104966581D01*
X141942477Y-104918962D01*
X141990096Y-104871343D01*
X142037715Y-104776105D01*
X142037715Y-104538010D01*
X141990096Y-104442771D01*
X141942477Y-104395152D01*
X141847239Y-104347533D01*
X141656762Y-104347533D01*
X141561524Y-104395152D01*
X141513905Y-104442771D01*
X141466286Y-104538010D01*
X140180572Y-112554819D02*
X140085334Y-112507200D01*
X139990096Y-112411962D01*
X139847239Y-112269105D01*
X139752000Y-112221486D01*
X139656762Y-112221486D01*
X139704381Y-112459581D02*
X139609143Y-112411962D01*
X139513905Y-112316724D01*
X139466286Y-112126248D01*
X139466286Y-111792914D01*
X139513905Y-111602438D01*
X139609143Y-111507200D01*
X139704381Y-111459581D01*
X139894858Y-111459581D01*
X139990096Y-111507200D01*
X140085334Y-111602438D01*
X140132953Y-111792914D01*
X140132953Y-112126248D01*
X140085334Y-112316724D01*
X139990096Y-112411962D01*
X139894858Y-112459581D01*
X139704381Y-112459581D01*
X141085334Y-112459581D02*
X140513905Y-112459581D01*
X140799619Y-112459581D02*
X140799619Y-111459581D01*
X140704381Y-111602438D01*
X140609143Y-111697676D01*
X140513905Y-111745295D01*
X141656762Y-111888152D02*
X141561524Y-111840533D01*
X141513905Y-111792914D01*
X141466286Y-111697676D01*
X141466286Y-111650057D01*
X141513905Y-111554819D01*
X141561524Y-111507200D01*
X141656762Y-111459581D01*
X141847239Y-111459581D01*
X141942477Y-111507200D01*
X141990096Y-111554819D01*
X142037715Y-111650057D01*
X142037715Y-111697676D01*
X141990096Y-111792914D01*
X141942477Y-111840533D01*
X141847239Y-111888152D01*
X141656762Y-111888152D01*
X141561524Y-111935771D01*
X141513905Y-111983390D01*
X141466286Y-112078629D01*
X141466286Y-112269105D01*
X141513905Y-112364343D01*
X141561524Y-112411962D01*
X141656762Y-112459581D01*
X141847239Y-112459581D01*
X141942477Y-112411962D01*
X141990096Y-112364343D01*
X142037715Y-112269105D01*
X142037715Y-112078629D01*
X141990096Y-111983390D01*
X141942477Y-111935771D01*
X141847239Y-111888152D01*
X128873905Y-81157819D02*
X128921524Y-81110200D01*
X129016762Y-81062581D01*
X129254858Y-81062581D01*
X129350096Y-81110200D01*
X129397715Y-81157819D01*
X129445334Y-81253057D01*
X129445334Y-81348295D01*
X129397715Y-81491152D01*
X128826286Y-82062581D01*
X129445334Y-82062581D01*
X130064381Y-81062581D02*
X130159620Y-81062581D01*
X130254858Y-81110200D01*
X130302477Y-81157819D01*
X130350096Y-81253057D01*
X130397715Y-81443533D01*
X130397715Y-81681629D01*
X130350096Y-81872105D01*
X130302477Y-81967343D01*
X130254858Y-82014962D01*
X130159620Y-82062581D01*
X130064381Y-82062581D01*
X129969143Y-82014962D01*
X129921524Y-81967343D01*
X129873905Y-81872105D01*
X129826286Y-81681629D01*
X129826286Y-81443533D01*
X129873905Y-81253057D01*
X129921524Y-81157819D01*
X129969143Y-81110200D01*
X130064381Y-81062581D01*
X131016762Y-81062581D02*
X131112001Y-81062581D01*
X131207239Y-81110200D01*
X131254858Y-81157819D01*
X131302477Y-81253057D01*
X131350096Y-81443533D01*
X131350096Y-81681629D01*
X131302477Y-81872105D01*
X131254858Y-81967343D01*
X131207239Y-82014962D01*
X131112001Y-82062581D01*
X131016762Y-82062581D01*
X130921524Y-82014962D01*
X130873905Y-81967343D01*
X130826286Y-81872105D01*
X130778667Y-81681629D01*
X130778667Y-81443533D01*
X130826286Y-81253057D01*
X130873905Y-81157819D01*
X130921524Y-81110200D01*
X131016762Y-81062581D01*
X128873905Y-88777819D02*
X128921524Y-88730200D01*
X129016762Y-88682581D01*
X129254858Y-88682581D01*
X129350096Y-88730200D01*
X129397715Y-88777819D01*
X129445334Y-88873057D01*
X129445334Y-88968295D01*
X129397715Y-89111152D01*
X128826286Y-89682581D01*
X129445334Y-89682581D01*
X130064381Y-88682581D02*
X130159620Y-88682581D01*
X130254858Y-88730200D01*
X130302477Y-88777819D01*
X130350096Y-88873057D01*
X130397715Y-89063533D01*
X130397715Y-89301629D01*
X130350096Y-89492105D01*
X130302477Y-89587343D01*
X130254858Y-89634962D01*
X130159620Y-89682581D01*
X130064381Y-89682581D01*
X129969143Y-89634962D01*
X129921524Y-89587343D01*
X129873905Y-89492105D01*
X129826286Y-89301629D01*
X129826286Y-89063533D01*
X129873905Y-88873057D01*
X129921524Y-88777819D01*
X129969143Y-88730200D01*
X130064381Y-88682581D01*
X131016762Y-88682581D02*
X131112001Y-88682581D01*
X131207239Y-88730200D01*
X131254858Y-88777819D01*
X131302477Y-88873057D01*
X131350096Y-89063533D01*
X131350096Y-89301629D01*
X131302477Y-89492105D01*
X131254858Y-89587343D01*
X131207239Y-89634962D01*
X131112001Y-89682581D01*
X131016762Y-89682581D01*
X130921524Y-89634962D01*
X130873905Y-89587343D01*
X130826286Y-89492105D01*
X130778667Y-89301629D01*
X130778667Y-89063533D01*
X130826286Y-88873057D01*
X130873905Y-88777819D01*
X130921524Y-88730200D01*
X131016762Y-88682581D01*
X130173905Y-94297819D02*
X130221524Y-94250200D01*
X130316762Y-94202581D01*
X130554858Y-94202581D01*
X130650096Y-94250200D01*
X130697715Y-94297819D01*
X130745334Y-94393057D01*
X130745334Y-94488295D01*
X130697715Y-94631152D01*
X130126286Y-95202581D01*
X130745334Y-95202581D01*
X131364381Y-94202581D02*
X131459620Y-94202581D01*
X131554858Y-94250200D01*
X131602477Y-94297819D01*
X131650096Y-94393057D01*
X131697715Y-94583533D01*
X131697715Y-94821629D01*
X131650096Y-95012105D01*
X131602477Y-95107343D01*
X131554858Y-95154962D01*
X131459620Y-95202581D01*
X131364381Y-95202581D01*
X131269143Y-95154962D01*
X131221524Y-95107343D01*
X131173905Y-95012105D01*
X131126286Y-94821629D01*
X131126286Y-94583533D01*
X131173905Y-94393057D01*
X131221524Y-94297819D01*
X131269143Y-94250200D01*
X131364381Y-94202581D01*
X132316762Y-94202581D02*
X132412001Y-94202581D01*
X132507239Y-94250200D01*
X132554858Y-94297819D01*
X132602477Y-94393057D01*
X132650096Y-94583533D01*
X132650096Y-94821629D01*
X132602477Y-95012105D01*
X132554858Y-95107343D01*
X132507239Y-95154962D01*
X132412001Y-95202581D01*
X132316762Y-95202581D01*
X132221524Y-95154962D01*
X132173905Y-95107343D01*
X132126286Y-95012105D01*
X132078667Y-94821629D01*
X132078667Y-94583533D01*
X132126286Y-94393057D01*
X132173905Y-94297819D01*
X132221524Y-94250200D01*
X132316762Y-94202581D01*
X130173905Y-101917819D02*
X130221524Y-101870200D01*
X130316762Y-101822581D01*
X130554858Y-101822581D01*
X130650096Y-101870200D01*
X130697715Y-101917819D01*
X130745334Y-102013057D01*
X130745334Y-102108295D01*
X130697715Y-102251152D01*
X130126286Y-102822581D01*
X130745334Y-102822581D01*
X131364381Y-101822581D02*
X131459620Y-101822581D01*
X131554858Y-101870200D01*
X131602477Y-101917819D01*
X131650096Y-102013057D01*
X131697715Y-102203533D01*
X131697715Y-102441629D01*
X131650096Y-102632105D01*
X131602477Y-102727343D01*
X131554858Y-102774962D01*
X131459620Y-102822581D01*
X131364381Y-102822581D01*
X131269143Y-102774962D01*
X131221524Y-102727343D01*
X131173905Y-102632105D01*
X131126286Y-102441629D01*
X131126286Y-102203533D01*
X131173905Y-102013057D01*
X131221524Y-101917819D01*
X131269143Y-101870200D01*
X131364381Y-101822581D01*
X132316762Y-101822581D02*
X132412001Y-101822581D01*
X132507239Y-101870200D01*
X132554858Y-101917819D01*
X132602477Y-102013057D01*
X132650096Y-102203533D01*
X132650096Y-102441629D01*
X132602477Y-102632105D01*
X132554858Y-102727343D01*
X132507239Y-102774962D01*
X132412001Y-102822581D01*
X132316762Y-102822581D01*
X132221524Y-102774962D01*
X132173905Y-102727343D01*
X132126286Y-102632105D01*
X132078667Y-102441629D01*
X132078667Y-102203533D01*
X132126286Y-102013057D01*
X132173905Y-101917819D01*
X132221524Y-101870200D01*
X132316762Y-101822581D01*
X128873905Y-111637819D02*
X128921524Y-111590200D01*
X129016762Y-111542581D01*
X129254858Y-111542581D01*
X129350096Y-111590200D01*
X129397715Y-111637819D01*
X129445334Y-111733057D01*
X129445334Y-111828295D01*
X129397715Y-111971152D01*
X128826286Y-112542581D01*
X129445334Y-112542581D01*
X130064381Y-111542581D02*
X130159620Y-111542581D01*
X130254858Y-111590200D01*
X130302477Y-111637819D01*
X130350096Y-111733057D01*
X130397715Y-111923533D01*
X130397715Y-112161629D01*
X130350096Y-112352105D01*
X130302477Y-112447343D01*
X130254858Y-112494962D01*
X130159620Y-112542581D01*
X130064381Y-112542581D01*
X129969143Y-112494962D01*
X129921524Y-112447343D01*
X129873905Y-112352105D01*
X129826286Y-112161629D01*
X129826286Y-111923533D01*
X129873905Y-111733057D01*
X129921524Y-111637819D01*
X129969143Y-111590200D01*
X130064381Y-111542581D01*
X131016762Y-111542581D02*
X131112001Y-111542581D01*
X131207239Y-111590200D01*
X131254858Y-111637819D01*
X131302477Y-111733057D01*
X131350096Y-111923533D01*
X131350096Y-112161629D01*
X131302477Y-112352105D01*
X131254858Y-112447343D01*
X131207239Y-112494962D01*
X131112001Y-112542581D01*
X131016762Y-112542581D01*
X130921524Y-112494962D01*
X130873905Y-112447343D01*
X130826286Y-112352105D01*
X130778667Y-112161629D01*
X130778667Y-111923533D01*
X130826286Y-111733057D01*
X130873905Y-111637819D01*
X130921524Y-111590200D01*
X131016762Y-111542581D01*
X117260715Y-90757581D02*
X116689286Y-90757581D01*
X116975000Y-90757581D02*
X116975000Y-89757581D01*
X116879762Y-89900438D01*
X116784524Y-89995676D01*
X116689286Y-90043295D01*
X117689286Y-90757581D02*
X117689286Y-89757581D01*
X118260715Y-90757581D02*
X117832143Y-90186152D01*
X118260715Y-89757581D02*
X117689286Y-90329010D01*
X118181524Y-67779581D02*
X117610095Y-67779581D01*
X117895809Y-67779581D02*
X117895809Y-66779581D01*
X117800571Y-66922438D01*
X117705333Y-67017676D01*
X117610095Y-67065295D01*
X118800571Y-66779581D02*
X118895810Y-66779581D01*
X118991048Y-66827200D01*
X119038667Y-66874819D01*
X119086286Y-66970057D01*
X119133905Y-67160533D01*
X119133905Y-67398629D01*
X119086286Y-67589105D01*
X119038667Y-67684343D01*
X118991048Y-67731962D01*
X118895810Y-67779581D01*
X118800571Y-67779581D01*
X118705333Y-67731962D01*
X118657714Y-67684343D01*
X118610095Y-67589105D01*
X118562476Y-67398629D01*
X118562476Y-67160533D01*
X118610095Y-66970057D01*
X118657714Y-66874819D01*
X118705333Y-66827200D01*
X118800571Y-66779581D01*
X119562476Y-67779581D02*
X119562476Y-66779581D01*
X120133905Y-67779581D02*
X119705333Y-67208152D01*
X120133905Y-66779581D02*
X119562476Y-67351010D01*
X127715667Y-104993486D02*
X127715667Y-104517295D01*
X128001381Y-105088724D02*
X127001381Y-104755391D01*
X128001381Y-104422057D01*
X127001381Y-104231581D02*
X127001381Y-103660152D01*
X128001381Y-103945867D02*
X127001381Y-103945867D01*
X127001381Y-103469676D02*
X127001381Y-102898247D01*
X128001381Y-103183962D02*
X127001381Y-103183962D01*
X128001381Y-102564914D02*
X127001381Y-102564914D01*
X128001381Y-102088724D02*
X127001381Y-102088724D01*
X128001381Y-101517295D01*
X127001381Y-101517295D01*
X127525190Y-100850629D02*
X128001381Y-100850629D01*
X127001381Y-101183962D02*
X127525190Y-100850629D01*
X127001381Y-100517295D01*
X127096619Y-100231581D02*
X127049000Y-100183962D01*
X127001381Y-100088724D01*
X127001381Y-99850628D01*
X127049000Y-99755390D01*
X127096619Y-99707771D01*
X127191857Y-99660152D01*
X127287095Y-99660152D01*
X127429952Y-99707771D01*
X128001381Y-100279200D01*
X128001381Y-99660152D01*
X127334714Y-98803009D02*
X128001381Y-98803009D01*
X126953762Y-99041105D02*
X127668048Y-99279200D01*
X127668048Y-98660152D01*
X127620429Y-98279200D02*
X127620429Y-97517295D01*
X127953762Y-97088724D02*
X128001381Y-96945867D01*
X128001381Y-96707771D01*
X127953762Y-96612533D01*
X127906143Y-96564914D01*
X127810905Y-96517295D01*
X127715667Y-96517295D01*
X127620429Y-96564914D01*
X127572810Y-96612533D01*
X127525190Y-96707771D01*
X127477571Y-96898248D01*
X127429952Y-96993486D01*
X127382333Y-97041105D01*
X127287095Y-97088724D01*
X127191857Y-97088724D01*
X127096619Y-97041105D01*
X127049000Y-96993486D01*
X127001381Y-96898248D01*
X127001381Y-96660152D01*
X127049000Y-96517295D01*
X127953762Y-96136343D02*
X128001381Y-95993486D01*
X128001381Y-95755390D01*
X127953762Y-95660152D01*
X127906143Y-95612533D01*
X127810905Y-95564914D01*
X127715667Y-95564914D01*
X127620429Y-95612533D01*
X127572810Y-95660152D01*
X127525190Y-95755390D01*
X127477571Y-95945867D01*
X127429952Y-96041105D01*
X127382333Y-96088724D01*
X127287095Y-96136343D01*
X127191857Y-96136343D01*
X127096619Y-96088724D01*
X127049000Y-96041105D01*
X127001381Y-95945867D01*
X127001381Y-95707771D01*
X127049000Y-95564914D01*
X114983667Y-115953162D02*
X115126524Y-116000781D01*
X115364620Y-116000781D01*
X115459858Y-115953162D01*
X115507477Y-115905543D01*
X115555096Y-115810305D01*
X115555096Y-115715067D01*
X115507477Y-115619829D01*
X115459858Y-115572210D01*
X115364620Y-115524590D01*
X115174143Y-115476971D01*
X115078905Y-115429352D01*
X115031286Y-115381733D01*
X114983667Y-115286495D01*
X114983667Y-115191257D01*
X115031286Y-115096019D01*
X115078905Y-115048400D01*
X115174143Y-115000781D01*
X115412239Y-115000781D01*
X115555096Y-115048400D01*
X115888429Y-115000781D02*
X116126524Y-116000781D01*
X116317001Y-115286495D01*
X116507477Y-116000781D01*
X116745572Y-115000781D01*
X117650334Y-116000781D02*
X117078905Y-116000781D01*
X117364619Y-116000781D02*
X117364619Y-115000781D01*
X117269381Y-115143638D01*
X117174143Y-115238876D01*
X117078905Y-115286495D01*
X133143667Y-64349381D02*
X133143667Y-65063667D01*
X133096047Y-65206524D01*
X133000809Y-65301762D01*
X132857952Y-65349381D01*
X132762714Y-65349381D01*
X133572238Y-64444619D02*
X133619857Y-64397000D01*
X133715095Y-64349381D01*
X133953191Y-64349381D01*
X134048429Y-64397000D01*
X134096048Y-64444619D01*
X134143667Y-64539857D01*
X134143667Y-64635095D01*
X134096048Y-64777952D01*
X133524619Y-65349381D01*
X134143667Y-65349381D01*
X149399667Y-64349381D02*
X149399667Y-65063667D01*
X149352047Y-65206524D01*
X149256809Y-65301762D01*
X149113952Y-65349381D01*
X149018714Y-65349381D01*
X150399667Y-65349381D02*
X149828238Y-65349381D01*
X150113952Y-65349381D02*
X150113952Y-64349381D01*
X150018714Y-64492238D01*
X149923476Y-64587476D01*
X149828238Y-64635095D01*
M02*
