G04 #@! TF.FileFunction,Copper,L1,Top,Signal*
%FSLAX46Y46*%
G04 Gerber Fmt 4.6, Leading zero omitted, Abs format (unit mm)*
G04 Created by KiCad (PCBNEW 4.0.2+dfsg1-stable) date Sat 24 Feb 2018 03:40:28 PM MST*
%MOMM*%
G01*
G04 APERTURE LIST*
%ADD10C,0.100000*%
%ADD11R,0.800100X1.800860*%
%ADD12R,1.727200X1.727200*%
%ADD13O,1.727200X1.727200*%
%ADD14R,1.250000X1.500000*%
%ADD15R,0.910000X1.220000*%
%ADD16R,2.032000X2.032000*%
%ADD17O,2.032000X2.032000*%
%ADD18R,2.000000X2.000000*%
%ADD19C,2.000000*%
%ADD20R,1.800860X0.800100*%
%ADD21R,1.500000X1.300000*%
%ADD22O,2.300000X1.500000*%
%ADD23C,1.500000*%
%ADD24R,0.600000X1.500000*%
%ADD25O,1.397000X2.540000*%
%ADD26C,3.649980*%
%ADD27R,1.501140X1.501140*%
%ADD28C,1.501140*%
%ADD29C,1.524000*%
%ADD30C,1.000000*%
%ADD31C,0.800000*%
%ADD32C,0.500000*%
%ADD33C,0.250000*%
%ADD34C,1.000000*%
%ADD35C,0.254000*%
G04 APERTURE END LIST*
D10*
D11*
X142052000Y-101145340D03*
X143952000Y-101145340D03*
X143002000Y-98143060D03*
X142052000Y-93525340D03*
X143952000Y-93525340D03*
X143002000Y-90523060D03*
X142052000Y-85905340D03*
X143952000Y-85905340D03*
X143002000Y-82903060D03*
D12*
X120142000Y-74625200D03*
D13*
X117602000Y-74625200D03*
X120142000Y-72085200D03*
X117602000Y-72085200D03*
X120142000Y-69545200D03*
X117602000Y-69545200D03*
D14*
X115570000Y-99624200D03*
X115570000Y-97124200D03*
D15*
X155210000Y-92405200D03*
X158480000Y-92405200D03*
X155210000Y-97485200D03*
X158480000Y-97485200D03*
X155210000Y-102565200D03*
X158480000Y-102565200D03*
X155210000Y-107645200D03*
X158480000Y-107645200D03*
X155210000Y-112725200D03*
X158480000Y-112725200D03*
D16*
X114046000Y-107899200D03*
D17*
X114046000Y-110439200D03*
D18*
X149860000Y-82753200D03*
D19*
X147320000Y-82753200D03*
D18*
X149860000Y-87134700D03*
D19*
X147320000Y-87134700D03*
D18*
X149860000Y-91516200D03*
D19*
X147320000Y-91516200D03*
D18*
X149860000Y-95897700D03*
D19*
X147320000Y-95897700D03*
D18*
X149860000Y-100279200D03*
D19*
X147320000Y-100279200D03*
D18*
X149860000Y-104660700D03*
D19*
X147320000Y-104660700D03*
D18*
X149860000Y-109042200D03*
D19*
X147320000Y-109042200D03*
D18*
X149860000Y-113423700D03*
D19*
X147320000Y-113423700D03*
D18*
X149860000Y-117805200D03*
D19*
X147320000Y-117805200D03*
D18*
X121920000Y-92405200D03*
D19*
X124460000Y-92405200D03*
D20*
X139423140Y-85354200D03*
X139423140Y-83454200D03*
X136420860Y-84404200D03*
X139423140Y-92974200D03*
X139423140Y-91074200D03*
X136420860Y-92024200D03*
X139423140Y-100594200D03*
X139423140Y-98694200D03*
X136420860Y-99644200D03*
X139423140Y-108214200D03*
X139423140Y-106314200D03*
X136420860Y-107264200D03*
X139423140Y-115834200D03*
X139423140Y-113934200D03*
X136420860Y-114884200D03*
D11*
X142052000Y-108765340D03*
X143952000Y-108765340D03*
X143002000Y-105763060D03*
X142052000Y-116258340D03*
X143952000Y-116258340D03*
X143002000Y-113256060D03*
D21*
X132762000Y-81610200D03*
X135462000Y-81610200D03*
X132762000Y-89230200D03*
X135462000Y-89230200D03*
X132762000Y-96850200D03*
X135462000Y-96850200D03*
X132762000Y-104470200D03*
X135462000Y-104470200D03*
X132762000Y-112090200D03*
X135462000Y-112090200D03*
X118825000Y-92405200D03*
X116125000Y-92405200D03*
X117522000Y-65227200D03*
X120222000Y-65227200D03*
D22*
X115817000Y-123648400D03*
X130817000Y-123648400D03*
X130817000Y-117448400D03*
D23*
X123317000Y-119298400D03*
X123317000Y-121798400D03*
X125317000Y-119298400D03*
X125317000Y-121798400D03*
X127317000Y-121798400D03*
X127317000Y-119298400D03*
X119317000Y-119298400D03*
X119317000Y-121798400D03*
D22*
X115817000Y-117448400D03*
D24*
X118364000Y-102979200D03*
X119634000Y-102979200D03*
X120904000Y-102979200D03*
X122174000Y-102979200D03*
X123444000Y-102979200D03*
X124714000Y-102979200D03*
X125984000Y-102979200D03*
X125984000Y-97579200D03*
X124714000Y-97579200D03*
X123444000Y-97579200D03*
X122174000Y-97579200D03*
X120904000Y-97579200D03*
X119634000Y-97579200D03*
X118364000Y-97579200D03*
D25*
X157353000Y-65532000D03*
D26*
X143794480Y-68580000D03*
X155663900Y-68580000D03*
D27*
X154178000Y-74930000D03*
D28*
X152908000Y-77470000D03*
X151638000Y-74930000D03*
X150368000Y-77470000D03*
X149098000Y-74930000D03*
X147828000Y-77470000D03*
X146558000Y-74930000D03*
X145288000Y-77470000D03*
D25*
X142113000Y-65532000D03*
D29*
X132858000Y-74930000D03*
X135398000Y-74930000D03*
X130318000Y-74930000D03*
X136668000Y-77470000D03*
X134128000Y-77470000D03*
X131588000Y-77470000D03*
D25*
X126619000Y-65532000D03*
X140335000Y-65532000D03*
D26*
X128397000Y-68580000D03*
X138557000Y-68580000D03*
D30*
X132715000Y-114249200D03*
X132715000Y-84404200D03*
X130683000Y-88214200D03*
X132715000Y-92024200D03*
X130683000Y-95834200D03*
X132715000Y-99644200D03*
X130683000Y-103454200D03*
X132715000Y-107264200D03*
X130683000Y-110185200D03*
X123444000Y-66878200D03*
X114046000Y-66878200D03*
X115824000Y-73355200D03*
X116078000Y-90119200D03*
X113919000Y-97993200D03*
X140335000Y-120345200D03*
X144018000Y-111201200D03*
X144018000Y-88214200D03*
X144018000Y-95834200D03*
X144018000Y-103454200D03*
X145288000Y-107264200D03*
X145288000Y-99644200D03*
X145288000Y-92024200D03*
X145288000Y-84404200D03*
X128524000Y-116281200D03*
D31*
X125984000Y-95961200D03*
X130683000Y-98628200D03*
X128016000Y-82499200D03*
X124714000Y-95961200D03*
X125984000Y-101422200D03*
X122174000Y-101422200D03*
X119634000Y-99771200D03*
X120904000Y-99009200D03*
X123444000Y-99771200D03*
X127000000Y-106248200D03*
X127000000Y-111455200D03*
D32*
X131699000Y-112090200D02*
X130683000Y-111074200D01*
X130683000Y-111074200D02*
X130683000Y-110185200D01*
X132762000Y-112090200D02*
X132762000Y-114202200D01*
D33*
X132762000Y-114202200D02*
X132715000Y-114249200D01*
D32*
X132762000Y-81610200D02*
X132762000Y-84357200D01*
D33*
X132762000Y-84357200D02*
X132715000Y-84404200D01*
D32*
X130683000Y-88214200D02*
X131699000Y-89230200D01*
X131699000Y-89230200D02*
X132762000Y-89230200D01*
D33*
X132762000Y-89230200D02*
X132715000Y-89277200D01*
D32*
X132715000Y-89277200D02*
X132715000Y-92024200D01*
X130683000Y-95834200D02*
X131699000Y-96850200D01*
X131699000Y-96850200D02*
X132762000Y-96850200D01*
D33*
X132762000Y-96850200D02*
X132715000Y-96897200D01*
D32*
X132715000Y-96897200D02*
X132715000Y-99644200D01*
X130683000Y-103454200D02*
X131699000Y-104470200D01*
X131699000Y-104470200D02*
X132762000Y-104470200D01*
D33*
X132762000Y-104470200D02*
X132715000Y-104517200D01*
D32*
X132715000Y-104517200D02*
X132715000Y-107264200D01*
X131699000Y-112090200D02*
X132762000Y-112090200D01*
D33*
X132762000Y-112090200D02*
X132715000Y-112137200D01*
X127317000Y-121798400D02*
X127387800Y-121869200D01*
X129794000Y-84404200D02*
X124079000Y-90119200D01*
X124079000Y-90119200D02*
X116078000Y-90119200D01*
X129794000Y-80213200D02*
X129794000Y-84404200D01*
X123444000Y-73863200D02*
X129794000Y-80213200D01*
X123444000Y-66878200D02*
X123444000Y-73863200D01*
X117602000Y-69545200D02*
X114935000Y-66878200D01*
X114935000Y-66878200D02*
X114046000Y-66878200D01*
X113919000Y-97993200D02*
X113919000Y-97612200D01*
X117602000Y-69545200D02*
X116380686Y-69545200D01*
X116380686Y-69545200D02*
X115824000Y-70101886D01*
X115824000Y-70101886D02*
X115824000Y-73355200D01*
X116125000Y-92405200D02*
X116125000Y-90166200D01*
X116125000Y-90166200D02*
X116078000Y-90119200D01*
X115570000Y-97124200D02*
X114407000Y-97124200D01*
X114407000Y-97124200D02*
X113919000Y-97612200D01*
X115824000Y-92104200D02*
X116125000Y-92405200D01*
X123317000Y-119298400D02*
X123317000Y-119202200D01*
X123317000Y-119202200D02*
X124714000Y-117805200D01*
X130810000Y-120345200D02*
X140335000Y-120345200D01*
X128270000Y-117805200D02*
X130810000Y-120345200D01*
X124714000Y-117805200D02*
X128270000Y-117805200D01*
X143952000Y-108765340D02*
X143952000Y-111135200D01*
X143952000Y-111135200D02*
X144018000Y-111201200D01*
X143952000Y-85905340D02*
X144018000Y-85971340D01*
X144018000Y-85971340D02*
X144018000Y-88214200D01*
X144018000Y-95834200D02*
X144018000Y-93591340D01*
X144018000Y-93591340D02*
X143952000Y-93525340D01*
X143952000Y-101145340D02*
X143952000Y-103388200D01*
X143952000Y-103388200D02*
X144018000Y-103454200D01*
X144675860Y-108765340D02*
X143952000Y-108765340D01*
X145288000Y-108153200D02*
X144675860Y-108765340D01*
X145288000Y-107264200D02*
X145288000Y-108153200D01*
X143952000Y-101145340D02*
X144675860Y-101145340D01*
X145288000Y-100533200D02*
X145288000Y-99644200D01*
X144675860Y-101145340D02*
X145288000Y-100533200D01*
X144675860Y-93525340D02*
X143952000Y-93525340D01*
X145288000Y-92913200D02*
X144675860Y-93525340D01*
X145288000Y-92024200D02*
X145288000Y-92913200D01*
X144675860Y-85905340D02*
X143952000Y-85905340D01*
X145288000Y-85293200D02*
X144675860Y-85905340D01*
X145288000Y-84404200D02*
X145288000Y-85293200D01*
D32*
X115570000Y-99624200D02*
X114695000Y-99624200D01*
X114695000Y-99624200D02*
X113645000Y-99624200D01*
X116840000Y-112471200D02*
X120650000Y-116281200D01*
X128524000Y-116281200D02*
X120650000Y-116281200D01*
X112522000Y-98501200D02*
X112522000Y-74625200D01*
X113645000Y-99624200D02*
X112522000Y-98501200D01*
X118364000Y-102979200D02*
X117508000Y-102979200D01*
X116312000Y-99624200D02*
X115570000Y-99624200D01*
X117094000Y-100406200D02*
X116312000Y-99624200D01*
X117094000Y-102565200D02*
X117094000Y-100406200D01*
X117508000Y-102979200D02*
X117094000Y-102565200D01*
X118364000Y-102979200D02*
X118364000Y-104978200D01*
X116840000Y-106502200D02*
X116840000Y-112471200D01*
X118364000Y-104978200D02*
X116840000Y-106502200D01*
X117602000Y-74625200D02*
X112522000Y-74625200D01*
X113792000Y-65227200D02*
X117522000Y-65227200D01*
X112522000Y-74625200D02*
X112522000Y-66497200D01*
X112522000Y-66497200D02*
X113792000Y-65227200D01*
D33*
X136668000Y-78578200D02*
X136668000Y-77470000D01*
X154178000Y-74930000D02*
X154178000Y-78435200D01*
X154178000Y-78435200D02*
X151638000Y-80975200D01*
X151638000Y-80975200D02*
X149860000Y-80975200D01*
X149860000Y-80975200D02*
X139065000Y-80975200D01*
X139065000Y-80975200D02*
X136668000Y-78578200D01*
X149860000Y-82753200D02*
X149860000Y-80975200D01*
X158480000Y-92405200D02*
X158480000Y-91881200D01*
X158480000Y-91881200D02*
X157734000Y-91135200D01*
X151130000Y-82753200D02*
X149860000Y-82753200D01*
X152146000Y-83769200D02*
X151130000Y-82753200D01*
X152146000Y-89103200D02*
X152146000Y-83769200D01*
X154178000Y-91135200D02*
X152146000Y-89103200D01*
X157734000Y-91135200D02*
X154178000Y-91135200D01*
X158496000Y-92389200D02*
X158480000Y-92405200D01*
X134112000Y-73355200D02*
X134128000Y-73371200D01*
X134128000Y-73371200D02*
X134128000Y-77470000D01*
X151638000Y-74930000D02*
X151638000Y-73660000D01*
X151638000Y-74930000D02*
X151638000Y-78435200D01*
X138684000Y-73101200D02*
X139192000Y-73609200D01*
X134112000Y-73355200D02*
X134366000Y-73101200D01*
X150114000Y-79959200D02*
X151638000Y-78435200D01*
X134366000Y-73101200D02*
X138684000Y-73101200D01*
X139192000Y-73609200D02*
X139192000Y-78435200D01*
X139192000Y-78435200D02*
X140716000Y-79959200D01*
X140716000Y-79959200D02*
X150114000Y-79959200D01*
X149860000Y-91516200D02*
X151384000Y-91516200D01*
X157734000Y-96215200D02*
X158480000Y-96961200D01*
X156083000Y-96215200D02*
X157734000Y-96215200D01*
X151384000Y-91516200D02*
X156083000Y-96215200D01*
X158480000Y-96961200D02*
X158480000Y-97485200D01*
X158480000Y-97485200D02*
X159258000Y-97485200D01*
X152146000Y-73101200D02*
X151638000Y-73609200D01*
X155194000Y-73101200D02*
X152146000Y-73101200D01*
X155702000Y-73609200D02*
X155194000Y-73101200D01*
X155702000Y-79451200D02*
X155702000Y-73609200D01*
X152908000Y-82245200D02*
X155702000Y-79451200D01*
X152908000Y-88595200D02*
X152908000Y-82245200D01*
X154686000Y-90373200D02*
X152908000Y-88595200D01*
X158496000Y-90373200D02*
X154686000Y-90373200D01*
X160147000Y-92024200D02*
X158496000Y-90373200D01*
X160147000Y-96596200D02*
X160147000Y-92024200D01*
X159258000Y-97485200D02*
X160147000Y-96596200D01*
X131588000Y-73339200D02*
X131588000Y-77470000D01*
X149098000Y-74930000D02*
X149098000Y-78435200D01*
X149098000Y-73609200D02*
X149098000Y-74930000D01*
X149098000Y-78435200D02*
X148590000Y-78943200D01*
X132461000Y-72466200D02*
X131588000Y-73339200D01*
X148590000Y-78943200D02*
X140716000Y-78943200D01*
X140208000Y-78435200D02*
X140208000Y-73609200D01*
X140716000Y-78943200D02*
X140208000Y-78435200D01*
X140208000Y-73609200D02*
X139065000Y-72466200D01*
X139065000Y-72466200D02*
X132461000Y-72466200D01*
X149860000Y-100279200D02*
X151384000Y-100279200D01*
X157734000Y-101295200D02*
X158480000Y-102041200D01*
X152400000Y-101295200D02*
X157734000Y-101295200D01*
X151384000Y-100279200D02*
X152400000Y-101295200D01*
X158480000Y-102041200D02*
X158480000Y-102565200D01*
X159258000Y-102565200D02*
X158480000Y-102565200D01*
X160782000Y-101041200D02*
X159258000Y-102565200D01*
X160782000Y-77800200D02*
X160782000Y-101041200D01*
X155448000Y-72466200D02*
X160782000Y-77800200D01*
X150241000Y-72466200D02*
X155448000Y-72466200D01*
X149098000Y-73609200D02*
X150241000Y-72466200D01*
X146558000Y-73609200D02*
X146558000Y-74930000D01*
X158480000Y-107645200D02*
X158480000Y-108169200D01*
X158480000Y-108169200D02*
X157607000Y-109042200D01*
X157607000Y-109042200D02*
X149860000Y-109042200D01*
X158480000Y-107645200D02*
X159258000Y-107645200D01*
X148336000Y-71831200D02*
X146558000Y-73609200D01*
X155702000Y-71831200D02*
X148336000Y-71831200D01*
X161417000Y-77546200D02*
X155702000Y-71831200D01*
X161417000Y-105486200D02*
X161417000Y-77546200D01*
X159258000Y-107645200D02*
X161417000Y-105486200D01*
X157353000Y-65227200D02*
X158369000Y-65227200D01*
X159258000Y-112725200D02*
X158480000Y-112725200D01*
X162052000Y-109931200D02*
X159258000Y-112725200D01*
X162052000Y-68910200D02*
X162052000Y-109931200D01*
X158369000Y-65227200D02*
X162052000Y-68910200D01*
D34*
X142113000Y-65532000D02*
X157353000Y-65532000D01*
D33*
X158480000Y-112725200D02*
X158480000Y-113249200D01*
X158480000Y-113249200D02*
X157734000Y-113995200D01*
X151384000Y-117805200D02*
X149860000Y-117805200D01*
X155194000Y-113995200D02*
X151384000Y-117805200D01*
X157734000Y-113995200D02*
X155194000Y-113995200D01*
D34*
X142113000Y-65227200D02*
X140335000Y-65227200D01*
X140335000Y-65532000D02*
X126619000Y-65532000D01*
D33*
X125984000Y-97579200D02*
X125984000Y-95961200D01*
X126111000Y-98628200D02*
X126111000Y-97706200D01*
X130683000Y-98628200D02*
X126111000Y-98628200D01*
X126111000Y-97706200D02*
X125984000Y-97579200D01*
X128016000Y-79832200D02*
X128016000Y-82499200D01*
X124714000Y-97579200D02*
X124714000Y-95961200D01*
X128016000Y-79832200D02*
X120269000Y-72085200D01*
X120269000Y-72085200D02*
X120142000Y-72085200D01*
X139423140Y-100594200D02*
X126553000Y-100594200D01*
X124714000Y-98755200D02*
X124714000Y-97579200D01*
X126553000Y-100594200D02*
X124714000Y-98755200D01*
X142052000Y-101145340D02*
X141455140Y-101145340D01*
X140904000Y-100594200D02*
X139423140Y-100594200D01*
X141455140Y-101145340D02*
X140904000Y-100594200D01*
X125984000Y-102979200D02*
X125984000Y-101422200D01*
X139423140Y-108214200D02*
X130236000Y-108214200D01*
X125984000Y-103962200D02*
X125984000Y-102979200D01*
X130236000Y-108214200D02*
X125984000Y-103962200D01*
X142052000Y-108765340D02*
X141455140Y-108765340D01*
X140904000Y-108214200D02*
X139423140Y-108214200D01*
X141455140Y-108765340D02*
X140904000Y-108214200D01*
X122174000Y-102979200D02*
X122174000Y-101422200D01*
X120142000Y-69545200D02*
X120222000Y-69465200D01*
X120222000Y-69465200D02*
X120222000Y-65227200D01*
X120904000Y-102979200D02*
X120904000Y-101041200D01*
X120904000Y-101041200D02*
X119634000Y-99771200D01*
X141455140Y-85905340D02*
X140904000Y-85354200D01*
X119634000Y-97579200D02*
X119634000Y-95961200D01*
X130241000Y-85354200D02*
X139423140Y-85354200D01*
X129540000Y-86055200D02*
X130241000Y-85354200D01*
X129540000Y-93675200D02*
X129540000Y-86055200D01*
X128778000Y-94437200D02*
X129540000Y-93675200D01*
X121158000Y-94437200D02*
X128778000Y-94437200D01*
X119634000Y-95961200D02*
X121158000Y-94437200D01*
X142052000Y-85905340D02*
X141455140Y-85905340D01*
X140904000Y-85354200D02*
X139423140Y-85354200D01*
X120904000Y-99009200D02*
X120904000Y-97579200D01*
X139423140Y-92974200D02*
X131511000Y-92974200D01*
X122174000Y-95961200D02*
X122174000Y-97579200D01*
X122936000Y-95199200D02*
X122174000Y-95961200D01*
X129286000Y-95199200D02*
X122936000Y-95199200D01*
X131511000Y-92974200D02*
X129286000Y-95199200D01*
X142052000Y-93525340D02*
X141455140Y-93525340D01*
X140904000Y-92974200D02*
X139423140Y-92974200D01*
X141455140Y-93525340D02*
X140904000Y-92974200D01*
X123444000Y-99771200D02*
X123444000Y-97579200D01*
X124714000Y-102979200D02*
X124714000Y-103962200D01*
X124714000Y-103962200D02*
X127000000Y-106248200D01*
X130937000Y-115834200D02*
X139423140Y-115834200D01*
X119634000Y-102979200D02*
X119634000Y-103962200D01*
X128524000Y-115265200D02*
X130368000Y-115265200D01*
X119634000Y-103962200D02*
X120015000Y-104343200D01*
X120015000Y-104343200D02*
X122555000Y-104343200D01*
X122555000Y-104343200D02*
X125730000Y-107518200D01*
X130368000Y-115265200D02*
X130937000Y-115834200D01*
X125730000Y-107518200D02*
X125730000Y-112471200D01*
X125730000Y-112471200D02*
X128524000Y-115265200D01*
X139362140Y-115773200D02*
X139423140Y-115834200D01*
X142052000Y-116258340D02*
X141328140Y-116258340D01*
X140904000Y-115834200D02*
X139423140Y-115834200D01*
X141328140Y-116258340D02*
X140904000Y-115834200D01*
X127000000Y-107518200D02*
X127000000Y-111455200D01*
X123444000Y-103962200D02*
X127000000Y-107518200D01*
X123444000Y-102979200D02*
X123444000Y-103962200D01*
X118825000Y-92405200D02*
X121920000Y-92405200D01*
X136420860Y-84404200D02*
X142001240Y-84404200D01*
X142001240Y-84404200D02*
X143002000Y-83403440D01*
X143002000Y-83403440D02*
X143002000Y-82903060D01*
X143002000Y-82903060D02*
X143024860Y-82880200D01*
X143024860Y-82880200D02*
X147193000Y-82880200D01*
X147193000Y-82880200D02*
X147320000Y-82753200D01*
X147320000Y-82753200D02*
X147320000Y-84404200D01*
X154178000Y-92405200D02*
X155210000Y-92405200D01*
X151384000Y-89611200D02*
X154178000Y-92405200D01*
X151384000Y-85420200D02*
X151384000Y-89611200D01*
X150876000Y-84912200D02*
X151384000Y-85420200D01*
X147828000Y-84912200D02*
X150876000Y-84912200D01*
X147320000Y-84404200D02*
X147828000Y-84912200D01*
X136420860Y-92024200D02*
X142001240Y-92024200D01*
X142001240Y-92024200D02*
X143002000Y-91023440D01*
X143002000Y-91023440D02*
X143002000Y-90523060D01*
X143002000Y-90523060D02*
X143106140Y-90627200D01*
X143106140Y-90627200D02*
X146431000Y-90627200D01*
X146431000Y-90627200D02*
X147320000Y-91516200D01*
X155210000Y-97485200D02*
X154813000Y-97485200D01*
X154813000Y-97485200D02*
X151003000Y-93675200D01*
X151003000Y-93675200D02*
X147828000Y-93675200D01*
X147828000Y-93675200D02*
X147320000Y-93167200D01*
X147320000Y-93167200D02*
X147320000Y-91516200D01*
X136420860Y-99644200D02*
X142001240Y-99644200D01*
X142001240Y-99644200D02*
X143002000Y-98643440D01*
X143002000Y-98643440D02*
X143002000Y-98143060D01*
X143002000Y-98143060D02*
X143024860Y-98120200D01*
X143024860Y-98120200D02*
X146558000Y-98120200D01*
X146558000Y-98120200D02*
X147320000Y-98882200D01*
X147320000Y-98882200D02*
X147320000Y-100279200D01*
X155210000Y-102565200D02*
X147828000Y-102565200D01*
X147320000Y-102057200D02*
X147320000Y-100279200D01*
X147828000Y-102565200D02*
X147320000Y-102057200D01*
X136420860Y-107264200D02*
X142001240Y-107264200D01*
X142001240Y-107264200D02*
X143002000Y-106263440D01*
X143002000Y-106263440D02*
X143002000Y-105763060D01*
X147320000Y-107264200D02*
X152527000Y-107264200D01*
X152908000Y-107645200D02*
X155210000Y-107645200D01*
X152527000Y-107264200D02*
X152908000Y-107645200D01*
X143002000Y-105763060D02*
X145945860Y-105763060D01*
X147320000Y-107137200D02*
X147320000Y-107264200D01*
X147320000Y-107264200D02*
X147320000Y-109042200D01*
X145945860Y-105763060D02*
X147320000Y-107137200D01*
X136420860Y-114884200D02*
X141874240Y-114884200D01*
X143002000Y-113756440D02*
X143002000Y-113256060D01*
X141874240Y-114884200D02*
X143002000Y-113756440D01*
X147320000Y-116027200D02*
X151003000Y-116027200D01*
X154305000Y-112725200D02*
X155210000Y-112725200D01*
X151003000Y-116027200D02*
X154305000Y-112725200D01*
X143002000Y-113256060D02*
X144548860Y-113256060D01*
X144548860Y-113256060D02*
X147320000Y-116027200D01*
X147320000Y-116027200D02*
X147320000Y-117805200D01*
X135462000Y-81610200D02*
X135462000Y-82510200D01*
X135462000Y-82510200D02*
X136406000Y-83454200D01*
X136406000Y-83454200D02*
X138272710Y-83454200D01*
X138272710Y-83454200D02*
X139423140Y-83454200D01*
X139423140Y-91074200D02*
X136406000Y-91074200D01*
X136406000Y-91074200D02*
X135462000Y-90130200D01*
X135462000Y-90130200D02*
X135462000Y-89230200D01*
X139423140Y-98694200D02*
X136406000Y-98694200D01*
X136406000Y-98694200D02*
X135462000Y-97750200D01*
X135462000Y-97750200D02*
X135462000Y-96850200D01*
X139423140Y-106314200D02*
X136406000Y-106314200D01*
X136406000Y-106314200D02*
X135462000Y-105370200D01*
X135462000Y-105370200D02*
X135462000Y-104470200D01*
X139423140Y-113934200D02*
X136406000Y-113934200D01*
X136406000Y-113934200D02*
X135462000Y-112990200D01*
X135462000Y-112990200D02*
X135462000Y-112090200D01*
D35*
G36*
X113019208Y-100249987D02*
X113019210Y-100249990D01*
X113306325Y-100441833D01*
X113362516Y-100453010D01*
X113645000Y-100509201D01*
X113645005Y-100509200D01*
X114322962Y-100509200D01*
X114341838Y-100609517D01*
X114480910Y-100825641D01*
X114693110Y-100970631D01*
X114945000Y-101021640D01*
X116195000Y-101021640D01*
X116209000Y-101019006D01*
X116209000Y-102565195D01*
X116208999Y-102565200D01*
X116259126Y-102817200D01*
X116276367Y-102903875D01*
X116409151Y-103102601D01*
X116468210Y-103190990D01*
X116882208Y-103604987D01*
X116882210Y-103604990D01*
X117169325Y-103796833D01*
X117439394Y-103850553D01*
X117460838Y-103964517D01*
X117479000Y-103992742D01*
X117479000Y-104611621D01*
X116214210Y-105876410D01*
X116022367Y-106163525D01*
X116022367Y-106163526D01*
X115954999Y-106502200D01*
X115955000Y-106502205D01*
X115955000Y-112471195D01*
X115954999Y-112471200D01*
X115986110Y-112627601D01*
X116022367Y-112809875D01*
X116147026Y-112996441D01*
X116214210Y-113096990D01*
X120024208Y-116906987D01*
X120024210Y-116906990D01*
X120311325Y-117098833D01*
X120367516Y-117110010D01*
X120650000Y-117166201D01*
X120650005Y-117166200D01*
X127803724Y-117166200D01*
X127880235Y-117242845D01*
X128297244Y-117416003D01*
X128748775Y-117416397D01*
X129026197Y-117301768D01*
X128997030Y-117448400D01*
X129102457Y-117978417D01*
X129402687Y-118427743D01*
X129852013Y-118727973D01*
X130382030Y-118833400D01*
X131251970Y-118833400D01*
X131781987Y-118727973D01*
X132231313Y-118427743D01*
X132531543Y-117978417D01*
X132636970Y-117448400D01*
X132531543Y-116918383D01*
X132314931Y-116594200D01*
X137999747Y-116594200D01*
X138058620Y-116685691D01*
X138270820Y-116830681D01*
X138522710Y-116881690D01*
X140323570Y-116881690D01*
X140558887Y-116837412D01*
X140725316Y-116730318D01*
X140790739Y-116795741D01*
X141004510Y-116938578D01*
X141004510Y-117158770D01*
X141048788Y-117394087D01*
X141187860Y-117610211D01*
X141400060Y-117755201D01*
X141651950Y-117806210D01*
X142452050Y-117806210D01*
X142687367Y-117761932D01*
X142903491Y-117622860D01*
X142998977Y-117483111D01*
X143013623Y-117518469D01*
X143192252Y-117697097D01*
X143425641Y-117793770D01*
X143666250Y-117793770D01*
X143825000Y-117635020D01*
X143825000Y-116385340D01*
X144079000Y-116385340D01*
X144079000Y-117635020D01*
X144237750Y-117793770D01*
X144478359Y-117793770D01*
X144711748Y-117697097D01*
X144890377Y-117518469D01*
X144987050Y-117285080D01*
X144987050Y-116544090D01*
X144828300Y-116385340D01*
X144079000Y-116385340D01*
X143825000Y-116385340D01*
X143805000Y-116385340D01*
X143805000Y-116131340D01*
X143825000Y-116131340D01*
X143825000Y-114881660D01*
X144079000Y-114881660D01*
X144079000Y-116131340D01*
X144828300Y-116131340D01*
X144987050Y-115972590D01*
X144987050Y-115231600D01*
X144890377Y-114998211D01*
X144711748Y-114819583D01*
X144478359Y-114722910D01*
X144237750Y-114722910D01*
X144079000Y-114881660D01*
X143825000Y-114881660D01*
X143677297Y-114733957D01*
X143853491Y-114620580D01*
X143998481Y-114408380D01*
X144049490Y-114156490D01*
X144049490Y-114016060D01*
X144234058Y-114016060D01*
X146560000Y-116342002D01*
X146560000Y-116350153D01*
X146395057Y-116418306D01*
X145934722Y-116877837D01*
X145685284Y-117478552D01*
X145684716Y-118128995D01*
X145933106Y-118730143D01*
X146392637Y-119190478D01*
X146993352Y-119439916D01*
X147643795Y-119440484D01*
X148244943Y-119192094D01*
X148311574Y-119125579D01*
X148395910Y-119256641D01*
X148608110Y-119401631D01*
X148860000Y-119452640D01*
X150860000Y-119452640D01*
X151095317Y-119408362D01*
X151311441Y-119269290D01*
X151456431Y-119057090D01*
X151507440Y-118805200D01*
X151507440Y-118540646D01*
X151674839Y-118507348D01*
X151921401Y-118342601D01*
X155508802Y-114755200D01*
X157734000Y-114755200D01*
X158024839Y-114697348D01*
X158271401Y-114532601D01*
X158821362Y-113982640D01*
X158935000Y-113982640D01*
X159170317Y-113938362D01*
X159386441Y-113799290D01*
X159531431Y-113587090D01*
X159566118Y-113415803D01*
X159795401Y-113262601D01*
X161850000Y-111208002D01*
X161850000Y-124155200D01*
X161876772Y-124289789D01*
X161863642Y-124321487D01*
X161851009Y-124385000D01*
X158837818Y-124385000D01*
X159414943Y-124146537D01*
X160367990Y-123195152D01*
X160884411Y-121951472D01*
X160885586Y-120604836D01*
X160371337Y-119360257D01*
X159419952Y-118407210D01*
X158176272Y-117890789D01*
X156829636Y-117889614D01*
X155585057Y-118403863D01*
X154632010Y-119355248D01*
X154115589Y-120598928D01*
X154114414Y-121945564D01*
X154628663Y-123190143D01*
X155580048Y-124143190D01*
X156162391Y-124385000D01*
X132393509Y-124385000D01*
X132531543Y-124178417D01*
X132636970Y-123648400D01*
X132531543Y-123118383D01*
X132231313Y-122669057D01*
X131781987Y-122368827D01*
X131251970Y-122263400D01*
X130382030Y-122263400D01*
X129852013Y-122368827D01*
X129402687Y-122669057D01*
X129102457Y-123118383D01*
X128997030Y-123648400D01*
X129102457Y-124178417D01*
X129240491Y-124385000D01*
X117393509Y-124385000D01*
X117531543Y-124178417D01*
X117636970Y-123648400D01*
X117531543Y-123118383D01*
X117231313Y-122669057D01*
X116781987Y-122368827D01*
X116251970Y-122263400D01*
X115382030Y-122263400D01*
X114852013Y-122368827D01*
X114402687Y-122669057D01*
X114102457Y-123118383D01*
X113997030Y-123648400D01*
X114102457Y-124178417D01*
X114240491Y-124385000D01*
X112470000Y-124385000D01*
X112470000Y-122072685D01*
X117931760Y-122072685D01*
X118142169Y-122581915D01*
X118531436Y-122971861D01*
X119040298Y-123183159D01*
X119591285Y-123183640D01*
X120100515Y-122973231D01*
X120490461Y-122583964D01*
X120701759Y-122075102D01*
X120701761Y-122072685D01*
X121931760Y-122072685D01*
X122142169Y-122581915D01*
X122531436Y-122971861D01*
X123040298Y-123183159D01*
X123591285Y-123183640D01*
X124100515Y-122973231D01*
X124317036Y-122757087D01*
X124531436Y-122971861D01*
X125040298Y-123183159D01*
X125591285Y-123183640D01*
X126100515Y-122973231D01*
X126317036Y-122757087D01*
X126531436Y-122971861D01*
X127040298Y-123183159D01*
X127591285Y-123183640D01*
X128100515Y-122973231D01*
X128490461Y-122583964D01*
X128701759Y-122075102D01*
X128702240Y-121524115D01*
X128491831Y-121014885D01*
X128102564Y-120624939D01*
X127918414Y-120548473D01*
X128100515Y-120473231D01*
X128490461Y-120083964D01*
X128701759Y-119575102D01*
X128702240Y-119024115D01*
X128491831Y-118514885D01*
X128102564Y-118124939D01*
X127593702Y-117913641D01*
X127042715Y-117913160D01*
X126533485Y-118123569D01*
X126316964Y-118339713D01*
X126102564Y-118124939D01*
X125593702Y-117913641D01*
X125042715Y-117913160D01*
X124533485Y-118123569D01*
X124143539Y-118512836D01*
X124045099Y-118749906D01*
X123496605Y-119298400D01*
X124045033Y-119846828D01*
X124142169Y-120081915D01*
X124531436Y-120471861D01*
X124715586Y-120548327D01*
X124533485Y-120623569D01*
X124316964Y-120839713D01*
X124102564Y-120624939D01*
X123934246Y-120555047D01*
X124040923Y-120510860D01*
X124108912Y-120269917D01*
X123317000Y-119478005D01*
X122525088Y-120269917D01*
X122593077Y-120510860D01*
X122707611Y-120551622D01*
X122533485Y-120623569D01*
X122143539Y-121012836D01*
X121932241Y-121521698D01*
X121931760Y-122072685D01*
X120701761Y-122072685D01*
X120702240Y-121524115D01*
X120491831Y-121014885D01*
X120102564Y-120624939D01*
X119934246Y-120555047D01*
X120040923Y-120510860D01*
X120108912Y-120269917D01*
X119317000Y-119478005D01*
X118525088Y-120269917D01*
X118593077Y-120510860D01*
X118707611Y-120551622D01*
X118533485Y-120623569D01*
X118143539Y-121012836D01*
X117932241Y-121521698D01*
X117931760Y-122072685D01*
X112470000Y-122072685D01*
X112470000Y-119093571D01*
X117919799Y-119093571D01*
X117947770Y-119643848D01*
X118104540Y-120022323D01*
X118345483Y-120090312D01*
X119137395Y-119298400D01*
X119496605Y-119298400D01*
X120288517Y-120090312D01*
X120529460Y-120022323D01*
X120714201Y-119503229D01*
X120693378Y-119093571D01*
X121919799Y-119093571D01*
X121947770Y-119643848D01*
X122104540Y-120022323D01*
X122345483Y-120090312D01*
X123137395Y-119298400D01*
X122345483Y-118506488D01*
X122104540Y-118574477D01*
X121919799Y-119093571D01*
X120693378Y-119093571D01*
X120686230Y-118952952D01*
X120529460Y-118574477D01*
X120288517Y-118506488D01*
X119496605Y-119298400D01*
X119137395Y-119298400D01*
X118345483Y-118506488D01*
X118104540Y-118574477D01*
X117919799Y-119093571D01*
X112470000Y-119093571D01*
X112470000Y-117448400D01*
X113997030Y-117448400D01*
X114102457Y-117978417D01*
X114402687Y-118427743D01*
X114852013Y-118727973D01*
X115382030Y-118833400D01*
X116251970Y-118833400D01*
X116781987Y-118727973D01*
X117231313Y-118427743D01*
X117298705Y-118326883D01*
X118525088Y-118326883D01*
X119317000Y-119118795D01*
X120108912Y-118326883D01*
X122525088Y-118326883D01*
X123317000Y-119118795D01*
X124108912Y-118326883D01*
X124040923Y-118085940D01*
X123521829Y-117901199D01*
X122971552Y-117929170D01*
X122593077Y-118085940D01*
X122525088Y-118326883D01*
X120108912Y-118326883D01*
X120040923Y-118085940D01*
X119521829Y-117901199D01*
X118971552Y-117929170D01*
X118593077Y-118085940D01*
X118525088Y-118326883D01*
X117298705Y-118326883D01*
X117531543Y-117978417D01*
X117636970Y-117448400D01*
X117531543Y-116918383D01*
X117231313Y-116469057D01*
X116781987Y-116168827D01*
X116251970Y-116063400D01*
X115382030Y-116063400D01*
X114852013Y-116168827D01*
X114402687Y-116469057D01*
X114102457Y-116918383D01*
X113997030Y-117448400D01*
X112470000Y-117448400D01*
X112470000Y-110978859D01*
X112488330Y-111071010D01*
X112846222Y-111606633D01*
X113381845Y-111964525D01*
X114013655Y-112090200D01*
X114078345Y-112090200D01*
X114710155Y-111964525D01*
X115245778Y-111606633D01*
X115603670Y-111071010D01*
X115729345Y-110439200D01*
X115603670Y-109807390D01*
X115379034Y-109471199D01*
X115421698Y-109453527D01*
X115600327Y-109274899D01*
X115697000Y-109041510D01*
X115697000Y-108184950D01*
X115538250Y-108026200D01*
X114173000Y-108026200D01*
X114173000Y-108046200D01*
X113919000Y-108046200D01*
X113919000Y-108026200D01*
X113899000Y-108026200D01*
X113899000Y-107772200D01*
X113919000Y-107772200D01*
X113919000Y-106406950D01*
X114173000Y-106406950D01*
X114173000Y-107772200D01*
X115538250Y-107772200D01*
X115697000Y-107613450D01*
X115697000Y-106756890D01*
X115600327Y-106523501D01*
X115421698Y-106344873D01*
X115188309Y-106248200D01*
X114331750Y-106248200D01*
X114173000Y-106406950D01*
X113919000Y-106406950D01*
X113760250Y-106248200D01*
X112903691Y-106248200D01*
X112670302Y-106344873D01*
X112491673Y-106523501D01*
X112470000Y-106575824D01*
X112470000Y-104100913D01*
X112920120Y-104551819D01*
X113649427Y-104854654D01*
X114439109Y-104855343D01*
X115168943Y-104553782D01*
X115727819Y-103995880D01*
X116030654Y-103266573D01*
X116031343Y-102476891D01*
X115729782Y-101747057D01*
X115171880Y-101188181D01*
X114442573Y-100885346D01*
X113652891Y-100884657D01*
X112923057Y-101186218D01*
X112470000Y-101638485D01*
X112470000Y-99700779D01*
X113019208Y-100249987D01*
X113019208Y-100249987D01*
G37*
X113019208Y-100249987D02*
X113019210Y-100249990D01*
X113306325Y-100441833D01*
X113362516Y-100453010D01*
X113645000Y-100509201D01*
X113645005Y-100509200D01*
X114322962Y-100509200D01*
X114341838Y-100609517D01*
X114480910Y-100825641D01*
X114693110Y-100970631D01*
X114945000Y-101021640D01*
X116195000Y-101021640D01*
X116209000Y-101019006D01*
X116209000Y-102565195D01*
X116208999Y-102565200D01*
X116259126Y-102817200D01*
X116276367Y-102903875D01*
X116409151Y-103102601D01*
X116468210Y-103190990D01*
X116882208Y-103604987D01*
X116882210Y-103604990D01*
X117169325Y-103796833D01*
X117439394Y-103850553D01*
X117460838Y-103964517D01*
X117479000Y-103992742D01*
X117479000Y-104611621D01*
X116214210Y-105876410D01*
X116022367Y-106163525D01*
X116022367Y-106163526D01*
X115954999Y-106502200D01*
X115955000Y-106502205D01*
X115955000Y-112471195D01*
X115954999Y-112471200D01*
X115986110Y-112627601D01*
X116022367Y-112809875D01*
X116147026Y-112996441D01*
X116214210Y-113096990D01*
X120024208Y-116906987D01*
X120024210Y-116906990D01*
X120311325Y-117098833D01*
X120367516Y-117110010D01*
X120650000Y-117166201D01*
X120650005Y-117166200D01*
X127803724Y-117166200D01*
X127880235Y-117242845D01*
X128297244Y-117416003D01*
X128748775Y-117416397D01*
X129026197Y-117301768D01*
X128997030Y-117448400D01*
X129102457Y-117978417D01*
X129402687Y-118427743D01*
X129852013Y-118727973D01*
X130382030Y-118833400D01*
X131251970Y-118833400D01*
X131781987Y-118727973D01*
X132231313Y-118427743D01*
X132531543Y-117978417D01*
X132636970Y-117448400D01*
X132531543Y-116918383D01*
X132314931Y-116594200D01*
X137999747Y-116594200D01*
X138058620Y-116685691D01*
X138270820Y-116830681D01*
X138522710Y-116881690D01*
X140323570Y-116881690D01*
X140558887Y-116837412D01*
X140725316Y-116730318D01*
X140790739Y-116795741D01*
X141004510Y-116938578D01*
X141004510Y-117158770D01*
X141048788Y-117394087D01*
X141187860Y-117610211D01*
X141400060Y-117755201D01*
X141651950Y-117806210D01*
X142452050Y-117806210D01*
X142687367Y-117761932D01*
X142903491Y-117622860D01*
X142998977Y-117483111D01*
X143013623Y-117518469D01*
X143192252Y-117697097D01*
X143425641Y-117793770D01*
X143666250Y-117793770D01*
X143825000Y-117635020D01*
X143825000Y-116385340D01*
X144079000Y-116385340D01*
X144079000Y-117635020D01*
X144237750Y-117793770D01*
X144478359Y-117793770D01*
X144711748Y-117697097D01*
X144890377Y-117518469D01*
X144987050Y-117285080D01*
X144987050Y-116544090D01*
X144828300Y-116385340D01*
X144079000Y-116385340D01*
X143825000Y-116385340D01*
X143805000Y-116385340D01*
X143805000Y-116131340D01*
X143825000Y-116131340D01*
X143825000Y-114881660D01*
X144079000Y-114881660D01*
X144079000Y-116131340D01*
X144828300Y-116131340D01*
X144987050Y-115972590D01*
X144987050Y-115231600D01*
X144890377Y-114998211D01*
X144711748Y-114819583D01*
X144478359Y-114722910D01*
X144237750Y-114722910D01*
X144079000Y-114881660D01*
X143825000Y-114881660D01*
X143677297Y-114733957D01*
X143853491Y-114620580D01*
X143998481Y-114408380D01*
X144049490Y-114156490D01*
X144049490Y-114016060D01*
X144234058Y-114016060D01*
X146560000Y-116342002D01*
X146560000Y-116350153D01*
X146395057Y-116418306D01*
X145934722Y-116877837D01*
X145685284Y-117478552D01*
X145684716Y-118128995D01*
X145933106Y-118730143D01*
X146392637Y-119190478D01*
X146993352Y-119439916D01*
X147643795Y-119440484D01*
X148244943Y-119192094D01*
X148311574Y-119125579D01*
X148395910Y-119256641D01*
X148608110Y-119401631D01*
X148860000Y-119452640D01*
X150860000Y-119452640D01*
X151095317Y-119408362D01*
X151311441Y-119269290D01*
X151456431Y-119057090D01*
X151507440Y-118805200D01*
X151507440Y-118540646D01*
X151674839Y-118507348D01*
X151921401Y-118342601D01*
X155508802Y-114755200D01*
X157734000Y-114755200D01*
X158024839Y-114697348D01*
X158271401Y-114532601D01*
X158821362Y-113982640D01*
X158935000Y-113982640D01*
X159170317Y-113938362D01*
X159386441Y-113799290D01*
X159531431Y-113587090D01*
X159566118Y-113415803D01*
X159795401Y-113262601D01*
X161850000Y-111208002D01*
X161850000Y-124155200D01*
X161876772Y-124289789D01*
X161863642Y-124321487D01*
X161851009Y-124385000D01*
X158837818Y-124385000D01*
X159414943Y-124146537D01*
X160367990Y-123195152D01*
X160884411Y-121951472D01*
X160885586Y-120604836D01*
X160371337Y-119360257D01*
X159419952Y-118407210D01*
X158176272Y-117890789D01*
X156829636Y-117889614D01*
X155585057Y-118403863D01*
X154632010Y-119355248D01*
X154115589Y-120598928D01*
X154114414Y-121945564D01*
X154628663Y-123190143D01*
X155580048Y-124143190D01*
X156162391Y-124385000D01*
X132393509Y-124385000D01*
X132531543Y-124178417D01*
X132636970Y-123648400D01*
X132531543Y-123118383D01*
X132231313Y-122669057D01*
X131781987Y-122368827D01*
X131251970Y-122263400D01*
X130382030Y-122263400D01*
X129852013Y-122368827D01*
X129402687Y-122669057D01*
X129102457Y-123118383D01*
X128997030Y-123648400D01*
X129102457Y-124178417D01*
X129240491Y-124385000D01*
X117393509Y-124385000D01*
X117531543Y-124178417D01*
X117636970Y-123648400D01*
X117531543Y-123118383D01*
X117231313Y-122669057D01*
X116781987Y-122368827D01*
X116251970Y-122263400D01*
X115382030Y-122263400D01*
X114852013Y-122368827D01*
X114402687Y-122669057D01*
X114102457Y-123118383D01*
X113997030Y-123648400D01*
X114102457Y-124178417D01*
X114240491Y-124385000D01*
X112470000Y-124385000D01*
X112470000Y-122072685D01*
X117931760Y-122072685D01*
X118142169Y-122581915D01*
X118531436Y-122971861D01*
X119040298Y-123183159D01*
X119591285Y-123183640D01*
X120100515Y-122973231D01*
X120490461Y-122583964D01*
X120701759Y-122075102D01*
X120701761Y-122072685D01*
X121931760Y-122072685D01*
X122142169Y-122581915D01*
X122531436Y-122971861D01*
X123040298Y-123183159D01*
X123591285Y-123183640D01*
X124100515Y-122973231D01*
X124317036Y-122757087D01*
X124531436Y-122971861D01*
X125040298Y-123183159D01*
X125591285Y-123183640D01*
X126100515Y-122973231D01*
X126317036Y-122757087D01*
X126531436Y-122971861D01*
X127040298Y-123183159D01*
X127591285Y-123183640D01*
X128100515Y-122973231D01*
X128490461Y-122583964D01*
X128701759Y-122075102D01*
X128702240Y-121524115D01*
X128491831Y-121014885D01*
X128102564Y-120624939D01*
X127918414Y-120548473D01*
X128100515Y-120473231D01*
X128490461Y-120083964D01*
X128701759Y-119575102D01*
X128702240Y-119024115D01*
X128491831Y-118514885D01*
X128102564Y-118124939D01*
X127593702Y-117913641D01*
X127042715Y-117913160D01*
X126533485Y-118123569D01*
X126316964Y-118339713D01*
X126102564Y-118124939D01*
X125593702Y-117913641D01*
X125042715Y-117913160D01*
X124533485Y-118123569D01*
X124143539Y-118512836D01*
X124045099Y-118749906D01*
X123496605Y-119298400D01*
X124045033Y-119846828D01*
X124142169Y-120081915D01*
X124531436Y-120471861D01*
X124715586Y-120548327D01*
X124533485Y-120623569D01*
X124316964Y-120839713D01*
X124102564Y-120624939D01*
X123934246Y-120555047D01*
X124040923Y-120510860D01*
X124108912Y-120269917D01*
X123317000Y-119478005D01*
X122525088Y-120269917D01*
X122593077Y-120510860D01*
X122707611Y-120551622D01*
X122533485Y-120623569D01*
X122143539Y-121012836D01*
X121932241Y-121521698D01*
X121931760Y-122072685D01*
X120701761Y-122072685D01*
X120702240Y-121524115D01*
X120491831Y-121014885D01*
X120102564Y-120624939D01*
X119934246Y-120555047D01*
X120040923Y-120510860D01*
X120108912Y-120269917D01*
X119317000Y-119478005D01*
X118525088Y-120269917D01*
X118593077Y-120510860D01*
X118707611Y-120551622D01*
X118533485Y-120623569D01*
X118143539Y-121012836D01*
X117932241Y-121521698D01*
X117931760Y-122072685D01*
X112470000Y-122072685D01*
X112470000Y-119093571D01*
X117919799Y-119093571D01*
X117947770Y-119643848D01*
X118104540Y-120022323D01*
X118345483Y-120090312D01*
X119137395Y-119298400D01*
X119496605Y-119298400D01*
X120288517Y-120090312D01*
X120529460Y-120022323D01*
X120714201Y-119503229D01*
X120693378Y-119093571D01*
X121919799Y-119093571D01*
X121947770Y-119643848D01*
X122104540Y-120022323D01*
X122345483Y-120090312D01*
X123137395Y-119298400D01*
X122345483Y-118506488D01*
X122104540Y-118574477D01*
X121919799Y-119093571D01*
X120693378Y-119093571D01*
X120686230Y-118952952D01*
X120529460Y-118574477D01*
X120288517Y-118506488D01*
X119496605Y-119298400D01*
X119137395Y-119298400D01*
X118345483Y-118506488D01*
X118104540Y-118574477D01*
X117919799Y-119093571D01*
X112470000Y-119093571D01*
X112470000Y-117448400D01*
X113997030Y-117448400D01*
X114102457Y-117978417D01*
X114402687Y-118427743D01*
X114852013Y-118727973D01*
X115382030Y-118833400D01*
X116251970Y-118833400D01*
X116781987Y-118727973D01*
X117231313Y-118427743D01*
X117298705Y-118326883D01*
X118525088Y-118326883D01*
X119317000Y-119118795D01*
X120108912Y-118326883D01*
X122525088Y-118326883D01*
X123317000Y-119118795D01*
X124108912Y-118326883D01*
X124040923Y-118085940D01*
X123521829Y-117901199D01*
X122971552Y-117929170D01*
X122593077Y-118085940D01*
X122525088Y-118326883D01*
X120108912Y-118326883D01*
X120040923Y-118085940D01*
X119521829Y-117901199D01*
X118971552Y-117929170D01*
X118593077Y-118085940D01*
X118525088Y-118326883D01*
X117298705Y-118326883D01*
X117531543Y-117978417D01*
X117636970Y-117448400D01*
X117531543Y-116918383D01*
X117231313Y-116469057D01*
X116781987Y-116168827D01*
X116251970Y-116063400D01*
X115382030Y-116063400D01*
X114852013Y-116168827D01*
X114402687Y-116469057D01*
X114102457Y-116918383D01*
X113997030Y-117448400D01*
X112470000Y-117448400D01*
X112470000Y-110978859D01*
X112488330Y-111071010D01*
X112846222Y-111606633D01*
X113381845Y-111964525D01*
X114013655Y-112090200D01*
X114078345Y-112090200D01*
X114710155Y-111964525D01*
X115245778Y-111606633D01*
X115603670Y-111071010D01*
X115729345Y-110439200D01*
X115603670Y-109807390D01*
X115379034Y-109471199D01*
X115421698Y-109453527D01*
X115600327Y-109274899D01*
X115697000Y-109041510D01*
X115697000Y-108184950D01*
X115538250Y-108026200D01*
X114173000Y-108026200D01*
X114173000Y-108046200D01*
X113919000Y-108046200D01*
X113919000Y-108026200D01*
X113899000Y-108026200D01*
X113899000Y-107772200D01*
X113919000Y-107772200D01*
X113919000Y-106406950D01*
X114173000Y-106406950D01*
X114173000Y-107772200D01*
X115538250Y-107772200D01*
X115697000Y-107613450D01*
X115697000Y-106756890D01*
X115600327Y-106523501D01*
X115421698Y-106344873D01*
X115188309Y-106248200D01*
X114331750Y-106248200D01*
X114173000Y-106406950D01*
X113919000Y-106406950D01*
X113760250Y-106248200D01*
X112903691Y-106248200D01*
X112670302Y-106344873D01*
X112491673Y-106523501D01*
X112470000Y-106575824D01*
X112470000Y-104100913D01*
X112920120Y-104551819D01*
X113649427Y-104854654D01*
X114439109Y-104855343D01*
X115168943Y-104553782D01*
X115727819Y-103995880D01*
X116030654Y-103266573D01*
X116031343Y-102476891D01*
X115729782Y-101747057D01*
X115171880Y-101188181D01*
X114442573Y-100885346D01*
X113652891Y-100884657D01*
X112923057Y-101186218D01*
X112470000Y-101638485D01*
X112470000Y-99700779D01*
X113019208Y-100249987D01*
G36*
X146560000Y-107452002D02*
X146560000Y-107587153D01*
X146395057Y-107655306D01*
X145934722Y-108114837D01*
X145685284Y-108715552D01*
X145684716Y-109365995D01*
X145933106Y-109967143D01*
X146392637Y-110427478D01*
X146993352Y-110676916D01*
X147643795Y-110677484D01*
X148244943Y-110429094D01*
X148311574Y-110362579D01*
X148395910Y-110493641D01*
X148608110Y-110638631D01*
X148860000Y-110689640D01*
X150860000Y-110689640D01*
X151095317Y-110645362D01*
X151311441Y-110506290D01*
X151456431Y-110294090D01*
X151507440Y-110042200D01*
X151507440Y-109802200D01*
X157607000Y-109802200D01*
X157897839Y-109744348D01*
X158144401Y-109579601D01*
X158821362Y-108902640D01*
X158935000Y-108902640D01*
X159170317Y-108858362D01*
X159386441Y-108719290D01*
X159531431Y-108507090D01*
X159566118Y-108335803D01*
X159795401Y-108182601D01*
X161292000Y-106686002D01*
X161292000Y-109616398D01*
X159307334Y-111601064D01*
X159186890Y-111518769D01*
X158935000Y-111467760D01*
X158025000Y-111467760D01*
X157789683Y-111512038D01*
X157573559Y-111651110D01*
X157428569Y-111863310D01*
X157377560Y-112115200D01*
X157377560Y-113235200D01*
X156312440Y-113235200D01*
X156312440Y-112115200D01*
X156268162Y-111879883D01*
X156129090Y-111663759D01*
X155916890Y-111518769D01*
X155665000Y-111467760D01*
X154755000Y-111467760D01*
X154519683Y-111512038D01*
X154303559Y-111651110D01*
X154158569Y-111863310D01*
X154130924Y-111999826D01*
X154014160Y-112023052D01*
X153767599Y-112187799D01*
X151501280Y-114454118D01*
X151507440Y-114423700D01*
X151507440Y-112423700D01*
X151463162Y-112188383D01*
X151324090Y-111972259D01*
X151111890Y-111827269D01*
X150860000Y-111776260D01*
X148860000Y-111776260D01*
X148624683Y-111820538D01*
X148408559Y-111959610D01*
X148311090Y-112102261D01*
X148247363Y-112038422D01*
X147646648Y-111788984D01*
X146996205Y-111788416D01*
X146395057Y-112036806D01*
X145934722Y-112496337D01*
X145685284Y-113097052D01*
X145685092Y-113317490D01*
X145086261Y-112718659D01*
X144839699Y-112553912D01*
X144548860Y-112496060D01*
X144049490Y-112496060D01*
X144049490Y-112355630D01*
X144005212Y-112120313D01*
X143866140Y-111904189D01*
X143653940Y-111759199D01*
X143402050Y-111708190D01*
X142601950Y-111708190D01*
X142366633Y-111752468D01*
X142150509Y-111891540D01*
X142005519Y-112103740D01*
X141954510Y-112355630D01*
X141954510Y-113729128D01*
X141559438Y-114124200D01*
X140971010Y-114124200D01*
X140971010Y-113534150D01*
X140926732Y-113298833D01*
X140787660Y-113082709D01*
X140575460Y-112937719D01*
X140323570Y-112886710D01*
X138522710Y-112886710D01*
X138287393Y-112930988D01*
X138071269Y-113070060D01*
X138000113Y-113174200D01*
X136720802Y-113174200D01*
X136698939Y-113152337D01*
X136808431Y-112992090D01*
X136859440Y-112740200D01*
X136859440Y-111440200D01*
X136815162Y-111204883D01*
X136676090Y-110988759D01*
X136463890Y-110843769D01*
X136212000Y-110792760D01*
X134712000Y-110792760D01*
X134476683Y-110837038D01*
X134260559Y-110976110D01*
X134115569Y-111188310D01*
X134112919Y-111201397D01*
X133976090Y-110988759D01*
X133763890Y-110843769D01*
X133512000Y-110792760D01*
X132012000Y-110792760D01*
X131776683Y-110837038D01*
X131728453Y-110868073D01*
X131657760Y-110797380D01*
X131817803Y-110411956D01*
X131818197Y-109960425D01*
X131645767Y-109543114D01*
X131326765Y-109223555D01*
X130909756Y-109050397D01*
X130458225Y-109050003D01*
X130040914Y-109222433D01*
X129721355Y-109541435D01*
X129548197Y-109958444D01*
X129547803Y-110409975D01*
X129720233Y-110827286D01*
X129798000Y-110905189D01*
X129798000Y-111074195D01*
X129797999Y-111074200D01*
X129846972Y-111320397D01*
X129865367Y-111412875D01*
X129936123Y-111518769D01*
X130057210Y-111699990D01*
X131073208Y-112715987D01*
X131073210Y-112715990D01*
X131360325Y-112907833D01*
X131397494Y-112915226D01*
X131408838Y-112975517D01*
X131547910Y-113191641D01*
X131760110Y-113336631D01*
X131877000Y-113360302D01*
X131877000Y-113482006D01*
X131753355Y-113605435D01*
X131580197Y-114022444D01*
X131579803Y-114473975D01*
X131752233Y-114891286D01*
X131934828Y-115074200D01*
X131251802Y-115074200D01*
X130905401Y-114727799D01*
X130658839Y-114563052D01*
X130368000Y-114505200D01*
X128838802Y-114505200D01*
X126823649Y-112490047D01*
X127204971Y-112490379D01*
X127585515Y-112333142D01*
X127876919Y-112042246D01*
X128034820Y-111661977D01*
X128035179Y-111250229D01*
X127877942Y-110869685D01*
X127760000Y-110751537D01*
X127760000Y-107518200D01*
X127702148Y-107227361D01*
X127702148Y-107227360D01*
X127614910Y-107096799D01*
X127829540Y-106882542D01*
X129698599Y-108751601D01*
X129945161Y-108916348D01*
X130236000Y-108974200D01*
X137999747Y-108974200D01*
X138058620Y-109065691D01*
X138270820Y-109210681D01*
X138522710Y-109261690D01*
X140323570Y-109261690D01*
X140558887Y-109217412D01*
X140725316Y-109110318D01*
X140917739Y-109302741D01*
X141004510Y-109360719D01*
X141004510Y-109665770D01*
X141048788Y-109901087D01*
X141187860Y-110117211D01*
X141400060Y-110262201D01*
X141651950Y-110313210D01*
X142452050Y-110313210D01*
X142687367Y-110268932D01*
X142903491Y-110129860D01*
X142998977Y-109990111D01*
X143013623Y-110025469D01*
X143192252Y-110204097D01*
X143425641Y-110300770D01*
X143666250Y-110300770D01*
X143825000Y-110142020D01*
X143825000Y-108892340D01*
X144079000Y-108892340D01*
X144079000Y-110142020D01*
X144237750Y-110300770D01*
X144478359Y-110300770D01*
X144711748Y-110204097D01*
X144890377Y-110025469D01*
X144987050Y-109792080D01*
X144987050Y-109051090D01*
X144828300Y-108892340D01*
X144079000Y-108892340D01*
X143825000Y-108892340D01*
X143805000Y-108892340D01*
X143805000Y-108638340D01*
X143825000Y-108638340D01*
X143825000Y-107388660D01*
X144079000Y-107388660D01*
X144079000Y-108638340D01*
X144828300Y-108638340D01*
X144987050Y-108479590D01*
X144987050Y-107738600D01*
X144890377Y-107505211D01*
X144711748Y-107326583D01*
X144478359Y-107229910D01*
X144237750Y-107229910D01*
X144079000Y-107388660D01*
X143825000Y-107388660D01*
X143677297Y-107240957D01*
X143853491Y-107127580D01*
X143998481Y-106915380D01*
X144049490Y-106663490D01*
X144049490Y-106523060D01*
X145631058Y-106523060D01*
X146560000Y-107452002D01*
X146560000Y-107452002D01*
G37*
X146560000Y-107452002D02*
X146560000Y-107587153D01*
X146395057Y-107655306D01*
X145934722Y-108114837D01*
X145685284Y-108715552D01*
X145684716Y-109365995D01*
X145933106Y-109967143D01*
X146392637Y-110427478D01*
X146993352Y-110676916D01*
X147643795Y-110677484D01*
X148244943Y-110429094D01*
X148311574Y-110362579D01*
X148395910Y-110493641D01*
X148608110Y-110638631D01*
X148860000Y-110689640D01*
X150860000Y-110689640D01*
X151095317Y-110645362D01*
X151311441Y-110506290D01*
X151456431Y-110294090D01*
X151507440Y-110042200D01*
X151507440Y-109802200D01*
X157607000Y-109802200D01*
X157897839Y-109744348D01*
X158144401Y-109579601D01*
X158821362Y-108902640D01*
X158935000Y-108902640D01*
X159170317Y-108858362D01*
X159386441Y-108719290D01*
X159531431Y-108507090D01*
X159566118Y-108335803D01*
X159795401Y-108182601D01*
X161292000Y-106686002D01*
X161292000Y-109616398D01*
X159307334Y-111601064D01*
X159186890Y-111518769D01*
X158935000Y-111467760D01*
X158025000Y-111467760D01*
X157789683Y-111512038D01*
X157573559Y-111651110D01*
X157428569Y-111863310D01*
X157377560Y-112115200D01*
X157377560Y-113235200D01*
X156312440Y-113235200D01*
X156312440Y-112115200D01*
X156268162Y-111879883D01*
X156129090Y-111663759D01*
X155916890Y-111518769D01*
X155665000Y-111467760D01*
X154755000Y-111467760D01*
X154519683Y-111512038D01*
X154303559Y-111651110D01*
X154158569Y-111863310D01*
X154130924Y-111999826D01*
X154014160Y-112023052D01*
X153767599Y-112187799D01*
X151501280Y-114454118D01*
X151507440Y-114423700D01*
X151507440Y-112423700D01*
X151463162Y-112188383D01*
X151324090Y-111972259D01*
X151111890Y-111827269D01*
X150860000Y-111776260D01*
X148860000Y-111776260D01*
X148624683Y-111820538D01*
X148408559Y-111959610D01*
X148311090Y-112102261D01*
X148247363Y-112038422D01*
X147646648Y-111788984D01*
X146996205Y-111788416D01*
X146395057Y-112036806D01*
X145934722Y-112496337D01*
X145685284Y-113097052D01*
X145685092Y-113317490D01*
X145086261Y-112718659D01*
X144839699Y-112553912D01*
X144548860Y-112496060D01*
X144049490Y-112496060D01*
X144049490Y-112355630D01*
X144005212Y-112120313D01*
X143866140Y-111904189D01*
X143653940Y-111759199D01*
X143402050Y-111708190D01*
X142601950Y-111708190D01*
X142366633Y-111752468D01*
X142150509Y-111891540D01*
X142005519Y-112103740D01*
X141954510Y-112355630D01*
X141954510Y-113729128D01*
X141559438Y-114124200D01*
X140971010Y-114124200D01*
X140971010Y-113534150D01*
X140926732Y-113298833D01*
X140787660Y-113082709D01*
X140575460Y-112937719D01*
X140323570Y-112886710D01*
X138522710Y-112886710D01*
X138287393Y-112930988D01*
X138071269Y-113070060D01*
X138000113Y-113174200D01*
X136720802Y-113174200D01*
X136698939Y-113152337D01*
X136808431Y-112992090D01*
X136859440Y-112740200D01*
X136859440Y-111440200D01*
X136815162Y-111204883D01*
X136676090Y-110988759D01*
X136463890Y-110843769D01*
X136212000Y-110792760D01*
X134712000Y-110792760D01*
X134476683Y-110837038D01*
X134260559Y-110976110D01*
X134115569Y-111188310D01*
X134112919Y-111201397D01*
X133976090Y-110988759D01*
X133763890Y-110843769D01*
X133512000Y-110792760D01*
X132012000Y-110792760D01*
X131776683Y-110837038D01*
X131728453Y-110868073D01*
X131657760Y-110797380D01*
X131817803Y-110411956D01*
X131818197Y-109960425D01*
X131645767Y-109543114D01*
X131326765Y-109223555D01*
X130909756Y-109050397D01*
X130458225Y-109050003D01*
X130040914Y-109222433D01*
X129721355Y-109541435D01*
X129548197Y-109958444D01*
X129547803Y-110409975D01*
X129720233Y-110827286D01*
X129798000Y-110905189D01*
X129798000Y-111074195D01*
X129797999Y-111074200D01*
X129846972Y-111320397D01*
X129865367Y-111412875D01*
X129936123Y-111518769D01*
X130057210Y-111699990D01*
X131073208Y-112715987D01*
X131073210Y-112715990D01*
X131360325Y-112907833D01*
X131397494Y-112915226D01*
X131408838Y-112975517D01*
X131547910Y-113191641D01*
X131760110Y-113336631D01*
X131877000Y-113360302D01*
X131877000Y-113482006D01*
X131753355Y-113605435D01*
X131580197Y-114022444D01*
X131579803Y-114473975D01*
X131752233Y-114891286D01*
X131934828Y-115074200D01*
X131251802Y-115074200D01*
X130905401Y-114727799D01*
X130658839Y-114563052D01*
X130368000Y-114505200D01*
X128838802Y-114505200D01*
X126823649Y-112490047D01*
X127204971Y-112490379D01*
X127585515Y-112333142D01*
X127876919Y-112042246D01*
X128034820Y-111661977D01*
X128035179Y-111250229D01*
X127877942Y-110869685D01*
X127760000Y-110751537D01*
X127760000Y-107518200D01*
X127702148Y-107227361D01*
X127702148Y-107227360D01*
X127614910Y-107096799D01*
X127829540Y-106882542D01*
X129698599Y-108751601D01*
X129945161Y-108916348D01*
X130236000Y-108974200D01*
X137999747Y-108974200D01*
X138058620Y-109065691D01*
X138270820Y-109210681D01*
X138522710Y-109261690D01*
X140323570Y-109261690D01*
X140558887Y-109217412D01*
X140725316Y-109110318D01*
X140917739Y-109302741D01*
X141004510Y-109360719D01*
X141004510Y-109665770D01*
X141048788Y-109901087D01*
X141187860Y-110117211D01*
X141400060Y-110262201D01*
X141651950Y-110313210D01*
X142452050Y-110313210D01*
X142687367Y-110268932D01*
X142903491Y-110129860D01*
X142998977Y-109990111D01*
X143013623Y-110025469D01*
X143192252Y-110204097D01*
X143425641Y-110300770D01*
X143666250Y-110300770D01*
X143825000Y-110142020D01*
X143825000Y-108892340D01*
X144079000Y-108892340D01*
X144079000Y-110142020D01*
X144237750Y-110300770D01*
X144478359Y-110300770D01*
X144711748Y-110204097D01*
X144890377Y-110025469D01*
X144987050Y-109792080D01*
X144987050Y-109051090D01*
X144828300Y-108892340D01*
X144079000Y-108892340D01*
X143825000Y-108892340D01*
X143805000Y-108892340D01*
X143805000Y-108638340D01*
X143825000Y-108638340D01*
X143825000Y-107388660D01*
X144079000Y-107388660D01*
X144079000Y-108638340D01*
X144828300Y-108638340D01*
X144987050Y-108479590D01*
X144987050Y-107738600D01*
X144890377Y-107505211D01*
X144711748Y-107326583D01*
X144478359Y-107229910D01*
X144237750Y-107229910D01*
X144079000Y-107388660D01*
X143825000Y-107388660D01*
X143677297Y-107240957D01*
X143853491Y-107127580D01*
X143998481Y-106915380D01*
X144049490Y-106663490D01*
X144049490Y-106523060D01*
X145631058Y-106523060D01*
X146560000Y-107452002D01*
G36*
X146325119Y-98962121D02*
X145934722Y-99351837D01*
X145685284Y-99952552D01*
X145684716Y-100602995D01*
X145933106Y-101204143D01*
X146392637Y-101664478D01*
X146560000Y-101733973D01*
X146560000Y-102057200D01*
X146617852Y-102348039D01*
X146782599Y-102594601D01*
X147213604Y-103025606D01*
X146996205Y-103025416D01*
X146395057Y-103273806D01*
X145934722Y-103733337D01*
X145685284Y-104334052D01*
X145684716Y-104984495D01*
X145692387Y-105003060D01*
X144049490Y-105003060D01*
X144049490Y-104862630D01*
X144005212Y-104627313D01*
X143866140Y-104411189D01*
X143653940Y-104266199D01*
X143402050Y-104215190D01*
X142601950Y-104215190D01*
X142366633Y-104259468D01*
X142150509Y-104398540D01*
X142005519Y-104610740D01*
X141954510Y-104862630D01*
X141954510Y-106236128D01*
X141686438Y-106504200D01*
X140971010Y-106504200D01*
X140971010Y-105914150D01*
X140926732Y-105678833D01*
X140787660Y-105462709D01*
X140575460Y-105317719D01*
X140323570Y-105266710D01*
X138522710Y-105266710D01*
X138287393Y-105310988D01*
X138071269Y-105450060D01*
X138000113Y-105554200D01*
X136720802Y-105554200D01*
X136698939Y-105532337D01*
X136808431Y-105372090D01*
X136859440Y-105120200D01*
X136859440Y-103820200D01*
X136815162Y-103584883D01*
X136676090Y-103368759D01*
X136463890Y-103223769D01*
X136212000Y-103172760D01*
X134712000Y-103172760D01*
X134476683Y-103217038D01*
X134260559Y-103356110D01*
X134115569Y-103568310D01*
X134112919Y-103581397D01*
X133976090Y-103368759D01*
X133763890Y-103223769D01*
X133512000Y-103172760D01*
X132012000Y-103172760D01*
X131810453Y-103210684D01*
X131645767Y-102812114D01*
X131326765Y-102492555D01*
X130909756Y-102319397D01*
X130458225Y-102319003D01*
X130040914Y-102491433D01*
X129721355Y-102810435D01*
X129548197Y-103227444D01*
X129547803Y-103678975D01*
X129720233Y-104096286D01*
X130039235Y-104415845D01*
X130456244Y-104589003D01*
X130566320Y-104589099D01*
X131073208Y-105095987D01*
X131073210Y-105095990D01*
X131360325Y-105287833D01*
X131397494Y-105295226D01*
X131408838Y-105355517D01*
X131547910Y-105571641D01*
X131760110Y-105716631D01*
X131830000Y-105730784D01*
X131830000Y-106543924D01*
X131753355Y-106620435D01*
X131580197Y-107037444D01*
X131579833Y-107454200D01*
X130550802Y-107454200D01*
X126913650Y-103817048D01*
X126931440Y-103729200D01*
X126931440Y-102229200D01*
X126887162Y-101993883D01*
X126875089Y-101975121D01*
X127018820Y-101628977D01*
X127019060Y-101354200D01*
X137999747Y-101354200D01*
X138058620Y-101445691D01*
X138270820Y-101590681D01*
X138522710Y-101641690D01*
X140323570Y-101641690D01*
X140558887Y-101597412D01*
X140725316Y-101490318D01*
X140917739Y-101682741D01*
X141004510Y-101740719D01*
X141004510Y-102045770D01*
X141048788Y-102281087D01*
X141187860Y-102497211D01*
X141400060Y-102642201D01*
X141651950Y-102693210D01*
X142452050Y-102693210D01*
X142687367Y-102648932D01*
X142903491Y-102509860D01*
X142998977Y-102370111D01*
X143013623Y-102405469D01*
X143192252Y-102584097D01*
X143425641Y-102680770D01*
X143666250Y-102680770D01*
X143825000Y-102522020D01*
X143825000Y-101272340D01*
X144079000Y-101272340D01*
X144079000Y-102522020D01*
X144237750Y-102680770D01*
X144478359Y-102680770D01*
X144711748Y-102584097D01*
X144890377Y-102405469D01*
X144987050Y-102172080D01*
X144987050Y-101431090D01*
X144828300Y-101272340D01*
X144079000Y-101272340D01*
X143825000Y-101272340D01*
X143805000Y-101272340D01*
X143805000Y-101018340D01*
X143825000Y-101018340D01*
X143825000Y-99768660D01*
X144079000Y-99768660D01*
X144079000Y-101018340D01*
X144828300Y-101018340D01*
X144987050Y-100859590D01*
X144987050Y-100118600D01*
X144890377Y-99885211D01*
X144711748Y-99706583D01*
X144478359Y-99609910D01*
X144237750Y-99609910D01*
X144079000Y-99768660D01*
X143825000Y-99768660D01*
X143677297Y-99620957D01*
X143853491Y-99507580D01*
X143998481Y-99295380D01*
X144049490Y-99043490D01*
X144049490Y-98880200D01*
X146243198Y-98880200D01*
X146325119Y-98962121D01*
X146325119Y-98962121D01*
G37*
X146325119Y-98962121D02*
X145934722Y-99351837D01*
X145685284Y-99952552D01*
X145684716Y-100602995D01*
X145933106Y-101204143D01*
X146392637Y-101664478D01*
X146560000Y-101733973D01*
X146560000Y-102057200D01*
X146617852Y-102348039D01*
X146782599Y-102594601D01*
X147213604Y-103025606D01*
X146996205Y-103025416D01*
X146395057Y-103273806D01*
X145934722Y-103733337D01*
X145685284Y-104334052D01*
X145684716Y-104984495D01*
X145692387Y-105003060D01*
X144049490Y-105003060D01*
X144049490Y-104862630D01*
X144005212Y-104627313D01*
X143866140Y-104411189D01*
X143653940Y-104266199D01*
X143402050Y-104215190D01*
X142601950Y-104215190D01*
X142366633Y-104259468D01*
X142150509Y-104398540D01*
X142005519Y-104610740D01*
X141954510Y-104862630D01*
X141954510Y-106236128D01*
X141686438Y-106504200D01*
X140971010Y-106504200D01*
X140971010Y-105914150D01*
X140926732Y-105678833D01*
X140787660Y-105462709D01*
X140575460Y-105317719D01*
X140323570Y-105266710D01*
X138522710Y-105266710D01*
X138287393Y-105310988D01*
X138071269Y-105450060D01*
X138000113Y-105554200D01*
X136720802Y-105554200D01*
X136698939Y-105532337D01*
X136808431Y-105372090D01*
X136859440Y-105120200D01*
X136859440Y-103820200D01*
X136815162Y-103584883D01*
X136676090Y-103368759D01*
X136463890Y-103223769D01*
X136212000Y-103172760D01*
X134712000Y-103172760D01*
X134476683Y-103217038D01*
X134260559Y-103356110D01*
X134115569Y-103568310D01*
X134112919Y-103581397D01*
X133976090Y-103368759D01*
X133763890Y-103223769D01*
X133512000Y-103172760D01*
X132012000Y-103172760D01*
X131810453Y-103210684D01*
X131645767Y-102812114D01*
X131326765Y-102492555D01*
X130909756Y-102319397D01*
X130458225Y-102319003D01*
X130040914Y-102491433D01*
X129721355Y-102810435D01*
X129548197Y-103227444D01*
X129547803Y-103678975D01*
X129720233Y-104096286D01*
X130039235Y-104415845D01*
X130456244Y-104589003D01*
X130566320Y-104589099D01*
X131073208Y-105095987D01*
X131073210Y-105095990D01*
X131360325Y-105287833D01*
X131397494Y-105295226D01*
X131408838Y-105355517D01*
X131547910Y-105571641D01*
X131760110Y-105716631D01*
X131830000Y-105730784D01*
X131830000Y-106543924D01*
X131753355Y-106620435D01*
X131580197Y-107037444D01*
X131579833Y-107454200D01*
X130550802Y-107454200D01*
X126913650Y-103817048D01*
X126931440Y-103729200D01*
X126931440Y-102229200D01*
X126887162Y-101993883D01*
X126875089Y-101975121D01*
X127018820Y-101628977D01*
X127019060Y-101354200D01*
X137999747Y-101354200D01*
X138058620Y-101445691D01*
X138270820Y-101590681D01*
X138522710Y-101641690D01*
X140323570Y-101641690D01*
X140558887Y-101597412D01*
X140725316Y-101490318D01*
X140917739Y-101682741D01*
X141004510Y-101740719D01*
X141004510Y-102045770D01*
X141048788Y-102281087D01*
X141187860Y-102497211D01*
X141400060Y-102642201D01*
X141651950Y-102693210D01*
X142452050Y-102693210D01*
X142687367Y-102648932D01*
X142903491Y-102509860D01*
X142998977Y-102370111D01*
X143013623Y-102405469D01*
X143192252Y-102584097D01*
X143425641Y-102680770D01*
X143666250Y-102680770D01*
X143825000Y-102522020D01*
X143825000Y-101272340D01*
X144079000Y-101272340D01*
X144079000Y-102522020D01*
X144237750Y-102680770D01*
X144478359Y-102680770D01*
X144711748Y-102584097D01*
X144890377Y-102405469D01*
X144987050Y-102172080D01*
X144987050Y-101431090D01*
X144828300Y-101272340D01*
X144079000Y-101272340D01*
X143825000Y-101272340D01*
X143805000Y-101272340D01*
X143805000Y-101018340D01*
X143825000Y-101018340D01*
X143825000Y-99768660D01*
X144079000Y-99768660D01*
X144079000Y-101018340D01*
X144828300Y-101018340D01*
X144987050Y-100859590D01*
X144987050Y-100118600D01*
X144890377Y-99885211D01*
X144711748Y-99706583D01*
X144478359Y-99609910D01*
X144237750Y-99609910D01*
X144079000Y-99768660D01*
X143825000Y-99768660D01*
X143677297Y-99620957D01*
X143853491Y-99507580D01*
X143998481Y-99295380D01*
X144049490Y-99043490D01*
X144049490Y-98880200D01*
X146243198Y-98880200D01*
X146325119Y-98962121D01*
G36*
X125387007Y-64412871D02*
X125285500Y-64923179D01*
X125285500Y-66140821D01*
X125387007Y-66651129D01*
X125676073Y-67083748D01*
X126108692Y-67372814D01*
X126225021Y-67395953D01*
X125937438Y-68088531D01*
X125936584Y-69067175D01*
X126310306Y-69971652D01*
X127001708Y-70664262D01*
X127905531Y-71039562D01*
X128884175Y-71040416D01*
X129788652Y-70666694D01*
X130481262Y-69975292D01*
X130856562Y-69071469D01*
X130857416Y-68092825D01*
X130483694Y-67188348D01*
X129963255Y-66667000D01*
X136991351Y-66667000D01*
X136472738Y-67184708D01*
X136097438Y-68088531D01*
X136096584Y-69067175D01*
X136470306Y-69971652D01*
X137161708Y-70664262D01*
X138065531Y-71039562D01*
X139044175Y-71040416D01*
X139948652Y-70666694D01*
X140641262Y-69975292D01*
X141016562Y-69071469D01*
X141017416Y-68092825D01*
X140729437Y-67395862D01*
X140845308Y-67372814D01*
X141224000Y-67119781D01*
X141602692Y-67372814D01*
X141629865Y-67378219D01*
X141334918Y-68088531D01*
X141334064Y-69067175D01*
X141707786Y-69971652D01*
X142399188Y-70664262D01*
X143303011Y-71039562D01*
X144281655Y-71040416D01*
X145186132Y-70666694D01*
X145878742Y-69975292D01*
X146254042Y-69071469D01*
X146254896Y-68092825D01*
X145881174Y-67188348D01*
X145360735Y-66667000D01*
X154098251Y-66667000D01*
X153579638Y-67184708D01*
X153204338Y-68088531D01*
X153203484Y-69067175D01*
X153577206Y-69971652D01*
X154268608Y-70664262D01*
X155172431Y-71039562D01*
X156151075Y-71040416D01*
X157055552Y-70666694D01*
X157748162Y-69975292D01*
X158123462Y-69071469D01*
X158124316Y-68092825D01*
X157829585Y-67379522D01*
X157863308Y-67372814D01*
X158295927Y-67083748D01*
X158584993Y-66651129D01*
X158607081Y-66540083D01*
X161292000Y-69225002D01*
X161292000Y-76346397D01*
X156239401Y-71293799D01*
X155992839Y-71129052D01*
X155702000Y-71071200D01*
X148336000Y-71071200D01*
X148045161Y-71129052D01*
X147798599Y-71293799D01*
X146020599Y-73071799D01*
X145855852Y-73318361D01*
X145798000Y-73609200D01*
X145798000Y-73744837D01*
X145774163Y-73754686D01*
X145384056Y-74144113D01*
X145172671Y-74653184D01*
X145172190Y-75204398D01*
X145382686Y-75713837D01*
X145772113Y-76103944D01*
X146281184Y-76315329D01*
X146832398Y-76315810D01*
X147341837Y-76105314D01*
X147731944Y-75715887D01*
X147827975Y-75484619D01*
X147922686Y-75713837D01*
X148312113Y-76103944D01*
X148338000Y-76114693D01*
X148338000Y-76181498D01*
X148104816Y-76084671D01*
X147553602Y-76084190D01*
X147044163Y-76294686D01*
X146654056Y-76684113D01*
X146558025Y-76915381D01*
X146463314Y-76686163D01*
X146073887Y-76296056D01*
X145564816Y-76084671D01*
X145013602Y-76084190D01*
X144504163Y-76294686D01*
X144114056Y-76684113D01*
X143902671Y-77193184D01*
X143902190Y-77744398D01*
X144083499Y-78183200D01*
X141030802Y-78183200D01*
X140968000Y-78120398D01*
X140968000Y-73609200D01*
X140910148Y-73318361D01*
X140745401Y-73071799D01*
X139602401Y-71928799D01*
X139355839Y-71764052D01*
X139065000Y-71706200D01*
X132461000Y-71706200D01*
X132218414Y-71754454D01*
X132170160Y-71764052D01*
X131923599Y-71928799D01*
X131050599Y-72801799D01*
X130885852Y-73048361D01*
X130828000Y-73339200D01*
X130828000Y-73629121D01*
X130597100Y-73533243D01*
X130041339Y-73532758D01*
X129527697Y-73744990D01*
X129134371Y-74137630D01*
X128921243Y-74650900D01*
X128920758Y-75206661D01*
X129132990Y-75720303D01*
X129525630Y-76113629D01*
X130038900Y-76326757D01*
X130594661Y-76327242D01*
X130828000Y-76230829D01*
X130828000Y-76272469D01*
X130797697Y-76284990D01*
X130404371Y-76677630D01*
X130191243Y-77190900D01*
X130190758Y-77746661D01*
X130402990Y-78260303D01*
X130795630Y-78653629D01*
X131308900Y-78866757D01*
X131864661Y-78867242D01*
X132378303Y-78655010D01*
X132771629Y-78262370D01*
X132857949Y-78054488D01*
X132942990Y-78260303D01*
X133335630Y-78653629D01*
X133848900Y-78866757D01*
X134404661Y-78867242D01*
X134918303Y-78655010D01*
X135311629Y-78262370D01*
X135397949Y-78054488D01*
X135482990Y-78260303D01*
X135875630Y-78653629D01*
X135927269Y-78675071D01*
X135965852Y-78869039D01*
X136130599Y-79115601D01*
X138527599Y-81512601D01*
X138774161Y-81677348D01*
X139065000Y-81735200D01*
X142016137Y-81735200D01*
X142005519Y-81750740D01*
X141954510Y-82002630D01*
X141954510Y-83376128D01*
X141686438Y-83644200D01*
X140971010Y-83644200D01*
X140971010Y-83054150D01*
X140926732Y-82818833D01*
X140787660Y-82602709D01*
X140575460Y-82457719D01*
X140323570Y-82406710D01*
X138522710Y-82406710D01*
X138287393Y-82450988D01*
X138071269Y-82590060D01*
X138000113Y-82694200D01*
X136720802Y-82694200D01*
X136698939Y-82672337D01*
X136808431Y-82512090D01*
X136859440Y-82260200D01*
X136859440Y-80960200D01*
X136815162Y-80724883D01*
X136676090Y-80508759D01*
X136463890Y-80363769D01*
X136212000Y-80312760D01*
X134712000Y-80312760D01*
X134476683Y-80357038D01*
X134260559Y-80496110D01*
X134115569Y-80708310D01*
X134112919Y-80721397D01*
X133976090Y-80508759D01*
X133763890Y-80363769D01*
X133512000Y-80312760D01*
X132012000Y-80312760D01*
X131776683Y-80357038D01*
X131560559Y-80496110D01*
X131415569Y-80708310D01*
X131364560Y-80960200D01*
X131364560Y-82260200D01*
X131408838Y-82495517D01*
X131547910Y-82711641D01*
X131760110Y-82856631D01*
X131877000Y-82880302D01*
X131877000Y-83637006D01*
X131753355Y-83760435D01*
X131580197Y-84177444D01*
X131579833Y-84594200D01*
X130241000Y-84594200D01*
X129950161Y-84652052D01*
X129703599Y-84816799D01*
X129002599Y-85517799D01*
X128837852Y-85764361D01*
X128780000Y-86055200D01*
X128780000Y-93360398D01*
X128463198Y-93677200D01*
X125500038Y-93677200D01*
X125845278Y-93332563D01*
X126094716Y-92731848D01*
X126095284Y-92081405D01*
X125846894Y-91480257D01*
X125387363Y-91019922D01*
X124786648Y-90770484D01*
X124136205Y-90769916D01*
X123535057Y-91018306D01*
X123468426Y-91084821D01*
X123384090Y-90953759D01*
X123171890Y-90808769D01*
X122920000Y-90757760D01*
X120920000Y-90757760D01*
X120684683Y-90802038D01*
X120468559Y-90941110D01*
X120323569Y-91153310D01*
X120272560Y-91405200D01*
X120272560Y-91645200D01*
X120201742Y-91645200D01*
X120178162Y-91519883D01*
X120039090Y-91303759D01*
X119826890Y-91158769D01*
X119575000Y-91107760D01*
X118075000Y-91107760D01*
X117839683Y-91152038D01*
X117623559Y-91291110D01*
X117478569Y-91503310D01*
X117471809Y-91536690D01*
X117413327Y-91395501D01*
X117234698Y-91216873D01*
X117001309Y-91120200D01*
X116410750Y-91120200D01*
X116252000Y-91278950D01*
X116252000Y-92278200D01*
X116272000Y-92278200D01*
X116272000Y-92532200D01*
X116252000Y-92532200D01*
X116252000Y-93531450D01*
X116410750Y-93690200D01*
X117001309Y-93690200D01*
X117234698Y-93593527D01*
X117413327Y-93414899D01*
X117469654Y-93278913D01*
X117471838Y-93290517D01*
X117610910Y-93506641D01*
X117823110Y-93651631D01*
X118075000Y-93702640D01*
X119575000Y-93702640D01*
X119810317Y-93658362D01*
X120026441Y-93519290D01*
X120171431Y-93307090D01*
X120200164Y-93165200D01*
X120272560Y-93165200D01*
X120272560Y-93405200D01*
X120316838Y-93640517D01*
X120455910Y-93856641D01*
X120579388Y-93941010D01*
X119096599Y-95423799D01*
X118931852Y-95670361D01*
X118874000Y-95961200D01*
X118874000Y-96228866D01*
X118790310Y-96194200D01*
X118649750Y-96194200D01*
X118491000Y-96352950D01*
X118491000Y-97452200D01*
X118511000Y-97452200D01*
X118511000Y-97706200D01*
X118491000Y-97706200D01*
X118491000Y-98805450D01*
X118649750Y-98964200D01*
X118790310Y-98964200D01*
X119007122Y-98874394D01*
X119042896Y-98898837D01*
X118757081Y-99184154D01*
X118599180Y-99564423D01*
X118598821Y-99976171D01*
X118756058Y-100356715D01*
X119046954Y-100648119D01*
X119427223Y-100806020D01*
X119594164Y-100806166D01*
X120144000Y-101356002D01*
X120144000Y-101624286D01*
X119934000Y-101581760D01*
X119334000Y-101581760D01*
X119098683Y-101626038D01*
X118999472Y-101689878D01*
X118915890Y-101632769D01*
X118664000Y-101581760D01*
X118064000Y-101581760D01*
X117979000Y-101597754D01*
X117979000Y-100406205D01*
X117979001Y-100406200D01*
X117922810Y-100123716D01*
X117911633Y-100067525D01*
X117719790Y-99780410D01*
X117719787Y-99780408D01*
X116937790Y-98998410D01*
X116842440Y-98934700D01*
X116842440Y-98874200D01*
X116798162Y-98638883D01*
X116659090Y-98422759D01*
X116590994Y-98376231D01*
X116733327Y-98233898D01*
X116830000Y-98000509D01*
X116830000Y-97864950D01*
X117429000Y-97864950D01*
X117429000Y-98455509D01*
X117525673Y-98688898D01*
X117704301Y-98867527D01*
X117937690Y-98964200D01*
X118078250Y-98964200D01*
X118237000Y-98805450D01*
X118237000Y-97706200D01*
X117587750Y-97706200D01*
X117429000Y-97864950D01*
X116830000Y-97864950D01*
X116830000Y-97409950D01*
X116671250Y-97251200D01*
X115697000Y-97251200D01*
X115697000Y-97271200D01*
X115443000Y-97271200D01*
X115443000Y-97251200D01*
X114468750Y-97251200D01*
X114310000Y-97409950D01*
X114310000Y-98000509D01*
X114406673Y-98233898D01*
X114547910Y-98375136D01*
X114493559Y-98410110D01*
X114348569Y-98622310D01*
X114324898Y-98739200D01*
X114011579Y-98739200D01*
X113407000Y-98134620D01*
X113407000Y-96247891D01*
X114310000Y-96247891D01*
X114310000Y-96838450D01*
X114468750Y-96997200D01*
X115443000Y-96997200D01*
X115443000Y-95897950D01*
X115697000Y-95897950D01*
X115697000Y-96997200D01*
X116671250Y-96997200D01*
X116830000Y-96838450D01*
X116830000Y-96702891D01*
X117429000Y-96702891D01*
X117429000Y-97293450D01*
X117587750Y-97452200D01*
X118237000Y-97452200D01*
X118237000Y-96352950D01*
X118078250Y-96194200D01*
X117937690Y-96194200D01*
X117704301Y-96290873D01*
X117525673Y-96469502D01*
X117429000Y-96702891D01*
X116830000Y-96702891D01*
X116830000Y-96247891D01*
X116733327Y-96014502D01*
X116554699Y-95835873D01*
X116321310Y-95739200D01*
X115855750Y-95739200D01*
X115697000Y-95897950D01*
X115443000Y-95897950D01*
X115284250Y-95739200D01*
X114818690Y-95739200D01*
X114585301Y-95835873D01*
X114406673Y-96014502D01*
X114310000Y-96247891D01*
X113407000Y-96247891D01*
X113407000Y-92690950D01*
X114740000Y-92690950D01*
X114740000Y-93181510D01*
X114836673Y-93414899D01*
X115015302Y-93593527D01*
X115248691Y-93690200D01*
X115839250Y-93690200D01*
X115998000Y-93531450D01*
X115998000Y-92532200D01*
X114898750Y-92532200D01*
X114740000Y-92690950D01*
X113407000Y-92690950D01*
X113407000Y-91628890D01*
X114740000Y-91628890D01*
X114740000Y-92119450D01*
X114898750Y-92278200D01*
X115998000Y-92278200D01*
X115998000Y-91278950D01*
X115839250Y-91120200D01*
X115248691Y-91120200D01*
X115015302Y-91216873D01*
X114836673Y-91395501D01*
X114740000Y-91628890D01*
X113407000Y-91628890D01*
X113407000Y-85665564D01*
X115114414Y-85665564D01*
X115628663Y-86910143D01*
X116580048Y-87863190D01*
X117823728Y-88379611D01*
X119170364Y-88380786D01*
X120414943Y-87866537D01*
X121367990Y-86915152D01*
X121884411Y-85671472D01*
X121885586Y-84324836D01*
X121371337Y-83080257D01*
X120419952Y-82127210D01*
X119176272Y-81610789D01*
X117829636Y-81609614D01*
X116585057Y-82123863D01*
X115632010Y-83075248D01*
X115115589Y-84318928D01*
X115114414Y-85665564D01*
X113407000Y-85665564D01*
X113407000Y-75510200D01*
X116396260Y-75510200D01*
X116512971Y-75684870D01*
X116999152Y-76009726D01*
X117572641Y-76123800D01*
X117631359Y-76123800D01*
X118204848Y-76009726D01*
X118670442Y-75698626D01*
X118675238Y-75724117D01*
X118814310Y-75940241D01*
X119026510Y-76085231D01*
X119278400Y-76136240D01*
X121005600Y-76136240D01*
X121240917Y-76091962D01*
X121457041Y-75952890D01*
X121602031Y-75740690D01*
X121653040Y-75488800D01*
X121653040Y-74544042D01*
X127256000Y-80147002D01*
X127256000Y-81795439D01*
X127139081Y-81912154D01*
X126981180Y-82292423D01*
X126980821Y-82704171D01*
X127138058Y-83084715D01*
X127428954Y-83376119D01*
X127809223Y-83534020D01*
X128220971Y-83534379D01*
X128601515Y-83377142D01*
X128892919Y-83086246D01*
X129050820Y-82705977D01*
X129051179Y-82294229D01*
X128893942Y-81913685D01*
X128776000Y-81795537D01*
X128776000Y-79832200D01*
X128718148Y-79541361D01*
X128718148Y-79541360D01*
X128553401Y-79294799D01*
X121615846Y-72357244D01*
X121669959Y-72085200D01*
X121555885Y-71511711D01*
X121231029Y-71025530D01*
X120916248Y-70815200D01*
X121231029Y-70604870D01*
X121555885Y-70118689D01*
X121669959Y-69545200D01*
X121555885Y-68971711D01*
X121231029Y-68485530D01*
X120982000Y-68319134D01*
X120982000Y-66522758D01*
X121207317Y-66480362D01*
X121423441Y-66341290D01*
X121568431Y-66129090D01*
X121619440Y-65877200D01*
X121619440Y-64577200D01*
X121575162Y-64341883D01*
X121490298Y-64210000D01*
X125522561Y-64210000D01*
X125387007Y-64412871D01*
X125387007Y-64412871D01*
G37*
X125387007Y-64412871D02*
X125285500Y-64923179D01*
X125285500Y-66140821D01*
X125387007Y-66651129D01*
X125676073Y-67083748D01*
X126108692Y-67372814D01*
X126225021Y-67395953D01*
X125937438Y-68088531D01*
X125936584Y-69067175D01*
X126310306Y-69971652D01*
X127001708Y-70664262D01*
X127905531Y-71039562D01*
X128884175Y-71040416D01*
X129788652Y-70666694D01*
X130481262Y-69975292D01*
X130856562Y-69071469D01*
X130857416Y-68092825D01*
X130483694Y-67188348D01*
X129963255Y-66667000D01*
X136991351Y-66667000D01*
X136472738Y-67184708D01*
X136097438Y-68088531D01*
X136096584Y-69067175D01*
X136470306Y-69971652D01*
X137161708Y-70664262D01*
X138065531Y-71039562D01*
X139044175Y-71040416D01*
X139948652Y-70666694D01*
X140641262Y-69975292D01*
X141016562Y-69071469D01*
X141017416Y-68092825D01*
X140729437Y-67395862D01*
X140845308Y-67372814D01*
X141224000Y-67119781D01*
X141602692Y-67372814D01*
X141629865Y-67378219D01*
X141334918Y-68088531D01*
X141334064Y-69067175D01*
X141707786Y-69971652D01*
X142399188Y-70664262D01*
X143303011Y-71039562D01*
X144281655Y-71040416D01*
X145186132Y-70666694D01*
X145878742Y-69975292D01*
X146254042Y-69071469D01*
X146254896Y-68092825D01*
X145881174Y-67188348D01*
X145360735Y-66667000D01*
X154098251Y-66667000D01*
X153579638Y-67184708D01*
X153204338Y-68088531D01*
X153203484Y-69067175D01*
X153577206Y-69971652D01*
X154268608Y-70664262D01*
X155172431Y-71039562D01*
X156151075Y-71040416D01*
X157055552Y-70666694D01*
X157748162Y-69975292D01*
X158123462Y-69071469D01*
X158124316Y-68092825D01*
X157829585Y-67379522D01*
X157863308Y-67372814D01*
X158295927Y-67083748D01*
X158584993Y-66651129D01*
X158607081Y-66540083D01*
X161292000Y-69225002D01*
X161292000Y-76346397D01*
X156239401Y-71293799D01*
X155992839Y-71129052D01*
X155702000Y-71071200D01*
X148336000Y-71071200D01*
X148045161Y-71129052D01*
X147798599Y-71293799D01*
X146020599Y-73071799D01*
X145855852Y-73318361D01*
X145798000Y-73609200D01*
X145798000Y-73744837D01*
X145774163Y-73754686D01*
X145384056Y-74144113D01*
X145172671Y-74653184D01*
X145172190Y-75204398D01*
X145382686Y-75713837D01*
X145772113Y-76103944D01*
X146281184Y-76315329D01*
X146832398Y-76315810D01*
X147341837Y-76105314D01*
X147731944Y-75715887D01*
X147827975Y-75484619D01*
X147922686Y-75713837D01*
X148312113Y-76103944D01*
X148338000Y-76114693D01*
X148338000Y-76181498D01*
X148104816Y-76084671D01*
X147553602Y-76084190D01*
X147044163Y-76294686D01*
X146654056Y-76684113D01*
X146558025Y-76915381D01*
X146463314Y-76686163D01*
X146073887Y-76296056D01*
X145564816Y-76084671D01*
X145013602Y-76084190D01*
X144504163Y-76294686D01*
X144114056Y-76684113D01*
X143902671Y-77193184D01*
X143902190Y-77744398D01*
X144083499Y-78183200D01*
X141030802Y-78183200D01*
X140968000Y-78120398D01*
X140968000Y-73609200D01*
X140910148Y-73318361D01*
X140745401Y-73071799D01*
X139602401Y-71928799D01*
X139355839Y-71764052D01*
X139065000Y-71706200D01*
X132461000Y-71706200D01*
X132218414Y-71754454D01*
X132170160Y-71764052D01*
X131923599Y-71928799D01*
X131050599Y-72801799D01*
X130885852Y-73048361D01*
X130828000Y-73339200D01*
X130828000Y-73629121D01*
X130597100Y-73533243D01*
X130041339Y-73532758D01*
X129527697Y-73744990D01*
X129134371Y-74137630D01*
X128921243Y-74650900D01*
X128920758Y-75206661D01*
X129132990Y-75720303D01*
X129525630Y-76113629D01*
X130038900Y-76326757D01*
X130594661Y-76327242D01*
X130828000Y-76230829D01*
X130828000Y-76272469D01*
X130797697Y-76284990D01*
X130404371Y-76677630D01*
X130191243Y-77190900D01*
X130190758Y-77746661D01*
X130402990Y-78260303D01*
X130795630Y-78653629D01*
X131308900Y-78866757D01*
X131864661Y-78867242D01*
X132378303Y-78655010D01*
X132771629Y-78262370D01*
X132857949Y-78054488D01*
X132942990Y-78260303D01*
X133335630Y-78653629D01*
X133848900Y-78866757D01*
X134404661Y-78867242D01*
X134918303Y-78655010D01*
X135311629Y-78262370D01*
X135397949Y-78054488D01*
X135482990Y-78260303D01*
X135875630Y-78653629D01*
X135927269Y-78675071D01*
X135965852Y-78869039D01*
X136130599Y-79115601D01*
X138527599Y-81512601D01*
X138774161Y-81677348D01*
X139065000Y-81735200D01*
X142016137Y-81735200D01*
X142005519Y-81750740D01*
X141954510Y-82002630D01*
X141954510Y-83376128D01*
X141686438Y-83644200D01*
X140971010Y-83644200D01*
X140971010Y-83054150D01*
X140926732Y-82818833D01*
X140787660Y-82602709D01*
X140575460Y-82457719D01*
X140323570Y-82406710D01*
X138522710Y-82406710D01*
X138287393Y-82450988D01*
X138071269Y-82590060D01*
X138000113Y-82694200D01*
X136720802Y-82694200D01*
X136698939Y-82672337D01*
X136808431Y-82512090D01*
X136859440Y-82260200D01*
X136859440Y-80960200D01*
X136815162Y-80724883D01*
X136676090Y-80508759D01*
X136463890Y-80363769D01*
X136212000Y-80312760D01*
X134712000Y-80312760D01*
X134476683Y-80357038D01*
X134260559Y-80496110D01*
X134115569Y-80708310D01*
X134112919Y-80721397D01*
X133976090Y-80508759D01*
X133763890Y-80363769D01*
X133512000Y-80312760D01*
X132012000Y-80312760D01*
X131776683Y-80357038D01*
X131560559Y-80496110D01*
X131415569Y-80708310D01*
X131364560Y-80960200D01*
X131364560Y-82260200D01*
X131408838Y-82495517D01*
X131547910Y-82711641D01*
X131760110Y-82856631D01*
X131877000Y-82880302D01*
X131877000Y-83637006D01*
X131753355Y-83760435D01*
X131580197Y-84177444D01*
X131579833Y-84594200D01*
X130241000Y-84594200D01*
X129950161Y-84652052D01*
X129703599Y-84816799D01*
X129002599Y-85517799D01*
X128837852Y-85764361D01*
X128780000Y-86055200D01*
X128780000Y-93360398D01*
X128463198Y-93677200D01*
X125500038Y-93677200D01*
X125845278Y-93332563D01*
X126094716Y-92731848D01*
X126095284Y-92081405D01*
X125846894Y-91480257D01*
X125387363Y-91019922D01*
X124786648Y-90770484D01*
X124136205Y-90769916D01*
X123535057Y-91018306D01*
X123468426Y-91084821D01*
X123384090Y-90953759D01*
X123171890Y-90808769D01*
X122920000Y-90757760D01*
X120920000Y-90757760D01*
X120684683Y-90802038D01*
X120468559Y-90941110D01*
X120323569Y-91153310D01*
X120272560Y-91405200D01*
X120272560Y-91645200D01*
X120201742Y-91645200D01*
X120178162Y-91519883D01*
X120039090Y-91303759D01*
X119826890Y-91158769D01*
X119575000Y-91107760D01*
X118075000Y-91107760D01*
X117839683Y-91152038D01*
X117623559Y-91291110D01*
X117478569Y-91503310D01*
X117471809Y-91536690D01*
X117413327Y-91395501D01*
X117234698Y-91216873D01*
X117001309Y-91120200D01*
X116410750Y-91120200D01*
X116252000Y-91278950D01*
X116252000Y-92278200D01*
X116272000Y-92278200D01*
X116272000Y-92532200D01*
X116252000Y-92532200D01*
X116252000Y-93531450D01*
X116410750Y-93690200D01*
X117001309Y-93690200D01*
X117234698Y-93593527D01*
X117413327Y-93414899D01*
X117469654Y-93278913D01*
X117471838Y-93290517D01*
X117610910Y-93506641D01*
X117823110Y-93651631D01*
X118075000Y-93702640D01*
X119575000Y-93702640D01*
X119810317Y-93658362D01*
X120026441Y-93519290D01*
X120171431Y-93307090D01*
X120200164Y-93165200D01*
X120272560Y-93165200D01*
X120272560Y-93405200D01*
X120316838Y-93640517D01*
X120455910Y-93856641D01*
X120579388Y-93941010D01*
X119096599Y-95423799D01*
X118931852Y-95670361D01*
X118874000Y-95961200D01*
X118874000Y-96228866D01*
X118790310Y-96194200D01*
X118649750Y-96194200D01*
X118491000Y-96352950D01*
X118491000Y-97452200D01*
X118511000Y-97452200D01*
X118511000Y-97706200D01*
X118491000Y-97706200D01*
X118491000Y-98805450D01*
X118649750Y-98964200D01*
X118790310Y-98964200D01*
X119007122Y-98874394D01*
X119042896Y-98898837D01*
X118757081Y-99184154D01*
X118599180Y-99564423D01*
X118598821Y-99976171D01*
X118756058Y-100356715D01*
X119046954Y-100648119D01*
X119427223Y-100806020D01*
X119594164Y-100806166D01*
X120144000Y-101356002D01*
X120144000Y-101624286D01*
X119934000Y-101581760D01*
X119334000Y-101581760D01*
X119098683Y-101626038D01*
X118999472Y-101689878D01*
X118915890Y-101632769D01*
X118664000Y-101581760D01*
X118064000Y-101581760D01*
X117979000Y-101597754D01*
X117979000Y-100406205D01*
X117979001Y-100406200D01*
X117922810Y-100123716D01*
X117911633Y-100067525D01*
X117719790Y-99780410D01*
X117719787Y-99780408D01*
X116937790Y-98998410D01*
X116842440Y-98934700D01*
X116842440Y-98874200D01*
X116798162Y-98638883D01*
X116659090Y-98422759D01*
X116590994Y-98376231D01*
X116733327Y-98233898D01*
X116830000Y-98000509D01*
X116830000Y-97864950D01*
X117429000Y-97864950D01*
X117429000Y-98455509D01*
X117525673Y-98688898D01*
X117704301Y-98867527D01*
X117937690Y-98964200D01*
X118078250Y-98964200D01*
X118237000Y-98805450D01*
X118237000Y-97706200D01*
X117587750Y-97706200D01*
X117429000Y-97864950D01*
X116830000Y-97864950D01*
X116830000Y-97409950D01*
X116671250Y-97251200D01*
X115697000Y-97251200D01*
X115697000Y-97271200D01*
X115443000Y-97271200D01*
X115443000Y-97251200D01*
X114468750Y-97251200D01*
X114310000Y-97409950D01*
X114310000Y-98000509D01*
X114406673Y-98233898D01*
X114547910Y-98375136D01*
X114493559Y-98410110D01*
X114348569Y-98622310D01*
X114324898Y-98739200D01*
X114011579Y-98739200D01*
X113407000Y-98134620D01*
X113407000Y-96247891D01*
X114310000Y-96247891D01*
X114310000Y-96838450D01*
X114468750Y-96997200D01*
X115443000Y-96997200D01*
X115443000Y-95897950D01*
X115697000Y-95897950D01*
X115697000Y-96997200D01*
X116671250Y-96997200D01*
X116830000Y-96838450D01*
X116830000Y-96702891D01*
X117429000Y-96702891D01*
X117429000Y-97293450D01*
X117587750Y-97452200D01*
X118237000Y-97452200D01*
X118237000Y-96352950D01*
X118078250Y-96194200D01*
X117937690Y-96194200D01*
X117704301Y-96290873D01*
X117525673Y-96469502D01*
X117429000Y-96702891D01*
X116830000Y-96702891D01*
X116830000Y-96247891D01*
X116733327Y-96014502D01*
X116554699Y-95835873D01*
X116321310Y-95739200D01*
X115855750Y-95739200D01*
X115697000Y-95897950D01*
X115443000Y-95897950D01*
X115284250Y-95739200D01*
X114818690Y-95739200D01*
X114585301Y-95835873D01*
X114406673Y-96014502D01*
X114310000Y-96247891D01*
X113407000Y-96247891D01*
X113407000Y-92690950D01*
X114740000Y-92690950D01*
X114740000Y-93181510D01*
X114836673Y-93414899D01*
X115015302Y-93593527D01*
X115248691Y-93690200D01*
X115839250Y-93690200D01*
X115998000Y-93531450D01*
X115998000Y-92532200D01*
X114898750Y-92532200D01*
X114740000Y-92690950D01*
X113407000Y-92690950D01*
X113407000Y-91628890D01*
X114740000Y-91628890D01*
X114740000Y-92119450D01*
X114898750Y-92278200D01*
X115998000Y-92278200D01*
X115998000Y-91278950D01*
X115839250Y-91120200D01*
X115248691Y-91120200D01*
X115015302Y-91216873D01*
X114836673Y-91395501D01*
X114740000Y-91628890D01*
X113407000Y-91628890D01*
X113407000Y-85665564D01*
X115114414Y-85665564D01*
X115628663Y-86910143D01*
X116580048Y-87863190D01*
X117823728Y-88379611D01*
X119170364Y-88380786D01*
X120414943Y-87866537D01*
X121367990Y-86915152D01*
X121884411Y-85671472D01*
X121885586Y-84324836D01*
X121371337Y-83080257D01*
X120419952Y-82127210D01*
X119176272Y-81610789D01*
X117829636Y-81609614D01*
X116585057Y-82123863D01*
X115632010Y-83075248D01*
X115115589Y-84318928D01*
X115114414Y-85665564D01*
X113407000Y-85665564D01*
X113407000Y-75510200D01*
X116396260Y-75510200D01*
X116512971Y-75684870D01*
X116999152Y-76009726D01*
X117572641Y-76123800D01*
X117631359Y-76123800D01*
X118204848Y-76009726D01*
X118670442Y-75698626D01*
X118675238Y-75724117D01*
X118814310Y-75940241D01*
X119026510Y-76085231D01*
X119278400Y-76136240D01*
X121005600Y-76136240D01*
X121240917Y-76091962D01*
X121457041Y-75952890D01*
X121602031Y-75740690D01*
X121653040Y-75488800D01*
X121653040Y-74544042D01*
X127256000Y-80147002D01*
X127256000Y-81795439D01*
X127139081Y-81912154D01*
X126981180Y-82292423D01*
X126980821Y-82704171D01*
X127138058Y-83084715D01*
X127428954Y-83376119D01*
X127809223Y-83534020D01*
X128220971Y-83534379D01*
X128601515Y-83377142D01*
X128892919Y-83086246D01*
X129050820Y-82705977D01*
X129051179Y-82294229D01*
X128893942Y-81913685D01*
X128776000Y-81795537D01*
X128776000Y-79832200D01*
X128718148Y-79541361D01*
X128718148Y-79541360D01*
X128553401Y-79294799D01*
X121615846Y-72357244D01*
X121669959Y-72085200D01*
X121555885Y-71511711D01*
X121231029Y-71025530D01*
X120916248Y-70815200D01*
X121231029Y-70604870D01*
X121555885Y-70118689D01*
X121669959Y-69545200D01*
X121555885Y-68971711D01*
X121231029Y-68485530D01*
X120982000Y-68319134D01*
X120982000Y-66522758D01*
X121207317Y-66480362D01*
X121423441Y-66341290D01*
X121568431Y-66129090D01*
X121619440Y-65877200D01*
X121619440Y-64577200D01*
X121575162Y-64341883D01*
X121490298Y-64210000D01*
X125522561Y-64210000D01*
X125387007Y-64412871D01*
G36*
X145684716Y-91839995D02*
X145933106Y-92441143D01*
X146392637Y-92901478D01*
X146560000Y-92970973D01*
X146560000Y-93167200D01*
X146617852Y-93458039D01*
X146782599Y-93704601D01*
X147290599Y-94212601D01*
X147365635Y-94262739D01*
X146996205Y-94262416D01*
X146395057Y-94510806D01*
X145934722Y-94970337D01*
X145685284Y-95571052D01*
X145684716Y-96221495D01*
X145933106Y-96822643D01*
X146392637Y-97282978D01*
X146597559Y-97368069D01*
X146558000Y-97360200D01*
X144049490Y-97360200D01*
X144049490Y-97242630D01*
X144005212Y-97007313D01*
X143866140Y-96791189D01*
X143653940Y-96646199D01*
X143402050Y-96595190D01*
X142601950Y-96595190D01*
X142366633Y-96639468D01*
X142150509Y-96778540D01*
X142005519Y-96990740D01*
X141954510Y-97242630D01*
X141954510Y-98616128D01*
X141686438Y-98884200D01*
X140971010Y-98884200D01*
X140971010Y-98294150D01*
X140926732Y-98058833D01*
X140787660Y-97842709D01*
X140575460Y-97697719D01*
X140323570Y-97646710D01*
X138522710Y-97646710D01*
X138287393Y-97690988D01*
X138071269Y-97830060D01*
X138000113Y-97934200D01*
X136720802Y-97934200D01*
X136698939Y-97912337D01*
X136808431Y-97752090D01*
X136859440Y-97500200D01*
X136859440Y-96200200D01*
X136815162Y-95964883D01*
X136676090Y-95748759D01*
X136463890Y-95603769D01*
X136212000Y-95552760D01*
X134712000Y-95552760D01*
X134476683Y-95597038D01*
X134260559Y-95736110D01*
X134115569Y-95948310D01*
X134112919Y-95961397D01*
X133976090Y-95748759D01*
X133763890Y-95603769D01*
X133512000Y-95552760D01*
X132012000Y-95552760D01*
X131810453Y-95590684D01*
X131645767Y-95192114D01*
X131326765Y-94872555D01*
X130909756Y-94699397D01*
X130860648Y-94699354D01*
X131825802Y-93734200D01*
X137999747Y-93734200D01*
X138058620Y-93825691D01*
X138270820Y-93970681D01*
X138522710Y-94021690D01*
X140323570Y-94021690D01*
X140558887Y-93977412D01*
X140725316Y-93870318D01*
X140917739Y-94062741D01*
X141004510Y-94120719D01*
X141004510Y-94425770D01*
X141048788Y-94661087D01*
X141187860Y-94877211D01*
X141400060Y-95022201D01*
X141651950Y-95073210D01*
X142452050Y-95073210D01*
X142687367Y-95028932D01*
X142903491Y-94889860D01*
X142998977Y-94750111D01*
X143013623Y-94785469D01*
X143192252Y-94964097D01*
X143425641Y-95060770D01*
X143666250Y-95060770D01*
X143825000Y-94902020D01*
X143825000Y-93652340D01*
X144079000Y-93652340D01*
X144079000Y-94902020D01*
X144237750Y-95060770D01*
X144478359Y-95060770D01*
X144711748Y-94964097D01*
X144890377Y-94785469D01*
X144987050Y-94552080D01*
X144987050Y-93811090D01*
X144828300Y-93652340D01*
X144079000Y-93652340D01*
X143825000Y-93652340D01*
X143805000Y-93652340D01*
X143805000Y-93398340D01*
X143825000Y-93398340D01*
X143825000Y-92148660D01*
X144079000Y-92148660D01*
X144079000Y-93398340D01*
X144828300Y-93398340D01*
X144987050Y-93239590D01*
X144987050Y-92498600D01*
X144890377Y-92265211D01*
X144711748Y-92086583D01*
X144478359Y-91989910D01*
X144237750Y-91989910D01*
X144079000Y-92148660D01*
X143825000Y-92148660D01*
X143677297Y-92000957D01*
X143853491Y-91887580D01*
X143998481Y-91675380D01*
X144049490Y-91423490D01*
X144049490Y-91387200D01*
X145685111Y-91387200D01*
X145684716Y-91839995D01*
X145684716Y-91839995D01*
G37*
X145684716Y-91839995D02*
X145933106Y-92441143D01*
X146392637Y-92901478D01*
X146560000Y-92970973D01*
X146560000Y-93167200D01*
X146617852Y-93458039D01*
X146782599Y-93704601D01*
X147290599Y-94212601D01*
X147365635Y-94262739D01*
X146996205Y-94262416D01*
X146395057Y-94510806D01*
X145934722Y-94970337D01*
X145685284Y-95571052D01*
X145684716Y-96221495D01*
X145933106Y-96822643D01*
X146392637Y-97282978D01*
X146597559Y-97368069D01*
X146558000Y-97360200D01*
X144049490Y-97360200D01*
X144049490Y-97242630D01*
X144005212Y-97007313D01*
X143866140Y-96791189D01*
X143653940Y-96646199D01*
X143402050Y-96595190D01*
X142601950Y-96595190D01*
X142366633Y-96639468D01*
X142150509Y-96778540D01*
X142005519Y-96990740D01*
X141954510Y-97242630D01*
X141954510Y-98616128D01*
X141686438Y-98884200D01*
X140971010Y-98884200D01*
X140971010Y-98294150D01*
X140926732Y-98058833D01*
X140787660Y-97842709D01*
X140575460Y-97697719D01*
X140323570Y-97646710D01*
X138522710Y-97646710D01*
X138287393Y-97690988D01*
X138071269Y-97830060D01*
X138000113Y-97934200D01*
X136720802Y-97934200D01*
X136698939Y-97912337D01*
X136808431Y-97752090D01*
X136859440Y-97500200D01*
X136859440Y-96200200D01*
X136815162Y-95964883D01*
X136676090Y-95748759D01*
X136463890Y-95603769D01*
X136212000Y-95552760D01*
X134712000Y-95552760D01*
X134476683Y-95597038D01*
X134260559Y-95736110D01*
X134115569Y-95948310D01*
X134112919Y-95961397D01*
X133976090Y-95748759D01*
X133763890Y-95603769D01*
X133512000Y-95552760D01*
X132012000Y-95552760D01*
X131810453Y-95590684D01*
X131645767Y-95192114D01*
X131326765Y-94872555D01*
X130909756Y-94699397D01*
X130860648Y-94699354D01*
X131825802Y-93734200D01*
X137999747Y-93734200D01*
X138058620Y-93825691D01*
X138270820Y-93970681D01*
X138522710Y-94021690D01*
X140323570Y-94021690D01*
X140558887Y-93977412D01*
X140725316Y-93870318D01*
X140917739Y-94062741D01*
X141004510Y-94120719D01*
X141004510Y-94425770D01*
X141048788Y-94661087D01*
X141187860Y-94877211D01*
X141400060Y-95022201D01*
X141651950Y-95073210D01*
X142452050Y-95073210D01*
X142687367Y-95028932D01*
X142903491Y-94889860D01*
X142998977Y-94750111D01*
X143013623Y-94785469D01*
X143192252Y-94964097D01*
X143425641Y-95060770D01*
X143666250Y-95060770D01*
X143825000Y-94902020D01*
X143825000Y-93652340D01*
X144079000Y-93652340D01*
X144079000Y-94902020D01*
X144237750Y-95060770D01*
X144478359Y-95060770D01*
X144711748Y-94964097D01*
X144890377Y-94785469D01*
X144987050Y-94552080D01*
X144987050Y-93811090D01*
X144828300Y-93652340D01*
X144079000Y-93652340D01*
X143825000Y-93652340D01*
X143805000Y-93652340D01*
X143805000Y-93398340D01*
X143825000Y-93398340D01*
X143825000Y-92148660D01*
X144079000Y-92148660D01*
X144079000Y-93398340D01*
X144828300Y-93398340D01*
X144987050Y-93239590D01*
X144987050Y-92498600D01*
X144890377Y-92265211D01*
X144711748Y-92086583D01*
X144478359Y-91989910D01*
X144237750Y-91989910D01*
X144079000Y-92148660D01*
X143825000Y-92148660D01*
X143677297Y-92000957D01*
X143853491Y-91887580D01*
X143998481Y-91675380D01*
X144049490Y-91423490D01*
X144049490Y-91387200D01*
X145685111Y-91387200D01*
X145684716Y-91839995D01*
G36*
X145933106Y-83678143D02*
X146392637Y-84138478D01*
X146560000Y-84207973D01*
X146560000Y-84404200D01*
X146617852Y-84695039D01*
X146782599Y-84941601D01*
X147290599Y-85449601D01*
X147365635Y-85499739D01*
X146996205Y-85499416D01*
X146395057Y-85747806D01*
X145934722Y-86207337D01*
X145685284Y-86808052D01*
X145684716Y-87458495D01*
X145933106Y-88059643D01*
X146392637Y-88519978D01*
X146993352Y-88769416D01*
X147643795Y-88769984D01*
X148244943Y-88521594D01*
X148311574Y-88455079D01*
X148395910Y-88586141D01*
X148608110Y-88731131D01*
X148860000Y-88782140D01*
X150624000Y-88782140D01*
X150624000Y-89611200D01*
X150675232Y-89868760D01*
X148860000Y-89868760D01*
X148624683Y-89913038D01*
X148408559Y-90052110D01*
X148311090Y-90194761D01*
X148247363Y-90130922D01*
X147646648Y-89881484D01*
X146996205Y-89880916D01*
X146785860Y-89967829D01*
X146721839Y-89925052D01*
X146431000Y-89867200D01*
X144049490Y-89867200D01*
X144049490Y-89622630D01*
X144005212Y-89387313D01*
X143866140Y-89171189D01*
X143653940Y-89026199D01*
X143402050Y-88975190D01*
X142601950Y-88975190D01*
X142366633Y-89019468D01*
X142150509Y-89158540D01*
X142005519Y-89370740D01*
X141954510Y-89622630D01*
X141954510Y-90996128D01*
X141686438Y-91264200D01*
X140971010Y-91264200D01*
X140971010Y-90674150D01*
X140926732Y-90438833D01*
X140787660Y-90222709D01*
X140575460Y-90077719D01*
X140323570Y-90026710D01*
X138522710Y-90026710D01*
X138287393Y-90070988D01*
X138071269Y-90210060D01*
X138000113Y-90314200D01*
X136720802Y-90314200D01*
X136698939Y-90292337D01*
X136808431Y-90132090D01*
X136859440Y-89880200D01*
X136859440Y-88580200D01*
X136815162Y-88344883D01*
X136676090Y-88128759D01*
X136463890Y-87983769D01*
X136212000Y-87932760D01*
X134712000Y-87932760D01*
X134476683Y-87977038D01*
X134260559Y-88116110D01*
X134115569Y-88328310D01*
X134112919Y-88341397D01*
X133976090Y-88128759D01*
X133763890Y-87983769D01*
X133512000Y-87932760D01*
X132012000Y-87932760D01*
X131810453Y-87970684D01*
X131645767Y-87572114D01*
X131326765Y-87252555D01*
X130909756Y-87079397D01*
X130458225Y-87079003D01*
X130300000Y-87144380D01*
X130300000Y-86370002D01*
X130555802Y-86114200D01*
X137999747Y-86114200D01*
X138058620Y-86205691D01*
X138270820Y-86350681D01*
X138522710Y-86401690D01*
X140323570Y-86401690D01*
X140558887Y-86357412D01*
X140725316Y-86250318D01*
X140917739Y-86442741D01*
X141004510Y-86500719D01*
X141004510Y-86805770D01*
X141048788Y-87041087D01*
X141187860Y-87257211D01*
X141400060Y-87402201D01*
X141651950Y-87453210D01*
X142452050Y-87453210D01*
X142687367Y-87408932D01*
X142903491Y-87269860D01*
X142998977Y-87130111D01*
X143013623Y-87165469D01*
X143192252Y-87344097D01*
X143425641Y-87440770D01*
X143666250Y-87440770D01*
X143825000Y-87282020D01*
X143825000Y-86032340D01*
X144079000Y-86032340D01*
X144079000Y-87282020D01*
X144237750Y-87440770D01*
X144478359Y-87440770D01*
X144711748Y-87344097D01*
X144890377Y-87165469D01*
X144987050Y-86932080D01*
X144987050Y-86191090D01*
X144828300Y-86032340D01*
X144079000Y-86032340D01*
X143825000Y-86032340D01*
X143805000Y-86032340D01*
X143805000Y-85778340D01*
X143825000Y-85778340D01*
X143825000Y-84528660D01*
X144079000Y-84528660D01*
X144079000Y-85778340D01*
X144828300Y-85778340D01*
X144987050Y-85619590D01*
X144987050Y-84878600D01*
X144890377Y-84645211D01*
X144711748Y-84466583D01*
X144478359Y-84369910D01*
X144237750Y-84369910D01*
X144079000Y-84528660D01*
X143825000Y-84528660D01*
X143677297Y-84380957D01*
X143853491Y-84267580D01*
X143998481Y-84055380D01*
X144049490Y-83803490D01*
X144049490Y-83640200D01*
X145917428Y-83640200D01*
X145933106Y-83678143D01*
X145933106Y-83678143D01*
G37*
X145933106Y-83678143D02*
X146392637Y-84138478D01*
X146560000Y-84207973D01*
X146560000Y-84404200D01*
X146617852Y-84695039D01*
X146782599Y-84941601D01*
X147290599Y-85449601D01*
X147365635Y-85499739D01*
X146996205Y-85499416D01*
X146395057Y-85747806D01*
X145934722Y-86207337D01*
X145685284Y-86808052D01*
X145684716Y-87458495D01*
X145933106Y-88059643D01*
X146392637Y-88519978D01*
X146993352Y-88769416D01*
X147643795Y-88769984D01*
X148244943Y-88521594D01*
X148311574Y-88455079D01*
X148395910Y-88586141D01*
X148608110Y-88731131D01*
X148860000Y-88782140D01*
X150624000Y-88782140D01*
X150624000Y-89611200D01*
X150675232Y-89868760D01*
X148860000Y-89868760D01*
X148624683Y-89913038D01*
X148408559Y-90052110D01*
X148311090Y-90194761D01*
X148247363Y-90130922D01*
X147646648Y-89881484D01*
X146996205Y-89880916D01*
X146785860Y-89967829D01*
X146721839Y-89925052D01*
X146431000Y-89867200D01*
X144049490Y-89867200D01*
X144049490Y-89622630D01*
X144005212Y-89387313D01*
X143866140Y-89171189D01*
X143653940Y-89026199D01*
X143402050Y-88975190D01*
X142601950Y-88975190D01*
X142366633Y-89019468D01*
X142150509Y-89158540D01*
X142005519Y-89370740D01*
X141954510Y-89622630D01*
X141954510Y-90996128D01*
X141686438Y-91264200D01*
X140971010Y-91264200D01*
X140971010Y-90674150D01*
X140926732Y-90438833D01*
X140787660Y-90222709D01*
X140575460Y-90077719D01*
X140323570Y-90026710D01*
X138522710Y-90026710D01*
X138287393Y-90070988D01*
X138071269Y-90210060D01*
X138000113Y-90314200D01*
X136720802Y-90314200D01*
X136698939Y-90292337D01*
X136808431Y-90132090D01*
X136859440Y-89880200D01*
X136859440Y-88580200D01*
X136815162Y-88344883D01*
X136676090Y-88128759D01*
X136463890Y-87983769D01*
X136212000Y-87932760D01*
X134712000Y-87932760D01*
X134476683Y-87977038D01*
X134260559Y-88116110D01*
X134115569Y-88328310D01*
X134112919Y-88341397D01*
X133976090Y-88128759D01*
X133763890Y-87983769D01*
X133512000Y-87932760D01*
X132012000Y-87932760D01*
X131810453Y-87970684D01*
X131645767Y-87572114D01*
X131326765Y-87252555D01*
X130909756Y-87079397D01*
X130458225Y-87079003D01*
X130300000Y-87144380D01*
X130300000Y-86370002D01*
X130555802Y-86114200D01*
X137999747Y-86114200D01*
X138058620Y-86205691D01*
X138270820Y-86350681D01*
X138522710Y-86401690D01*
X140323570Y-86401690D01*
X140558887Y-86357412D01*
X140725316Y-86250318D01*
X140917739Y-86442741D01*
X141004510Y-86500719D01*
X141004510Y-86805770D01*
X141048788Y-87041087D01*
X141187860Y-87257211D01*
X141400060Y-87402201D01*
X141651950Y-87453210D01*
X142452050Y-87453210D01*
X142687367Y-87408932D01*
X142903491Y-87269860D01*
X142998977Y-87130111D01*
X143013623Y-87165469D01*
X143192252Y-87344097D01*
X143425641Y-87440770D01*
X143666250Y-87440770D01*
X143825000Y-87282020D01*
X143825000Y-86032340D01*
X144079000Y-86032340D01*
X144079000Y-87282020D01*
X144237750Y-87440770D01*
X144478359Y-87440770D01*
X144711748Y-87344097D01*
X144890377Y-87165469D01*
X144987050Y-86932080D01*
X144987050Y-86191090D01*
X144828300Y-86032340D01*
X144079000Y-86032340D01*
X143825000Y-86032340D01*
X143805000Y-86032340D01*
X143805000Y-85778340D01*
X143825000Y-85778340D01*
X143825000Y-84528660D01*
X144079000Y-84528660D01*
X144079000Y-85778340D01*
X144828300Y-85778340D01*
X144987050Y-85619590D01*
X144987050Y-84878600D01*
X144890377Y-84645211D01*
X144711748Y-84466583D01*
X144478359Y-84369910D01*
X144237750Y-84369910D01*
X144079000Y-84528660D01*
X143825000Y-84528660D01*
X143677297Y-84380957D01*
X143853491Y-84267580D01*
X143998481Y-84055380D01*
X144049490Y-83803490D01*
X144049490Y-83640200D01*
X145917428Y-83640200D01*
X145933106Y-83678143D01*
G36*
X116168838Y-66112517D02*
X116307910Y-66328641D01*
X116520110Y-66473631D01*
X116772000Y-66524640D01*
X118272000Y-66524640D01*
X118507317Y-66480362D01*
X118723441Y-66341290D01*
X118868431Y-66129090D01*
X118871081Y-66116003D01*
X119007910Y-66328641D01*
X119220110Y-66473631D01*
X119462000Y-66522615D01*
X119462000Y-68212225D01*
X119052971Y-68485530D01*
X118872008Y-68756361D01*
X118490490Y-68338379D01*
X117961027Y-68090232D01*
X117729000Y-68210731D01*
X117729000Y-69418200D01*
X117749000Y-69418200D01*
X117749000Y-69672200D01*
X117729000Y-69672200D01*
X117729000Y-69692200D01*
X117475000Y-69692200D01*
X117475000Y-69672200D01*
X116268183Y-69672200D01*
X116147042Y-69904226D01*
X116319312Y-70320147D01*
X116713510Y-70752021D01*
X116836228Y-70809536D01*
X116512971Y-71025530D01*
X116188115Y-71511711D01*
X116074041Y-72085200D01*
X116188115Y-72658689D01*
X116512971Y-73144870D01*
X116827752Y-73355200D01*
X116512971Y-73565530D01*
X116396260Y-73740200D01*
X113407000Y-73740200D01*
X113407000Y-69186174D01*
X116147042Y-69186174D01*
X116268183Y-69418200D01*
X117475000Y-69418200D01*
X117475000Y-68210731D01*
X117242973Y-68090232D01*
X116713510Y-68338379D01*
X116319312Y-68770253D01*
X116147042Y-69186174D01*
X113407000Y-69186174D01*
X113407000Y-66863780D01*
X114158579Y-66112200D01*
X116168778Y-66112200D01*
X116168838Y-66112517D01*
X116168838Y-66112517D01*
G37*
X116168838Y-66112517D02*
X116307910Y-66328641D01*
X116520110Y-66473631D01*
X116772000Y-66524640D01*
X118272000Y-66524640D01*
X118507317Y-66480362D01*
X118723441Y-66341290D01*
X118868431Y-66129090D01*
X118871081Y-66116003D01*
X119007910Y-66328641D01*
X119220110Y-66473631D01*
X119462000Y-66522615D01*
X119462000Y-68212225D01*
X119052971Y-68485530D01*
X118872008Y-68756361D01*
X118490490Y-68338379D01*
X117961027Y-68090232D01*
X117729000Y-68210731D01*
X117729000Y-69418200D01*
X117749000Y-69418200D01*
X117749000Y-69672200D01*
X117729000Y-69672200D01*
X117729000Y-69692200D01*
X117475000Y-69692200D01*
X117475000Y-69672200D01*
X116268183Y-69672200D01*
X116147042Y-69904226D01*
X116319312Y-70320147D01*
X116713510Y-70752021D01*
X116836228Y-70809536D01*
X116512971Y-71025530D01*
X116188115Y-71511711D01*
X116074041Y-72085200D01*
X116188115Y-72658689D01*
X116512971Y-73144870D01*
X116827752Y-73355200D01*
X116512971Y-73565530D01*
X116396260Y-73740200D01*
X113407000Y-73740200D01*
X113407000Y-69186174D01*
X116147042Y-69186174D01*
X116268183Y-69418200D01*
X117475000Y-69418200D01*
X117475000Y-68210731D01*
X117242973Y-68090232D01*
X116713510Y-68338379D01*
X116319312Y-68770253D01*
X116147042Y-69186174D01*
X113407000Y-69186174D01*
X113407000Y-66863780D01*
X114158579Y-66112200D01*
X116168778Y-66112200D01*
X116168838Y-66112517D01*
M02*
