M48
;DRILL file {KiCad 4.0.2+dfsg1-stable} date Sat 10 Feb 2018 12:11:49 PM MST
;FORMAT={-:-/ absolute / inch / decimal}
FMAT,2
INCH,TZ
T1C0.012
T2C0.020
T3C0.030
T4C0.031
T5C0.032
T6C0.035
T7C0.039
T8C0.040
T9C0.106
T10C0.217
%
G90
G05
M72
T1
X4.71Y-3.94
X4.76Y-3.91
X4.81Y-4.005
X4.86Y-3.94
X4.91Y-3.79
X4.96Y-3.79
X4.96Y-4.005
X5.Y-4.195
X5.Y-4.4
X5.04Y-3.26
X5.145Y-3.895
T2
X4.485Y-3.87
X4.49Y-2.645
X4.56Y-2.9
X4.57Y-3.56
X4.86Y-2.645
X5.06Y-4.59
X5.145Y-3.485
X5.145Y-3.785
X5.145Y-4.085
X5.145Y-4.35
X5.225Y-3.335
X5.225Y-3.635
X5.225Y-3.935
X5.225Y-4.235
X5.225Y-4.51
X5.525Y-4.75
X5.67Y-3.485
X5.67Y-3.785
X5.67Y-4.085
X5.67Y-4.39
X5.72Y-3.335
X5.72Y-3.635
X5.72Y-3.935
X5.72Y-4.235
T4
X4.6975Y-4.7088
X4.6975Y-4.8072
X4.855Y-4.7088
X4.855Y-4.8072
X4.9337Y-4.7088
X4.9337Y-4.8072
X5.0125Y-4.7088
X5.0125Y-4.8072
T5
X5.1306Y-2.95
X5.1806Y-3.05
X5.2306Y-2.95
X5.2806Y-3.05
X5.3306Y-2.95
X5.3806Y-3.05
T6
X5.72Y-3.05
X5.77Y-2.95
X5.82Y-3.05
X5.87Y-2.95
X5.92Y-3.05
X5.97Y-2.95
X6.02Y-3.05
X6.07Y-2.95
T7
X4.8Y-3.65
X4.9Y-3.65
X5.8Y-3.27
X5.8Y-3.4425
X5.8Y-3.615
X5.8Y-3.7875
X5.8Y-3.96
X5.8Y-4.1325
X5.8Y-4.305
X5.8Y-4.4775
X5.8Y-4.65
X5.9Y-3.27
X5.9Y-3.4425
X5.9Y-3.615
X5.9Y-3.7875
X5.9Y-3.96
X5.9Y-4.1325
X5.9Y-4.305
X5.9Y-4.4775
X5.9Y-4.65
T8
X4.49Y-4.26
X4.49Y-4.36
X4.63Y-2.75
X4.63Y-2.85
X4.63Y-2.95
X4.73Y-2.75
X4.73Y-2.85
X4.73Y-2.95
T9
X4.49Y-4.05
T10
X4.6654Y-3.3583
X4.7638Y-4.3425
X6.2008Y-3.3583
X6.2008Y-4.7866
T3
X4.985Y-2.6025G85X4.985Y-2.5575
G05
X5.525Y-2.6025G85X5.525Y-2.5575
G05
X5.595Y-2.6025G85X5.595Y-2.5575
G05
X6.195Y-2.6025G85X6.195Y-2.5575
G05
T4
X4.544Y-4.636G85X4.5755Y-4.636
G05
X4.544Y-4.88G85X4.5755Y-4.88
G05
X5.1345Y-4.636G85X5.166Y-4.636
G05
X5.1345Y-4.88G85X5.166Y-4.88
G05
T0
M30
