G04 #@! TF.FileFunction,Soldermask,Bot*
%FSLAX46Y46*%
G04 Gerber Fmt 4.6, Leading zero omitted, Abs format (unit mm)*
G04 Created by KiCad (PCBNEW 4.0.2+dfsg1-stable) date Sat 10 Feb 2018 12:11:43 PM MST*
%MOMM*%
G01*
G04 APERTURE LIST*
%ADD10C,0.100000*%
%ADD11R,1.650000X1.900000*%
%ADD12R,1.950000X1.000000*%
%ADD13R,2.127200X2.127200*%
%ADD14O,2.127200X2.127200*%
%ADD15R,1.900000X1.650000*%
%ADD16R,1.310000X1.620000*%
%ADD17R,2.432000X2.432000*%
%ADD18O,2.432000X2.432000*%
%ADD19R,2.400000X2.400000*%
%ADD20C,2.400000*%
%ADD21R,2.200860X1.200100*%
%ADD22R,1.200100X2.200860*%
%ADD23R,1.900000X1.700000*%
%ADD24O,2.700000X1.900000*%
%ADD25C,1.900000*%
%ADD26O,1.797000X2.940000*%
%ADD27C,4.049980*%
%ADD28R,1.901140X1.901140*%
%ADD29C,1.901140*%
%ADD30C,1.924000*%
G04 APERTURE END LIST*
D10*
D11*
X134620000Y-119146000D03*
X134620000Y-121646000D03*
D12*
X143035000Y-118745000D03*
X143035000Y-120015000D03*
X143035000Y-121285000D03*
X143035000Y-122555000D03*
X137635000Y-122555000D03*
X137635000Y-121285000D03*
X137635000Y-120015000D03*
X137635000Y-118745000D03*
D13*
X120142000Y-74930000D03*
D14*
X117602000Y-74930000D03*
X120142000Y-72390000D03*
X117602000Y-72390000D03*
X120142000Y-69850000D03*
X117602000Y-69850000D03*
D15*
X142855000Y-116205000D03*
X140355000Y-116205000D03*
D16*
X155210000Y-95250000D03*
X158480000Y-95250000D03*
X155210000Y-100330000D03*
X158480000Y-100330000D03*
X155210000Y-105410000D03*
X158480000Y-105410000D03*
X155210000Y-110490000D03*
X158480000Y-110490000D03*
D17*
X114046000Y-108204000D03*
D18*
X114046000Y-110744000D03*
D19*
X149860000Y-83058000D03*
D20*
X147320000Y-83058000D03*
D19*
X149860000Y-87439500D03*
D20*
X147320000Y-87439500D03*
D19*
X149860000Y-91821000D03*
D20*
X147320000Y-91821000D03*
D19*
X149860000Y-96202500D03*
D20*
X147320000Y-96202500D03*
D19*
X149860000Y-100584000D03*
D20*
X147320000Y-100584000D03*
D19*
X149860000Y-104965500D03*
D20*
X147320000Y-104965500D03*
D19*
X149860000Y-109347000D03*
D20*
X147320000Y-109347000D03*
D19*
X149860000Y-113728500D03*
D20*
X147320000Y-113728500D03*
D19*
X149860000Y-118110000D03*
D20*
X147320000Y-118110000D03*
D19*
X121920000Y-92710000D03*
D20*
X124460000Y-92710000D03*
D21*
X139423140Y-83759000D03*
X139423140Y-85659000D03*
X136420860Y-84709000D03*
X139423140Y-91379000D03*
X139423140Y-93279000D03*
X136420860Y-92329000D03*
X139423140Y-98999000D03*
X139423140Y-100899000D03*
X136420860Y-99949000D03*
X139423140Y-106619000D03*
X139423140Y-108519000D03*
X136420860Y-107569000D03*
D22*
X142052000Y-83207860D03*
X143952000Y-83207860D03*
X143002000Y-86210140D03*
X142052000Y-90827860D03*
X143952000Y-90827860D03*
X143002000Y-93830140D03*
X142052000Y-98447860D03*
X143952000Y-98447860D03*
X143002000Y-101450140D03*
X142052000Y-106067860D03*
X143952000Y-106067860D03*
X143002000Y-109070140D03*
D23*
X132762000Y-87503000D03*
X135462000Y-87503000D03*
X132762000Y-95123000D03*
X135462000Y-95123000D03*
X132762000Y-102743000D03*
X135462000Y-102743000D03*
X132762000Y-110363000D03*
X135462000Y-110363000D03*
X129493000Y-114046000D03*
X126793000Y-114046000D03*
D24*
X115817000Y-123953200D03*
X130817000Y-123953200D03*
X130817000Y-117753200D03*
D25*
X123317000Y-119603200D03*
X123317000Y-122103200D03*
X125317000Y-119603200D03*
X125317000Y-122103200D03*
X127317000Y-122103200D03*
X127317000Y-119603200D03*
X119317000Y-119603200D03*
X119317000Y-122103200D03*
D24*
X115817000Y-117753200D03*
D26*
X157353000Y-65532000D03*
D27*
X143794480Y-68580000D03*
X155663900Y-68580000D03*
D28*
X154178000Y-74930000D03*
D29*
X152908000Y-77470000D03*
X151638000Y-74930000D03*
X150368000Y-77470000D03*
X149098000Y-74930000D03*
X147828000Y-77470000D03*
X146558000Y-74930000D03*
X145288000Y-77470000D03*
D26*
X142113000Y-65532000D03*
D30*
X132858000Y-74930000D03*
X135398000Y-74930000D03*
X130318000Y-74930000D03*
X136668000Y-77470000D03*
X134128000Y-77470000D03*
X131588000Y-77470000D03*
D26*
X126619000Y-65532000D03*
X140335000Y-65532000D03*
D27*
X128397000Y-68580000D03*
X138557000Y-68580000D03*
M02*
