G04 #@! TF.FileFunction,Copper,L2,Bot,Signal*
%FSLAX46Y46*%
G04 Gerber Fmt 4.6, Leading zero omitted, Abs format (unit mm)*
G04 Created by KiCad (PCBNEW 4.0.2+dfsg1-stable) date Sat 24 Feb 2018 03:40:28 PM MST*
%MOMM*%
G01*
G04 APERTURE LIST*
%ADD10C,0.100000*%
%ADD11R,1.250000X1.500000*%
%ADD12R,1.550000X0.600000*%
%ADD13R,1.727200X1.727200*%
%ADD14O,1.727200X1.727200*%
%ADD15R,1.500000X1.250000*%
%ADD16R,0.910000X1.220000*%
%ADD17R,2.032000X2.032000*%
%ADD18O,2.032000X2.032000*%
%ADD19R,2.000000X2.000000*%
%ADD20C,2.000000*%
%ADD21R,1.800860X0.800100*%
%ADD22R,0.800100X1.800860*%
%ADD23R,1.500000X1.300000*%
%ADD24O,2.300000X1.500000*%
%ADD25C,1.500000*%
%ADD26O,1.397000X2.540000*%
%ADD27C,3.649980*%
%ADD28R,1.501140X1.501140*%
%ADD29C,1.501140*%
%ADD30C,1.524000*%
%ADD31C,1.000000*%
%ADD32C,0.800000*%
%ADD33C,0.500000*%
%ADD34C,0.250000*%
%ADD35C,0.254000*%
G04 APERTURE END LIST*
D10*
D11*
X134620000Y-118841200D03*
X134620000Y-121341200D03*
D12*
X143035000Y-118440200D03*
X143035000Y-119710200D03*
X143035000Y-120980200D03*
X143035000Y-122250200D03*
X137635000Y-122250200D03*
X137635000Y-120980200D03*
X137635000Y-119710200D03*
X137635000Y-118440200D03*
D13*
X120142000Y-74625200D03*
D14*
X117602000Y-74625200D03*
X120142000Y-72085200D03*
X117602000Y-72085200D03*
X120142000Y-69545200D03*
X117602000Y-69545200D03*
D15*
X142855000Y-115900200D03*
X140355000Y-115900200D03*
D16*
X155210000Y-94945200D03*
X158480000Y-94945200D03*
X155210000Y-100025200D03*
X158480000Y-100025200D03*
X155210000Y-105105200D03*
X158480000Y-105105200D03*
X155210000Y-110185200D03*
X158480000Y-110185200D03*
D17*
X114046000Y-107899200D03*
D18*
X114046000Y-110439200D03*
D19*
X149860000Y-82753200D03*
D20*
X147320000Y-82753200D03*
D19*
X149860000Y-87134700D03*
D20*
X147320000Y-87134700D03*
D19*
X149860000Y-91516200D03*
D20*
X147320000Y-91516200D03*
D19*
X149860000Y-95897700D03*
D20*
X147320000Y-95897700D03*
D19*
X149860000Y-100279200D03*
D20*
X147320000Y-100279200D03*
D19*
X149860000Y-104660700D03*
D20*
X147320000Y-104660700D03*
D19*
X149860000Y-109042200D03*
D20*
X147320000Y-109042200D03*
D19*
X149860000Y-113423700D03*
D20*
X147320000Y-113423700D03*
D19*
X149860000Y-117805200D03*
D20*
X147320000Y-117805200D03*
D19*
X121920000Y-92405200D03*
D20*
X124460000Y-92405200D03*
D21*
X139423140Y-83454200D03*
X139423140Y-85354200D03*
X136420860Y-84404200D03*
X139423140Y-91074200D03*
X139423140Y-92974200D03*
X136420860Y-92024200D03*
X139423140Y-98694200D03*
X139423140Y-100594200D03*
X136420860Y-99644200D03*
X139423140Y-106314200D03*
X139423140Y-108214200D03*
X136420860Y-107264200D03*
D22*
X142052000Y-82903060D03*
X143952000Y-82903060D03*
X143002000Y-85905340D03*
X142052000Y-90523060D03*
X143952000Y-90523060D03*
X143002000Y-93525340D03*
X142052000Y-98143060D03*
X143952000Y-98143060D03*
X143002000Y-101145340D03*
X142052000Y-105763060D03*
X143952000Y-105763060D03*
X143002000Y-108765340D03*
D23*
X132762000Y-87198200D03*
X135462000Y-87198200D03*
X132762000Y-94818200D03*
X135462000Y-94818200D03*
X132762000Y-102438200D03*
X135462000Y-102438200D03*
X132762000Y-110058200D03*
X135462000Y-110058200D03*
X129493000Y-113741200D03*
X126793000Y-113741200D03*
D24*
X115817000Y-123648400D03*
X130817000Y-123648400D03*
X130817000Y-117448400D03*
D25*
X123317000Y-119298400D03*
X123317000Y-121798400D03*
X125317000Y-119298400D03*
X125317000Y-121798400D03*
X127317000Y-121798400D03*
X127317000Y-119298400D03*
X119317000Y-119298400D03*
X119317000Y-121798400D03*
D24*
X115817000Y-117448400D03*
D26*
X157353000Y-65532000D03*
D27*
X143794480Y-68580000D03*
X155663900Y-68580000D03*
D28*
X154178000Y-74930000D03*
D29*
X152908000Y-77470000D03*
X151638000Y-74930000D03*
X150368000Y-77470000D03*
X149098000Y-74930000D03*
X147828000Y-77470000D03*
X146558000Y-74930000D03*
X145288000Y-77470000D03*
D26*
X142113000Y-65532000D03*
D30*
X132858000Y-74930000D03*
X135398000Y-74930000D03*
X130318000Y-74930000D03*
X136668000Y-77470000D03*
X134128000Y-77470000D03*
X131588000Y-77470000D03*
D26*
X126619000Y-65532000D03*
X140335000Y-65532000D03*
D27*
X128397000Y-68580000D03*
X138557000Y-68580000D03*
D31*
X132715000Y-114249200D03*
X132715000Y-84404200D03*
X130683000Y-88214200D03*
X132715000Y-92024200D03*
X130683000Y-95834200D03*
X132715000Y-99644200D03*
X130683000Y-103454200D03*
X132715000Y-107264200D03*
X130683000Y-110185200D03*
X123444000Y-66878200D03*
X114046000Y-66878200D03*
X115824000Y-73355200D03*
X116078000Y-90119200D03*
X113919000Y-97993200D03*
X140335000Y-120345200D03*
X144018000Y-111201200D03*
X144018000Y-88214200D03*
X144018000Y-95834200D03*
X144018000Y-103454200D03*
X145288000Y-107264200D03*
X145288000Y-99644200D03*
X145288000Y-92024200D03*
X145288000Y-84404200D03*
X128524000Y-116281200D03*
D32*
X125984000Y-95961200D03*
X130683000Y-98628200D03*
X128016000Y-82499200D03*
X124714000Y-95961200D03*
X125984000Y-101422200D03*
X122174000Y-101422200D03*
X119634000Y-99771200D03*
X120904000Y-99009200D03*
X123444000Y-99771200D03*
X127000000Y-106248200D03*
X127000000Y-111455200D03*
D33*
X132762000Y-110058200D02*
X130810000Y-110058200D01*
X130810000Y-110058200D02*
X130683000Y-110185200D01*
X132715000Y-118821200D02*
X132735000Y-118841200D01*
X132735000Y-118841200D02*
X134620000Y-118841200D01*
D34*
X134620000Y-118841200D02*
X134219000Y-118440200D01*
D33*
X132715000Y-114249200D02*
X132715000Y-118821200D01*
X132715000Y-118821200D02*
X132715000Y-119730200D01*
X137635000Y-118440200D02*
X135021000Y-118440200D01*
X135021000Y-118440200D02*
X134620000Y-118841200D01*
D34*
X132715000Y-119730200D02*
X132695000Y-119730200D01*
D33*
X130626800Y-121798400D02*
X127317000Y-121798400D01*
X132695000Y-119730200D02*
X130626800Y-121798400D01*
X132762000Y-84451200D02*
X132762000Y-87198200D01*
D34*
X132715000Y-84404200D02*
X132762000Y-84451200D01*
D33*
X132762000Y-87198200D02*
X131699000Y-87198200D01*
X131699000Y-87198200D02*
X130683000Y-88214200D01*
D34*
X132715000Y-92024200D02*
X132762000Y-92071200D01*
D33*
X132762000Y-92071200D02*
X132762000Y-94818200D01*
X132762000Y-94818200D02*
X131699000Y-94818200D01*
X131699000Y-94818200D02*
X130683000Y-95834200D01*
D34*
X132715000Y-99644200D02*
X132762000Y-99691200D01*
D33*
X132762000Y-99691200D02*
X132762000Y-102438200D01*
X132762000Y-102438200D02*
X131699000Y-102438200D01*
X131699000Y-102438200D02*
X130683000Y-103454200D01*
D34*
X132715000Y-107264200D02*
X132762000Y-107311200D01*
D33*
X132762000Y-107311200D02*
X132762000Y-110058200D01*
X125317000Y-121798400D02*
X127317000Y-121798400D01*
D34*
X127317000Y-121798400D02*
X127373200Y-121742200D01*
X116078000Y-90119200D02*
X116078000Y-89357200D01*
X116078000Y-89357200D02*
X116840000Y-88595200D01*
X116840000Y-88595200D02*
X120650000Y-88595200D01*
X121920000Y-82245200D02*
X120650000Y-80975200D01*
X120650000Y-88595200D02*
X121920000Y-87325200D01*
X121920000Y-87325200D02*
X121920000Y-82245200D01*
X120650000Y-80975200D02*
X116840000Y-80975200D01*
X116840000Y-80975200D02*
X115824000Y-79959200D01*
X115824000Y-79959200D02*
X115824000Y-73355200D01*
X114046000Y-66878200D02*
X123444000Y-66878200D01*
X113919000Y-99136200D02*
X113919000Y-97993200D01*
X116840000Y-105105200D02*
X114046000Y-107899200D01*
X116840000Y-100914200D02*
X116840000Y-105105200D01*
X115570000Y-99644200D02*
X116840000Y-100914200D01*
X114427000Y-99644200D02*
X115570000Y-99644200D01*
X113919000Y-99136200D02*
X114427000Y-99644200D01*
X143035000Y-119710200D02*
X140355000Y-119710200D01*
X140355000Y-120325200D02*
X140355000Y-119710200D01*
X140335000Y-120345200D02*
X140355000Y-120325200D01*
X140355000Y-119710200D02*
X140355000Y-115900200D01*
X144526000Y-119710200D02*
X143035000Y-119710200D01*
X145034000Y-119202200D02*
X144526000Y-119710200D01*
X145034000Y-112217200D02*
X145034000Y-119202200D01*
X144018000Y-111201200D02*
X145034000Y-112217200D01*
X144018000Y-88214200D02*
X144018000Y-90457060D01*
X144018000Y-90457060D02*
X143952000Y-90523060D01*
X143952000Y-98143060D02*
X144018000Y-98077060D01*
X144018000Y-98077060D02*
X144018000Y-95834200D01*
X144018000Y-103454200D02*
X144018000Y-105697060D01*
X144018000Y-105697060D02*
X143952000Y-105763060D01*
X143952000Y-105763060D02*
X144548860Y-105763060D01*
X145288000Y-106502200D02*
X145288000Y-107264200D01*
X144548860Y-105763060D02*
X145288000Y-106502200D01*
X144675860Y-98143060D02*
X143952000Y-98143060D01*
X145288000Y-98755200D02*
X144675860Y-98143060D01*
X145288000Y-99644200D02*
X145288000Y-98755200D01*
X143952000Y-90523060D02*
X144675860Y-90523060D01*
X145288000Y-91135200D02*
X145288000Y-92024200D01*
X144675860Y-90523060D02*
X145288000Y-91135200D01*
X143952000Y-82903060D02*
X144675860Y-82903060D01*
X145288000Y-83515200D02*
X145288000Y-84404200D01*
X144675860Y-82903060D02*
X145288000Y-83515200D01*
D33*
X142855000Y-114483200D02*
X141097000Y-112725200D01*
X129493000Y-113741200D02*
X129493000Y-115312200D01*
X129493000Y-115312200D02*
X128524000Y-116281200D01*
X129493000Y-113741200D02*
X130556000Y-113741200D01*
X130556000Y-113741200D02*
X131572000Y-112725200D01*
X131572000Y-112725200D02*
X141097000Y-112725200D01*
X142855000Y-114483200D02*
X142855000Y-115900200D01*
X143035000Y-118440200D02*
X143035000Y-116080200D01*
D34*
X143035000Y-116080200D02*
X142855000Y-115900200D01*
X135398000Y-78578200D02*
X135398000Y-77962000D01*
X135398000Y-77962000D02*
X135398000Y-74930000D01*
X152908000Y-80975200D02*
X152908000Y-77470000D01*
X152908000Y-80975200D02*
X137795000Y-80975200D01*
X137795000Y-80975200D02*
X135398000Y-78578200D01*
X149860000Y-87134700D02*
X151320500Y-87134700D01*
X157734000Y-93675200D02*
X158480000Y-94421200D01*
X154178000Y-93675200D02*
X157734000Y-93675200D01*
X152273000Y-91770200D02*
X154178000Y-93675200D01*
X152273000Y-88087200D02*
X152273000Y-91770200D01*
X151320500Y-87134700D02*
X152273000Y-88087200D01*
X158480000Y-94421200D02*
X158480000Y-94945200D01*
X158480000Y-94945200D02*
X158480000Y-94421200D01*
X158480000Y-94945200D02*
X159258000Y-94945200D01*
X152908000Y-88595200D02*
X152908000Y-80975200D01*
X154686000Y-90373200D02*
X152908000Y-88595200D01*
X158496000Y-90373200D02*
X154686000Y-90373200D01*
X160147000Y-92024200D02*
X158496000Y-90373200D01*
X160147000Y-94056200D02*
X160147000Y-92024200D01*
X159258000Y-94945200D02*
X160147000Y-94056200D01*
X132858000Y-73339200D02*
X132858000Y-74930000D01*
X150368000Y-77470000D02*
X150368000Y-78435200D01*
X150368000Y-73609200D02*
X150368000Y-77470000D01*
X139192000Y-78435200D02*
X139192000Y-73609200D01*
X150368000Y-78435200D02*
X148844000Y-79959200D01*
X140716000Y-79959200D02*
X139192000Y-78435200D01*
X148844000Y-79959200D02*
X140716000Y-79959200D01*
X139192000Y-73609200D02*
X138684000Y-73101200D01*
X138684000Y-73101200D02*
X133096000Y-73101200D01*
X133096000Y-73101200D02*
X132858000Y-73339200D01*
X159258000Y-100025200D02*
X158480000Y-100025200D01*
X160782000Y-98501200D02*
X159258000Y-100025200D01*
X160782000Y-78689200D02*
X160782000Y-98501200D01*
X155194000Y-73101200D02*
X160782000Y-78689200D01*
X150876000Y-73101200D02*
X155194000Y-73101200D01*
X150368000Y-73609200D02*
X150876000Y-73101200D01*
X158480000Y-100025200D02*
X158480000Y-99406200D01*
X158480000Y-99406200D02*
X157829000Y-98755200D01*
X157829000Y-98755200D02*
X154178000Y-98755200D01*
X154178000Y-98755200D02*
X151384000Y-95961200D01*
X151384000Y-95961200D02*
X149923500Y-95961200D01*
X149923500Y-95961200D02*
X149860000Y-95897700D01*
X130318000Y-73339200D02*
X130318000Y-74930000D01*
X147828000Y-77470000D02*
X147828000Y-78562200D01*
X147828000Y-77470000D02*
X147828000Y-73609200D01*
X147828000Y-73609200D02*
X148971000Y-72466200D01*
X148971000Y-72466200D02*
X155448000Y-72466200D01*
X155448000Y-72466200D02*
X161417000Y-78435200D01*
X161417000Y-78435200D02*
X161417000Y-102946200D01*
X161417000Y-102946200D02*
X159258000Y-105105200D01*
X159258000Y-105105200D02*
X158480000Y-105105200D01*
X147828000Y-78562200D02*
X147447000Y-78943200D01*
X147447000Y-78943200D02*
X140716000Y-78943200D01*
X140716000Y-78943200D02*
X140208000Y-78435200D01*
X140208000Y-78435200D02*
X140208000Y-73609200D01*
X140208000Y-73609200D02*
X139065000Y-72466200D01*
X139065000Y-72466200D02*
X131191000Y-72466200D01*
X131191000Y-72466200D02*
X130318000Y-73339200D01*
X158480000Y-105105200D02*
X158480000Y-104581200D01*
X158480000Y-104581200D02*
X157734000Y-103835200D01*
X153352500Y-104660700D02*
X149860000Y-104660700D01*
X154178000Y-103835200D02*
X153352500Y-104660700D01*
X157734000Y-103835200D02*
X154178000Y-103835200D01*
X145288000Y-77470000D02*
X145288000Y-73609200D01*
X158480000Y-110185200D02*
X158480000Y-110709200D01*
X158480000Y-110709200D02*
X157734000Y-111455200D01*
X152336500Y-113423700D02*
X149860000Y-113423700D01*
X154305000Y-111455200D02*
X152336500Y-113423700D01*
X157734000Y-111455200D02*
X154305000Y-111455200D01*
X158480000Y-110185200D02*
X159258000Y-110185200D01*
X147066000Y-71831200D02*
X145288000Y-73609200D01*
X155702000Y-71831200D02*
X147066000Y-71831200D01*
X162052000Y-78181200D02*
X155702000Y-71831200D01*
X162052000Y-107391200D02*
X162052000Y-78181200D01*
X159258000Y-110185200D02*
X162052000Y-107391200D01*
D33*
X123317000Y-121798400D02*
X119317000Y-121798400D01*
X119317000Y-121798400D02*
X117023200Y-121798400D01*
X117023200Y-121798400D02*
X114046000Y-118821200D01*
X114046000Y-118821200D02*
X114046000Y-110439200D01*
D34*
X121412000Y-74625200D02*
X120142000Y-74625200D01*
X128778000Y-81991200D02*
X121412000Y-74625200D01*
X128778000Y-93167200D02*
X128778000Y-81991200D01*
X125984000Y-95961200D02*
X128778000Y-93167200D01*
X139423140Y-98694200D02*
X139357140Y-98628200D01*
X139357140Y-98628200D02*
X130683000Y-98628200D01*
X142052000Y-98143060D02*
X141455140Y-98143060D01*
X140904000Y-98694200D02*
X139423140Y-98694200D01*
X141455140Y-98143060D02*
X140904000Y-98694200D01*
X128016000Y-82499200D02*
X128016000Y-92659200D01*
X128016000Y-92659200D02*
X124714000Y-95961200D01*
X115316000Y-72085200D02*
X117602000Y-72085200D01*
X114554000Y-72847200D02*
X115316000Y-72085200D01*
X114554000Y-95961200D02*
X114554000Y-72847200D01*
X119126000Y-100533200D02*
X114554000Y-95961200D01*
X125095000Y-100533200D02*
X119126000Y-100533200D01*
X125984000Y-101422200D02*
X125095000Y-100533200D01*
X120142000Y-68275200D02*
X120142000Y-69545200D01*
X119253000Y-67386200D02*
X120142000Y-68275200D01*
X115316000Y-67386200D02*
X119253000Y-67386200D01*
X113792000Y-68910200D02*
X115316000Y-67386200D01*
X113792000Y-96469200D02*
X113792000Y-68910200D01*
X118618000Y-101295200D02*
X113792000Y-96469200D01*
X122047000Y-101295200D02*
X118618000Y-101295200D01*
X122174000Y-101422200D02*
X122047000Y-101295200D01*
X124460000Y-93548200D02*
X124460000Y-92405200D01*
X123571000Y-94437200D02*
X124460000Y-93548200D01*
X121158000Y-94437200D02*
X123571000Y-94437200D01*
X119634000Y-95961200D02*
X121158000Y-94437200D01*
X119634000Y-99771200D02*
X119634000Y-95961200D01*
X139423140Y-83454200D02*
X132141000Y-83454200D01*
X124206000Y-99009200D02*
X120904000Y-99009200D01*
X129540000Y-93675200D02*
X124206000Y-99009200D01*
X129540000Y-86055200D02*
X129540000Y-93675200D01*
X132141000Y-83454200D02*
X129540000Y-86055200D01*
X142052000Y-82903060D02*
X141455140Y-82903060D01*
X140904000Y-83454200D02*
X139423140Y-83454200D01*
X141455140Y-82903060D02*
X140904000Y-83454200D01*
X141968140Y-83200200D02*
X142052000Y-83284060D01*
X139423140Y-91074200D02*
X132141000Y-91074200D01*
X124714000Y-99771200D02*
X123444000Y-99771200D01*
X130302000Y-94183200D02*
X124714000Y-99771200D01*
X130302000Y-92913200D02*
X130302000Y-94183200D01*
X132141000Y-91074200D02*
X130302000Y-92913200D01*
X142052000Y-90523060D02*
X141455140Y-90523060D01*
X140904000Y-91074200D02*
X139423140Y-91074200D01*
X141455140Y-90523060D02*
X140904000Y-91074200D01*
X127066000Y-106314200D02*
X139423140Y-106314200D01*
X127000000Y-106248200D02*
X127066000Y-106314200D01*
X139423140Y-106314200D02*
X140904000Y-106314200D01*
X141455140Y-105763060D02*
X142052000Y-105763060D01*
X140904000Y-106314200D02*
X141455140Y-105763060D01*
X127000000Y-111455200D02*
X127000000Y-113534200D01*
X127000000Y-113534200D02*
X126793000Y-113741200D01*
X125317000Y-119298400D02*
X125317000Y-117837200D01*
X126793000Y-116361200D02*
X126793000Y-113741200D01*
X125317000Y-117837200D02*
X126793000Y-116361200D01*
X136420860Y-84404200D02*
X142001240Y-84404200D01*
X142001240Y-84404200D02*
X143002000Y-85404960D01*
X143002000Y-85404960D02*
X143002000Y-85905340D01*
X143002000Y-85905340D02*
X146090640Y-85905340D01*
X146090640Y-85905340D02*
X147320000Y-87134700D01*
X155210000Y-94945200D02*
X154178000Y-94945200D01*
X154178000Y-94945200D02*
X151511000Y-92278200D01*
X151511000Y-92278200D02*
X151511000Y-90119200D01*
X151511000Y-90119200D02*
X150622000Y-89230200D01*
X150622000Y-89230200D02*
X147955000Y-89230200D01*
X147955000Y-89230200D02*
X147320000Y-88595200D01*
X147320000Y-88595200D02*
X147320000Y-87134700D01*
X136420860Y-92024200D02*
X142001240Y-92024200D01*
X142001240Y-92024200D02*
X143002000Y-93024960D01*
X143002000Y-93024960D02*
X143002000Y-93525340D01*
X143002000Y-93525340D02*
X144947640Y-93525340D01*
X144947640Y-93525340D02*
X147320000Y-95897700D01*
X155210000Y-100025200D02*
X154178000Y-100025200D01*
X147320000Y-97612200D02*
X147320000Y-95897700D01*
X147828000Y-98120200D02*
X147320000Y-97612200D01*
X152273000Y-98120200D02*
X147828000Y-98120200D01*
X154178000Y-100025200D02*
X152273000Y-98120200D01*
X136420860Y-99644200D02*
X142001240Y-99644200D01*
X142001240Y-99644200D02*
X143002000Y-100644960D01*
X143002000Y-100644960D02*
X143002000Y-101145340D01*
X143002000Y-101145340D02*
X143804640Y-101145340D01*
X143804640Y-101145340D02*
X147320000Y-104660700D01*
X155210000Y-105105200D02*
X154178000Y-105105200D01*
X147320000Y-106248200D02*
X147320000Y-104660700D01*
X147828000Y-106756200D02*
X147320000Y-106248200D01*
X152527000Y-106756200D02*
X147828000Y-106756200D01*
X154178000Y-105105200D02*
X152527000Y-106756200D01*
X136420860Y-107264200D02*
X142001240Y-107264200D01*
X142001240Y-107264200D02*
X143002000Y-108264960D01*
X143002000Y-108264960D02*
X143002000Y-108765340D01*
X147320000Y-111201200D02*
X147066000Y-111201200D01*
X144630140Y-108765340D02*
X143002000Y-108765340D01*
X147066000Y-111201200D02*
X144630140Y-108765340D01*
X147320000Y-111201200D02*
X153162000Y-111201200D01*
X147320000Y-111201200D02*
X147320000Y-113423700D01*
X154178000Y-110185200D02*
X155210000Y-110185200D01*
X153162000Y-111201200D02*
X154178000Y-110185200D01*
X143002000Y-108765340D02*
X143002000Y-109169200D01*
X139423140Y-85354200D02*
X136406000Y-85354200D01*
X136406000Y-85354200D02*
X135462000Y-86298200D01*
X135462000Y-86298200D02*
X135462000Y-87198200D01*
X139423140Y-92974200D02*
X136406000Y-92974200D01*
X136406000Y-92974200D02*
X135462000Y-93918200D01*
X135462000Y-93918200D02*
X135462000Y-94818200D01*
X139423140Y-100594200D02*
X136406000Y-100594200D01*
X136406000Y-100594200D02*
X135462000Y-101538200D01*
X135462000Y-101538200D02*
X135462000Y-102438200D01*
X139423140Y-108214200D02*
X136406000Y-108214200D01*
X136406000Y-108214200D02*
X135462000Y-109158200D01*
X135462000Y-109158200D02*
X135462000Y-110058200D01*
D35*
G36*
X125387007Y-64412871D02*
X125285500Y-64923179D01*
X125285500Y-66140821D01*
X125387007Y-66651129D01*
X125676073Y-67083748D01*
X126108692Y-67372814D01*
X126225021Y-67395953D01*
X125937438Y-68088531D01*
X125936584Y-69067175D01*
X126310306Y-69971652D01*
X127001708Y-70664262D01*
X127905531Y-71039562D01*
X128884175Y-71040416D01*
X129788652Y-70666694D01*
X130481262Y-69975292D01*
X130856562Y-69071469D01*
X130857416Y-68092825D01*
X130483694Y-67188348D01*
X129792292Y-66495738D01*
X128888469Y-66120438D01*
X127952500Y-66119621D01*
X127952500Y-64923179D01*
X127850993Y-64412871D01*
X127715439Y-64210000D01*
X139238561Y-64210000D01*
X139103007Y-64412871D01*
X139001500Y-64923179D01*
X139001500Y-66120397D01*
X138069825Y-66119584D01*
X137165348Y-66493306D01*
X136472738Y-67184708D01*
X136097438Y-68088531D01*
X136096584Y-69067175D01*
X136470306Y-69971652D01*
X137161708Y-70664262D01*
X138065531Y-71039562D01*
X139044175Y-71040416D01*
X139948652Y-70666694D01*
X140641262Y-69975292D01*
X141016562Y-69071469D01*
X141017416Y-68092825D01*
X140729437Y-67395862D01*
X140845308Y-67372814D01*
X141224000Y-67119781D01*
X141602692Y-67372814D01*
X141629865Y-67378219D01*
X141334918Y-68088531D01*
X141334064Y-69067175D01*
X141707786Y-69971652D01*
X142399188Y-70664262D01*
X143303011Y-71039562D01*
X144281655Y-71040416D01*
X145186132Y-70666694D01*
X145878742Y-69975292D01*
X146254042Y-69071469D01*
X146254896Y-68092825D01*
X145881174Y-67188348D01*
X145189772Y-66495738D01*
X144285949Y-66120438D01*
X143446500Y-66119705D01*
X143446500Y-64923179D01*
X143344993Y-64412871D01*
X143209439Y-64210000D01*
X156256561Y-64210000D01*
X156121007Y-64412871D01*
X156019500Y-64923179D01*
X156019500Y-66120319D01*
X155176725Y-66119584D01*
X154272248Y-66493306D01*
X153579638Y-67184708D01*
X153204338Y-68088531D01*
X153203484Y-69067175D01*
X153577206Y-69971652D01*
X154268608Y-70664262D01*
X155172431Y-71039562D01*
X156151075Y-71040416D01*
X157055552Y-70666694D01*
X157748162Y-69975292D01*
X158123462Y-69071469D01*
X158124316Y-68092825D01*
X157829585Y-67379522D01*
X157863308Y-67372814D01*
X158295927Y-67083748D01*
X158584993Y-66651129D01*
X158686500Y-66140821D01*
X158686500Y-64923179D01*
X158584993Y-64412871D01*
X158449439Y-64210000D01*
X161850000Y-64210000D01*
X161850000Y-76904398D01*
X156239401Y-71293799D01*
X155992839Y-71129052D01*
X155702000Y-71071200D01*
X147066000Y-71071200D01*
X146775161Y-71129052D01*
X146528599Y-71293799D01*
X144750599Y-73071799D01*
X144585852Y-73318361D01*
X144528000Y-73609200D01*
X144528000Y-76284837D01*
X144504163Y-76294686D01*
X144114056Y-76684113D01*
X143902671Y-77193184D01*
X143902190Y-77744398D01*
X144083499Y-78183200D01*
X141030802Y-78183200D01*
X140968000Y-78120398D01*
X140968000Y-73609200D01*
X140910148Y-73318361D01*
X140745401Y-73071799D01*
X139602401Y-71928799D01*
X139355839Y-71764052D01*
X139065000Y-71706200D01*
X131191000Y-71706200D01*
X130948414Y-71754454D01*
X130900160Y-71764052D01*
X130653599Y-71928799D01*
X129780599Y-72801799D01*
X129615852Y-73048361D01*
X129558000Y-73339200D01*
X129558000Y-73732469D01*
X129527697Y-73744990D01*
X129134371Y-74137630D01*
X128921243Y-74650900D01*
X128920758Y-75206661D01*
X129132990Y-75720303D01*
X129525630Y-76113629D01*
X130038900Y-76326757D01*
X130594661Y-76327242D01*
X131108303Y-76115010D01*
X131501629Y-75722370D01*
X131587949Y-75514488D01*
X131672990Y-75720303D01*
X132065630Y-76113629D01*
X132578900Y-76326757D01*
X133134661Y-76327242D01*
X133648303Y-76115010D01*
X134041629Y-75722370D01*
X134127949Y-75514488D01*
X134212990Y-75720303D01*
X134605630Y-76113629D01*
X134638000Y-76127070D01*
X134638000Y-76169121D01*
X134407100Y-76073243D01*
X133851339Y-76072758D01*
X133337697Y-76284990D01*
X132944371Y-76677630D01*
X132858051Y-76885512D01*
X132773010Y-76679697D01*
X132380370Y-76286371D01*
X131867100Y-76073243D01*
X131311339Y-76072758D01*
X130797697Y-76284990D01*
X130404371Y-76677630D01*
X130191243Y-77190900D01*
X130190758Y-77746661D01*
X130402990Y-78260303D01*
X130795630Y-78653629D01*
X131308900Y-78866757D01*
X131864661Y-78867242D01*
X132378303Y-78655010D01*
X132771629Y-78262370D01*
X132857949Y-78054488D01*
X132942990Y-78260303D01*
X133335630Y-78653629D01*
X133848900Y-78866757D01*
X134404661Y-78867242D01*
X134673407Y-78756199D01*
X134695852Y-78869039D01*
X134860599Y-79115601D01*
X137257599Y-81512601D01*
X137504161Y-81677348D01*
X137795000Y-81735200D01*
X141066137Y-81735200D01*
X141055519Y-81750740D01*
X141004510Y-82002630D01*
X141004510Y-82307681D01*
X140917739Y-82365659D01*
X140724110Y-82559288D01*
X140575460Y-82457719D01*
X140323570Y-82406710D01*
X138522710Y-82406710D01*
X138287393Y-82450988D01*
X138071269Y-82590060D01*
X138000113Y-82694200D01*
X132141000Y-82694200D01*
X131898414Y-82742454D01*
X131850160Y-82752052D01*
X131603599Y-82916799D01*
X129538000Y-84982398D01*
X129538000Y-81991200D01*
X129480148Y-81700361D01*
X129315401Y-81453799D01*
X121949401Y-74087799D01*
X121702839Y-73923052D01*
X121653040Y-73913146D01*
X121653040Y-73761600D01*
X121608762Y-73526283D01*
X121469690Y-73310159D01*
X121257490Y-73165169D01*
X121213869Y-73156336D01*
X121231029Y-73144870D01*
X121555885Y-72658689D01*
X121669959Y-72085200D01*
X121555885Y-71511711D01*
X121231029Y-71025530D01*
X120916248Y-70815200D01*
X121231029Y-70604870D01*
X121555885Y-70118689D01*
X121669959Y-69545200D01*
X121555885Y-68971711D01*
X121231029Y-68485530D01*
X120899816Y-68264220D01*
X120844148Y-67984361D01*
X120679401Y-67737799D01*
X119790401Y-66848799D01*
X119543839Y-66684052D01*
X119253000Y-66626200D01*
X115316000Y-66626200D01*
X115073414Y-66674454D01*
X115025160Y-66684052D01*
X114778599Y-66848799D01*
X113254599Y-68372799D01*
X113089852Y-68619361D01*
X113032000Y-68910200D01*
X113032000Y-96469200D01*
X113089852Y-96760039D01*
X113254599Y-97006601D01*
X118080599Y-101832601D01*
X118327161Y-101997348D01*
X118618000Y-102055200D01*
X121343460Y-102055200D01*
X121586954Y-102299119D01*
X121967223Y-102457020D01*
X122378971Y-102457379D01*
X122759515Y-102300142D01*
X123050919Y-102009246D01*
X123208820Y-101628977D01*
X123209113Y-101293200D01*
X124780198Y-101293200D01*
X124948965Y-101461967D01*
X124948821Y-101627171D01*
X125106058Y-102007715D01*
X125396954Y-102299119D01*
X125777223Y-102457020D01*
X126188971Y-102457379D01*
X126569515Y-102300142D01*
X126860919Y-102009246D01*
X127018820Y-101628977D01*
X127019179Y-101217229D01*
X126861942Y-100836685D01*
X126571046Y-100545281D01*
X126190777Y-100387380D01*
X126023836Y-100387234D01*
X125632401Y-99995799D01*
X125591519Y-99968483D01*
X129547844Y-96012158D01*
X129547803Y-96058975D01*
X129720233Y-96476286D01*
X130039235Y-96795845D01*
X130456244Y-96969003D01*
X130907775Y-96969397D01*
X131325086Y-96796967D01*
X131644645Y-96477965D01*
X131811920Y-96075123D01*
X132012000Y-96115640D01*
X133512000Y-96115640D01*
X133747317Y-96071362D01*
X133963441Y-95932290D01*
X134108431Y-95720090D01*
X134111081Y-95707003D01*
X134247910Y-95919641D01*
X134460110Y-96064631D01*
X134712000Y-96115640D01*
X136212000Y-96115640D01*
X136447317Y-96071362D01*
X136663441Y-95932290D01*
X136808431Y-95720090D01*
X136859440Y-95468200D01*
X136859440Y-94168200D01*
X136815162Y-93932883D01*
X136700425Y-93754577D01*
X136720802Y-93734200D01*
X137999747Y-93734200D01*
X138058620Y-93825691D01*
X138270820Y-93970681D01*
X138522710Y-94021690D01*
X140323570Y-94021690D01*
X140558887Y-93977412D01*
X140775011Y-93838340D01*
X140920001Y-93626140D01*
X140971010Y-93374250D01*
X140971010Y-92784200D01*
X141686438Y-92784200D01*
X141954510Y-93052272D01*
X141954510Y-94425770D01*
X141998788Y-94661087D01*
X142137860Y-94877211D01*
X142350060Y-95022201D01*
X142601950Y-95073210D01*
X143402050Y-95073210D01*
X143637367Y-95028932D01*
X143853491Y-94889860D01*
X143998481Y-94677660D01*
X144049490Y-94425770D01*
X144049490Y-94285340D01*
X144632838Y-94285340D01*
X145753725Y-95406227D01*
X145685284Y-95571052D01*
X145684716Y-96221495D01*
X145933106Y-96822643D01*
X146392637Y-97282978D01*
X146560000Y-97352473D01*
X146560000Y-97612200D01*
X146617852Y-97903039D01*
X146782599Y-98149601D01*
X147277159Y-98644161D01*
X146996205Y-98643916D01*
X146395057Y-98892306D01*
X145934722Y-99351837D01*
X145685284Y-99952552D01*
X145684716Y-100602995D01*
X145933106Y-101204143D01*
X146392637Y-101664478D01*
X146993352Y-101913916D01*
X147643795Y-101914484D01*
X148244943Y-101666094D01*
X148311574Y-101599579D01*
X148395910Y-101730641D01*
X148608110Y-101875631D01*
X148860000Y-101926640D01*
X150860000Y-101926640D01*
X151095317Y-101882362D01*
X151311441Y-101743290D01*
X151456431Y-101531090D01*
X151507440Y-101279200D01*
X151507440Y-99279200D01*
X151463162Y-99043883D01*
X151357835Y-98880200D01*
X151958198Y-98880200D01*
X153640599Y-100562601D01*
X153887161Y-100727348D01*
X154134143Y-100776476D01*
X154151838Y-100870517D01*
X154290910Y-101086641D01*
X154503110Y-101231631D01*
X154755000Y-101282640D01*
X155665000Y-101282640D01*
X155900317Y-101238362D01*
X156116441Y-101099290D01*
X156261431Y-100887090D01*
X156312440Y-100635200D01*
X156312440Y-99515200D01*
X157377560Y-99515200D01*
X157377560Y-100635200D01*
X157421838Y-100870517D01*
X157560910Y-101086641D01*
X157773110Y-101231631D01*
X158025000Y-101282640D01*
X158935000Y-101282640D01*
X159170317Y-101238362D01*
X159386441Y-101099290D01*
X159531431Y-100887090D01*
X159566118Y-100715803D01*
X159795401Y-100562601D01*
X160657000Y-99701002D01*
X160657000Y-102631398D01*
X159307334Y-103981064D01*
X159186890Y-103898769D01*
X158935000Y-103847760D01*
X158821362Y-103847760D01*
X158271401Y-103297799D01*
X158024839Y-103133052D01*
X157734000Y-103075200D01*
X154178000Y-103075200D01*
X153887160Y-103133052D01*
X153640599Y-103297799D01*
X153037698Y-103900700D01*
X151507440Y-103900700D01*
X151507440Y-103660700D01*
X151463162Y-103425383D01*
X151324090Y-103209259D01*
X151111890Y-103064269D01*
X150860000Y-103013260D01*
X148860000Y-103013260D01*
X148624683Y-103057538D01*
X148408559Y-103196610D01*
X148311090Y-103339261D01*
X148247363Y-103275422D01*
X147646648Y-103025984D01*
X146996205Y-103025416D01*
X146828721Y-103094619D01*
X144342041Y-100607939D01*
X144095479Y-100443192D01*
X144049490Y-100434044D01*
X144049490Y-100244910D01*
X144005212Y-100009593D01*
X143866140Y-99793469D01*
X143679082Y-99665658D01*
X143825000Y-99519740D01*
X143825000Y-98270060D01*
X144079000Y-98270060D01*
X144079000Y-99519740D01*
X144237750Y-99678490D01*
X144478359Y-99678490D01*
X144711748Y-99581817D01*
X144890377Y-99403189D01*
X144987050Y-99169800D01*
X144987050Y-98428810D01*
X144828300Y-98270060D01*
X144079000Y-98270060D01*
X143825000Y-98270060D01*
X143805000Y-98270060D01*
X143805000Y-98016060D01*
X143825000Y-98016060D01*
X143825000Y-96766380D01*
X144079000Y-96766380D01*
X144079000Y-98016060D01*
X144828300Y-98016060D01*
X144987050Y-97857310D01*
X144987050Y-97116320D01*
X144890377Y-96882931D01*
X144711748Y-96704303D01*
X144478359Y-96607630D01*
X144237750Y-96607630D01*
X144079000Y-96766380D01*
X143825000Y-96766380D01*
X143666250Y-96607630D01*
X143425641Y-96607630D01*
X143192252Y-96704303D01*
X143013623Y-96882931D01*
X142998566Y-96919282D01*
X142916140Y-96791189D01*
X142703940Y-96646199D01*
X142452050Y-96595190D01*
X141651950Y-96595190D01*
X141416633Y-96639468D01*
X141200509Y-96778540D01*
X141055519Y-96990740D01*
X141004510Y-97242630D01*
X141004510Y-97547681D01*
X140917739Y-97605659D01*
X140724110Y-97799288D01*
X140575460Y-97697719D01*
X140323570Y-97646710D01*
X138522710Y-97646710D01*
X138287393Y-97690988D01*
X138071269Y-97830060D01*
X138045209Y-97868200D01*
X131386761Y-97868200D01*
X131270046Y-97751281D01*
X130889777Y-97593380D01*
X130478029Y-97593021D01*
X130097485Y-97750258D01*
X129806081Y-98041154D01*
X129648180Y-98421423D01*
X129647821Y-98833171D01*
X129805058Y-99213715D01*
X130095954Y-99505119D01*
X130476223Y-99663020D01*
X130887971Y-99663379D01*
X131268515Y-99506142D01*
X131386663Y-99388200D01*
X131592340Y-99388200D01*
X131580197Y-99417444D01*
X131579803Y-99868975D01*
X131752233Y-100286286D01*
X131877000Y-100411271D01*
X131877000Y-101166162D01*
X131776683Y-101185038D01*
X131560559Y-101324110D01*
X131415569Y-101536310D01*
X131400109Y-101612653D01*
X131360325Y-101620567D01*
X131073210Y-101812410D01*
X131073208Y-101812413D01*
X130566523Y-102319097D01*
X130458225Y-102319003D01*
X130040914Y-102491433D01*
X129721355Y-102810435D01*
X129548197Y-103227444D01*
X129547803Y-103678975D01*
X129720233Y-104096286D01*
X130039235Y-104415845D01*
X130456244Y-104589003D01*
X130907775Y-104589397D01*
X131325086Y-104416967D01*
X131644645Y-104097965D01*
X131811920Y-103695123D01*
X132012000Y-103735640D01*
X133512000Y-103735640D01*
X133747317Y-103691362D01*
X133963441Y-103552290D01*
X134108431Y-103340090D01*
X134111081Y-103327003D01*
X134247910Y-103539641D01*
X134460110Y-103684631D01*
X134712000Y-103735640D01*
X136212000Y-103735640D01*
X136447317Y-103691362D01*
X136663441Y-103552290D01*
X136808431Y-103340090D01*
X136859440Y-103088200D01*
X136859440Y-101788200D01*
X136815162Y-101552883D01*
X136700425Y-101374577D01*
X136720802Y-101354200D01*
X137999747Y-101354200D01*
X138058620Y-101445691D01*
X138270820Y-101590681D01*
X138522710Y-101641690D01*
X140323570Y-101641690D01*
X140558887Y-101597412D01*
X140775011Y-101458340D01*
X140920001Y-101246140D01*
X140971010Y-100994250D01*
X140971010Y-100404200D01*
X141686438Y-100404200D01*
X141954510Y-100672272D01*
X141954510Y-102045770D01*
X141998788Y-102281087D01*
X142137860Y-102497211D01*
X142350060Y-102642201D01*
X142601950Y-102693210D01*
X143402050Y-102693210D01*
X143637367Y-102648932D01*
X143853491Y-102509860D01*
X143951263Y-102366765D01*
X145753725Y-104169227D01*
X145685284Y-104334052D01*
X145684716Y-104984495D01*
X145933106Y-105585643D01*
X146392637Y-106045978D01*
X146560000Y-106115473D01*
X146560000Y-106248200D01*
X146617852Y-106539039D01*
X146782599Y-106785601D01*
X147290599Y-107293601D01*
X147460795Y-107407322D01*
X146996205Y-107406916D01*
X146395057Y-107655306D01*
X145934722Y-108114837D01*
X145685284Y-108715552D01*
X145685258Y-108745656D01*
X145167541Y-108227939D01*
X144920979Y-108063192D01*
X144630140Y-108005340D01*
X144049490Y-108005340D01*
X144049490Y-107864910D01*
X144005212Y-107629593D01*
X143866140Y-107413469D01*
X143679082Y-107285658D01*
X143825000Y-107139740D01*
X143825000Y-105890060D01*
X144079000Y-105890060D01*
X144079000Y-107139740D01*
X144237750Y-107298490D01*
X144478359Y-107298490D01*
X144711748Y-107201817D01*
X144890377Y-107023189D01*
X144987050Y-106789800D01*
X144987050Y-106048810D01*
X144828300Y-105890060D01*
X144079000Y-105890060D01*
X143825000Y-105890060D01*
X143805000Y-105890060D01*
X143805000Y-105636060D01*
X143825000Y-105636060D01*
X143825000Y-104386380D01*
X144079000Y-104386380D01*
X144079000Y-105636060D01*
X144828300Y-105636060D01*
X144987050Y-105477310D01*
X144987050Y-104736320D01*
X144890377Y-104502931D01*
X144711748Y-104324303D01*
X144478359Y-104227630D01*
X144237750Y-104227630D01*
X144079000Y-104386380D01*
X143825000Y-104386380D01*
X143666250Y-104227630D01*
X143425641Y-104227630D01*
X143192252Y-104324303D01*
X143013623Y-104502931D01*
X142998566Y-104539282D01*
X142916140Y-104411189D01*
X142703940Y-104266199D01*
X142452050Y-104215190D01*
X141651950Y-104215190D01*
X141416633Y-104259468D01*
X141200509Y-104398540D01*
X141055519Y-104610740D01*
X141004510Y-104862630D01*
X141004510Y-105167681D01*
X140917739Y-105225659D01*
X140724110Y-105419288D01*
X140575460Y-105317719D01*
X140323570Y-105266710D01*
X138522710Y-105266710D01*
X138287393Y-105310988D01*
X138071269Y-105450060D01*
X138000113Y-105554200D01*
X127769646Y-105554200D01*
X127587046Y-105371281D01*
X127206777Y-105213380D01*
X126795029Y-105213021D01*
X126414485Y-105370258D01*
X126123081Y-105661154D01*
X125965180Y-106041423D01*
X125964821Y-106453171D01*
X126122058Y-106833715D01*
X126412954Y-107125119D01*
X126793223Y-107283020D01*
X127204971Y-107283379D01*
X127585515Y-107126142D01*
X127637548Y-107074200D01*
X131580165Y-107074200D01*
X131579803Y-107488975D01*
X131752233Y-107906286D01*
X131877000Y-108031271D01*
X131877000Y-108786162D01*
X131776683Y-108805038D01*
X131560559Y-108944110D01*
X131415569Y-109156310D01*
X131412149Y-109173200D01*
X131205497Y-109173200D01*
X130909756Y-109050397D01*
X130458225Y-109050003D01*
X130040914Y-109222433D01*
X129721355Y-109541435D01*
X129548197Y-109958444D01*
X129547803Y-110409975D01*
X129720233Y-110827286D01*
X130039235Y-111146845D01*
X130456244Y-111320003D01*
X130907775Y-111320397D01*
X131325086Y-111147967D01*
X131456185Y-111017096D01*
X131547910Y-111159641D01*
X131760110Y-111304631D01*
X132012000Y-111355640D01*
X133512000Y-111355640D01*
X133747317Y-111311362D01*
X133963441Y-111172290D01*
X134108431Y-110960090D01*
X134111081Y-110947003D01*
X134247910Y-111159641D01*
X134460110Y-111304631D01*
X134712000Y-111355640D01*
X136212000Y-111355640D01*
X136447317Y-111311362D01*
X136663441Y-111172290D01*
X136808431Y-110960090D01*
X136859440Y-110708200D01*
X136859440Y-109408200D01*
X136815162Y-109172883D01*
X136700425Y-108994577D01*
X136720802Y-108974200D01*
X137999747Y-108974200D01*
X138058620Y-109065691D01*
X138270820Y-109210681D01*
X138522710Y-109261690D01*
X140323570Y-109261690D01*
X140558887Y-109217412D01*
X140775011Y-109078340D01*
X140920001Y-108866140D01*
X140971010Y-108614250D01*
X140971010Y-108024200D01*
X141686438Y-108024200D01*
X141954510Y-108292272D01*
X141954510Y-109665770D01*
X141998788Y-109901087D01*
X142137860Y-110117211D01*
X142350060Y-110262201D01*
X142601950Y-110313210D01*
X143402050Y-110313210D01*
X143637367Y-110268932D01*
X143853491Y-110129860D01*
X143998481Y-109917660D01*
X144049490Y-109665770D01*
X144049490Y-109525340D01*
X144315338Y-109525340D01*
X146528599Y-111738601D01*
X146560000Y-111759583D01*
X146560000Y-111968653D01*
X146395057Y-112036806D01*
X145934722Y-112496337D01*
X145685284Y-113097052D01*
X145684716Y-113747495D01*
X145933106Y-114348643D01*
X146392637Y-114808978D01*
X146993352Y-115058416D01*
X147643795Y-115058984D01*
X148244943Y-114810594D01*
X148311574Y-114744079D01*
X148395910Y-114875141D01*
X148608110Y-115020131D01*
X148860000Y-115071140D01*
X150860000Y-115071140D01*
X151095317Y-115026862D01*
X151311441Y-114887790D01*
X151456431Y-114675590D01*
X151507440Y-114423700D01*
X151507440Y-114183700D01*
X152336500Y-114183700D01*
X152627339Y-114125848D01*
X152873901Y-113961101D01*
X154619802Y-112215200D01*
X157734000Y-112215200D01*
X158024839Y-112157348D01*
X158271401Y-111992601D01*
X158821362Y-111442640D01*
X158935000Y-111442640D01*
X159170317Y-111398362D01*
X159386441Y-111259290D01*
X159531431Y-111047090D01*
X159566118Y-110875803D01*
X159795401Y-110722601D01*
X161850000Y-108668002D01*
X161850000Y-124155200D01*
X161876772Y-124289789D01*
X161863642Y-124321487D01*
X161851009Y-124385000D01*
X158837818Y-124385000D01*
X159414943Y-124146537D01*
X160367990Y-123195152D01*
X160884411Y-121951472D01*
X160885586Y-120604836D01*
X160371337Y-119360257D01*
X159419952Y-118407210D01*
X158176272Y-117890789D01*
X156829636Y-117889614D01*
X155585057Y-118403863D01*
X154632010Y-119355248D01*
X154115589Y-120598928D01*
X154114414Y-121945564D01*
X154628663Y-123190143D01*
X155580048Y-124143190D01*
X156162391Y-124385000D01*
X132393509Y-124385000D01*
X132531543Y-124178417D01*
X132636970Y-123648400D01*
X132531543Y-123118383D01*
X132231313Y-122669057D01*
X131781987Y-122368827D01*
X131386600Y-122290180D01*
X132049829Y-121626950D01*
X133360000Y-121626950D01*
X133360000Y-122217509D01*
X133456673Y-122450898D01*
X133635301Y-122629527D01*
X133868690Y-122726200D01*
X134334250Y-122726200D01*
X134493000Y-122567450D01*
X134493000Y-121468200D01*
X134747000Y-121468200D01*
X134747000Y-122567450D01*
X134905750Y-122726200D01*
X135371310Y-122726200D01*
X135604699Y-122629527D01*
X135783327Y-122450898D01*
X135880000Y-122217509D01*
X135880000Y-121950200D01*
X136212560Y-121950200D01*
X136212560Y-122550200D01*
X136256838Y-122785517D01*
X136395910Y-123001641D01*
X136608110Y-123146631D01*
X136860000Y-123197640D01*
X138410000Y-123197640D01*
X138645317Y-123153362D01*
X138861441Y-123014290D01*
X139006431Y-122802090D01*
X139057440Y-122550200D01*
X139057440Y-121950200D01*
X141612560Y-121950200D01*
X141612560Y-122550200D01*
X141656838Y-122785517D01*
X141795910Y-123001641D01*
X142008110Y-123146631D01*
X142260000Y-123197640D01*
X143810000Y-123197640D01*
X144045317Y-123153362D01*
X144261441Y-123014290D01*
X144406431Y-122802090D01*
X144457440Y-122550200D01*
X144457440Y-121950200D01*
X144413162Y-121714883D01*
X144354822Y-121624220D01*
X144445000Y-121406510D01*
X144445000Y-121265950D01*
X144286250Y-121107200D01*
X143162000Y-121107200D01*
X143162000Y-121127200D01*
X142908000Y-121127200D01*
X142908000Y-121107200D01*
X141783750Y-121107200D01*
X141625000Y-121265950D01*
X141625000Y-121406510D01*
X141714806Y-121623322D01*
X141663569Y-121698310D01*
X141612560Y-121950200D01*
X139057440Y-121950200D01*
X139013162Y-121714883D01*
X138954822Y-121624220D01*
X139045000Y-121406510D01*
X139045000Y-121265950D01*
X138886250Y-121107200D01*
X137762000Y-121107200D01*
X137762000Y-121127200D01*
X137508000Y-121127200D01*
X137508000Y-121107200D01*
X136383750Y-121107200D01*
X136225000Y-121265950D01*
X136225000Y-121406510D01*
X136314806Y-121623322D01*
X136263569Y-121698310D01*
X136212560Y-121950200D01*
X135880000Y-121950200D01*
X135880000Y-121626950D01*
X135721250Y-121468200D01*
X134747000Y-121468200D01*
X134493000Y-121468200D01*
X133518750Y-121468200D01*
X133360000Y-121626950D01*
X132049829Y-121626950D01*
X133280514Y-120396265D01*
X133340790Y-120355990D01*
X133532633Y-120068875D01*
X133537021Y-120046816D01*
X133599006Y-120089169D01*
X133456673Y-120231502D01*
X133360000Y-120464891D01*
X133360000Y-121055450D01*
X133518750Y-121214200D01*
X134493000Y-121214200D01*
X134493000Y-121194200D01*
X134747000Y-121194200D01*
X134747000Y-121214200D01*
X135721250Y-121214200D01*
X135880000Y-121055450D01*
X135880000Y-120464891D01*
X135783327Y-120231502D01*
X135642090Y-120090264D01*
X135696441Y-120055290D01*
X135736986Y-119995950D01*
X136225000Y-119995950D01*
X136225000Y-120136510D01*
X136311442Y-120345200D01*
X136225000Y-120553890D01*
X136225000Y-120694450D01*
X136383750Y-120853200D01*
X137508000Y-120853200D01*
X137508000Y-119837200D01*
X137762000Y-119837200D01*
X137762000Y-120853200D01*
X138886250Y-120853200D01*
X139045000Y-120694450D01*
X139045000Y-120553890D01*
X138958558Y-120345200D01*
X139045000Y-120136510D01*
X139045000Y-119995950D01*
X141625000Y-119995950D01*
X141625000Y-120136510D01*
X141711442Y-120345200D01*
X141625000Y-120553890D01*
X141625000Y-120694450D01*
X141783750Y-120853200D01*
X142908000Y-120853200D01*
X142908000Y-119837200D01*
X143162000Y-119837200D01*
X143162000Y-120853200D01*
X144286250Y-120853200D01*
X144445000Y-120694450D01*
X144445000Y-120553890D01*
X144358558Y-120345200D01*
X144445000Y-120136510D01*
X144445000Y-119995950D01*
X144286250Y-119837200D01*
X143162000Y-119837200D01*
X142908000Y-119837200D01*
X141783750Y-119837200D01*
X141625000Y-119995950D01*
X139045000Y-119995950D01*
X138886250Y-119837200D01*
X137762000Y-119837200D01*
X137508000Y-119837200D01*
X136383750Y-119837200D01*
X136225000Y-119995950D01*
X135736986Y-119995950D01*
X135841431Y-119843090D01*
X135892440Y-119591200D01*
X135892440Y-119325200D01*
X136225000Y-119325200D01*
X136225000Y-119424450D01*
X136383750Y-119583200D01*
X137508000Y-119583200D01*
X137508000Y-119563200D01*
X137762000Y-119563200D01*
X137762000Y-119583200D01*
X138886250Y-119583200D01*
X139045000Y-119424450D01*
X139045000Y-119283890D01*
X138955194Y-119067078D01*
X139006431Y-118992090D01*
X139057440Y-118740200D01*
X139057440Y-118140200D01*
X139013162Y-117904883D01*
X138874090Y-117688759D01*
X138661890Y-117543769D01*
X138410000Y-117492760D01*
X136860000Y-117492760D01*
X136624683Y-117537038D01*
X136596458Y-117555200D01*
X135585334Y-117555200D01*
X135496890Y-117494769D01*
X135245000Y-117443760D01*
X133995000Y-117443760D01*
X133759683Y-117488038D01*
X133600000Y-117590791D01*
X133600000Y-116185950D01*
X138970000Y-116185950D01*
X138970000Y-116651510D01*
X139066673Y-116884899D01*
X139245302Y-117063527D01*
X139478691Y-117160200D01*
X140069250Y-117160200D01*
X140228000Y-117001450D01*
X140228000Y-116027200D01*
X139128750Y-116027200D01*
X138970000Y-116185950D01*
X133600000Y-116185950D01*
X133600000Y-115148890D01*
X138970000Y-115148890D01*
X138970000Y-115614450D01*
X139128750Y-115773200D01*
X140228000Y-115773200D01*
X140228000Y-114798950D01*
X140069250Y-114640200D01*
X139478691Y-114640200D01*
X139245302Y-114736873D01*
X139066673Y-114915501D01*
X138970000Y-115148890D01*
X133600000Y-115148890D01*
X133600000Y-114969476D01*
X133676645Y-114892965D01*
X133849803Y-114475956D01*
X133850197Y-114024425D01*
X133679042Y-113610200D01*
X140730420Y-113610200D01*
X141822573Y-114702352D01*
X141653559Y-114811110D01*
X141607031Y-114879206D01*
X141464698Y-114736873D01*
X141231309Y-114640200D01*
X140640750Y-114640200D01*
X140482000Y-114798950D01*
X140482000Y-115773200D01*
X140502000Y-115773200D01*
X140502000Y-116027200D01*
X140482000Y-116027200D01*
X140482000Y-117001450D01*
X140640750Y-117160200D01*
X141231309Y-117160200D01*
X141464698Y-117063527D01*
X141605936Y-116922290D01*
X141640910Y-116976641D01*
X141853110Y-117121631D01*
X142105000Y-117172640D01*
X142150000Y-117172640D01*
X142150000Y-117513458D01*
X142024683Y-117537038D01*
X141808559Y-117676110D01*
X141663569Y-117888310D01*
X141612560Y-118140200D01*
X141612560Y-118740200D01*
X141656838Y-118975517D01*
X141715178Y-119066180D01*
X141625000Y-119283890D01*
X141625000Y-119424450D01*
X141783750Y-119583200D01*
X142908000Y-119583200D01*
X142908000Y-119563200D01*
X143162000Y-119563200D01*
X143162000Y-119583200D01*
X144286250Y-119583200D01*
X144445000Y-119424450D01*
X144445000Y-119283890D01*
X144355194Y-119067078D01*
X144406431Y-118992090D01*
X144457440Y-118740200D01*
X144457440Y-118140200D01*
X144455332Y-118128995D01*
X145684716Y-118128995D01*
X145933106Y-118730143D01*
X146392637Y-119190478D01*
X146993352Y-119439916D01*
X147643795Y-119440484D01*
X148244943Y-119192094D01*
X148311574Y-119125579D01*
X148395910Y-119256641D01*
X148608110Y-119401631D01*
X148860000Y-119452640D01*
X150860000Y-119452640D01*
X151095317Y-119408362D01*
X151311441Y-119269290D01*
X151456431Y-119057090D01*
X151507440Y-118805200D01*
X151507440Y-116805200D01*
X151463162Y-116569883D01*
X151324090Y-116353759D01*
X151111890Y-116208769D01*
X150860000Y-116157760D01*
X148860000Y-116157760D01*
X148624683Y-116202038D01*
X148408559Y-116341110D01*
X148311090Y-116483761D01*
X148247363Y-116419922D01*
X147646648Y-116170484D01*
X146996205Y-116169916D01*
X146395057Y-116418306D01*
X145934722Y-116877837D01*
X145685284Y-117478552D01*
X145684716Y-118128995D01*
X144455332Y-118128995D01*
X144413162Y-117904883D01*
X144274090Y-117688759D01*
X144061890Y-117543769D01*
X143920000Y-117515036D01*
X143920000Y-117077087D01*
X144056441Y-116989290D01*
X144201431Y-116777090D01*
X144252440Y-116525200D01*
X144252440Y-115275200D01*
X144208162Y-115039883D01*
X144069090Y-114823759D01*
X143856890Y-114678769D01*
X143740000Y-114655098D01*
X143740000Y-114483200D01*
X143672633Y-114144525D01*
X143480790Y-113857410D01*
X143480787Y-113857408D01*
X141722790Y-112099410D01*
X141709006Y-112090200D01*
X141435675Y-111907567D01*
X141379484Y-111896390D01*
X141097000Y-111840199D01*
X141096995Y-111840200D01*
X131572005Y-111840200D01*
X131572000Y-111840199D01*
X131289516Y-111896390D01*
X131233325Y-111907567D01*
X130946210Y-112099410D01*
X130946208Y-112099413D01*
X130528136Y-112517485D01*
X130494890Y-112494769D01*
X130243000Y-112443760D01*
X128743000Y-112443760D01*
X128507683Y-112488038D01*
X128291559Y-112627110D01*
X128146569Y-112839310D01*
X128143919Y-112852397D01*
X128007090Y-112639759D01*
X127794890Y-112494769D01*
X127760000Y-112487704D01*
X127760000Y-112158961D01*
X127876919Y-112042246D01*
X128034820Y-111661977D01*
X128035179Y-111250229D01*
X127877942Y-110869685D01*
X127587046Y-110578281D01*
X127206777Y-110420380D01*
X126795029Y-110420021D01*
X126414485Y-110577258D01*
X126123081Y-110868154D01*
X125965180Y-111248423D01*
X125964821Y-111660171D01*
X126122058Y-112040715D01*
X126240000Y-112158863D01*
X126240000Y-112443760D01*
X126043000Y-112443760D01*
X125807683Y-112488038D01*
X125591559Y-112627110D01*
X125446569Y-112839310D01*
X125395560Y-113091200D01*
X125395560Y-114391200D01*
X125439838Y-114626517D01*
X125578910Y-114842641D01*
X125791110Y-114987631D01*
X126033000Y-115036615D01*
X126033000Y-116046398D01*
X124779599Y-117299799D01*
X124614852Y-117546361D01*
X124557000Y-117837200D01*
X124557000Y-118113853D01*
X124533485Y-118123569D01*
X124143539Y-118512836D01*
X124045099Y-118749906D01*
X123496605Y-119298400D01*
X124045033Y-119846828D01*
X124142169Y-120081915D01*
X124531436Y-120471861D01*
X124715586Y-120548327D01*
X124533485Y-120623569D01*
X124316964Y-120839713D01*
X124102564Y-120624939D01*
X123934246Y-120555047D01*
X124040923Y-120510860D01*
X124108912Y-120269917D01*
X123317000Y-119478005D01*
X122525088Y-120269917D01*
X122593077Y-120510860D01*
X122707611Y-120551622D01*
X122533485Y-120623569D01*
X122243148Y-120913400D01*
X120390523Y-120913400D01*
X120102564Y-120624939D01*
X119934246Y-120555047D01*
X120040923Y-120510860D01*
X120108912Y-120269917D01*
X119317000Y-119478005D01*
X118525088Y-120269917D01*
X118593077Y-120510860D01*
X118707611Y-120551622D01*
X118533485Y-120623569D01*
X118243148Y-120913400D01*
X117389779Y-120913400D01*
X115569951Y-119093571D01*
X117919799Y-119093571D01*
X117947770Y-119643848D01*
X118104540Y-120022323D01*
X118345483Y-120090312D01*
X119137395Y-119298400D01*
X119496605Y-119298400D01*
X120288517Y-120090312D01*
X120529460Y-120022323D01*
X120714201Y-119503229D01*
X120693378Y-119093571D01*
X121919799Y-119093571D01*
X121947770Y-119643848D01*
X122104540Y-120022323D01*
X122345483Y-120090312D01*
X123137395Y-119298400D01*
X122345483Y-118506488D01*
X122104540Y-118574477D01*
X121919799Y-119093571D01*
X120693378Y-119093571D01*
X120686230Y-118952952D01*
X120529460Y-118574477D01*
X120288517Y-118506488D01*
X119496605Y-119298400D01*
X119137395Y-119298400D01*
X118345483Y-118506488D01*
X118104540Y-118574477D01*
X117919799Y-119093571D01*
X115569951Y-119093571D01*
X115291840Y-118815460D01*
X115382030Y-118833400D01*
X116251970Y-118833400D01*
X116781987Y-118727973D01*
X117231313Y-118427743D01*
X117298705Y-118326883D01*
X118525088Y-118326883D01*
X119317000Y-119118795D01*
X120108912Y-118326883D01*
X122525088Y-118326883D01*
X123317000Y-119118795D01*
X124108912Y-118326883D01*
X124040923Y-118085940D01*
X123521829Y-117901199D01*
X122971552Y-117929170D01*
X122593077Y-118085940D01*
X122525088Y-118326883D01*
X120108912Y-118326883D01*
X120040923Y-118085940D01*
X119521829Y-117901199D01*
X118971552Y-117929170D01*
X118593077Y-118085940D01*
X118525088Y-118326883D01*
X117298705Y-118326883D01*
X117531543Y-117978417D01*
X117636970Y-117448400D01*
X117531543Y-116918383D01*
X117231313Y-116469057D01*
X116781987Y-116168827D01*
X116251970Y-116063400D01*
X115382030Y-116063400D01*
X114931000Y-116153115D01*
X114931000Y-111816961D01*
X115245778Y-111606633D01*
X115603670Y-111071010D01*
X115684318Y-110665564D01*
X117614414Y-110665564D01*
X118128663Y-111910143D01*
X119080048Y-112863190D01*
X120323728Y-113379611D01*
X121670364Y-113380786D01*
X122914943Y-112866537D01*
X123867990Y-111915152D01*
X124384411Y-110671472D01*
X124385586Y-109324836D01*
X123871337Y-108080257D01*
X122919952Y-107127210D01*
X121676272Y-106610789D01*
X120329636Y-106609614D01*
X119085057Y-107123863D01*
X118132010Y-108075248D01*
X117615589Y-109318928D01*
X117614414Y-110665564D01*
X115684318Y-110665564D01*
X115729345Y-110439200D01*
X115603670Y-109807390D01*
X115379034Y-109471199D01*
X115421698Y-109453527D01*
X115600327Y-109274899D01*
X115697000Y-109041510D01*
X115697000Y-108184950D01*
X115538250Y-108026200D01*
X114173000Y-108026200D01*
X114173000Y-108046200D01*
X113919000Y-108046200D01*
X113919000Y-108026200D01*
X113899000Y-108026200D01*
X113899000Y-107772200D01*
X113919000Y-107772200D01*
X113919000Y-106406950D01*
X114173000Y-106406950D01*
X114173000Y-107772200D01*
X115538250Y-107772200D01*
X115697000Y-107613450D01*
X115697000Y-106756890D01*
X115600327Y-106523501D01*
X115421698Y-106344873D01*
X115188309Y-106248200D01*
X114331750Y-106248200D01*
X114173000Y-106406950D01*
X113919000Y-106406950D01*
X113760250Y-106248200D01*
X112903691Y-106248200D01*
X112670302Y-106344873D01*
X112491673Y-106523501D01*
X112470000Y-106575824D01*
X112470000Y-104100913D01*
X112920120Y-104551819D01*
X113649427Y-104854654D01*
X114439109Y-104855343D01*
X115168943Y-104553782D01*
X115727819Y-103995880D01*
X116030654Y-103266573D01*
X116031343Y-102476891D01*
X115729782Y-101747057D01*
X115171880Y-101188181D01*
X114442573Y-100885346D01*
X113652891Y-100884657D01*
X112923057Y-101186218D01*
X112470000Y-101638485D01*
X112470000Y-64210000D01*
X125522561Y-64210000D01*
X125387007Y-64412871D01*
X125387007Y-64412871D01*
G37*
X125387007Y-64412871D02*
X125285500Y-64923179D01*
X125285500Y-66140821D01*
X125387007Y-66651129D01*
X125676073Y-67083748D01*
X126108692Y-67372814D01*
X126225021Y-67395953D01*
X125937438Y-68088531D01*
X125936584Y-69067175D01*
X126310306Y-69971652D01*
X127001708Y-70664262D01*
X127905531Y-71039562D01*
X128884175Y-71040416D01*
X129788652Y-70666694D01*
X130481262Y-69975292D01*
X130856562Y-69071469D01*
X130857416Y-68092825D01*
X130483694Y-67188348D01*
X129792292Y-66495738D01*
X128888469Y-66120438D01*
X127952500Y-66119621D01*
X127952500Y-64923179D01*
X127850993Y-64412871D01*
X127715439Y-64210000D01*
X139238561Y-64210000D01*
X139103007Y-64412871D01*
X139001500Y-64923179D01*
X139001500Y-66120397D01*
X138069825Y-66119584D01*
X137165348Y-66493306D01*
X136472738Y-67184708D01*
X136097438Y-68088531D01*
X136096584Y-69067175D01*
X136470306Y-69971652D01*
X137161708Y-70664262D01*
X138065531Y-71039562D01*
X139044175Y-71040416D01*
X139948652Y-70666694D01*
X140641262Y-69975292D01*
X141016562Y-69071469D01*
X141017416Y-68092825D01*
X140729437Y-67395862D01*
X140845308Y-67372814D01*
X141224000Y-67119781D01*
X141602692Y-67372814D01*
X141629865Y-67378219D01*
X141334918Y-68088531D01*
X141334064Y-69067175D01*
X141707786Y-69971652D01*
X142399188Y-70664262D01*
X143303011Y-71039562D01*
X144281655Y-71040416D01*
X145186132Y-70666694D01*
X145878742Y-69975292D01*
X146254042Y-69071469D01*
X146254896Y-68092825D01*
X145881174Y-67188348D01*
X145189772Y-66495738D01*
X144285949Y-66120438D01*
X143446500Y-66119705D01*
X143446500Y-64923179D01*
X143344993Y-64412871D01*
X143209439Y-64210000D01*
X156256561Y-64210000D01*
X156121007Y-64412871D01*
X156019500Y-64923179D01*
X156019500Y-66120319D01*
X155176725Y-66119584D01*
X154272248Y-66493306D01*
X153579638Y-67184708D01*
X153204338Y-68088531D01*
X153203484Y-69067175D01*
X153577206Y-69971652D01*
X154268608Y-70664262D01*
X155172431Y-71039562D01*
X156151075Y-71040416D01*
X157055552Y-70666694D01*
X157748162Y-69975292D01*
X158123462Y-69071469D01*
X158124316Y-68092825D01*
X157829585Y-67379522D01*
X157863308Y-67372814D01*
X158295927Y-67083748D01*
X158584993Y-66651129D01*
X158686500Y-66140821D01*
X158686500Y-64923179D01*
X158584993Y-64412871D01*
X158449439Y-64210000D01*
X161850000Y-64210000D01*
X161850000Y-76904398D01*
X156239401Y-71293799D01*
X155992839Y-71129052D01*
X155702000Y-71071200D01*
X147066000Y-71071200D01*
X146775161Y-71129052D01*
X146528599Y-71293799D01*
X144750599Y-73071799D01*
X144585852Y-73318361D01*
X144528000Y-73609200D01*
X144528000Y-76284837D01*
X144504163Y-76294686D01*
X144114056Y-76684113D01*
X143902671Y-77193184D01*
X143902190Y-77744398D01*
X144083499Y-78183200D01*
X141030802Y-78183200D01*
X140968000Y-78120398D01*
X140968000Y-73609200D01*
X140910148Y-73318361D01*
X140745401Y-73071799D01*
X139602401Y-71928799D01*
X139355839Y-71764052D01*
X139065000Y-71706200D01*
X131191000Y-71706200D01*
X130948414Y-71754454D01*
X130900160Y-71764052D01*
X130653599Y-71928799D01*
X129780599Y-72801799D01*
X129615852Y-73048361D01*
X129558000Y-73339200D01*
X129558000Y-73732469D01*
X129527697Y-73744990D01*
X129134371Y-74137630D01*
X128921243Y-74650900D01*
X128920758Y-75206661D01*
X129132990Y-75720303D01*
X129525630Y-76113629D01*
X130038900Y-76326757D01*
X130594661Y-76327242D01*
X131108303Y-76115010D01*
X131501629Y-75722370D01*
X131587949Y-75514488D01*
X131672990Y-75720303D01*
X132065630Y-76113629D01*
X132578900Y-76326757D01*
X133134661Y-76327242D01*
X133648303Y-76115010D01*
X134041629Y-75722370D01*
X134127949Y-75514488D01*
X134212990Y-75720303D01*
X134605630Y-76113629D01*
X134638000Y-76127070D01*
X134638000Y-76169121D01*
X134407100Y-76073243D01*
X133851339Y-76072758D01*
X133337697Y-76284990D01*
X132944371Y-76677630D01*
X132858051Y-76885512D01*
X132773010Y-76679697D01*
X132380370Y-76286371D01*
X131867100Y-76073243D01*
X131311339Y-76072758D01*
X130797697Y-76284990D01*
X130404371Y-76677630D01*
X130191243Y-77190900D01*
X130190758Y-77746661D01*
X130402990Y-78260303D01*
X130795630Y-78653629D01*
X131308900Y-78866757D01*
X131864661Y-78867242D01*
X132378303Y-78655010D01*
X132771629Y-78262370D01*
X132857949Y-78054488D01*
X132942990Y-78260303D01*
X133335630Y-78653629D01*
X133848900Y-78866757D01*
X134404661Y-78867242D01*
X134673407Y-78756199D01*
X134695852Y-78869039D01*
X134860599Y-79115601D01*
X137257599Y-81512601D01*
X137504161Y-81677348D01*
X137795000Y-81735200D01*
X141066137Y-81735200D01*
X141055519Y-81750740D01*
X141004510Y-82002630D01*
X141004510Y-82307681D01*
X140917739Y-82365659D01*
X140724110Y-82559288D01*
X140575460Y-82457719D01*
X140323570Y-82406710D01*
X138522710Y-82406710D01*
X138287393Y-82450988D01*
X138071269Y-82590060D01*
X138000113Y-82694200D01*
X132141000Y-82694200D01*
X131898414Y-82742454D01*
X131850160Y-82752052D01*
X131603599Y-82916799D01*
X129538000Y-84982398D01*
X129538000Y-81991200D01*
X129480148Y-81700361D01*
X129315401Y-81453799D01*
X121949401Y-74087799D01*
X121702839Y-73923052D01*
X121653040Y-73913146D01*
X121653040Y-73761600D01*
X121608762Y-73526283D01*
X121469690Y-73310159D01*
X121257490Y-73165169D01*
X121213869Y-73156336D01*
X121231029Y-73144870D01*
X121555885Y-72658689D01*
X121669959Y-72085200D01*
X121555885Y-71511711D01*
X121231029Y-71025530D01*
X120916248Y-70815200D01*
X121231029Y-70604870D01*
X121555885Y-70118689D01*
X121669959Y-69545200D01*
X121555885Y-68971711D01*
X121231029Y-68485530D01*
X120899816Y-68264220D01*
X120844148Y-67984361D01*
X120679401Y-67737799D01*
X119790401Y-66848799D01*
X119543839Y-66684052D01*
X119253000Y-66626200D01*
X115316000Y-66626200D01*
X115073414Y-66674454D01*
X115025160Y-66684052D01*
X114778599Y-66848799D01*
X113254599Y-68372799D01*
X113089852Y-68619361D01*
X113032000Y-68910200D01*
X113032000Y-96469200D01*
X113089852Y-96760039D01*
X113254599Y-97006601D01*
X118080599Y-101832601D01*
X118327161Y-101997348D01*
X118618000Y-102055200D01*
X121343460Y-102055200D01*
X121586954Y-102299119D01*
X121967223Y-102457020D01*
X122378971Y-102457379D01*
X122759515Y-102300142D01*
X123050919Y-102009246D01*
X123208820Y-101628977D01*
X123209113Y-101293200D01*
X124780198Y-101293200D01*
X124948965Y-101461967D01*
X124948821Y-101627171D01*
X125106058Y-102007715D01*
X125396954Y-102299119D01*
X125777223Y-102457020D01*
X126188971Y-102457379D01*
X126569515Y-102300142D01*
X126860919Y-102009246D01*
X127018820Y-101628977D01*
X127019179Y-101217229D01*
X126861942Y-100836685D01*
X126571046Y-100545281D01*
X126190777Y-100387380D01*
X126023836Y-100387234D01*
X125632401Y-99995799D01*
X125591519Y-99968483D01*
X129547844Y-96012158D01*
X129547803Y-96058975D01*
X129720233Y-96476286D01*
X130039235Y-96795845D01*
X130456244Y-96969003D01*
X130907775Y-96969397D01*
X131325086Y-96796967D01*
X131644645Y-96477965D01*
X131811920Y-96075123D01*
X132012000Y-96115640D01*
X133512000Y-96115640D01*
X133747317Y-96071362D01*
X133963441Y-95932290D01*
X134108431Y-95720090D01*
X134111081Y-95707003D01*
X134247910Y-95919641D01*
X134460110Y-96064631D01*
X134712000Y-96115640D01*
X136212000Y-96115640D01*
X136447317Y-96071362D01*
X136663441Y-95932290D01*
X136808431Y-95720090D01*
X136859440Y-95468200D01*
X136859440Y-94168200D01*
X136815162Y-93932883D01*
X136700425Y-93754577D01*
X136720802Y-93734200D01*
X137999747Y-93734200D01*
X138058620Y-93825691D01*
X138270820Y-93970681D01*
X138522710Y-94021690D01*
X140323570Y-94021690D01*
X140558887Y-93977412D01*
X140775011Y-93838340D01*
X140920001Y-93626140D01*
X140971010Y-93374250D01*
X140971010Y-92784200D01*
X141686438Y-92784200D01*
X141954510Y-93052272D01*
X141954510Y-94425770D01*
X141998788Y-94661087D01*
X142137860Y-94877211D01*
X142350060Y-95022201D01*
X142601950Y-95073210D01*
X143402050Y-95073210D01*
X143637367Y-95028932D01*
X143853491Y-94889860D01*
X143998481Y-94677660D01*
X144049490Y-94425770D01*
X144049490Y-94285340D01*
X144632838Y-94285340D01*
X145753725Y-95406227D01*
X145685284Y-95571052D01*
X145684716Y-96221495D01*
X145933106Y-96822643D01*
X146392637Y-97282978D01*
X146560000Y-97352473D01*
X146560000Y-97612200D01*
X146617852Y-97903039D01*
X146782599Y-98149601D01*
X147277159Y-98644161D01*
X146996205Y-98643916D01*
X146395057Y-98892306D01*
X145934722Y-99351837D01*
X145685284Y-99952552D01*
X145684716Y-100602995D01*
X145933106Y-101204143D01*
X146392637Y-101664478D01*
X146993352Y-101913916D01*
X147643795Y-101914484D01*
X148244943Y-101666094D01*
X148311574Y-101599579D01*
X148395910Y-101730641D01*
X148608110Y-101875631D01*
X148860000Y-101926640D01*
X150860000Y-101926640D01*
X151095317Y-101882362D01*
X151311441Y-101743290D01*
X151456431Y-101531090D01*
X151507440Y-101279200D01*
X151507440Y-99279200D01*
X151463162Y-99043883D01*
X151357835Y-98880200D01*
X151958198Y-98880200D01*
X153640599Y-100562601D01*
X153887161Y-100727348D01*
X154134143Y-100776476D01*
X154151838Y-100870517D01*
X154290910Y-101086641D01*
X154503110Y-101231631D01*
X154755000Y-101282640D01*
X155665000Y-101282640D01*
X155900317Y-101238362D01*
X156116441Y-101099290D01*
X156261431Y-100887090D01*
X156312440Y-100635200D01*
X156312440Y-99515200D01*
X157377560Y-99515200D01*
X157377560Y-100635200D01*
X157421838Y-100870517D01*
X157560910Y-101086641D01*
X157773110Y-101231631D01*
X158025000Y-101282640D01*
X158935000Y-101282640D01*
X159170317Y-101238362D01*
X159386441Y-101099290D01*
X159531431Y-100887090D01*
X159566118Y-100715803D01*
X159795401Y-100562601D01*
X160657000Y-99701002D01*
X160657000Y-102631398D01*
X159307334Y-103981064D01*
X159186890Y-103898769D01*
X158935000Y-103847760D01*
X158821362Y-103847760D01*
X158271401Y-103297799D01*
X158024839Y-103133052D01*
X157734000Y-103075200D01*
X154178000Y-103075200D01*
X153887160Y-103133052D01*
X153640599Y-103297799D01*
X153037698Y-103900700D01*
X151507440Y-103900700D01*
X151507440Y-103660700D01*
X151463162Y-103425383D01*
X151324090Y-103209259D01*
X151111890Y-103064269D01*
X150860000Y-103013260D01*
X148860000Y-103013260D01*
X148624683Y-103057538D01*
X148408559Y-103196610D01*
X148311090Y-103339261D01*
X148247363Y-103275422D01*
X147646648Y-103025984D01*
X146996205Y-103025416D01*
X146828721Y-103094619D01*
X144342041Y-100607939D01*
X144095479Y-100443192D01*
X144049490Y-100434044D01*
X144049490Y-100244910D01*
X144005212Y-100009593D01*
X143866140Y-99793469D01*
X143679082Y-99665658D01*
X143825000Y-99519740D01*
X143825000Y-98270060D01*
X144079000Y-98270060D01*
X144079000Y-99519740D01*
X144237750Y-99678490D01*
X144478359Y-99678490D01*
X144711748Y-99581817D01*
X144890377Y-99403189D01*
X144987050Y-99169800D01*
X144987050Y-98428810D01*
X144828300Y-98270060D01*
X144079000Y-98270060D01*
X143825000Y-98270060D01*
X143805000Y-98270060D01*
X143805000Y-98016060D01*
X143825000Y-98016060D01*
X143825000Y-96766380D01*
X144079000Y-96766380D01*
X144079000Y-98016060D01*
X144828300Y-98016060D01*
X144987050Y-97857310D01*
X144987050Y-97116320D01*
X144890377Y-96882931D01*
X144711748Y-96704303D01*
X144478359Y-96607630D01*
X144237750Y-96607630D01*
X144079000Y-96766380D01*
X143825000Y-96766380D01*
X143666250Y-96607630D01*
X143425641Y-96607630D01*
X143192252Y-96704303D01*
X143013623Y-96882931D01*
X142998566Y-96919282D01*
X142916140Y-96791189D01*
X142703940Y-96646199D01*
X142452050Y-96595190D01*
X141651950Y-96595190D01*
X141416633Y-96639468D01*
X141200509Y-96778540D01*
X141055519Y-96990740D01*
X141004510Y-97242630D01*
X141004510Y-97547681D01*
X140917739Y-97605659D01*
X140724110Y-97799288D01*
X140575460Y-97697719D01*
X140323570Y-97646710D01*
X138522710Y-97646710D01*
X138287393Y-97690988D01*
X138071269Y-97830060D01*
X138045209Y-97868200D01*
X131386761Y-97868200D01*
X131270046Y-97751281D01*
X130889777Y-97593380D01*
X130478029Y-97593021D01*
X130097485Y-97750258D01*
X129806081Y-98041154D01*
X129648180Y-98421423D01*
X129647821Y-98833171D01*
X129805058Y-99213715D01*
X130095954Y-99505119D01*
X130476223Y-99663020D01*
X130887971Y-99663379D01*
X131268515Y-99506142D01*
X131386663Y-99388200D01*
X131592340Y-99388200D01*
X131580197Y-99417444D01*
X131579803Y-99868975D01*
X131752233Y-100286286D01*
X131877000Y-100411271D01*
X131877000Y-101166162D01*
X131776683Y-101185038D01*
X131560559Y-101324110D01*
X131415569Y-101536310D01*
X131400109Y-101612653D01*
X131360325Y-101620567D01*
X131073210Y-101812410D01*
X131073208Y-101812413D01*
X130566523Y-102319097D01*
X130458225Y-102319003D01*
X130040914Y-102491433D01*
X129721355Y-102810435D01*
X129548197Y-103227444D01*
X129547803Y-103678975D01*
X129720233Y-104096286D01*
X130039235Y-104415845D01*
X130456244Y-104589003D01*
X130907775Y-104589397D01*
X131325086Y-104416967D01*
X131644645Y-104097965D01*
X131811920Y-103695123D01*
X132012000Y-103735640D01*
X133512000Y-103735640D01*
X133747317Y-103691362D01*
X133963441Y-103552290D01*
X134108431Y-103340090D01*
X134111081Y-103327003D01*
X134247910Y-103539641D01*
X134460110Y-103684631D01*
X134712000Y-103735640D01*
X136212000Y-103735640D01*
X136447317Y-103691362D01*
X136663441Y-103552290D01*
X136808431Y-103340090D01*
X136859440Y-103088200D01*
X136859440Y-101788200D01*
X136815162Y-101552883D01*
X136700425Y-101374577D01*
X136720802Y-101354200D01*
X137999747Y-101354200D01*
X138058620Y-101445691D01*
X138270820Y-101590681D01*
X138522710Y-101641690D01*
X140323570Y-101641690D01*
X140558887Y-101597412D01*
X140775011Y-101458340D01*
X140920001Y-101246140D01*
X140971010Y-100994250D01*
X140971010Y-100404200D01*
X141686438Y-100404200D01*
X141954510Y-100672272D01*
X141954510Y-102045770D01*
X141998788Y-102281087D01*
X142137860Y-102497211D01*
X142350060Y-102642201D01*
X142601950Y-102693210D01*
X143402050Y-102693210D01*
X143637367Y-102648932D01*
X143853491Y-102509860D01*
X143951263Y-102366765D01*
X145753725Y-104169227D01*
X145685284Y-104334052D01*
X145684716Y-104984495D01*
X145933106Y-105585643D01*
X146392637Y-106045978D01*
X146560000Y-106115473D01*
X146560000Y-106248200D01*
X146617852Y-106539039D01*
X146782599Y-106785601D01*
X147290599Y-107293601D01*
X147460795Y-107407322D01*
X146996205Y-107406916D01*
X146395057Y-107655306D01*
X145934722Y-108114837D01*
X145685284Y-108715552D01*
X145685258Y-108745656D01*
X145167541Y-108227939D01*
X144920979Y-108063192D01*
X144630140Y-108005340D01*
X144049490Y-108005340D01*
X144049490Y-107864910D01*
X144005212Y-107629593D01*
X143866140Y-107413469D01*
X143679082Y-107285658D01*
X143825000Y-107139740D01*
X143825000Y-105890060D01*
X144079000Y-105890060D01*
X144079000Y-107139740D01*
X144237750Y-107298490D01*
X144478359Y-107298490D01*
X144711748Y-107201817D01*
X144890377Y-107023189D01*
X144987050Y-106789800D01*
X144987050Y-106048810D01*
X144828300Y-105890060D01*
X144079000Y-105890060D01*
X143825000Y-105890060D01*
X143805000Y-105890060D01*
X143805000Y-105636060D01*
X143825000Y-105636060D01*
X143825000Y-104386380D01*
X144079000Y-104386380D01*
X144079000Y-105636060D01*
X144828300Y-105636060D01*
X144987050Y-105477310D01*
X144987050Y-104736320D01*
X144890377Y-104502931D01*
X144711748Y-104324303D01*
X144478359Y-104227630D01*
X144237750Y-104227630D01*
X144079000Y-104386380D01*
X143825000Y-104386380D01*
X143666250Y-104227630D01*
X143425641Y-104227630D01*
X143192252Y-104324303D01*
X143013623Y-104502931D01*
X142998566Y-104539282D01*
X142916140Y-104411189D01*
X142703940Y-104266199D01*
X142452050Y-104215190D01*
X141651950Y-104215190D01*
X141416633Y-104259468D01*
X141200509Y-104398540D01*
X141055519Y-104610740D01*
X141004510Y-104862630D01*
X141004510Y-105167681D01*
X140917739Y-105225659D01*
X140724110Y-105419288D01*
X140575460Y-105317719D01*
X140323570Y-105266710D01*
X138522710Y-105266710D01*
X138287393Y-105310988D01*
X138071269Y-105450060D01*
X138000113Y-105554200D01*
X127769646Y-105554200D01*
X127587046Y-105371281D01*
X127206777Y-105213380D01*
X126795029Y-105213021D01*
X126414485Y-105370258D01*
X126123081Y-105661154D01*
X125965180Y-106041423D01*
X125964821Y-106453171D01*
X126122058Y-106833715D01*
X126412954Y-107125119D01*
X126793223Y-107283020D01*
X127204971Y-107283379D01*
X127585515Y-107126142D01*
X127637548Y-107074200D01*
X131580165Y-107074200D01*
X131579803Y-107488975D01*
X131752233Y-107906286D01*
X131877000Y-108031271D01*
X131877000Y-108786162D01*
X131776683Y-108805038D01*
X131560559Y-108944110D01*
X131415569Y-109156310D01*
X131412149Y-109173200D01*
X131205497Y-109173200D01*
X130909756Y-109050397D01*
X130458225Y-109050003D01*
X130040914Y-109222433D01*
X129721355Y-109541435D01*
X129548197Y-109958444D01*
X129547803Y-110409975D01*
X129720233Y-110827286D01*
X130039235Y-111146845D01*
X130456244Y-111320003D01*
X130907775Y-111320397D01*
X131325086Y-111147967D01*
X131456185Y-111017096D01*
X131547910Y-111159641D01*
X131760110Y-111304631D01*
X132012000Y-111355640D01*
X133512000Y-111355640D01*
X133747317Y-111311362D01*
X133963441Y-111172290D01*
X134108431Y-110960090D01*
X134111081Y-110947003D01*
X134247910Y-111159641D01*
X134460110Y-111304631D01*
X134712000Y-111355640D01*
X136212000Y-111355640D01*
X136447317Y-111311362D01*
X136663441Y-111172290D01*
X136808431Y-110960090D01*
X136859440Y-110708200D01*
X136859440Y-109408200D01*
X136815162Y-109172883D01*
X136700425Y-108994577D01*
X136720802Y-108974200D01*
X137999747Y-108974200D01*
X138058620Y-109065691D01*
X138270820Y-109210681D01*
X138522710Y-109261690D01*
X140323570Y-109261690D01*
X140558887Y-109217412D01*
X140775011Y-109078340D01*
X140920001Y-108866140D01*
X140971010Y-108614250D01*
X140971010Y-108024200D01*
X141686438Y-108024200D01*
X141954510Y-108292272D01*
X141954510Y-109665770D01*
X141998788Y-109901087D01*
X142137860Y-110117211D01*
X142350060Y-110262201D01*
X142601950Y-110313210D01*
X143402050Y-110313210D01*
X143637367Y-110268932D01*
X143853491Y-110129860D01*
X143998481Y-109917660D01*
X144049490Y-109665770D01*
X144049490Y-109525340D01*
X144315338Y-109525340D01*
X146528599Y-111738601D01*
X146560000Y-111759583D01*
X146560000Y-111968653D01*
X146395057Y-112036806D01*
X145934722Y-112496337D01*
X145685284Y-113097052D01*
X145684716Y-113747495D01*
X145933106Y-114348643D01*
X146392637Y-114808978D01*
X146993352Y-115058416D01*
X147643795Y-115058984D01*
X148244943Y-114810594D01*
X148311574Y-114744079D01*
X148395910Y-114875141D01*
X148608110Y-115020131D01*
X148860000Y-115071140D01*
X150860000Y-115071140D01*
X151095317Y-115026862D01*
X151311441Y-114887790D01*
X151456431Y-114675590D01*
X151507440Y-114423700D01*
X151507440Y-114183700D01*
X152336500Y-114183700D01*
X152627339Y-114125848D01*
X152873901Y-113961101D01*
X154619802Y-112215200D01*
X157734000Y-112215200D01*
X158024839Y-112157348D01*
X158271401Y-111992601D01*
X158821362Y-111442640D01*
X158935000Y-111442640D01*
X159170317Y-111398362D01*
X159386441Y-111259290D01*
X159531431Y-111047090D01*
X159566118Y-110875803D01*
X159795401Y-110722601D01*
X161850000Y-108668002D01*
X161850000Y-124155200D01*
X161876772Y-124289789D01*
X161863642Y-124321487D01*
X161851009Y-124385000D01*
X158837818Y-124385000D01*
X159414943Y-124146537D01*
X160367990Y-123195152D01*
X160884411Y-121951472D01*
X160885586Y-120604836D01*
X160371337Y-119360257D01*
X159419952Y-118407210D01*
X158176272Y-117890789D01*
X156829636Y-117889614D01*
X155585057Y-118403863D01*
X154632010Y-119355248D01*
X154115589Y-120598928D01*
X154114414Y-121945564D01*
X154628663Y-123190143D01*
X155580048Y-124143190D01*
X156162391Y-124385000D01*
X132393509Y-124385000D01*
X132531543Y-124178417D01*
X132636970Y-123648400D01*
X132531543Y-123118383D01*
X132231313Y-122669057D01*
X131781987Y-122368827D01*
X131386600Y-122290180D01*
X132049829Y-121626950D01*
X133360000Y-121626950D01*
X133360000Y-122217509D01*
X133456673Y-122450898D01*
X133635301Y-122629527D01*
X133868690Y-122726200D01*
X134334250Y-122726200D01*
X134493000Y-122567450D01*
X134493000Y-121468200D01*
X134747000Y-121468200D01*
X134747000Y-122567450D01*
X134905750Y-122726200D01*
X135371310Y-122726200D01*
X135604699Y-122629527D01*
X135783327Y-122450898D01*
X135880000Y-122217509D01*
X135880000Y-121950200D01*
X136212560Y-121950200D01*
X136212560Y-122550200D01*
X136256838Y-122785517D01*
X136395910Y-123001641D01*
X136608110Y-123146631D01*
X136860000Y-123197640D01*
X138410000Y-123197640D01*
X138645317Y-123153362D01*
X138861441Y-123014290D01*
X139006431Y-122802090D01*
X139057440Y-122550200D01*
X139057440Y-121950200D01*
X141612560Y-121950200D01*
X141612560Y-122550200D01*
X141656838Y-122785517D01*
X141795910Y-123001641D01*
X142008110Y-123146631D01*
X142260000Y-123197640D01*
X143810000Y-123197640D01*
X144045317Y-123153362D01*
X144261441Y-123014290D01*
X144406431Y-122802090D01*
X144457440Y-122550200D01*
X144457440Y-121950200D01*
X144413162Y-121714883D01*
X144354822Y-121624220D01*
X144445000Y-121406510D01*
X144445000Y-121265950D01*
X144286250Y-121107200D01*
X143162000Y-121107200D01*
X143162000Y-121127200D01*
X142908000Y-121127200D01*
X142908000Y-121107200D01*
X141783750Y-121107200D01*
X141625000Y-121265950D01*
X141625000Y-121406510D01*
X141714806Y-121623322D01*
X141663569Y-121698310D01*
X141612560Y-121950200D01*
X139057440Y-121950200D01*
X139013162Y-121714883D01*
X138954822Y-121624220D01*
X139045000Y-121406510D01*
X139045000Y-121265950D01*
X138886250Y-121107200D01*
X137762000Y-121107200D01*
X137762000Y-121127200D01*
X137508000Y-121127200D01*
X137508000Y-121107200D01*
X136383750Y-121107200D01*
X136225000Y-121265950D01*
X136225000Y-121406510D01*
X136314806Y-121623322D01*
X136263569Y-121698310D01*
X136212560Y-121950200D01*
X135880000Y-121950200D01*
X135880000Y-121626950D01*
X135721250Y-121468200D01*
X134747000Y-121468200D01*
X134493000Y-121468200D01*
X133518750Y-121468200D01*
X133360000Y-121626950D01*
X132049829Y-121626950D01*
X133280514Y-120396265D01*
X133340790Y-120355990D01*
X133532633Y-120068875D01*
X133537021Y-120046816D01*
X133599006Y-120089169D01*
X133456673Y-120231502D01*
X133360000Y-120464891D01*
X133360000Y-121055450D01*
X133518750Y-121214200D01*
X134493000Y-121214200D01*
X134493000Y-121194200D01*
X134747000Y-121194200D01*
X134747000Y-121214200D01*
X135721250Y-121214200D01*
X135880000Y-121055450D01*
X135880000Y-120464891D01*
X135783327Y-120231502D01*
X135642090Y-120090264D01*
X135696441Y-120055290D01*
X135736986Y-119995950D01*
X136225000Y-119995950D01*
X136225000Y-120136510D01*
X136311442Y-120345200D01*
X136225000Y-120553890D01*
X136225000Y-120694450D01*
X136383750Y-120853200D01*
X137508000Y-120853200D01*
X137508000Y-119837200D01*
X137762000Y-119837200D01*
X137762000Y-120853200D01*
X138886250Y-120853200D01*
X139045000Y-120694450D01*
X139045000Y-120553890D01*
X138958558Y-120345200D01*
X139045000Y-120136510D01*
X139045000Y-119995950D01*
X141625000Y-119995950D01*
X141625000Y-120136510D01*
X141711442Y-120345200D01*
X141625000Y-120553890D01*
X141625000Y-120694450D01*
X141783750Y-120853200D01*
X142908000Y-120853200D01*
X142908000Y-119837200D01*
X143162000Y-119837200D01*
X143162000Y-120853200D01*
X144286250Y-120853200D01*
X144445000Y-120694450D01*
X144445000Y-120553890D01*
X144358558Y-120345200D01*
X144445000Y-120136510D01*
X144445000Y-119995950D01*
X144286250Y-119837200D01*
X143162000Y-119837200D01*
X142908000Y-119837200D01*
X141783750Y-119837200D01*
X141625000Y-119995950D01*
X139045000Y-119995950D01*
X138886250Y-119837200D01*
X137762000Y-119837200D01*
X137508000Y-119837200D01*
X136383750Y-119837200D01*
X136225000Y-119995950D01*
X135736986Y-119995950D01*
X135841431Y-119843090D01*
X135892440Y-119591200D01*
X135892440Y-119325200D01*
X136225000Y-119325200D01*
X136225000Y-119424450D01*
X136383750Y-119583200D01*
X137508000Y-119583200D01*
X137508000Y-119563200D01*
X137762000Y-119563200D01*
X137762000Y-119583200D01*
X138886250Y-119583200D01*
X139045000Y-119424450D01*
X139045000Y-119283890D01*
X138955194Y-119067078D01*
X139006431Y-118992090D01*
X139057440Y-118740200D01*
X139057440Y-118140200D01*
X139013162Y-117904883D01*
X138874090Y-117688759D01*
X138661890Y-117543769D01*
X138410000Y-117492760D01*
X136860000Y-117492760D01*
X136624683Y-117537038D01*
X136596458Y-117555200D01*
X135585334Y-117555200D01*
X135496890Y-117494769D01*
X135245000Y-117443760D01*
X133995000Y-117443760D01*
X133759683Y-117488038D01*
X133600000Y-117590791D01*
X133600000Y-116185950D01*
X138970000Y-116185950D01*
X138970000Y-116651510D01*
X139066673Y-116884899D01*
X139245302Y-117063527D01*
X139478691Y-117160200D01*
X140069250Y-117160200D01*
X140228000Y-117001450D01*
X140228000Y-116027200D01*
X139128750Y-116027200D01*
X138970000Y-116185950D01*
X133600000Y-116185950D01*
X133600000Y-115148890D01*
X138970000Y-115148890D01*
X138970000Y-115614450D01*
X139128750Y-115773200D01*
X140228000Y-115773200D01*
X140228000Y-114798950D01*
X140069250Y-114640200D01*
X139478691Y-114640200D01*
X139245302Y-114736873D01*
X139066673Y-114915501D01*
X138970000Y-115148890D01*
X133600000Y-115148890D01*
X133600000Y-114969476D01*
X133676645Y-114892965D01*
X133849803Y-114475956D01*
X133850197Y-114024425D01*
X133679042Y-113610200D01*
X140730420Y-113610200D01*
X141822573Y-114702352D01*
X141653559Y-114811110D01*
X141607031Y-114879206D01*
X141464698Y-114736873D01*
X141231309Y-114640200D01*
X140640750Y-114640200D01*
X140482000Y-114798950D01*
X140482000Y-115773200D01*
X140502000Y-115773200D01*
X140502000Y-116027200D01*
X140482000Y-116027200D01*
X140482000Y-117001450D01*
X140640750Y-117160200D01*
X141231309Y-117160200D01*
X141464698Y-117063527D01*
X141605936Y-116922290D01*
X141640910Y-116976641D01*
X141853110Y-117121631D01*
X142105000Y-117172640D01*
X142150000Y-117172640D01*
X142150000Y-117513458D01*
X142024683Y-117537038D01*
X141808559Y-117676110D01*
X141663569Y-117888310D01*
X141612560Y-118140200D01*
X141612560Y-118740200D01*
X141656838Y-118975517D01*
X141715178Y-119066180D01*
X141625000Y-119283890D01*
X141625000Y-119424450D01*
X141783750Y-119583200D01*
X142908000Y-119583200D01*
X142908000Y-119563200D01*
X143162000Y-119563200D01*
X143162000Y-119583200D01*
X144286250Y-119583200D01*
X144445000Y-119424450D01*
X144445000Y-119283890D01*
X144355194Y-119067078D01*
X144406431Y-118992090D01*
X144457440Y-118740200D01*
X144457440Y-118140200D01*
X144455332Y-118128995D01*
X145684716Y-118128995D01*
X145933106Y-118730143D01*
X146392637Y-119190478D01*
X146993352Y-119439916D01*
X147643795Y-119440484D01*
X148244943Y-119192094D01*
X148311574Y-119125579D01*
X148395910Y-119256641D01*
X148608110Y-119401631D01*
X148860000Y-119452640D01*
X150860000Y-119452640D01*
X151095317Y-119408362D01*
X151311441Y-119269290D01*
X151456431Y-119057090D01*
X151507440Y-118805200D01*
X151507440Y-116805200D01*
X151463162Y-116569883D01*
X151324090Y-116353759D01*
X151111890Y-116208769D01*
X150860000Y-116157760D01*
X148860000Y-116157760D01*
X148624683Y-116202038D01*
X148408559Y-116341110D01*
X148311090Y-116483761D01*
X148247363Y-116419922D01*
X147646648Y-116170484D01*
X146996205Y-116169916D01*
X146395057Y-116418306D01*
X145934722Y-116877837D01*
X145685284Y-117478552D01*
X145684716Y-118128995D01*
X144455332Y-118128995D01*
X144413162Y-117904883D01*
X144274090Y-117688759D01*
X144061890Y-117543769D01*
X143920000Y-117515036D01*
X143920000Y-117077087D01*
X144056441Y-116989290D01*
X144201431Y-116777090D01*
X144252440Y-116525200D01*
X144252440Y-115275200D01*
X144208162Y-115039883D01*
X144069090Y-114823759D01*
X143856890Y-114678769D01*
X143740000Y-114655098D01*
X143740000Y-114483200D01*
X143672633Y-114144525D01*
X143480790Y-113857410D01*
X143480787Y-113857408D01*
X141722790Y-112099410D01*
X141709006Y-112090200D01*
X141435675Y-111907567D01*
X141379484Y-111896390D01*
X141097000Y-111840199D01*
X141096995Y-111840200D01*
X131572005Y-111840200D01*
X131572000Y-111840199D01*
X131289516Y-111896390D01*
X131233325Y-111907567D01*
X130946210Y-112099410D01*
X130946208Y-112099413D01*
X130528136Y-112517485D01*
X130494890Y-112494769D01*
X130243000Y-112443760D01*
X128743000Y-112443760D01*
X128507683Y-112488038D01*
X128291559Y-112627110D01*
X128146569Y-112839310D01*
X128143919Y-112852397D01*
X128007090Y-112639759D01*
X127794890Y-112494769D01*
X127760000Y-112487704D01*
X127760000Y-112158961D01*
X127876919Y-112042246D01*
X128034820Y-111661977D01*
X128035179Y-111250229D01*
X127877942Y-110869685D01*
X127587046Y-110578281D01*
X127206777Y-110420380D01*
X126795029Y-110420021D01*
X126414485Y-110577258D01*
X126123081Y-110868154D01*
X125965180Y-111248423D01*
X125964821Y-111660171D01*
X126122058Y-112040715D01*
X126240000Y-112158863D01*
X126240000Y-112443760D01*
X126043000Y-112443760D01*
X125807683Y-112488038D01*
X125591559Y-112627110D01*
X125446569Y-112839310D01*
X125395560Y-113091200D01*
X125395560Y-114391200D01*
X125439838Y-114626517D01*
X125578910Y-114842641D01*
X125791110Y-114987631D01*
X126033000Y-115036615D01*
X126033000Y-116046398D01*
X124779599Y-117299799D01*
X124614852Y-117546361D01*
X124557000Y-117837200D01*
X124557000Y-118113853D01*
X124533485Y-118123569D01*
X124143539Y-118512836D01*
X124045099Y-118749906D01*
X123496605Y-119298400D01*
X124045033Y-119846828D01*
X124142169Y-120081915D01*
X124531436Y-120471861D01*
X124715586Y-120548327D01*
X124533485Y-120623569D01*
X124316964Y-120839713D01*
X124102564Y-120624939D01*
X123934246Y-120555047D01*
X124040923Y-120510860D01*
X124108912Y-120269917D01*
X123317000Y-119478005D01*
X122525088Y-120269917D01*
X122593077Y-120510860D01*
X122707611Y-120551622D01*
X122533485Y-120623569D01*
X122243148Y-120913400D01*
X120390523Y-120913400D01*
X120102564Y-120624939D01*
X119934246Y-120555047D01*
X120040923Y-120510860D01*
X120108912Y-120269917D01*
X119317000Y-119478005D01*
X118525088Y-120269917D01*
X118593077Y-120510860D01*
X118707611Y-120551622D01*
X118533485Y-120623569D01*
X118243148Y-120913400D01*
X117389779Y-120913400D01*
X115569951Y-119093571D01*
X117919799Y-119093571D01*
X117947770Y-119643848D01*
X118104540Y-120022323D01*
X118345483Y-120090312D01*
X119137395Y-119298400D01*
X119496605Y-119298400D01*
X120288517Y-120090312D01*
X120529460Y-120022323D01*
X120714201Y-119503229D01*
X120693378Y-119093571D01*
X121919799Y-119093571D01*
X121947770Y-119643848D01*
X122104540Y-120022323D01*
X122345483Y-120090312D01*
X123137395Y-119298400D01*
X122345483Y-118506488D01*
X122104540Y-118574477D01*
X121919799Y-119093571D01*
X120693378Y-119093571D01*
X120686230Y-118952952D01*
X120529460Y-118574477D01*
X120288517Y-118506488D01*
X119496605Y-119298400D01*
X119137395Y-119298400D01*
X118345483Y-118506488D01*
X118104540Y-118574477D01*
X117919799Y-119093571D01*
X115569951Y-119093571D01*
X115291840Y-118815460D01*
X115382030Y-118833400D01*
X116251970Y-118833400D01*
X116781987Y-118727973D01*
X117231313Y-118427743D01*
X117298705Y-118326883D01*
X118525088Y-118326883D01*
X119317000Y-119118795D01*
X120108912Y-118326883D01*
X122525088Y-118326883D01*
X123317000Y-119118795D01*
X124108912Y-118326883D01*
X124040923Y-118085940D01*
X123521829Y-117901199D01*
X122971552Y-117929170D01*
X122593077Y-118085940D01*
X122525088Y-118326883D01*
X120108912Y-118326883D01*
X120040923Y-118085940D01*
X119521829Y-117901199D01*
X118971552Y-117929170D01*
X118593077Y-118085940D01*
X118525088Y-118326883D01*
X117298705Y-118326883D01*
X117531543Y-117978417D01*
X117636970Y-117448400D01*
X117531543Y-116918383D01*
X117231313Y-116469057D01*
X116781987Y-116168827D01*
X116251970Y-116063400D01*
X115382030Y-116063400D01*
X114931000Y-116153115D01*
X114931000Y-111816961D01*
X115245778Y-111606633D01*
X115603670Y-111071010D01*
X115684318Y-110665564D01*
X117614414Y-110665564D01*
X118128663Y-111910143D01*
X119080048Y-112863190D01*
X120323728Y-113379611D01*
X121670364Y-113380786D01*
X122914943Y-112866537D01*
X123867990Y-111915152D01*
X124384411Y-110671472D01*
X124385586Y-109324836D01*
X123871337Y-108080257D01*
X122919952Y-107127210D01*
X121676272Y-106610789D01*
X120329636Y-106609614D01*
X119085057Y-107123863D01*
X118132010Y-108075248D01*
X117615589Y-109318928D01*
X117614414Y-110665564D01*
X115684318Y-110665564D01*
X115729345Y-110439200D01*
X115603670Y-109807390D01*
X115379034Y-109471199D01*
X115421698Y-109453527D01*
X115600327Y-109274899D01*
X115697000Y-109041510D01*
X115697000Y-108184950D01*
X115538250Y-108026200D01*
X114173000Y-108026200D01*
X114173000Y-108046200D01*
X113919000Y-108046200D01*
X113919000Y-108026200D01*
X113899000Y-108026200D01*
X113899000Y-107772200D01*
X113919000Y-107772200D01*
X113919000Y-106406950D01*
X114173000Y-106406950D01*
X114173000Y-107772200D01*
X115538250Y-107772200D01*
X115697000Y-107613450D01*
X115697000Y-106756890D01*
X115600327Y-106523501D01*
X115421698Y-106344873D01*
X115188309Y-106248200D01*
X114331750Y-106248200D01*
X114173000Y-106406950D01*
X113919000Y-106406950D01*
X113760250Y-106248200D01*
X112903691Y-106248200D01*
X112670302Y-106344873D01*
X112491673Y-106523501D01*
X112470000Y-106575824D01*
X112470000Y-104100913D01*
X112920120Y-104551819D01*
X113649427Y-104854654D01*
X114439109Y-104855343D01*
X115168943Y-104553782D01*
X115727819Y-103995880D01*
X116030654Y-103266573D01*
X116031343Y-102476891D01*
X115729782Y-101747057D01*
X115171880Y-101188181D01*
X114442573Y-100885346D01*
X113652891Y-100884657D01*
X112923057Y-101186218D01*
X112470000Y-101638485D01*
X112470000Y-64210000D01*
X125522561Y-64210000D01*
X125387007Y-64412871D01*
G36*
X116512971Y-73144870D02*
X116827752Y-73355200D01*
X116512971Y-73565530D01*
X116188115Y-74051711D01*
X116074041Y-74625200D01*
X116188115Y-75198689D01*
X116512971Y-75684870D01*
X116999152Y-76009726D01*
X117572641Y-76123800D01*
X117631359Y-76123800D01*
X118204848Y-76009726D01*
X118670442Y-75698626D01*
X118675238Y-75724117D01*
X118814310Y-75940241D01*
X119026510Y-76085231D01*
X119278400Y-76136240D01*
X121005600Y-76136240D01*
X121240917Y-76091962D01*
X121457041Y-75952890D01*
X121541410Y-75829412D01*
X127381828Y-81669830D01*
X127139081Y-81912154D01*
X126981180Y-82292423D01*
X126980821Y-82704171D01*
X127138058Y-83084715D01*
X127256000Y-83202863D01*
X127256000Y-92344398D01*
X124674233Y-94926165D01*
X124509029Y-94926021D01*
X124128485Y-95083258D01*
X123837081Y-95374154D01*
X123679180Y-95754423D01*
X123678821Y-96166171D01*
X123836058Y-96546715D01*
X124126954Y-96838119D01*
X124507223Y-96996020D01*
X124918971Y-96996379D01*
X125299515Y-96839142D01*
X125348831Y-96789912D01*
X125349658Y-96790740D01*
X123891198Y-98249200D01*
X121607761Y-98249200D01*
X121491046Y-98132281D01*
X121110777Y-97974380D01*
X120699029Y-97974021D01*
X120394000Y-98100056D01*
X120394000Y-96276002D01*
X121472802Y-95197200D01*
X123571000Y-95197200D01*
X123861839Y-95139348D01*
X124108401Y-94974601D01*
X124997401Y-94085601D01*
X125120509Y-93901356D01*
X125384943Y-93792094D01*
X125845278Y-93332563D01*
X126094716Y-92731848D01*
X126095284Y-92081405D01*
X125846894Y-91480257D01*
X125387363Y-91019922D01*
X124786648Y-90770484D01*
X124136205Y-90769916D01*
X123535057Y-91018306D01*
X123468426Y-91084821D01*
X123384090Y-90953759D01*
X123171890Y-90808769D01*
X122920000Y-90757760D01*
X120920000Y-90757760D01*
X120684683Y-90802038D01*
X120468559Y-90941110D01*
X120323569Y-91153310D01*
X120272560Y-91405200D01*
X120272560Y-93405200D01*
X120316838Y-93640517D01*
X120455910Y-93856641D01*
X120579388Y-93941010D01*
X119096599Y-95423799D01*
X118931852Y-95670361D01*
X118874000Y-95961200D01*
X118874000Y-99067439D01*
X118804460Y-99136858D01*
X115314000Y-95646398D01*
X115314000Y-86148600D01*
X115628663Y-86910143D01*
X116580048Y-87863190D01*
X117823728Y-88379611D01*
X119170364Y-88380786D01*
X120414943Y-87866537D01*
X121367990Y-86915152D01*
X121884411Y-85671472D01*
X121885586Y-84324836D01*
X121371337Y-83080257D01*
X120419952Y-82127210D01*
X119176272Y-81610789D01*
X117829636Y-81609614D01*
X116585057Y-82123863D01*
X115632010Y-83075248D01*
X115314000Y-83841101D01*
X115314000Y-73162002D01*
X115630802Y-72845200D01*
X116312738Y-72845200D01*
X116512971Y-73144870D01*
X116512971Y-73144870D01*
G37*
X116512971Y-73144870D02*
X116827752Y-73355200D01*
X116512971Y-73565530D01*
X116188115Y-74051711D01*
X116074041Y-74625200D01*
X116188115Y-75198689D01*
X116512971Y-75684870D01*
X116999152Y-76009726D01*
X117572641Y-76123800D01*
X117631359Y-76123800D01*
X118204848Y-76009726D01*
X118670442Y-75698626D01*
X118675238Y-75724117D01*
X118814310Y-75940241D01*
X119026510Y-76085231D01*
X119278400Y-76136240D01*
X121005600Y-76136240D01*
X121240917Y-76091962D01*
X121457041Y-75952890D01*
X121541410Y-75829412D01*
X127381828Y-81669830D01*
X127139081Y-81912154D01*
X126981180Y-82292423D01*
X126980821Y-82704171D01*
X127138058Y-83084715D01*
X127256000Y-83202863D01*
X127256000Y-92344398D01*
X124674233Y-94926165D01*
X124509029Y-94926021D01*
X124128485Y-95083258D01*
X123837081Y-95374154D01*
X123679180Y-95754423D01*
X123678821Y-96166171D01*
X123836058Y-96546715D01*
X124126954Y-96838119D01*
X124507223Y-96996020D01*
X124918971Y-96996379D01*
X125299515Y-96839142D01*
X125348831Y-96789912D01*
X125349658Y-96790740D01*
X123891198Y-98249200D01*
X121607761Y-98249200D01*
X121491046Y-98132281D01*
X121110777Y-97974380D01*
X120699029Y-97974021D01*
X120394000Y-98100056D01*
X120394000Y-96276002D01*
X121472802Y-95197200D01*
X123571000Y-95197200D01*
X123861839Y-95139348D01*
X124108401Y-94974601D01*
X124997401Y-94085601D01*
X125120509Y-93901356D01*
X125384943Y-93792094D01*
X125845278Y-93332563D01*
X126094716Y-92731848D01*
X126095284Y-92081405D01*
X125846894Y-91480257D01*
X125387363Y-91019922D01*
X124786648Y-90770484D01*
X124136205Y-90769916D01*
X123535057Y-91018306D01*
X123468426Y-91084821D01*
X123384090Y-90953759D01*
X123171890Y-90808769D01*
X122920000Y-90757760D01*
X120920000Y-90757760D01*
X120684683Y-90802038D01*
X120468559Y-90941110D01*
X120323569Y-91153310D01*
X120272560Y-91405200D01*
X120272560Y-93405200D01*
X120316838Y-93640517D01*
X120455910Y-93856641D01*
X120579388Y-93941010D01*
X119096599Y-95423799D01*
X118931852Y-95670361D01*
X118874000Y-95961200D01*
X118874000Y-99067439D01*
X118804460Y-99136858D01*
X115314000Y-95646398D01*
X115314000Y-86148600D01*
X115628663Y-86910143D01*
X116580048Y-87863190D01*
X117823728Y-88379611D01*
X119170364Y-88380786D01*
X120414943Y-87866537D01*
X121367990Y-86915152D01*
X121884411Y-85671472D01*
X121885586Y-84324836D01*
X121371337Y-83080257D01*
X120419952Y-82127210D01*
X119176272Y-81610789D01*
X117829636Y-81609614D01*
X116585057Y-82123863D01*
X115632010Y-83075248D01*
X115314000Y-83841101D01*
X115314000Y-73162002D01*
X115630802Y-72845200D01*
X116312738Y-72845200D01*
X116512971Y-73144870D01*
G36*
X141954510Y-85432272D02*
X141954510Y-86805770D01*
X141998788Y-87041087D01*
X142137860Y-87257211D01*
X142350060Y-87402201D01*
X142601950Y-87453210D01*
X143402050Y-87453210D01*
X143637367Y-87408932D01*
X143853491Y-87269860D01*
X143998481Y-87057660D01*
X144049490Y-86805770D01*
X144049490Y-86665340D01*
X145744543Y-86665340D01*
X145685284Y-86808052D01*
X145684716Y-87458495D01*
X145933106Y-88059643D01*
X146392637Y-88519978D01*
X146560000Y-88589473D01*
X146560000Y-88595200D01*
X146617852Y-88886039D01*
X146782599Y-89132601D01*
X147417599Y-89767601D01*
X147587961Y-89881433D01*
X146996205Y-89880916D01*
X146395057Y-90129306D01*
X145934722Y-90588837D01*
X145685284Y-91189552D01*
X145684716Y-91839995D01*
X145933106Y-92441143D01*
X146392637Y-92901478D01*
X146993352Y-93150916D01*
X147643795Y-93151484D01*
X148244943Y-92903094D01*
X148311574Y-92836579D01*
X148395910Y-92967641D01*
X148608110Y-93112631D01*
X148860000Y-93163640D01*
X150860000Y-93163640D01*
X151095317Y-93119362D01*
X151206084Y-93048086D01*
X153640599Y-95482601D01*
X153887161Y-95647348D01*
X154134143Y-95696476D01*
X154151838Y-95790517D01*
X154290910Y-96006641D01*
X154503110Y-96151631D01*
X154755000Y-96202640D01*
X155665000Y-96202640D01*
X155900317Y-96158362D01*
X156116441Y-96019290D01*
X156261431Y-95807090D01*
X156312440Y-95555200D01*
X156312440Y-94435200D01*
X157377560Y-94435200D01*
X157377560Y-95555200D01*
X157421838Y-95790517D01*
X157560910Y-96006641D01*
X157773110Y-96151631D01*
X158025000Y-96202640D01*
X158935000Y-96202640D01*
X159170317Y-96158362D01*
X159386441Y-96019290D01*
X159531431Y-95807090D01*
X159566118Y-95635803D01*
X159795401Y-95482601D01*
X160022000Y-95256002D01*
X160022000Y-98186398D01*
X159307334Y-98901064D01*
X159186890Y-98818769D01*
X158935000Y-98767760D01*
X158916362Y-98767760D01*
X158366401Y-98217799D01*
X158119839Y-98053052D01*
X157829000Y-97995200D01*
X154492802Y-97995200D01*
X151921401Y-95423799D01*
X151674839Y-95259052D01*
X151507440Y-95225754D01*
X151507440Y-94897700D01*
X151463162Y-94662383D01*
X151324090Y-94446259D01*
X151111890Y-94301269D01*
X150860000Y-94250260D01*
X148860000Y-94250260D01*
X148624683Y-94294538D01*
X148408559Y-94433610D01*
X148311090Y-94576261D01*
X148247363Y-94512422D01*
X147646648Y-94262984D01*
X146996205Y-94262416D01*
X146828721Y-94331619D01*
X145485041Y-92987939D01*
X145238479Y-92823192D01*
X144947640Y-92765340D01*
X144049490Y-92765340D01*
X144049490Y-92624910D01*
X144005212Y-92389593D01*
X143866140Y-92173469D01*
X143679082Y-92045658D01*
X143825000Y-91899740D01*
X143825000Y-90650060D01*
X144079000Y-90650060D01*
X144079000Y-91899740D01*
X144237750Y-92058490D01*
X144478359Y-92058490D01*
X144711748Y-91961817D01*
X144890377Y-91783189D01*
X144987050Y-91549800D01*
X144987050Y-90808810D01*
X144828300Y-90650060D01*
X144079000Y-90650060D01*
X143825000Y-90650060D01*
X143805000Y-90650060D01*
X143805000Y-90396060D01*
X143825000Y-90396060D01*
X143825000Y-89146380D01*
X144079000Y-89146380D01*
X144079000Y-90396060D01*
X144828300Y-90396060D01*
X144987050Y-90237310D01*
X144987050Y-89496320D01*
X144890377Y-89262931D01*
X144711748Y-89084303D01*
X144478359Y-88987630D01*
X144237750Y-88987630D01*
X144079000Y-89146380D01*
X143825000Y-89146380D01*
X143666250Y-88987630D01*
X143425641Y-88987630D01*
X143192252Y-89084303D01*
X143013623Y-89262931D01*
X142998566Y-89299282D01*
X142916140Y-89171189D01*
X142703940Y-89026199D01*
X142452050Y-88975190D01*
X141651950Y-88975190D01*
X141416633Y-89019468D01*
X141200509Y-89158540D01*
X141055519Y-89370740D01*
X141004510Y-89622630D01*
X141004510Y-89927681D01*
X140917739Y-89985659D01*
X140724110Y-90179288D01*
X140575460Y-90077719D01*
X140323570Y-90026710D01*
X138522710Y-90026710D01*
X138287393Y-90070988D01*
X138071269Y-90210060D01*
X138000113Y-90314200D01*
X132141000Y-90314200D01*
X131850161Y-90372052D01*
X131603599Y-90536799D01*
X130300000Y-91840398D01*
X130300000Y-89284125D01*
X130456244Y-89349003D01*
X130907775Y-89349397D01*
X131325086Y-89176967D01*
X131644645Y-88857965D01*
X131811920Y-88455123D01*
X132012000Y-88495640D01*
X133512000Y-88495640D01*
X133747317Y-88451362D01*
X133963441Y-88312290D01*
X134108431Y-88100090D01*
X134111081Y-88087003D01*
X134247910Y-88299641D01*
X134460110Y-88444631D01*
X134712000Y-88495640D01*
X136212000Y-88495640D01*
X136447317Y-88451362D01*
X136663441Y-88312290D01*
X136808431Y-88100090D01*
X136859440Y-87848200D01*
X136859440Y-86548200D01*
X136815162Y-86312883D01*
X136700425Y-86134577D01*
X136720802Y-86114200D01*
X137999747Y-86114200D01*
X138058620Y-86205691D01*
X138270820Y-86350681D01*
X138522710Y-86401690D01*
X140323570Y-86401690D01*
X140558887Y-86357412D01*
X140775011Y-86218340D01*
X140920001Y-86006140D01*
X140971010Y-85754250D01*
X140971010Y-85164200D01*
X141686438Y-85164200D01*
X141954510Y-85432272D01*
X141954510Y-85432272D01*
G37*
X141954510Y-85432272D02*
X141954510Y-86805770D01*
X141998788Y-87041087D01*
X142137860Y-87257211D01*
X142350060Y-87402201D01*
X142601950Y-87453210D01*
X143402050Y-87453210D01*
X143637367Y-87408932D01*
X143853491Y-87269860D01*
X143998481Y-87057660D01*
X144049490Y-86805770D01*
X144049490Y-86665340D01*
X145744543Y-86665340D01*
X145685284Y-86808052D01*
X145684716Y-87458495D01*
X145933106Y-88059643D01*
X146392637Y-88519978D01*
X146560000Y-88589473D01*
X146560000Y-88595200D01*
X146617852Y-88886039D01*
X146782599Y-89132601D01*
X147417599Y-89767601D01*
X147587961Y-89881433D01*
X146996205Y-89880916D01*
X146395057Y-90129306D01*
X145934722Y-90588837D01*
X145685284Y-91189552D01*
X145684716Y-91839995D01*
X145933106Y-92441143D01*
X146392637Y-92901478D01*
X146993352Y-93150916D01*
X147643795Y-93151484D01*
X148244943Y-92903094D01*
X148311574Y-92836579D01*
X148395910Y-92967641D01*
X148608110Y-93112631D01*
X148860000Y-93163640D01*
X150860000Y-93163640D01*
X151095317Y-93119362D01*
X151206084Y-93048086D01*
X153640599Y-95482601D01*
X153887161Y-95647348D01*
X154134143Y-95696476D01*
X154151838Y-95790517D01*
X154290910Y-96006641D01*
X154503110Y-96151631D01*
X154755000Y-96202640D01*
X155665000Y-96202640D01*
X155900317Y-96158362D01*
X156116441Y-96019290D01*
X156261431Y-95807090D01*
X156312440Y-95555200D01*
X156312440Y-94435200D01*
X157377560Y-94435200D01*
X157377560Y-95555200D01*
X157421838Y-95790517D01*
X157560910Y-96006641D01*
X157773110Y-96151631D01*
X158025000Y-96202640D01*
X158935000Y-96202640D01*
X159170317Y-96158362D01*
X159386441Y-96019290D01*
X159531431Y-95807090D01*
X159566118Y-95635803D01*
X159795401Y-95482601D01*
X160022000Y-95256002D01*
X160022000Y-98186398D01*
X159307334Y-98901064D01*
X159186890Y-98818769D01*
X158935000Y-98767760D01*
X158916362Y-98767760D01*
X158366401Y-98217799D01*
X158119839Y-98053052D01*
X157829000Y-97995200D01*
X154492802Y-97995200D01*
X151921401Y-95423799D01*
X151674839Y-95259052D01*
X151507440Y-95225754D01*
X151507440Y-94897700D01*
X151463162Y-94662383D01*
X151324090Y-94446259D01*
X151111890Y-94301269D01*
X150860000Y-94250260D01*
X148860000Y-94250260D01*
X148624683Y-94294538D01*
X148408559Y-94433610D01*
X148311090Y-94576261D01*
X148247363Y-94512422D01*
X147646648Y-94262984D01*
X146996205Y-94262416D01*
X146828721Y-94331619D01*
X145485041Y-92987939D01*
X145238479Y-92823192D01*
X144947640Y-92765340D01*
X144049490Y-92765340D01*
X144049490Y-92624910D01*
X144005212Y-92389593D01*
X143866140Y-92173469D01*
X143679082Y-92045658D01*
X143825000Y-91899740D01*
X143825000Y-90650060D01*
X144079000Y-90650060D01*
X144079000Y-91899740D01*
X144237750Y-92058490D01*
X144478359Y-92058490D01*
X144711748Y-91961817D01*
X144890377Y-91783189D01*
X144987050Y-91549800D01*
X144987050Y-90808810D01*
X144828300Y-90650060D01*
X144079000Y-90650060D01*
X143825000Y-90650060D01*
X143805000Y-90650060D01*
X143805000Y-90396060D01*
X143825000Y-90396060D01*
X143825000Y-89146380D01*
X144079000Y-89146380D01*
X144079000Y-90396060D01*
X144828300Y-90396060D01*
X144987050Y-90237310D01*
X144987050Y-89496320D01*
X144890377Y-89262931D01*
X144711748Y-89084303D01*
X144478359Y-88987630D01*
X144237750Y-88987630D01*
X144079000Y-89146380D01*
X143825000Y-89146380D01*
X143666250Y-88987630D01*
X143425641Y-88987630D01*
X143192252Y-89084303D01*
X143013623Y-89262931D01*
X142998566Y-89299282D01*
X142916140Y-89171189D01*
X142703940Y-89026199D01*
X142452050Y-88975190D01*
X141651950Y-88975190D01*
X141416633Y-89019468D01*
X141200509Y-89158540D01*
X141055519Y-89370740D01*
X141004510Y-89622630D01*
X141004510Y-89927681D01*
X140917739Y-89985659D01*
X140724110Y-90179288D01*
X140575460Y-90077719D01*
X140323570Y-90026710D01*
X138522710Y-90026710D01*
X138287393Y-90070988D01*
X138071269Y-90210060D01*
X138000113Y-90314200D01*
X132141000Y-90314200D01*
X131850161Y-90372052D01*
X131603599Y-90536799D01*
X130300000Y-91840398D01*
X130300000Y-89284125D01*
X130456244Y-89349003D01*
X130907775Y-89349397D01*
X131325086Y-89176967D01*
X131644645Y-88857965D01*
X131811920Y-88455123D01*
X132012000Y-88495640D01*
X133512000Y-88495640D01*
X133747317Y-88451362D01*
X133963441Y-88312290D01*
X134108431Y-88100090D01*
X134111081Y-88087003D01*
X134247910Y-88299641D01*
X134460110Y-88444631D01*
X134712000Y-88495640D01*
X136212000Y-88495640D01*
X136447317Y-88451362D01*
X136663441Y-88312290D01*
X136808431Y-88100090D01*
X136859440Y-87848200D01*
X136859440Y-86548200D01*
X136815162Y-86312883D01*
X136700425Y-86134577D01*
X136720802Y-86114200D01*
X137999747Y-86114200D01*
X138058620Y-86205691D01*
X138270820Y-86350681D01*
X138522710Y-86401690D01*
X140323570Y-86401690D01*
X140558887Y-86357412D01*
X140775011Y-86218340D01*
X140920001Y-86006140D01*
X140971010Y-85754250D01*
X140971010Y-85164200D01*
X141686438Y-85164200D01*
X141954510Y-85432272D01*
G36*
X145934722Y-81825837D02*
X145685284Y-82426552D01*
X145684716Y-83076995D01*
X145933106Y-83678143D01*
X146392637Y-84138478D01*
X146993352Y-84387916D01*
X147643795Y-84388484D01*
X148244943Y-84140094D01*
X148311574Y-84073579D01*
X148395910Y-84204641D01*
X148608110Y-84349631D01*
X148860000Y-84400640D01*
X150860000Y-84400640D01*
X151095317Y-84356362D01*
X151311441Y-84217290D01*
X151456431Y-84005090D01*
X151507440Y-83753200D01*
X151507440Y-81753200D01*
X151504053Y-81735200D01*
X152148000Y-81735200D01*
X152148000Y-86887398D01*
X151857901Y-86597299D01*
X151611339Y-86432552D01*
X151507440Y-86411885D01*
X151507440Y-86134700D01*
X151463162Y-85899383D01*
X151324090Y-85683259D01*
X151111890Y-85538269D01*
X150860000Y-85487260D01*
X148860000Y-85487260D01*
X148624683Y-85531538D01*
X148408559Y-85670610D01*
X148311090Y-85813261D01*
X148247363Y-85749422D01*
X147646648Y-85499984D01*
X146996205Y-85499416D01*
X146828721Y-85568619D01*
X146628041Y-85367939D01*
X146381479Y-85203192D01*
X146090640Y-85145340D01*
X144049490Y-85145340D01*
X144049490Y-85004910D01*
X144005212Y-84769593D01*
X143866140Y-84553469D01*
X143679082Y-84425658D01*
X143825000Y-84279740D01*
X143825000Y-83030060D01*
X144079000Y-83030060D01*
X144079000Y-84279740D01*
X144237750Y-84438490D01*
X144478359Y-84438490D01*
X144711748Y-84341817D01*
X144890377Y-84163189D01*
X144987050Y-83929800D01*
X144987050Y-83188810D01*
X144828300Y-83030060D01*
X144079000Y-83030060D01*
X143825000Y-83030060D01*
X143805000Y-83030060D01*
X143805000Y-82776060D01*
X143825000Y-82776060D01*
X143825000Y-82756060D01*
X144079000Y-82756060D01*
X144079000Y-82776060D01*
X144828300Y-82776060D01*
X144987050Y-82617310D01*
X144987050Y-81876320D01*
X144928596Y-81735200D01*
X146025518Y-81735200D01*
X145934722Y-81825837D01*
X145934722Y-81825837D01*
G37*
X145934722Y-81825837D02*
X145685284Y-82426552D01*
X145684716Y-83076995D01*
X145933106Y-83678143D01*
X146392637Y-84138478D01*
X146993352Y-84387916D01*
X147643795Y-84388484D01*
X148244943Y-84140094D01*
X148311574Y-84073579D01*
X148395910Y-84204641D01*
X148608110Y-84349631D01*
X148860000Y-84400640D01*
X150860000Y-84400640D01*
X151095317Y-84356362D01*
X151311441Y-84217290D01*
X151456431Y-84005090D01*
X151507440Y-83753200D01*
X151507440Y-81753200D01*
X151504053Y-81735200D01*
X152148000Y-81735200D01*
X152148000Y-86887398D01*
X151857901Y-86597299D01*
X151611339Y-86432552D01*
X151507440Y-86411885D01*
X151507440Y-86134700D01*
X151463162Y-85899383D01*
X151324090Y-85683259D01*
X151111890Y-85538269D01*
X150860000Y-85487260D01*
X148860000Y-85487260D01*
X148624683Y-85531538D01*
X148408559Y-85670610D01*
X148311090Y-85813261D01*
X148247363Y-85749422D01*
X147646648Y-85499984D01*
X146996205Y-85499416D01*
X146828721Y-85568619D01*
X146628041Y-85367939D01*
X146381479Y-85203192D01*
X146090640Y-85145340D01*
X144049490Y-85145340D01*
X144049490Y-85004910D01*
X144005212Y-84769593D01*
X143866140Y-84553469D01*
X143679082Y-84425658D01*
X143825000Y-84279740D01*
X143825000Y-83030060D01*
X144079000Y-83030060D01*
X144079000Y-84279740D01*
X144237750Y-84438490D01*
X144478359Y-84438490D01*
X144711748Y-84341817D01*
X144890377Y-84163189D01*
X144987050Y-83929800D01*
X144987050Y-83188810D01*
X144828300Y-83030060D01*
X144079000Y-83030060D01*
X143825000Y-83030060D01*
X143805000Y-83030060D01*
X143805000Y-82776060D01*
X143825000Y-82776060D01*
X143825000Y-82756060D01*
X144079000Y-82756060D01*
X144079000Y-82776060D01*
X144828300Y-82776060D01*
X144987050Y-82617310D01*
X144987050Y-81876320D01*
X144928596Y-81735200D01*
X146025518Y-81735200D01*
X145934722Y-81825837D01*
G36*
X116713510Y-68338379D02*
X116319312Y-68770253D01*
X116147042Y-69186174D01*
X116268183Y-69418200D01*
X117475000Y-69418200D01*
X117475000Y-69398200D01*
X117729000Y-69398200D01*
X117729000Y-69418200D01*
X117749000Y-69418200D01*
X117749000Y-69672200D01*
X117729000Y-69672200D01*
X117729000Y-69692200D01*
X117475000Y-69692200D01*
X117475000Y-69672200D01*
X116268183Y-69672200D01*
X116147042Y-69904226D01*
X116319312Y-70320147D01*
X116713510Y-70752021D01*
X116836228Y-70809536D01*
X116512971Y-71025530D01*
X116312738Y-71325200D01*
X115316000Y-71325200D01*
X115025161Y-71383052D01*
X114778599Y-71547799D01*
X114552000Y-71774398D01*
X114552000Y-69225002D01*
X115630802Y-68146200D01*
X117123556Y-68146200D01*
X116713510Y-68338379D01*
X116713510Y-68338379D01*
G37*
X116713510Y-68338379D02*
X116319312Y-68770253D01*
X116147042Y-69186174D01*
X116268183Y-69418200D01*
X117475000Y-69418200D01*
X117475000Y-69398200D01*
X117729000Y-69398200D01*
X117729000Y-69418200D01*
X117749000Y-69418200D01*
X117749000Y-69672200D01*
X117729000Y-69672200D01*
X117729000Y-69692200D01*
X117475000Y-69692200D01*
X117475000Y-69672200D01*
X116268183Y-69672200D01*
X116147042Y-69904226D01*
X116319312Y-70320147D01*
X116713510Y-70752021D01*
X116836228Y-70809536D01*
X116512971Y-71025530D01*
X116312738Y-71325200D01*
X115316000Y-71325200D01*
X115025161Y-71383052D01*
X114778599Y-71547799D01*
X114552000Y-71774398D01*
X114552000Y-69225002D01*
X115630802Y-68146200D01*
X117123556Y-68146200D01*
X116713510Y-68338379D01*
M02*
