M48
;DRILL file {KiCad 4.0.2+dfsg1-stable} date Sun 18 Mar 2018 06:29:25 PM MDT
;FORMAT={-:-/ absolute / inch / decimal}
FMAT,2
INCH,TZ
T1C0.030
T2C0.032
T3C0.035
T4C0.039
T5C0.217
%
G90
G05
M72
T2
X4.375Y-5.225
X4.425Y-5.325
X4.475Y-5.225
X4.525Y-5.325
X4.575Y-5.225
X4.625Y-5.325
T3
X4.325Y-2.55
X4.375Y-2.45
X4.425Y-2.55
X4.475Y-2.45
X4.525Y-2.55
X4.575Y-2.45
X4.625Y-2.55
X4.675Y-2.45
T4
X4.45Y-2.838
X4.45Y-3.0105
X4.45Y-3.183
X4.45Y-3.3555
X4.45Y-3.528
X4.45Y-3.7005
X4.45Y-3.873
X4.45Y-4.0455
X4.45Y-4.218
X4.55Y-2.838
X4.55Y-3.0105
X4.55Y-3.183
X4.55Y-3.3555
X4.55Y-3.528
X4.55Y-3.7005
X4.55Y-3.873
X4.55Y-4.0455
X4.55Y-4.218
T5
X4.264Y-2.985
X4.5Y-4.815
X4.736Y-2.985
T1
X4.19Y-2.1025G85X4.19Y-2.0575
G05
X4.23Y-5.6725G85X4.23Y-5.7175
G05
X4.77Y-5.6725G85X4.77Y-5.7175
G05
X4.81Y-2.1025G85X4.81Y-2.0575
G05
T0
M30
