G04 #@! TF.FileFunction,Legend,Top*
%FSLAX46Y46*%
G04 Gerber Fmt 4.6, Leading zero omitted, Abs format (unit mm)*
G04 Created by KiCad (PCBNEW 4.0.2+dfsg1-stable) date Sun 18 Mar 2018 06:29:23 PM MDT*
%MOMM*%
G01*
G04 APERTURE LIST*
%ADD10C,0.100000*%
%ADD11C,0.300000*%
%ADD12C,0.150000*%
G04 APERTURE END LIST*
D10*
D11*
X103739143Y-80761716D02*
X103667714Y-80976002D01*
X103596286Y-81047430D01*
X103453429Y-81118859D01*
X103239143Y-81118859D01*
X103096286Y-81047430D01*
X103024857Y-80976002D01*
X102953429Y-80833144D01*
X102953429Y-80261716D01*
X104453429Y-80261716D01*
X104453429Y-80761716D01*
X104382000Y-80904573D01*
X104310571Y-80976002D01*
X104167714Y-81047430D01*
X104024857Y-81047430D01*
X103882000Y-80976002D01*
X103810571Y-80904573D01*
X103739143Y-80761716D01*
X103739143Y-80261716D01*
X103953429Y-81618859D02*
X102953429Y-81976002D01*
X103953429Y-82333144D02*
X102953429Y-81976002D01*
X102596286Y-81833144D01*
X102524857Y-81761716D01*
X102453429Y-81618859D01*
X104453429Y-84476001D02*
X103382000Y-84476001D01*
X103167714Y-84404573D01*
X103024857Y-84261716D01*
X102953429Y-84047430D01*
X102953429Y-83904573D01*
X103953429Y-85833144D02*
X102953429Y-85833144D01*
X103953429Y-85190287D02*
X103167714Y-85190287D01*
X103024857Y-85261715D01*
X102953429Y-85404573D01*
X102953429Y-85618858D01*
X103024857Y-85761715D01*
X103096286Y-85833144D01*
X103953429Y-86547430D02*
X102953429Y-86547430D01*
X103810571Y-86547430D02*
X103882000Y-86618858D01*
X103953429Y-86761716D01*
X103953429Y-86976001D01*
X103882000Y-87118858D01*
X103739143Y-87190287D01*
X102953429Y-87190287D01*
X102953429Y-87904573D02*
X103953429Y-87904573D01*
X104453429Y-87904573D02*
X104382000Y-87833144D01*
X104310571Y-87904573D01*
X104382000Y-87976001D01*
X104453429Y-87904573D01*
X104310571Y-87904573D01*
X103953429Y-88618859D02*
X102453429Y-88618859D01*
X103882000Y-88618859D02*
X103953429Y-88761716D01*
X103953429Y-89047430D01*
X103882000Y-89190287D01*
X103810571Y-89261716D01*
X103667714Y-89333145D01*
X103239143Y-89333145D01*
X103096286Y-89261716D01*
X103024857Y-89190287D01*
X102953429Y-89047430D01*
X102953429Y-88761716D01*
X103024857Y-88618859D01*
X103024857Y-90547430D02*
X102953429Y-90404573D01*
X102953429Y-90118859D01*
X103024857Y-89976002D01*
X103167714Y-89904573D01*
X103739143Y-89904573D01*
X103882000Y-89976002D01*
X103953429Y-90118859D01*
X103953429Y-90404573D01*
X103882000Y-90547430D01*
X103739143Y-90618859D01*
X103596286Y-90618859D01*
X103453429Y-89904573D01*
X102953429Y-91261716D02*
X103953429Y-91261716D01*
X103667714Y-91261716D02*
X103810571Y-91333144D01*
X103882000Y-91404573D01*
X103953429Y-91547430D01*
X103953429Y-91690287D01*
X104453429Y-93618858D02*
X104453429Y-93761715D01*
X104382000Y-93904572D01*
X104310571Y-93976001D01*
X104167714Y-94047430D01*
X103882000Y-94118858D01*
X103524857Y-94118858D01*
X103239143Y-94047430D01*
X103096286Y-93976001D01*
X103024857Y-93904572D01*
X102953429Y-93761715D01*
X102953429Y-93618858D01*
X103024857Y-93476001D01*
X103096286Y-93404572D01*
X103239143Y-93333144D01*
X103524857Y-93261715D01*
X103882000Y-93261715D01*
X104167714Y-93333144D01*
X104310571Y-93404572D01*
X104382000Y-93476001D01*
X104453429Y-93618858D01*
X104310571Y-94690286D02*
X104382000Y-94761715D01*
X104453429Y-94904572D01*
X104453429Y-95261715D01*
X104382000Y-95404572D01*
X104310571Y-95476001D01*
X104167714Y-95547429D01*
X104024857Y-95547429D01*
X103810571Y-95476001D01*
X102953429Y-94618858D01*
X102953429Y-95547429D01*
X104524857Y-97261714D02*
X102596286Y-95976000D01*
X102953429Y-98547429D02*
X102953429Y-97690286D01*
X102953429Y-98118858D02*
X104453429Y-98118858D01*
X104239143Y-97976001D01*
X104096286Y-97833143D01*
X104024857Y-97690286D01*
X102953429Y-99261714D02*
X102953429Y-99547429D01*
X103024857Y-99690286D01*
X103096286Y-99761714D01*
X103310571Y-99904572D01*
X103596286Y-99976000D01*
X104167714Y-99976000D01*
X104310571Y-99904572D01*
X104382000Y-99833143D01*
X104453429Y-99690286D01*
X104453429Y-99404572D01*
X104382000Y-99261714D01*
X104310571Y-99190286D01*
X104167714Y-99118857D01*
X103810571Y-99118857D01*
X103667714Y-99190286D01*
X103596286Y-99261714D01*
X103524857Y-99404572D01*
X103524857Y-99690286D01*
X103596286Y-99833143D01*
X103667714Y-99904572D01*
X103810571Y-99976000D01*
X104524857Y-101690285D02*
X102596286Y-100404571D01*
X104310571Y-102118857D02*
X104382000Y-102190286D01*
X104453429Y-102333143D01*
X104453429Y-102690286D01*
X104382000Y-102833143D01*
X104310571Y-102904572D01*
X104167714Y-102976000D01*
X104024857Y-102976000D01*
X103810571Y-102904572D01*
X102953429Y-102047429D01*
X102953429Y-102976000D01*
X104453429Y-103904571D02*
X104453429Y-104047428D01*
X104382000Y-104190285D01*
X104310571Y-104261714D01*
X104167714Y-104333143D01*
X103882000Y-104404571D01*
X103524857Y-104404571D01*
X103239143Y-104333143D01*
X103096286Y-104261714D01*
X103024857Y-104190285D01*
X102953429Y-104047428D01*
X102953429Y-103904571D01*
X103024857Y-103761714D01*
X103096286Y-103690285D01*
X103239143Y-103618857D01*
X103524857Y-103547428D01*
X103882000Y-103547428D01*
X104167714Y-103618857D01*
X104310571Y-103690285D01*
X104382000Y-103761714D01*
X104453429Y-103904571D01*
X102953429Y-105833142D02*
X102953429Y-104975999D01*
X102953429Y-105404571D02*
X104453429Y-105404571D01*
X104239143Y-105261714D01*
X104096286Y-105118856D01*
X104024857Y-104975999D01*
X103810571Y-106690285D02*
X103882000Y-106547427D01*
X103953429Y-106475999D01*
X104096286Y-106404570D01*
X104167714Y-106404570D01*
X104310571Y-106475999D01*
X104382000Y-106547427D01*
X104453429Y-106690285D01*
X104453429Y-106975999D01*
X104382000Y-107118856D01*
X104310571Y-107190285D01*
X104167714Y-107261713D01*
X104096286Y-107261713D01*
X103953429Y-107190285D01*
X103882000Y-107118856D01*
X103810571Y-106975999D01*
X103810571Y-106690285D01*
X103739143Y-106547427D01*
X103667714Y-106475999D01*
X103524857Y-106404570D01*
X103239143Y-106404570D01*
X103096286Y-106475999D01*
X103024857Y-106547427D01*
X102953429Y-106690285D01*
X102953429Y-106975999D01*
X103024857Y-107118856D01*
X103096286Y-107190285D01*
X103239143Y-107261713D01*
X103524857Y-107261713D01*
X103667714Y-107190285D01*
X103739143Y-107118856D01*
X103810571Y-106975999D01*
X105636286Y-81242002D02*
X105564857Y-81170573D01*
X105493429Y-80956287D01*
X105493429Y-80813430D01*
X105564857Y-80599145D01*
X105707714Y-80456287D01*
X105850571Y-80384859D01*
X106136286Y-80313430D01*
X106350571Y-80313430D01*
X106636286Y-80384859D01*
X106779143Y-80456287D01*
X106922000Y-80599145D01*
X106993429Y-80813430D01*
X106993429Y-80956287D01*
X106922000Y-81170573D01*
X106850571Y-81242002D01*
X105493429Y-82527716D02*
X106279143Y-82527716D01*
X106422000Y-82456287D01*
X106493429Y-82313430D01*
X106493429Y-82027716D01*
X106422000Y-81884859D01*
X105564857Y-82527716D02*
X105493429Y-82384859D01*
X105493429Y-82027716D01*
X105564857Y-81884859D01*
X105707714Y-81813430D01*
X105850571Y-81813430D01*
X105993429Y-81884859D01*
X106064857Y-82027716D01*
X106064857Y-82384859D01*
X106136286Y-82527716D01*
X105493429Y-83242002D02*
X106993429Y-83242002D01*
X106422000Y-83242002D02*
X106493429Y-83384859D01*
X106493429Y-83670573D01*
X106422000Y-83813430D01*
X106350571Y-83884859D01*
X106207714Y-83956288D01*
X105779143Y-83956288D01*
X105636286Y-83884859D01*
X105564857Y-83813430D01*
X105493429Y-83670573D01*
X105493429Y-83384859D01*
X105564857Y-83242002D01*
X105493429Y-84813431D02*
X105564857Y-84670573D01*
X105707714Y-84599145D01*
X106993429Y-84599145D01*
X105564857Y-85956287D02*
X105493429Y-85813430D01*
X105493429Y-85527716D01*
X105564857Y-85384859D01*
X105707714Y-85313430D01*
X106279143Y-85313430D01*
X106422000Y-85384859D01*
X106493429Y-85527716D01*
X106493429Y-85813430D01*
X106422000Y-85956287D01*
X106279143Y-86027716D01*
X106136286Y-86027716D01*
X105993429Y-85313430D01*
X106993429Y-87599144D02*
X106993429Y-88456287D01*
X105493429Y-88027716D02*
X106993429Y-88027716D01*
X105564857Y-89527715D02*
X105493429Y-89384858D01*
X105493429Y-89099144D01*
X105564857Y-88956287D01*
X105707714Y-88884858D01*
X106279143Y-88884858D01*
X106422000Y-88956287D01*
X106493429Y-89099144D01*
X106493429Y-89384858D01*
X106422000Y-89527715D01*
X106279143Y-89599144D01*
X106136286Y-89599144D01*
X105993429Y-88884858D01*
X105564857Y-90170572D02*
X105493429Y-90313429D01*
X105493429Y-90599144D01*
X105564857Y-90742001D01*
X105707714Y-90813429D01*
X105779143Y-90813429D01*
X105922000Y-90742001D01*
X105993429Y-90599144D01*
X105993429Y-90384858D01*
X106064857Y-90242001D01*
X106207714Y-90170572D01*
X106279143Y-90170572D01*
X106422000Y-90242001D01*
X106493429Y-90384858D01*
X106493429Y-90599144D01*
X106422000Y-90742001D01*
X106493429Y-91242001D02*
X106493429Y-91813430D01*
X106993429Y-91456287D02*
X105707714Y-91456287D01*
X105564857Y-91527715D01*
X105493429Y-91670573D01*
X105493429Y-91813430D01*
X105564857Y-92884858D02*
X105493429Y-92742001D01*
X105493429Y-92456287D01*
X105564857Y-92313430D01*
X105707714Y-92242001D01*
X106279143Y-92242001D01*
X106422000Y-92313430D01*
X106493429Y-92456287D01*
X106493429Y-92742001D01*
X106422000Y-92884858D01*
X106279143Y-92956287D01*
X106136286Y-92956287D01*
X105993429Y-92242001D01*
X105493429Y-93599144D02*
X106493429Y-93599144D01*
X106207714Y-93599144D02*
X106350571Y-93670572D01*
X106422000Y-93742001D01*
X106493429Y-93884858D01*
X106493429Y-94027715D01*
X105493429Y-96527715D02*
X106207714Y-96027715D01*
X105493429Y-95670572D02*
X106993429Y-95670572D01*
X106993429Y-96242000D01*
X106922000Y-96384858D01*
X106850571Y-96456286D01*
X106707714Y-96527715D01*
X106493429Y-96527715D01*
X106350571Y-96456286D01*
X106279143Y-96384858D01*
X106207714Y-96242000D01*
X106207714Y-95670572D01*
X105564857Y-97742000D02*
X105493429Y-97599143D01*
X105493429Y-97313429D01*
X105564857Y-97170572D01*
X105707714Y-97099143D01*
X106279143Y-97099143D01*
X106422000Y-97170572D01*
X106493429Y-97313429D01*
X106493429Y-97599143D01*
X106422000Y-97742000D01*
X106279143Y-97813429D01*
X106136286Y-97813429D01*
X105993429Y-97099143D01*
X105493429Y-98456286D02*
X106493429Y-98456286D01*
X106350571Y-98456286D02*
X106422000Y-98527714D01*
X106493429Y-98670572D01*
X106493429Y-98884857D01*
X106422000Y-99027714D01*
X106279143Y-99099143D01*
X105493429Y-99099143D01*
X106279143Y-99099143D02*
X106422000Y-99170572D01*
X106493429Y-99313429D01*
X106493429Y-99527714D01*
X106422000Y-99670572D01*
X106279143Y-99742000D01*
X105493429Y-99742000D01*
X105493429Y-100670572D02*
X105564857Y-100527714D01*
X105636286Y-100456286D01*
X105779143Y-100384857D01*
X106207714Y-100384857D01*
X106350571Y-100456286D01*
X106422000Y-100527714D01*
X106493429Y-100670572D01*
X106493429Y-100884857D01*
X106422000Y-101027714D01*
X106350571Y-101099143D01*
X106207714Y-101170572D01*
X105779143Y-101170572D01*
X105636286Y-101099143D01*
X105564857Y-101027714D01*
X105493429Y-100884857D01*
X105493429Y-100670572D01*
X106493429Y-101599143D02*
X106493429Y-102170572D01*
X106993429Y-101813429D02*
X105707714Y-101813429D01*
X105564857Y-101884857D01*
X105493429Y-102027715D01*
X105493429Y-102170572D01*
X105564857Y-103242000D02*
X105493429Y-103099143D01*
X105493429Y-102813429D01*
X105564857Y-102670572D01*
X105707714Y-102599143D01*
X106279143Y-102599143D01*
X106422000Y-102670572D01*
X106493429Y-102813429D01*
X106493429Y-103099143D01*
X106422000Y-103242000D01*
X106279143Y-103313429D01*
X106136286Y-103313429D01*
X105993429Y-102599143D01*
X106493429Y-104956286D02*
X105493429Y-105313429D01*
X106493429Y-105670571D01*
X106993429Y-106527714D02*
X106993429Y-106670571D01*
X106922000Y-106813428D01*
X106850571Y-106884857D01*
X106707714Y-106956286D01*
X106422000Y-107027714D01*
X106064857Y-107027714D01*
X105779143Y-106956286D01*
X105636286Y-106884857D01*
X105564857Y-106813428D01*
X105493429Y-106670571D01*
X105493429Y-106527714D01*
X105564857Y-106384857D01*
X105636286Y-106313428D01*
X105779143Y-106242000D01*
X106064857Y-106170571D01*
X106422000Y-106170571D01*
X106707714Y-106242000D01*
X106850571Y-106313428D01*
X106922000Y-106384857D01*
X106993429Y-106527714D01*
X105636286Y-107670571D02*
X105564857Y-107741999D01*
X105493429Y-107670571D01*
X105564857Y-107599142D01*
X105636286Y-107670571D01*
X105493429Y-107670571D01*
X106850571Y-108313428D02*
X106922000Y-108384857D01*
X106993429Y-108527714D01*
X106993429Y-108884857D01*
X106922000Y-109027714D01*
X106850571Y-109099143D01*
X106707714Y-109170571D01*
X106564857Y-109170571D01*
X106350571Y-109099143D01*
X105493429Y-108242000D01*
X105493429Y-109170571D01*
D12*
X120967500Y-69850000D02*
X121348500Y-69850000D01*
X119951500Y-69850000D02*
X120332500Y-69850000D01*
X120332500Y-69850000D02*
X120967500Y-69469000D01*
X120967500Y-69469000D02*
X120967500Y-70231000D01*
X120967500Y-70231000D02*
X120332500Y-69850000D01*
X120332500Y-69342000D02*
X120332500Y-70358000D01*
X118650000Y-70750000D02*
X122190000Y-70750000D01*
X118650000Y-68950000D02*
X122190000Y-68950000D01*
X120967500Y-82550000D02*
X121348500Y-82550000D01*
X119951500Y-82550000D02*
X120332500Y-82550000D01*
X120332500Y-82550000D02*
X120967500Y-82169000D01*
X120967500Y-82169000D02*
X120967500Y-82931000D01*
X120967500Y-82931000D02*
X120332500Y-82550000D01*
X120332500Y-82042000D02*
X120332500Y-83058000D01*
X118650000Y-83450000D02*
X122190000Y-83450000D01*
X118650000Y-81650000D02*
X122190000Y-81650000D01*
X120967500Y-87630000D02*
X121348500Y-87630000D01*
X119951500Y-87630000D02*
X120332500Y-87630000D01*
X120332500Y-87630000D02*
X120967500Y-87249000D01*
X120967500Y-87249000D02*
X120967500Y-88011000D01*
X120967500Y-88011000D02*
X120332500Y-87630000D01*
X120332500Y-87122000D02*
X120332500Y-88138000D01*
X118650000Y-88530000D02*
X122190000Y-88530000D01*
X118650000Y-86730000D02*
X122190000Y-86730000D01*
X120967500Y-92710000D02*
X121348500Y-92710000D01*
X119951500Y-92710000D02*
X120332500Y-92710000D01*
X120332500Y-92710000D02*
X120967500Y-92329000D01*
X120967500Y-92329000D02*
X120967500Y-93091000D01*
X120967500Y-93091000D02*
X120332500Y-92710000D01*
X120332500Y-92202000D02*
X120332500Y-93218000D01*
X118650000Y-93610000D02*
X122190000Y-93610000D01*
X118650000Y-91810000D02*
X122190000Y-91810000D01*
X120967500Y-97790000D02*
X121348500Y-97790000D01*
X119951500Y-97790000D02*
X120332500Y-97790000D01*
X120332500Y-97790000D02*
X120967500Y-97409000D01*
X120967500Y-97409000D02*
X120967500Y-98171000D01*
X120967500Y-98171000D02*
X120332500Y-97790000D01*
X120332500Y-97282000D02*
X120332500Y-98298000D01*
X118650000Y-98690000D02*
X122190000Y-98690000D01*
X118650000Y-96890000D02*
X122190000Y-96890000D01*
X115769000Y-70771200D02*
X115769000Y-70971200D01*
X115769000Y-73365200D02*
X115769000Y-73185200D01*
X112541256Y-73054843D02*
G75*
G03X115769000Y-73371200I1727744J1003643D01*
G01*
X113216994Y-73184268D02*
G75*
G03X115320000Y-73185200I1052006J1133068D01*
G01*
X115756220Y-70744474D02*
G75*
G03X112519000Y-71091200I-1497220J-1306726D01*
G01*
X115282889Y-70971947D02*
G75*
G03X113235000Y-70991200I-1013889J-1079253D01*
G01*
X115769000Y-75152700D02*
X115769000Y-75352700D01*
X115769000Y-77746700D02*
X115769000Y-77566700D01*
X112541256Y-77436343D02*
G75*
G03X115769000Y-77752700I1727744J1003643D01*
G01*
X113216994Y-77565768D02*
G75*
G03X115320000Y-77566700I1052006J1133068D01*
G01*
X115756220Y-75125974D02*
G75*
G03X112519000Y-75472700I-1497220J-1306726D01*
G01*
X115282889Y-75353447D02*
G75*
G03X113235000Y-75372700I-1013889J-1079253D01*
G01*
X115769000Y-79534200D02*
X115769000Y-79734200D01*
X115769000Y-82128200D02*
X115769000Y-81948200D01*
X112541256Y-81817843D02*
G75*
G03X115769000Y-82134200I1727744J1003643D01*
G01*
X113216994Y-81947268D02*
G75*
G03X115320000Y-81948200I1052006J1133068D01*
G01*
X115756220Y-79507474D02*
G75*
G03X112519000Y-79854200I-1497220J-1306726D01*
G01*
X115282889Y-79734947D02*
G75*
G03X113235000Y-79754200I-1013889J-1079253D01*
G01*
X115769000Y-83915700D02*
X115769000Y-84115700D01*
X115769000Y-86509700D02*
X115769000Y-86329700D01*
X112541256Y-86199343D02*
G75*
G03X115769000Y-86515700I1727744J1003643D01*
G01*
X113216994Y-86328768D02*
G75*
G03X115320000Y-86329700I1052006J1133068D01*
G01*
X115756220Y-83888974D02*
G75*
G03X112519000Y-84235700I-1497220J-1306726D01*
G01*
X115282889Y-84116447D02*
G75*
G03X113235000Y-84135700I-1013889J-1079253D01*
G01*
X115769000Y-88297200D02*
X115769000Y-88497200D01*
X115769000Y-90891200D02*
X115769000Y-90711200D01*
X112541256Y-90580843D02*
G75*
G03X115769000Y-90897200I1727744J1003643D01*
G01*
X113216994Y-90710268D02*
G75*
G03X115320000Y-90711200I1052006J1133068D01*
G01*
X115756220Y-88270474D02*
G75*
G03X112519000Y-88617200I-1497220J-1306726D01*
G01*
X115282889Y-88497947D02*
G75*
G03X113235000Y-88517200I-1013889J-1079253D01*
G01*
X115769000Y-92678700D02*
X115769000Y-92878700D01*
X115769000Y-95272700D02*
X115769000Y-95092700D01*
X112541256Y-94962343D02*
G75*
G03X115769000Y-95278700I1727744J1003643D01*
G01*
X113216994Y-95091768D02*
G75*
G03X115320000Y-95092700I1052006J1133068D01*
G01*
X115756220Y-92651974D02*
G75*
G03X112519000Y-92998700I-1497220J-1306726D01*
G01*
X115282889Y-92879447D02*
G75*
G03X113235000Y-92898700I-1013889J-1079253D01*
G01*
X115769000Y-97060200D02*
X115769000Y-97260200D01*
X115769000Y-99654200D02*
X115769000Y-99474200D01*
X112541256Y-99343843D02*
G75*
G03X115769000Y-99660200I1727744J1003643D01*
G01*
X113216994Y-99473268D02*
G75*
G03X115320000Y-99474200I1052006J1133068D01*
G01*
X115756220Y-97033474D02*
G75*
G03X112519000Y-97380200I-1497220J-1306726D01*
G01*
X115282889Y-97260947D02*
G75*
G03X113235000Y-97280200I-1013889J-1079253D01*
G01*
X115769000Y-101441700D02*
X115769000Y-101641700D01*
X115769000Y-104035700D02*
X115769000Y-103855700D01*
X112541256Y-103725343D02*
G75*
G03X115769000Y-104041700I1727744J1003643D01*
G01*
X113216994Y-103854768D02*
G75*
G03X115320000Y-103855700I1052006J1133068D01*
G01*
X115756220Y-101414974D02*
G75*
G03X112519000Y-101761700I-1497220J-1306726D01*
G01*
X115282889Y-101642447D02*
G75*
G03X113235000Y-101661700I-1013889J-1079253D01*
G01*
X115769000Y-105823200D02*
X115769000Y-106023200D01*
X115769000Y-108417200D02*
X115769000Y-108237200D01*
X112541256Y-108106843D02*
G75*
G03X115769000Y-108423200I1727744J1003643D01*
G01*
X113216994Y-108236268D02*
G75*
G03X115320000Y-108237200I1052006J1133068D01*
G01*
X115756220Y-105796474D02*
G75*
G03X112519000Y-106143200I-1497220J-1306726D01*
G01*
X115282889Y-106023947D02*
G75*
G03X113235000Y-106043200I-1013889J-1079253D01*
G01*
X107442000Y-140589000D02*
X107442000Y-131445000D01*
X107442000Y-131445000D02*
X121158000Y-131445000D01*
X121158000Y-131445000D02*
X121158000Y-140589000D01*
X121158000Y-142621000D02*
X121158000Y-143129000D01*
X107442000Y-142494000D02*
X107442000Y-143129000D01*
X107442000Y-146177000D02*
X107442000Y-146431000D01*
X107442000Y-146431000D02*
X121158000Y-146431000D01*
X121158000Y-146431000D02*
X121158000Y-146177000D01*
X106680000Y-56896000D02*
X106680000Y-66040000D01*
X106680000Y-66040000D02*
X121920000Y-66040000D01*
X121920000Y-66040000D02*
X121920000Y-56896000D01*
X106680000Y-51308000D02*
X106680000Y-51054000D01*
X106680000Y-51054000D02*
X121920000Y-51054000D01*
X121920000Y-51054000D02*
X121920000Y-51308000D01*
X121920000Y-54356000D02*
X121920000Y-54864000D01*
X106680000Y-54864000D02*
X106680000Y-54356000D01*
X119911905Y-68302381D02*
X119911905Y-67302381D01*
X120150000Y-67302381D01*
X120292858Y-67350000D01*
X120388096Y-67445238D01*
X120435715Y-67540476D01*
X120483334Y-67730952D01*
X120483334Y-67873810D01*
X120435715Y-68064286D01*
X120388096Y-68159524D01*
X120292858Y-68254762D01*
X120150000Y-68302381D01*
X119911905Y-68302381D01*
X121435715Y-68302381D02*
X120864286Y-68302381D01*
X121150000Y-68302381D02*
X121150000Y-67302381D01*
X121054762Y-67445238D01*
X120959524Y-67540476D01*
X120864286Y-67588095D01*
X119911905Y-81002381D02*
X119911905Y-80002381D01*
X120150000Y-80002381D01*
X120292858Y-80050000D01*
X120388096Y-80145238D01*
X120435715Y-80240476D01*
X120483334Y-80430952D01*
X120483334Y-80573810D01*
X120435715Y-80764286D01*
X120388096Y-80859524D01*
X120292858Y-80954762D01*
X120150000Y-81002381D01*
X119911905Y-81002381D01*
X120816667Y-80002381D02*
X121435715Y-80002381D01*
X121102381Y-80383333D01*
X121245239Y-80383333D01*
X121340477Y-80430952D01*
X121388096Y-80478571D01*
X121435715Y-80573810D01*
X121435715Y-80811905D01*
X121388096Y-80907143D01*
X121340477Y-80954762D01*
X121245239Y-81002381D01*
X120959524Y-81002381D01*
X120864286Y-80954762D01*
X120816667Y-80907143D01*
X119911905Y-86082381D02*
X119911905Y-85082381D01*
X120150000Y-85082381D01*
X120292858Y-85130000D01*
X120388096Y-85225238D01*
X120435715Y-85320476D01*
X120483334Y-85510952D01*
X120483334Y-85653810D01*
X120435715Y-85844286D01*
X120388096Y-85939524D01*
X120292858Y-86034762D01*
X120150000Y-86082381D01*
X119911905Y-86082381D01*
X121388096Y-85082381D02*
X120911905Y-85082381D01*
X120864286Y-85558571D01*
X120911905Y-85510952D01*
X121007143Y-85463333D01*
X121245239Y-85463333D01*
X121340477Y-85510952D01*
X121388096Y-85558571D01*
X121435715Y-85653810D01*
X121435715Y-85891905D01*
X121388096Y-85987143D01*
X121340477Y-86034762D01*
X121245239Y-86082381D01*
X121007143Y-86082381D01*
X120911905Y-86034762D01*
X120864286Y-85987143D01*
X119911905Y-91162381D02*
X119911905Y-90162381D01*
X120150000Y-90162381D01*
X120292858Y-90210000D01*
X120388096Y-90305238D01*
X120435715Y-90400476D01*
X120483334Y-90590952D01*
X120483334Y-90733810D01*
X120435715Y-90924286D01*
X120388096Y-91019524D01*
X120292858Y-91114762D01*
X120150000Y-91162381D01*
X119911905Y-91162381D01*
X120816667Y-90162381D02*
X121483334Y-90162381D01*
X121054762Y-91162381D01*
X119911905Y-96242381D02*
X119911905Y-95242381D01*
X120150000Y-95242381D01*
X120292858Y-95290000D01*
X120388096Y-95385238D01*
X120435715Y-95480476D01*
X120483334Y-95670952D01*
X120483334Y-95813810D01*
X120435715Y-96004286D01*
X120388096Y-96099524D01*
X120292858Y-96194762D01*
X120150000Y-96242381D01*
X119911905Y-96242381D01*
X120959524Y-96242381D02*
X121150000Y-96242381D01*
X121245239Y-96194762D01*
X121292858Y-96147143D01*
X121388096Y-96004286D01*
X121435715Y-95813810D01*
X121435715Y-95432857D01*
X121388096Y-95337619D01*
X121340477Y-95290000D01*
X121245239Y-95242381D01*
X121054762Y-95242381D01*
X120959524Y-95290000D01*
X120911905Y-95337619D01*
X120864286Y-95432857D01*
X120864286Y-95670952D01*
X120911905Y-95766190D01*
X120959524Y-95813810D01*
X121054762Y-95861429D01*
X121245239Y-95861429D01*
X121340477Y-95813810D01*
X121388096Y-95766190D01*
X121435715Y-95670952D01*
X112540953Y-69477581D02*
X112064762Y-69477581D01*
X112064762Y-68477581D01*
X112874286Y-68953771D02*
X113207620Y-68953771D01*
X113350477Y-69477581D02*
X112874286Y-69477581D01*
X112874286Y-68477581D01*
X113350477Y-68477581D01*
X113779048Y-69477581D02*
X113779048Y-68477581D01*
X114017143Y-68477581D01*
X114160001Y-68525200D01*
X114255239Y-68620438D01*
X114302858Y-68715676D01*
X114350477Y-68906152D01*
X114350477Y-69049010D01*
X114302858Y-69239486D01*
X114255239Y-69334724D01*
X114160001Y-69429962D01*
X114017143Y-69477581D01*
X113779048Y-69477581D01*
X115302858Y-69477581D02*
X114731429Y-69477581D01*
X115017143Y-69477581D02*
X115017143Y-68477581D01*
X114921905Y-68620438D01*
X114826667Y-68715676D01*
X114731429Y-68763295D01*
X116998095Y-70797581D02*
X116998095Y-69797581D01*
X117569524Y-70797581D02*
X117140952Y-70226152D01*
X117569524Y-69797581D02*
X116998095Y-70369010D01*
X112540953Y-73859081D02*
X112064762Y-73859081D01*
X112064762Y-72859081D01*
X112874286Y-73335271D02*
X113207620Y-73335271D01*
X113350477Y-73859081D02*
X112874286Y-73859081D01*
X112874286Y-72859081D01*
X113350477Y-72859081D01*
X113779048Y-73859081D02*
X113779048Y-72859081D01*
X114017143Y-72859081D01*
X114160001Y-72906700D01*
X114255239Y-73001938D01*
X114302858Y-73097176D01*
X114350477Y-73287652D01*
X114350477Y-73430510D01*
X114302858Y-73620986D01*
X114255239Y-73716224D01*
X114160001Y-73811462D01*
X114017143Y-73859081D01*
X113779048Y-73859081D01*
X114731429Y-72954319D02*
X114779048Y-72906700D01*
X114874286Y-72859081D01*
X115112382Y-72859081D01*
X115207620Y-72906700D01*
X115255239Y-72954319D01*
X115302858Y-73049557D01*
X115302858Y-73144795D01*
X115255239Y-73287652D01*
X114683810Y-73859081D01*
X115302858Y-73859081D01*
X116998095Y-75179081D02*
X116998095Y-74179081D01*
X117569524Y-75179081D02*
X117140952Y-74607652D01*
X117569524Y-74179081D02*
X116998095Y-74750510D01*
X112540953Y-78240581D02*
X112064762Y-78240581D01*
X112064762Y-77240581D01*
X112874286Y-77716771D02*
X113207620Y-77716771D01*
X113350477Y-78240581D02*
X112874286Y-78240581D01*
X112874286Y-77240581D01*
X113350477Y-77240581D01*
X113779048Y-78240581D02*
X113779048Y-77240581D01*
X114017143Y-77240581D01*
X114160001Y-77288200D01*
X114255239Y-77383438D01*
X114302858Y-77478676D01*
X114350477Y-77669152D01*
X114350477Y-77812010D01*
X114302858Y-78002486D01*
X114255239Y-78097724D01*
X114160001Y-78192962D01*
X114017143Y-78240581D01*
X113779048Y-78240581D01*
X114683810Y-77240581D02*
X115302858Y-77240581D01*
X114969524Y-77621533D01*
X115112382Y-77621533D01*
X115207620Y-77669152D01*
X115255239Y-77716771D01*
X115302858Y-77812010D01*
X115302858Y-78050105D01*
X115255239Y-78145343D01*
X115207620Y-78192962D01*
X115112382Y-78240581D01*
X114826667Y-78240581D01*
X114731429Y-78192962D01*
X114683810Y-78145343D01*
X116998095Y-79560581D02*
X116998095Y-78560581D01*
X117569524Y-79560581D02*
X117140952Y-78989152D01*
X117569524Y-78560581D02*
X116998095Y-79132010D01*
X112540953Y-82622081D02*
X112064762Y-82622081D01*
X112064762Y-81622081D01*
X112874286Y-82098271D02*
X113207620Y-82098271D01*
X113350477Y-82622081D02*
X112874286Y-82622081D01*
X112874286Y-81622081D01*
X113350477Y-81622081D01*
X113779048Y-82622081D02*
X113779048Y-81622081D01*
X114017143Y-81622081D01*
X114160001Y-81669700D01*
X114255239Y-81764938D01*
X114302858Y-81860176D01*
X114350477Y-82050652D01*
X114350477Y-82193510D01*
X114302858Y-82383986D01*
X114255239Y-82479224D01*
X114160001Y-82574462D01*
X114017143Y-82622081D01*
X113779048Y-82622081D01*
X115207620Y-81955414D02*
X115207620Y-82622081D01*
X114969524Y-81574462D02*
X114731429Y-82288748D01*
X115350477Y-82288748D01*
X116998095Y-83942081D02*
X116998095Y-82942081D01*
X117569524Y-83942081D02*
X117140952Y-83370652D01*
X117569524Y-82942081D02*
X116998095Y-83513510D01*
X112540953Y-87003581D02*
X112064762Y-87003581D01*
X112064762Y-86003581D01*
X112874286Y-86479771D02*
X113207620Y-86479771D01*
X113350477Y-87003581D02*
X112874286Y-87003581D01*
X112874286Y-86003581D01*
X113350477Y-86003581D01*
X113779048Y-87003581D02*
X113779048Y-86003581D01*
X114017143Y-86003581D01*
X114160001Y-86051200D01*
X114255239Y-86146438D01*
X114302858Y-86241676D01*
X114350477Y-86432152D01*
X114350477Y-86575010D01*
X114302858Y-86765486D01*
X114255239Y-86860724D01*
X114160001Y-86955962D01*
X114017143Y-87003581D01*
X113779048Y-87003581D01*
X115255239Y-86003581D02*
X114779048Y-86003581D01*
X114731429Y-86479771D01*
X114779048Y-86432152D01*
X114874286Y-86384533D01*
X115112382Y-86384533D01*
X115207620Y-86432152D01*
X115255239Y-86479771D01*
X115302858Y-86575010D01*
X115302858Y-86813105D01*
X115255239Y-86908343D01*
X115207620Y-86955962D01*
X115112382Y-87003581D01*
X114874286Y-87003581D01*
X114779048Y-86955962D01*
X114731429Y-86908343D01*
X116998095Y-88323581D02*
X116998095Y-87323581D01*
X117569524Y-88323581D02*
X117140952Y-87752152D01*
X117569524Y-87323581D02*
X116998095Y-87895010D01*
X112540953Y-91385081D02*
X112064762Y-91385081D01*
X112064762Y-90385081D01*
X112874286Y-90861271D02*
X113207620Y-90861271D01*
X113350477Y-91385081D02*
X112874286Y-91385081D01*
X112874286Y-90385081D01*
X113350477Y-90385081D01*
X113779048Y-91385081D02*
X113779048Y-90385081D01*
X114017143Y-90385081D01*
X114160001Y-90432700D01*
X114255239Y-90527938D01*
X114302858Y-90623176D01*
X114350477Y-90813652D01*
X114350477Y-90956510D01*
X114302858Y-91146986D01*
X114255239Y-91242224D01*
X114160001Y-91337462D01*
X114017143Y-91385081D01*
X113779048Y-91385081D01*
X115207620Y-90385081D02*
X115017143Y-90385081D01*
X114921905Y-90432700D01*
X114874286Y-90480319D01*
X114779048Y-90623176D01*
X114731429Y-90813652D01*
X114731429Y-91194605D01*
X114779048Y-91289843D01*
X114826667Y-91337462D01*
X114921905Y-91385081D01*
X115112382Y-91385081D01*
X115207620Y-91337462D01*
X115255239Y-91289843D01*
X115302858Y-91194605D01*
X115302858Y-90956510D01*
X115255239Y-90861271D01*
X115207620Y-90813652D01*
X115112382Y-90766033D01*
X114921905Y-90766033D01*
X114826667Y-90813652D01*
X114779048Y-90861271D01*
X114731429Y-90956510D01*
X116998095Y-92705081D02*
X116998095Y-91705081D01*
X117569524Y-92705081D02*
X117140952Y-92133652D01*
X117569524Y-91705081D02*
X116998095Y-92276510D01*
X112540953Y-95766581D02*
X112064762Y-95766581D01*
X112064762Y-94766581D01*
X112874286Y-95242771D02*
X113207620Y-95242771D01*
X113350477Y-95766581D02*
X112874286Y-95766581D01*
X112874286Y-94766581D01*
X113350477Y-94766581D01*
X113779048Y-95766581D02*
X113779048Y-94766581D01*
X114017143Y-94766581D01*
X114160001Y-94814200D01*
X114255239Y-94909438D01*
X114302858Y-95004676D01*
X114350477Y-95195152D01*
X114350477Y-95338010D01*
X114302858Y-95528486D01*
X114255239Y-95623724D01*
X114160001Y-95718962D01*
X114017143Y-95766581D01*
X113779048Y-95766581D01*
X114683810Y-94766581D02*
X115350477Y-94766581D01*
X114921905Y-95766581D01*
X116998095Y-97086581D02*
X116998095Y-96086581D01*
X117569524Y-97086581D02*
X117140952Y-96515152D01*
X117569524Y-96086581D02*
X116998095Y-96658010D01*
X112540953Y-100148081D02*
X112064762Y-100148081D01*
X112064762Y-99148081D01*
X112874286Y-99624271D02*
X113207620Y-99624271D01*
X113350477Y-100148081D02*
X112874286Y-100148081D01*
X112874286Y-99148081D01*
X113350477Y-99148081D01*
X113779048Y-100148081D02*
X113779048Y-99148081D01*
X114017143Y-99148081D01*
X114160001Y-99195700D01*
X114255239Y-99290938D01*
X114302858Y-99386176D01*
X114350477Y-99576652D01*
X114350477Y-99719510D01*
X114302858Y-99909986D01*
X114255239Y-100005224D01*
X114160001Y-100100462D01*
X114017143Y-100148081D01*
X113779048Y-100148081D01*
X114921905Y-99576652D02*
X114826667Y-99529033D01*
X114779048Y-99481414D01*
X114731429Y-99386176D01*
X114731429Y-99338557D01*
X114779048Y-99243319D01*
X114826667Y-99195700D01*
X114921905Y-99148081D01*
X115112382Y-99148081D01*
X115207620Y-99195700D01*
X115255239Y-99243319D01*
X115302858Y-99338557D01*
X115302858Y-99386176D01*
X115255239Y-99481414D01*
X115207620Y-99529033D01*
X115112382Y-99576652D01*
X114921905Y-99576652D01*
X114826667Y-99624271D01*
X114779048Y-99671890D01*
X114731429Y-99767129D01*
X114731429Y-99957605D01*
X114779048Y-100052843D01*
X114826667Y-100100462D01*
X114921905Y-100148081D01*
X115112382Y-100148081D01*
X115207620Y-100100462D01*
X115255239Y-100052843D01*
X115302858Y-99957605D01*
X115302858Y-99767129D01*
X115255239Y-99671890D01*
X115207620Y-99624271D01*
X115112382Y-99576652D01*
X116998095Y-101468081D02*
X116998095Y-100468081D01*
X117569524Y-101468081D02*
X117140952Y-100896652D01*
X117569524Y-100468081D02*
X116998095Y-101039510D01*
X112540953Y-104529581D02*
X112064762Y-104529581D01*
X112064762Y-103529581D01*
X112874286Y-104005771D02*
X113207620Y-104005771D01*
X113350477Y-104529581D02*
X112874286Y-104529581D01*
X112874286Y-103529581D01*
X113350477Y-103529581D01*
X113779048Y-104529581D02*
X113779048Y-103529581D01*
X114017143Y-103529581D01*
X114160001Y-103577200D01*
X114255239Y-103672438D01*
X114302858Y-103767676D01*
X114350477Y-103958152D01*
X114350477Y-104101010D01*
X114302858Y-104291486D01*
X114255239Y-104386724D01*
X114160001Y-104481962D01*
X114017143Y-104529581D01*
X113779048Y-104529581D01*
X114826667Y-104529581D02*
X115017143Y-104529581D01*
X115112382Y-104481962D01*
X115160001Y-104434343D01*
X115255239Y-104291486D01*
X115302858Y-104101010D01*
X115302858Y-103720057D01*
X115255239Y-103624819D01*
X115207620Y-103577200D01*
X115112382Y-103529581D01*
X114921905Y-103529581D01*
X114826667Y-103577200D01*
X114779048Y-103624819D01*
X114731429Y-103720057D01*
X114731429Y-103958152D01*
X114779048Y-104053390D01*
X114826667Y-104101010D01*
X114921905Y-104148629D01*
X115112382Y-104148629D01*
X115207620Y-104101010D01*
X115255239Y-104053390D01*
X115302858Y-103958152D01*
X116998095Y-105849581D02*
X116998095Y-104849581D01*
X117569524Y-105849581D02*
X117140952Y-105278152D01*
X117569524Y-104849581D02*
X116998095Y-105421010D01*
X113966667Y-144740381D02*
X113966667Y-145454667D01*
X113919047Y-145597524D01*
X113823809Y-145692762D01*
X113680952Y-145740381D01*
X113585714Y-145740381D01*
X114395238Y-144835619D02*
X114442857Y-144788000D01*
X114538095Y-144740381D01*
X114776191Y-144740381D01*
X114871429Y-144788000D01*
X114919048Y-144835619D01*
X114966667Y-144930857D01*
X114966667Y-145026095D01*
X114919048Y-145168952D01*
X114347619Y-145740381D01*
X114966667Y-145740381D01*
X113966667Y-51649381D02*
X113966667Y-52363667D01*
X113919047Y-52506524D01*
X113823809Y-52601762D01*
X113680952Y-52649381D01*
X113585714Y-52649381D01*
X114966667Y-52649381D02*
X114395238Y-52649381D01*
X114680952Y-52649381D02*
X114680952Y-51649381D01*
X114585714Y-51792238D01*
X114490476Y-51887476D01*
X114395238Y-51935095D01*
M02*
