G04 #@! TF.FileFunction,Legend,Bot*
%FSLAX46Y46*%
G04 Gerber Fmt 4.6, Leading zero omitted, Abs format (unit mm)*
G04 Created by KiCad (PCBNEW 4.0.2+dfsg1-stable) date Sat 24 Feb 2018 03:38:42 PM MST*
%MOMM*%
G01*
G04 APERTURE LIST*
%ADD10C,0.100000*%
%ADD11C,0.150000*%
G04 APERTURE END LIST*
D10*
D11*
X120967500Y-82550000D02*
X121348500Y-82550000D01*
X119951500Y-82550000D02*
X120332500Y-82550000D01*
X120332500Y-82550000D02*
X120967500Y-82931000D01*
X120967500Y-82931000D02*
X120967500Y-82169000D01*
X120967500Y-82169000D02*
X120332500Y-82550000D01*
X120332500Y-83058000D02*
X120332500Y-82042000D01*
X118650000Y-81650000D02*
X122190000Y-81650000D01*
X118650000Y-83450000D02*
X122190000Y-83450000D01*
X120967500Y-87630000D02*
X121348500Y-87630000D01*
X119951500Y-87630000D02*
X120332500Y-87630000D01*
X120332500Y-87630000D02*
X120967500Y-88011000D01*
X120967500Y-88011000D02*
X120967500Y-87249000D01*
X120967500Y-87249000D02*
X120332500Y-87630000D01*
X120332500Y-88138000D02*
X120332500Y-87122000D01*
X118650000Y-86730000D02*
X122190000Y-86730000D01*
X118650000Y-88530000D02*
X122190000Y-88530000D01*
X120967500Y-92710000D02*
X121348500Y-92710000D01*
X119951500Y-92710000D02*
X120332500Y-92710000D01*
X120332500Y-92710000D02*
X120967500Y-93091000D01*
X120967500Y-93091000D02*
X120967500Y-92329000D01*
X120967500Y-92329000D02*
X120332500Y-92710000D01*
X120332500Y-93218000D02*
X120332500Y-92202000D01*
X118650000Y-91810000D02*
X122190000Y-91810000D01*
X118650000Y-93610000D02*
X122190000Y-93610000D01*
X120967500Y-97790000D02*
X121348500Y-97790000D01*
X119951500Y-97790000D02*
X120332500Y-97790000D01*
X120332500Y-97790000D02*
X120967500Y-98171000D01*
X120967500Y-98171000D02*
X120967500Y-97409000D01*
X120967500Y-97409000D02*
X120332500Y-97790000D01*
X120332500Y-98298000D02*
X120332500Y-97282000D01*
X118650000Y-96890000D02*
X122190000Y-96890000D01*
X118650000Y-98690000D02*
X122190000Y-98690000D01*
X121388095Y-85002381D02*
X121388095Y-84002381D01*
X121150000Y-84002381D01*
X121007142Y-84050000D01*
X120911904Y-84145238D01*
X120864285Y-84240476D01*
X120816666Y-84430952D01*
X120816666Y-84573810D01*
X120864285Y-84764286D01*
X120911904Y-84859524D01*
X121007142Y-84954762D01*
X121150000Y-85002381D01*
X121388095Y-85002381D01*
X120435714Y-84097619D02*
X120388095Y-84050000D01*
X120292857Y-84002381D01*
X120054761Y-84002381D01*
X119959523Y-84050000D01*
X119911904Y-84097619D01*
X119864285Y-84192857D01*
X119864285Y-84288095D01*
X119911904Y-84430952D01*
X120483333Y-85002381D01*
X119864285Y-85002381D01*
X121388095Y-90082381D02*
X121388095Y-89082381D01*
X121150000Y-89082381D01*
X121007142Y-89130000D01*
X120911904Y-89225238D01*
X120864285Y-89320476D01*
X120816666Y-89510952D01*
X120816666Y-89653810D01*
X120864285Y-89844286D01*
X120911904Y-89939524D01*
X121007142Y-90034762D01*
X121150000Y-90082381D01*
X121388095Y-90082381D01*
X119959523Y-89415714D02*
X119959523Y-90082381D01*
X120197619Y-89034762D02*
X120435714Y-89749048D01*
X119816666Y-89749048D01*
X121388095Y-95162381D02*
X121388095Y-94162381D01*
X121150000Y-94162381D01*
X121007142Y-94210000D01*
X120911904Y-94305238D01*
X120864285Y-94400476D01*
X120816666Y-94590952D01*
X120816666Y-94733810D01*
X120864285Y-94924286D01*
X120911904Y-95019524D01*
X121007142Y-95114762D01*
X121150000Y-95162381D01*
X121388095Y-95162381D01*
X119959523Y-94162381D02*
X120150000Y-94162381D01*
X120245238Y-94210000D01*
X120292857Y-94257619D01*
X120388095Y-94400476D01*
X120435714Y-94590952D01*
X120435714Y-94971905D01*
X120388095Y-95067143D01*
X120340476Y-95114762D01*
X120245238Y-95162381D01*
X120054761Y-95162381D01*
X119959523Y-95114762D01*
X119911904Y-95067143D01*
X119864285Y-94971905D01*
X119864285Y-94733810D01*
X119911904Y-94638571D01*
X119959523Y-94590952D01*
X120054761Y-94543333D01*
X120245238Y-94543333D01*
X120340476Y-94590952D01*
X120388095Y-94638571D01*
X120435714Y-94733810D01*
X121388095Y-100242381D02*
X121388095Y-99242381D01*
X121150000Y-99242381D01*
X121007142Y-99290000D01*
X120911904Y-99385238D01*
X120864285Y-99480476D01*
X120816666Y-99670952D01*
X120816666Y-99813810D01*
X120864285Y-100004286D01*
X120911904Y-100099524D01*
X121007142Y-100194762D01*
X121150000Y-100242381D01*
X121388095Y-100242381D01*
X120245238Y-99670952D02*
X120340476Y-99623333D01*
X120388095Y-99575714D01*
X120435714Y-99480476D01*
X120435714Y-99432857D01*
X120388095Y-99337619D01*
X120340476Y-99290000D01*
X120245238Y-99242381D01*
X120054761Y-99242381D01*
X119959523Y-99290000D01*
X119911904Y-99337619D01*
X119864285Y-99432857D01*
X119864285Y-99480476D01*
X119911904Y-99575714D01*
X119959523Y-99623333D01*
X120054761Y-99670952D01*
X120245238Y-99670952D01*
X120340476Y-99718571D01*
X120388095Y-99766190D01*
X120435714Y-99861429D01*
X120435714Y-100051905D01*
X120388095Y-100147143D01*
X120340476Y-100194762D01*
X120245238Y-100242381D01*
X120054761Y-100242381D01*
X119959523Y-100194762D01*
X119911904Y-100147143D01*
X119864285Y-100051905D01*
X119864285Y-99861429D01*
X119911904Y-99766190D01*
X119959523Y-99718571D01*
X120054761Y-99670952D01*
M02*
