G04 #@! TF.FileFunction,Soldermask,Top*
%FSLAX46Y46*%
G04 Gerber Fmt 4.6, Leading zero omitted, Abs format (unit mm)*
G04 Created by KiCad (PCBNEW 4.0.2+dfsg1-stable) date Sat 24 Feb 2018 03:38:42 PM MST*
%MOMM*%
G01*
G04 APERTURE LIST*
%ADD10C,0.100000*%
%ADD11O,1.797000X2.940000*%
%ADD12C,4.049980*%
%ADD13R,1.901140X1.901140*%
%ADD14C,1.901140*%
%ADD15R,1.310000X1.620000*%
%ADD16C,1.924000*%
%ADD17R,2.400000X2.400000*%
%ADD18C,2.400000*%
G04 APERTURE END LIST*
D10*
D11*
X121920000Y-52832000D03*
D12*
X108361480Y-55880000D03*
X120230900Y-55880000D03*
D13*
X118745000Y-62230000D03*
D14*
X117475000Y-64770000D03*
X116205000Y-62230000D03*
X114935000Y-64770000D03*
X113665000Y-62230000D03*
X112395000Y-64770000D03*
X111125000Y-62230000D03*
X109855000Y-64770000D03*
D11*
X106680000Y-52832000D03*
D15*
X119015000Y-69850000D03*
X122285000Y-69850000D03*
X119015000Y-82550000D03*
X122285000Y-82550000D03*
X119015000Y-87630000D03*
X122285000Y-87630000D03*
X119015000Y-92710000D03*
X122285000Y-92710000D03*
X119015000Y-97790000D03*
X122285000Y-97790000D03*
D16*
X114919000Y-135890000D03*
X112379000Y-135890000D03*
X117459000Y-135890000D03*
X111109000Y-133350000D03*
X113649000Y-133350000D03*
X116189000Y-133350000D03*
D11*
X121158000Y-145288000D03*
X107442000Y-145288000D03*
D12*
X119380000Y-142240000D03*
X109220000Y-142240000D03*
D17*
X115570000Y-72085200D03*
D18*
X113030000Y-72085200D03*
D17*
X115570000Y-76466700D03*
D18*
X113030000Y-76466700D03*
D17*
X115570000Y-80848200D03*
D18*
X113030000Y-80848200D03*
D17*
X115570000Y-85229700D03*
D18*
X113030000Y-85229700D03*
D17*
X115570000Y-89611200D03*
D18*
X113030000Y-89611200D03*
D17*
X115570000Y-93992700D03*
D18*
X113030000Y-93992700D03*
D17*
X115570000Y-98374200D03*
D18*
X113030000Y-98374200D03*
D17*
X115570000Y-102755700D03*
D18*
X113030000Y-102755700D03*
D17*
X115570000Y-107137200D03*
D18*
X113030000Y-107137200D03*
M02*
