G04 #@! TF.FileFunction,Copper,L2,Bot,Signal*
%FSLAX46Y46*%
G04 Gerber Fmt 4.6, Leading zero omitted, Abs format (unit mm)*
G04 Created by KiCad (PCBNEW 4.0.2+dfsg1-stable) date Sat 24 Feb 2018 03:38:42 PM MST*
%MOMM*%
G01*
G04 APERTURE LIST*
%ADD10C,0.100000*%
%ADD11O,1.397000X2.540000*%
%ADD12C,3.649980*%
%ADD13R,1.501140X1.501140*%
%ADD14C,1.501140*%
%ADD15R,0.910000X1.220000*%
%ADD16C,1.524000*%
%ADD17R,2.000000X2.000000*%
%ADD18C,2.000000*%
%ADD19C,0.250000*%
%ADD20C,0.500000*%
%ADD21C,0.254000*%
G04 APERTURE END LIST*
D10*
D11*
X121920000Y-52832000D03*
D12*
X108361480Y-55880000D03*
X120230900Y-55880000D03*
D13*
X118745000Y-62230000D03*
D14*
X117475000Y-64770000D03*
X116205000Y-62230000D03*
X114935000Y-64770000D03*
X113665000Y-62230000D03*
X112395000Y-64770000D03*
X111125000Y-62230000D03*
X109855000Y-64770000D03*
D11*
X106680000Y-52832000D03*
D15*
X119015000Y-82550000D03*
X122285000Y-82550000D03*
X119015000Y-87630000D03*
X122285000Y-87630000D03*
X119015000Y-92710000D03*
X122285000Y-92710000D03*
X119015000Y-97790000D03*
X122285000Y-97790000D03*
D16*
X114919000Y-135890000D03*
X112379000Y-135890000D03*
X117459000Y-135890000D03*
X111109000Y-133350000D03*
X113649000Y-133350000D03*
X116189000Y-133350000D03*
D11*
X121158000Y-145288000D03*
X107442000Y-145288000D03*
D12*
X119380000Y-142240000D03*
X109220000Y-142240000D03*
D17*
X115570000Y-72085200D03*
D18*
X113030000Y-72085200D03*
D17*
X115570000Y-76466700D03*
D18*
X113030000Y-76466700D03*
D17*
X115570000Y-80848200D03*
D18*
X113030000Y-80848200D03*
D17*
X115570000Y-85229700D03*
D18*
X113030000Y-85229700D03*
D17*
X115570000Y-89611200D03*
D18*
X113030000Y-89611200D03*
D17*
X115570000Y-93992700D03*
D18*
X113030000Y-93992700D03*
D17*
X115570000Y-98374200D03*
D18*
X113030000Y-98374200D03*
D17*
X115570000Y-102755700D03*
D18*
X113030000Y-102755700D03*
D17*
X115570000Y-107137200D03*
D18*
X113030000Y-107137200D03*
D19*
X120256300Y-102755700D02*
X122285000Y-100727000D01*
X122285000Y-100727000D02*
X122285000Y-97790000D01*
X115570000Y-102755700D02*
X120256300Y-102755700D01*
X115570000Y-93992700D02*
X116820000Y-93992700D01*
X116820000Y-93992700D02*
X117315300Y-94488000D01*
X117315300Y-94488000D02*
X122285000Y-94488000D01*
X122285000Y-87630000D02*
X122285000Y-85344000D01*
X122285000Y-85344000D02*
X122285000Y-82550000D01*
X115570000Y-85229700D02*
X122170700Y-85229700D01*
X122170700Y-85229700D02*
X122285000Y-85344000D01*
X122285000Y-92710000D02*
X122285000Y-97790000D01*
X122285000Y-87630000D02*
X122285000Y-88490000D01*
X122285000Y-88490000D02*
X122285000Y-92710000D01*
X122936000Y-82550000D02*
X122285000Y-82550000D01*
X124460000Y-81026000D02*
X122936000Y-82550000D01*
X124460000Y-73660000D02*
X124460000Y-81026000D01*
X122936000Y-72136000D02*
X124460000Y-73660000D01*
X118650700Y-72136000D02*
X122936000Y-72136000D01*
X115570000Y-76466700D02*
X115570000Y-75216700D01*
X115570000Y-75216700D02*
X118650700Y-72136000D01*
X117475000Y-64770000D02*
X117475000Y-66421000D01*
X117475000Y-66421000D02*
X114046000Y-69850000D01*
X111252000Y-70866000D02*
X111252000Y-73152000D01*
X114046000Y-69850000D02*
X112268000Y-69850000D01*
X112268000Y-69850000D02*
X111252000Y-70866000D01*
X111252000Y-73152000D02*
X113030000Y-74930000D01*
X113030000Y-74930000D02*
X113030000Y-76466700D01*
X113030000Y-76466700D02*
X113030000Y-78232000D01*
X113030000Y-78232000D02*
X113284000Y-78486000D01*
X113284000Y-78486000D02*
X116840000Y-78486000D01*
X116840000Y-78486000D02*
X119015000Y-80661000D01*
X119015000Y-80661000D02*
X119015000Y-82550000D01*
X116205000Y-62230000D02*
X116205000Y-66421000D01*
X116205000Y-66421000D02*
X113284000Y-69342000D01*
X113284000Y-69342000D02*
X105664000Y-69342000D01*
X104648000Y-79756000D02*
X105740200Y-80848200D01*
X105664000Y-69342000D02*
X104648000Y-70358000D01*
X104648000Y-70358000D02*
X104648000Y-79756000D01*
X105740200Y-80848200D02*
X113030000Y-80848200D01*
X114935000Y-64770000D02*
X114935000Y-66421000D01*
X114935000Y-66421000D02*
X112522000Y-68834000D01*
X105410000Y-68834000D02*
X104140000Y-70104000D01*
X105295700Y-85229700D02*
X113030000Y-85229700D01*
X112522000Y-68834000D02*
X105410000Y-68834000D01*
X104140000Y-70104000D02*
X104140000Y-84074000D01*
X104140000Y-84074000D02*
X105295700Y-85229700D01*
X113030000Y-85229700D02*
X113030000Y-86643913D01*
X113030000Y-86643913D02*
X114016087Y-87630000D01*
X114016087Y-87630000D02*
X118310000Y-87630000D01*
X118310000Y-87630000D02*
X119015000Y-87630000D01*
X113665000Y-62230000D02*
X113665000Y-66421000D01*
X113665000Y-66421000D02*
X111760000Y-68326000D01*
X111760000Y-68326000D02*
X105156000Y-68326000D01*
X105156000Y-68326000D02*
X103632000Y-69850000D01*
X103632000Y-69850000D02*
X103632000Y-88392000D01*
X103632000Y-88392000D02*
X104851200Y-89611200D01*
X104851200Y-89611200D02*
X113030000Y-89611200D01*
X113030000Y-93992700D02*
X104406700Y-93992700D01*
X104406700Y-93992700D02*
X103124000Y-92710000D01*
X103124000Y-92710000D02*
X103124000Y-69596000D01*
X104902000Y-67818000D02*
X110998000Y-67818000D01*
X103124000Y-69596000D02*
X104902000Y-67818000D01*
X110998000Y-67818000D02*
X112395000Y-66421000D01*
X112395000Y-66421000D02*
X112395000Y-64770000D01*
X117348000Y-91948000D02*
X118110000Y-92710000D01*
X118110000Y-92710000D02*
X119015000Y-92710000D01*
X113660487Y-91948000D02*
X117348000Y-91948000D01*
X113030000Y-93992700D02*
X113030000Y-92578487D01*
X113030000Y-92578487D02*
X113660487Y-91948000D01*
X111125000Y-62230000D02*
X111125000Y-66421000D01*
X111125000Y-66421000D02*
X110236000Y-67310000D01*
X110236000Y-67310000D02*
X104648000Y-67310000D01*
X104648000Y-67310000D02*
X102616000Y-69342000D01*
X102616000Y-69342000D02*
X102616000Y-97028000D01*
X102616000Y-97028000D02*
X103962200Y-98374200D01*
X103962200Y-98374200D02*
X113030000Y-98374200D01*
X109855000Y-64770000D02*
X109855000Y-66421000D01*
X109474000Y-66802000D02*
X104394000Y-66802000D01*
X109855000Y-66421000D02*
X109474000Y-66802000D01*
X104394000Y-66802000D02*
X102108000Y-69088000D01*
X102108000Y-69088000D02*
X102108000Y-101600000D01*
X102108000Y-101600000D02*
X103263700Y-102755700D01*
X103263700Y-102755700D02*
X113030000Y-102755700D01*
X113030000Y-102755700D02*
X113030000Y-101346000D01*
X113030000Y-101346000D02*
X113792000Y-100584000D01*
X113792000Y-100584000D02*
X118110000Y-100584000D01*
X118110000Y-100584000D02*
X119015000Y-99679000D01*
X119015000Y-99679000D02*
X119015000Y-97790000D01*
D20*
X121920000Y-52832000D02*
X106680000Y-52832000D01*
X126492000Y-144272000D02*
X126492000Y-109220000D01*
X126492000Y-109220000D02*
X126492000Y-108204000D01*
D19*
X125476000Y-109220000D02*
X126492000Y-109220000D01*
D20*
X125476000Y-145288000D02*
X126492000Y-144272000D01*
X121158000Y-145288000D02*
X125476000Y-145288000D01*
X107442000Y-145288000D02*
X121158000Y-145288000D01*
D19*
X113538000Y-109220000D02*
X113030000Y-108712000D01*
X113030000Y-108712000D02*
X113030000Y-107137200D01*
X125476000Y-109220000D02*
X113538000Y-109220000D01*
D20*
X126492000Y-53848000D02*
X126492000Y-108204000D01*
X125476000Y-52832000D02*
X126492000Y-53848000D01*
X121920000Y-52832000D02*
X125476000Y-52832000D01*
D21*
G36*
X125607000Y-70168239D02*
X125607000Y-107631761D01*
X124571702Y-108460000D01*
X117123611Y-108460000D01*
X117205000Y-108263509D01*
X117205000Y-107422950D01*
X117046250Y-107264200D01*
X115697000Y-107264200D01*
X115697000Y-107284200D01*
X115443000Y-107284200D01*
X115443000Y-107264200D01*
X115423000Y-107264200D01*
X115423000Y-107010200D01*
X115443000Y-107010200D01*
X115443000Y-105660950D01*
X115697000Y-105660950D01*
X115697000Y-107010200D01*
X117046250Y-107010200D01*
X117205000Y-106851450D01*
X117205000Y-106010891D01*
X117108327Y-105777502D01*
X116929699Y-105598873D01*
X116696310Y-105502200D01*
X115855750Y-105502200D01*
X115697000Y-105660950D01*
X115443000Y-105660950D01*
X115284250Y-105502200D01*
X114443690Y-105502200D01*
X114427000Y-105509113D01*
X114427000Y-104383787D01*
X114443690Y-104390700D01*
X115284250Y-104390700D01*
X115443000Y-104231950D01*
X115443000Y-102882700D01*
X115697000Y-102882700D01*
X115697000Y-104231950D01*
X115855750Y-104390700D01*
X116696310Y-104390700D01*
X116929699Y-104294027D01*
X117108327Y-104115398D01*
X117205000Y-103882009D01*
X117205000Y-103041450D01*
X117046250Y-102882700D01*
X115697000Y-102882700D01*
X115443000Y-102882700D01*
X115423000Y-102882700D01*
X115423000Y-102628700D01*
X115443000Y-102628700D01*
X115443000Y-102608700D01*
X115697000Y-102608700D01*
X115697000Y-102628700D01*
X117046250Y-102628700D01*
X117205000Y-102469950D01*
X117205000Y-101629391D01*
X117108327Y-101396002D01*
X117056325Y-101344000D01*
X118110000Y-101344000D01*
X118400839Y-101286148D01*
X118647401Y-101121401D01*
X119552401Y-100216401D01*
X119717148Y-99969840D01*
X119775000Y-99679000D01*
X119775000Y-98958322D01*
X119921441Y-98864090D01*
X120066431Y-98651890D01*
X120117440Y-98400000D01*
X120117440Y-98075750D01*
X121195000Y-98075750D01*
X121195000Y-98526310D01*
X121291673Y-98759699D01*
X121470302Y-98938327D01*
X121703691Y-99035000D01*
X121999250Y-99035000D01*
X122158000Y-98876250D01*
X122158000Y-97917000D01*
X122412000Y-97917000D01*
X122412000Y-98876250D01*
X122570750Y-99035000D01*
X122866309Y-99035000D01*
X123099698Y-98938327D01*
X123278327Y-98759699D01*
X123375000Y-98526310D01*
X123375000Y-98075750D01*
X123216250Y-97917000D01*
X122412000Y-97917000D01*
X122158000Y-97917000D01*
X121353750Y-97917000D01*
X121195000Y-98075750D01*
X120117440Y-98075750D01*
X120117440Y-97180000D01*
X120093674Y-97053690D01*
X121195000Y-97053690D01*
X121195000Y-97504250D01*
X121353750Y-97663000D01*
X122158000Y-97663000D01*
X122158000Y-96703750D01*
X122412000Y-96703750D01*
X122412000Y-97663000D01*
X123216250Y-97663000D01*
X123375000Y-97504250D01*
X123375000Y-97053690D01*
X123278327Y-96820301D01*
X123099698Y-96641673D01*
X122866309Y-96545000D01*
X122570750Y-96545000D01*
X122412000Y-96703750D01*
X122158000Y-96703750D01*
X121999250Y-96545000D01*
X121703691Y-96545000D01*
X121470302Y-96641673D01*
X121291673Y-96820301D01*
X121195000Y-97053690D01*
X120093674Y-97053690D01*
X120073162Y-96944683D01*
X119934090Y-96728559D01*
X119721890Y-96583569D01*
X119470000Y-96532560D01*
X118560000Y-96532560D01*
X118324683Y-96576838D01*
X118108559Y-96715910D01*
X117963569Y-96928110D01*
X117912560Y-97180000D01*
X117912560Y-98400000D01*
X117956838Y-98635317D01*
X118095910Y-98851441D01*
X118255000Y-98960143D01*
X118255000Y-99364198D01*
X117795198Y-99824000D01*
X117018226Y-99824000D01*
X117108327Y-99733898D01*
X117205000Y-99500509D01*
X117205000Y-98659950D01*
X117046250Y-98501200D01*
X115697000Y-98501200D01*
X115697000Y-98521200D01*
X115443000Y-98521200D01*
X115443000Y-98501200D01*
X115423000Y-98501200D01*
X115423000Y-98247200D01*
X115443000Y-98247200D01*
X115443000Y-96897950D01*
X115697000Y-96897950D01*
X115697000Y-98247200D01*
X117046250Y-98247200D01*
X117205000Y-98088450D01*
X117205000Y-97247891D01*
X117108327Y-97014502D01*
X116929699Y-96835873D01*
X116696310Y-96739200D01*
X115855750Y-96739200D01*
X115697000Y-96897950D01*
X115443000Y-96897950D01*
X115284250Y-96739200D01*
X114443690Y-96739200D01*
X114427000Y-96746113D01*
X114427000Y-95620787D01*
X114443690Y-95627700D01*
X115284250Y-95627700D01*
X115443000Y-95468950D01*
X115443000Y-94119700D01*
X115697000Y-94119700D01*
X115697000Y-95468950D01*
X115855750Y-95627700D01*
X116696310Y-95627700D01*
X116929699Y-95531027D01*
X117108327Y-95352398D01*
X117205000Y-95119009D01*
X117205000Y-94278450D01*
X117046250Y-94119700D01*
X115697000Y-94119700D01*
X115443000Y-94119700D01*
X115423000Y-94119700D01*
X115423000Y-93865700D01*
X115443000Y-93865700D01*
X115443000Y-93845700D01*
X115697000Y-93845700D01*
X115697000Y-93865700D01*
X117046250Y-93865700D01*
X117205000Y-93706950D01*
X117205000Y-92879802D01*
X117572599Y-93247401D01*
X117819161Y-93412148D01*
X117934205Y-93435032D01*
X117956838Y-93555317D01*
X118095910Y-93771441D01*
X118308110Y-93916431D01*
X118560000Y-93967440D01*
X119470000Y-93967440D01*
X119705317Y-93923162D01*
X119921441Y-93784090D01*
X120066431Y-93571890D01*
X120117440Y-93320000D01*
X120117440Y-92995750D01*
X121195000Y-92995750D01*
X121195000Y-93446310D01*
X121291673Y-93679699D01*
X121470302Y-93858327D01*
X121703691Y-93955000D01*
X121999250Y-93955000D01*
X122158000Y-93796250D01*
X122158000Y-92837000D01*
X122412000Y-92837000D01*
X122412000Y-93796250D01*
X122570750Y-93955000D01*
X122866309Y-93955000D01*
X123099698Y-93858327D01*
X123278327Y-93679699D01*
X123375000Y-93446310D01*
X123375000Y-92995750D01*
X123216250Y-92837000D01*
X122412000Y-92837000D01*
X122158000Y-92837000D01*
X121353750Y-92837000D01*
X121195000Y-92995750D01*
X120117440Y-92995750D01*
X120117440Y-92100000D01*
X120093674Y-91973690D01*
X121195000Y-91973690D01*
X121195000Y-92424250D01*
X121353750Y-92583000D01*
X122158000Y-92583000D01*
X122158000Y-91623750D01*
X122412000Y-91623750D01*
X122412000Y-92583000D01*
X123216250Y-92583000D01*
X123375000Y-92424250D01*
X123375000Y-91973690D01*
X123278327Y-91740301D01*
X123099698Y-91561673D01*
X122866309Y-91465000D01*
X122570750Y-91465000D01*
X122412000Y-91623750D01*
X122158000Y-91623750D01*
X121999250Y-91465000D01*
X121703691Y-91465000D01*
X121470302Y-91561673D01*
X121291673Y-91740301D01*
X121195000Y-91973690D01*
X120093674Y-91973690D01*
X120073162Y-91864683D01*
X119934090Y-91648559D01*
X119721890Y-91503569D01*
X119470000Y-91452560D01*
X118560000Y-91452560D01*
X118324683Y-91496838D01*
X118109869Y-91635067D01*
X117885401Y-91410599D01*
X117638839Y-91245852D01*
X117348000Y-91188000D01*
X116836817Y-91188000D01*
X116929699Y-91149527D01*
X117108327Y-90970898D01*
X117205000Y-90737509D01*
X117205000Y-89896950D01*
X117046250Y-89738200D01*
X115697000Y-89738200D01*
X115697000Y-89758200D01*
X115443000Y-89758200D01*
X115443000Y-89738200D01*
X115423000Y-89738200D01*
X115423000Y-89484200D01*
X115443000Y-89484200D01*
X115443000Y-89464200D01*
X115697000Y-89464200D01*
X115697000Y-89484200D01*
X117046250Y-89484200D01*
X117205000Y-89325450D01*
X117205000Y-88484891D01*
X117165695Y-88390000D01*
X117940784Y-88390000D01*
X117956838Y-88475317D01*
X118095910Y-88691441D01*
X118308110Y-88836431D01*
X118560000Y-88887440D01*
X119470000Y-88887440D01*
X119705317Y-88843162D01*
X119921441Y-88704090D01*
X120066431Y-88491890D01*
X120117440Y-88240000D01*
X120117440Y-87915750D01*
X121195000Y-87915750D01*
X121195000Y-88366310D01*
X121291673Y-88599699D01*
X121470302Y-88778327D01*
X121703691Y-88875000D01*
X121999250Y-88875000D01*
X122158000Y-88716250D01*
X122158000Y-87757000D01*
X122412000Y-87757000D01*
X122412000Y-88716250D01*
X122570750Y-88875000D01*
X122866309Y-88875000D01*
X123099698Y-88778327D01*
X123278327Y-88599699D01*
X123375000Y-88366310D01*
X123375000Y-87915750D01*
X123216250Y-87757000D01*
X122412000Y-87757000D01*
X122158000Y-87757000D01*
X121353750Y-87757000D01*
X121195000Y-87915750D01*
X120117440Y-87915750D01*
X120117440Y-87020000D01*
X120093674Y-86893690D01*
X121195000Y-86893690D01*
X121195000Y-87344250D01*
X121353750Y-87503000D01*
X122158000Y-87503000D01*
X122158000Y-86543750D01*
X122412000Y-86543750D01*
X122412000Y-87503000D01*
X123216250Y-87503000D01*
X123375000Y-87344250D01*
X123375000Y-86893690D01*
X123278327Y-86660301D01*
X123099698Y-86481673D01*
X122866309Y-86385000D01*
X122570750Y-86385000D01*
X122412000Y-86543750D01*
X122158000Y-86543750D01*
X121999250Y-86385000D01*
X121703691Y-86385000D01*
X121470302Y-86481673D01*
X121291673Y-86660301D01*
X121195000Y-86893690D01*
X120093674Y-86893690D01*
X120073162Y-86784683D01*
X119934090Y-86568559D01*
X119721890Y-86423569D01*
X119470000Y-86372560D01*
X118560000Y-86372560D01*
X118324683Y-86416838D01*
X118108559Y-86555910D01*
X117963569Y-86768110D01*
X117942936Y-86870000D01*
X114427000Y-86870000D01*
X114427000Y-86857787D01*
X114443690Y-86864700D01*
X115284250Y-86864700D01*
X115443000Y-86705950D01*
X115443000Y-85356700D01*
X115697000Y-85356700D01*
X115697000Y-86705950D01*
X115855750Y-86864700D01*
X116696310Y-86864700D01*
X116929699Y-86768027D01*
X117108327Y-86589398D01*
X117205000Y-86356009D01*
X117205000Y-85515450D01*
X117046250Y-85356700D01*
X115697000Y-85356700D01*
X115443000Y-85356700D01*
X115423000Y-85356700D01*
X115423000Y-85102700D01*
X115443000Y-85102700D01*
X115443000Y-83753450D01*
X115697000Y-83753450D01*
X115697000Y-85102700D01*
X117046250Y-85102700D01*
X117205000Y-84943950D01*
X117205000Y-84103391D01*
X117108327Y-83870002D01*
X116929699Y-83691373D01*
X116696310Y-83594700D01*
X115855750Y-83594700D01*
X115697000Y-83753450D01*
X115443000Y-83753450D01*
X115284250Y-83594700D01*
X114443690Y-83594700D01*
X114427000Y-83601613D01*
X114427000Y-82476287D01*
X114443690Y-82483200D01*
X115284250Y-82483200D01*
X115443000Y-82324450D01*
X115443000Y-80975200D01*
X115697000Y-80975200D01*
X115697000Y-82324450D01*
X115855750Y-82483200D01*
X116696310Y-82483200D01*
X116929699Y-82386527D01*
X117108327Y-82207898D01*
X117205000Y-81974509D01*
X117205000Y-81133950D01*
X117046250Y-80975200D01*
X115697000Y-80975200D01*
X115443000Y-80975200D01*
X115423000Y-80975200D01*
X115423000Y-80721200D01*
X115443000Y-80721200D01*
X115443000Y-80701200D01*
X115697000Y-80701200D01*
X115697000Y-80721200D01*
X117046250Y-80721200D01*
X117205000Y-80562450D01*
X117205000Y-79925802D01*
X118255000Y-80975803D01*
X118255000Y-81381678D01*
X118108559Y-81475910D01*
X117963569Y-81688110D01*
X117912560Y-81940000D01*
X117912560Y-83160000D01*
X117956838Y-83395317D01*
X118095910Y-83611441D01*
X118308110Y-83756431D01*
X118560000Y-83807440D01*
X119470000Y-83807440D01*
X119705317Y-83763162D01*
X119921441Y-83624090D01*
X120066431Y-83411890D01*
X120117440Y-83160000D01*
X120117440Y-82835750D01*
X121195000Y-82835750D01*
X121195000Y-83286310D01*
X121291673Y-83519699D01*
X121470302Y-83698327D01*
X121703691Y-83795000D01*
X121999250Y-83795000D01*
X122158000Y-83636250D01*
X122158000Y-82677000D01*
X122412000Y-82677000D01*
X122412000Y-83636250D01*
X122570750Y-83795000D01*
X122866309Y-83795000D01*
X123099698Y-83698327D01*
X123278327Y-83519699D01*
X123375000Y-83286310D01*
X123375000Y-82835750D01*
X123216250Y-82677000D01*
X122412000Y-82677000D01*
X122158000Y-82677000D01*
X121353750Y-82677000D01*
X121195000Y-82835750D01*
X120117440Y-82835750D01*
X120117440Y-81940000D01*
X120093674Y-81813690D01*
X121195000Y-81813690D01*
X121195000Y-82264250D01*
X121353750Y-82423000D01*
X122158000Y-82423000D01*
X122158000Y-81463750D01*
X122412000Y-81463750D01*
X122412000Y-82423000D01*
X123216250Y-82423000D01*
X123375000Y-82264250D01*
X123375000Y-81813690D01*
X123278327Y-81580301D01*
X123099698Y-81401673D01*
X122866309Y-81305000D01*
X122570750Y-81305000D01*
X122412000Y-81463750D01*
X122158000Y-81463750D01*
X121999250Y-81305000D01*
X121703691Y-81305000D01*
X121470302Y-81401673D01*
X121291673Y-81580301D01*
X121195000Y-81813690D01*
X120093674Y-81813690D01*
X120073162Y-81704683D01*
X119934090Y-81488559D01*
X119775000Y-81379857D01*
X119775000Y-80661000D01*
X119717148Y-80370161D01*
X119662480Y-80288345D01*
X119552401Y-80123598D01*
X117377401Y-77948599D01*
X117130839Y-77783852D01*
X117126322Y-77782954D01*
X117205000Y-77593009D01*
X117205000Y-77206190D01*
X117423063Y-77733943D01*
X118374448Y-78686990D01*
X119618128Y-79203411D01*
X120964764Y-79204586D01*
X122209343Y-78690337D01*
X123162390Y-77738952D01*
X123678811Y-76495272D01*
X123679986Y-75148636D01*
X123165737Y-73904057D01*
X122214352Y-72951010D01*
X120970672Y-72434589D01*
X119624036Y-72433414D01*
X118379457Y-72947663D01*
X117426410Y-73899048D01*
X116978665Y-74977339D01*
X116929699Y-74928373D01*
X116696310Y-74831700D01*
X115855750Y-74831700D01*
X115697000Y-74990450D01*
X115697000Y-76339700D01*
X115717000Y-76339700D01*
X115717000Y-76593700D01*
X115697000Y-76593700D01*
X115697000Y-76613700D01*
X115443000Y-76613700D01*
X115443000Y-76593700D01*
X115423000Y-76593700D01*
X115423000Y-76339700D01*
X115443000Y-76339700D01*
X115443000Y-74990450D01*
X115284250Y-74831700D01*
X114443690Y-74831700D01*
X114427000Y-74838613D01*
X114427000Y-73713287D01*
X114443690Y-73720200D01*
X115284250Y-73720200D01*
X115443000Y-73561450D01*
X115443000Y-72212200D01*
X115697000Y-72212200D01*
X115697000Y-73561450D01*
X115855750Y-73720200D01*
X116696310Y-73720200D01*
X116929699Y-73623527D01*
X117108327Y-73444898D01*
X117205000Y-73211509D01*
X117205000Y-72370950D01*
X117046250Y-72212200D01*
X115697000Y-72212200D01*
X115443000Y-72212200D01*
X115423000Y-72212200D01*
X115423000Y-71958200D01*
X115443000Y-71958200D01*
X115443000Y-70608950D01*
X115697000Y-70608950D01*
X115697000Y-71958200D01*
X117046250Y-71958200D01*
X117205000Y-71799450D01*
X117205000Y-70958891D01*
X117108327Y-70725502D01*
X116929699Y-70546873D01*
X116696310Y-70450200D01*
X115855750Y-70450200D01*
X115697000Y-70608950D01*
X115443000Y-70608950D01*
X115309272Y-70475222D01*
X116884549Y-69215000D01*
X124415451Y-69215000D01*
X125607000Y-70168239D01*
X125607000Y-70168239D01*
G37*
X125607000Y-70168239D02*
X125607000Y-107631761D01*
X124571702Y-108460000D01*
X117123611Y-108460000D01*
X117205000Y-108263509D01*
X117205000Y-107422950D01*
X117046250Y-107264200D01*
X115697000Y-107264200D01*
X115697000Y-107284200D01*
X115443000Y-107284200D01*
X115443000Y-107264200D01*
X115423000Y-107264200D01*
X115423000Y-107010200D01*
X115443000Y-107010200D01*
X115443000Y-105660950D01*
X115697000Y-105660950D01*
X115697000Y-107010200D01*
X117046250Y-107010200D01*
X117205000Y-106851450D01*
X117205000Y-106010891D01*
X117108327Y-105777502D01*
X116929699Y-105598873D01*
X116696310Y-105502200D01*
X115855750Y-105502200D01*
X115697000Y-105660950D01*
X115443000Y-105660950D01*
X115284250Y-105502200D01*
X114443690Y-105502200D01*
X114427000Y-105509113D01*
X114427000Y-104383787D01*
X114443690Y-104390700D01*
X115284250Y-104390700D01*
X115443000Y-104231950D01*
X115443000Y-102882700D01*
X115697000Y-102882700D01*
X115697000Y-104231950D01*
X115855750Y-104390700D01*
X116696310Y-104390700D01*
X116929699Y-104294027D01*
X117108327Y-104115398D01*
X117205000Y-103882009D01*
X117205000Y-103041450D01*
X117046250Y-102882700D01*
X115697000Y-102882700D01*
X115443000Y-102882700D01*
X115423000Y-102882700D01*
X115423000Y-102628700D01*
X115443000Y-102628700D01*
X115443000Y-102608700D01*
X115697000Y-102608700D01*
X115697000Y-102628700D01*
X117046250Y-102628700D01*
X117205000Y-102469950D01*
X117205000Y-101629391D01*
X117108327Y-101396002D01*
X117056325Y-101344000D01*
X118110000Y-101344000D01*
X118400839Y-101286148D01*
X118647401Y-101121401D01*
X119552401Y-100216401D01*
X119717148Y-99969840D01*
X119775000Y-99679000D01*
X119775000Y-98958322D01*
X119921441Y-98864090D01*
X120066431Y-98651890D01*
X120117440Y-98400000D01*
X120117440Y-98075750D01*
X121195000Y-98075750D01*
X121195000Y-98526310D01*
X121291673Y-98759699D01*
X121470302Y-98938327D01*
X121703691Y-99035000D01*
X121999250Y-99035000D01*
X122158000Y-98876250D01*
X122158000Y-97917000D01*
X122412000Y-97917000D01*
X122412000Y-98876250D01*
X122570750Y-99035000D01*
X122866309Y-99035000D01*
X123099698Y-98938327D01*
X123278327Y-98759699D01*
X123375000Y-98526310D01*
X123375000Y-98075750D01*
X123216250Y-97917000D01*
X122412000Y-97917000D01*
X122158000Y-97917000D01*
X121353750Y-97917000D01*
X121195000Y-98075750D01*
X120117440Y-98075750D01*
X120117440Y-97180000D01*
X120093674Y-97053690D01*
X121195000Y-97053690D01*
X121195000Y-97504250D01*
X121353750Y-97663000D01*
X122158000Y-97663000D01*
X122158000Y-96703750D01*
X122412000Y-96703750D01*
X122412000Y-97663000D01*
X123216250Y-97663000D01*
X123375000Y-97504250D01*
X123375000Y-97053690D01*
X123278327Y-96820301D01*
X123099698Y-96641673D01*
X122866309Y-96545000D01*
X122570750Y-96545000D01*
X122412000Y-96703750D01*
X122158000Y-96703750D01*
X121999250Y-96545000D01*
X121703691Y-96545000D01*
X121470302Y-96641673D01*
X121291673Y-96820301D01*
X121195000Y-97053690D01*
X120093674Y-97053690D01*
X120073162Y-96944683D01*
X119934090Y-96728559D01*
X119721890Y-96583569D01*
X119470000Y-96532560D01*
X118560000Y-96532560D01*
X118324683Y-96576838D01*
X118108559Y-96715910D01*
X117963569Y-96928110D01*
X117912560Y-97180000D01*
X117912560Y-98400000D01*
X117956838Y-98635317D01*
X118095910Y-98851441D01*
X118255000Y-98960143D01*
X118255000Y-99364198D01*
X117795198Y-99824000D01*
X117018226Y-99824000D01*
X117108327Y-99733898D01*
X117205000Y-99500509D01*
X117205000Y-98659950D01*
X117046250Y-98501200D01*
X115697000Y-98501200D01*
X115697000Y-98521200D01*
X115443000Y-98521200D01*
X115443000Y-98501200D01*
X115423000Y-98501200D01*
X115423000Y-98247200D01*
X115443000Y-98247200D01*
X115443000Y-96897950D01*
X115697000Y-96897950D01*
X115697000Y-98247200D01*
X117046250Y-98247200D01*
X117205000Y-98088450D01*
X117205000Y-97247891D01*
X117108327Y-97014502D01*
X116929699Y-96835873D01*
X116696310Y-96739200D01*
X115855750Y-96739200D01*
X115697000Y-96897950D01*
X115443000Y-96897950D01*
X115284250Y-96739200D01*
X114443690Y-96739200D01*
X114427000Y-96746113D01*
X114427000Y-95620787D01*
X114443690Y-95627700D01*
X115284250Y-95627700D01*
X115443000Y-95468950D01*
X115443000Y-94119700D01*
X115697000Y-94119700D01*
X115697000Y-95468950D01*
X115855750Y-95627700D01*
X116696310Y-95627700D01*
X116929699Y-95531027D01*
X117108327Y-95352398D01*
X117205000Y-95119009D01*
X117205000Y-94278450D01*
X117046250Y-94119700D01*
X115697000Y-94119700D01*
X115443000Y-94119700D01*
X115423000Y-94119700D01*
X115423000Y-93865700D01*
X115443000Y-93865700D01*
X115443000Y-93845700D01*
X115697000Y-93845700D01*
X115697000Y-93865700D01*
X117046250Y-93865700D01*
X117205000Y-93706950D01*
X117205000Y-92879802D01*
X117572599Y-93247401D01*
X117819161Y-93412148D01*
X117934205Y-93435032D01*
X117956838Y-93555317D01*
X118095910Y-93771441D01*
X118308110Y-93916431D01*
X118560000Y-93967440D01*
X119470000Y-93967440D01*
X119705317Y-93923162D01*
X119921441Y-93784090D01*
X120066431Y-93571890D01*
X120117440Y-93320000D01*
X120117440Y-92995750D01*
X121195000Y-92995750D01*
X121195000Y-93446310D01*
X121291673Y-93679699D01*
X121470302Y-93858327D01*
X121703691Y-93955000D01*
X121999250Y-93955000D01*
X122158000Y-93796250D01*
X122158000Y-92837000D01*
X122412000Y-92837000D01*
X122412000Y-93796250D01*
X122570750Y-93955000D01*
X122866309Y-93955000D01*
X123099698Y-93858327D01*
X123278327Y-93679699D01*
X123375000Y-93446310D01*
X123375000Y-92995750D01*
X123216250Y-92837000D01*
X122412000Y-92837000D01*
X122158000Y-92837000D01*
X121353750Y-92837000D01*
X121195000Y-92995750D01*
X120117440Y-92995750D01*
X120117440Y-92100000D01*
X120093674Y-91973690D01*
X121195000Y-91973690D01*
X121195000Y-92424250D01*
X121353750Y-92583000D01*
X122158000Y-92583000D01*
X122158000Y-91623750D01*
X122412000Y-91623750D01*
X122412000Y-92583000D01*
X123216250Y-92583000D01*
X123375000Y-92424250D01*
X123375000Y-91973690D01*
X123278327Y-91740301D01*
X123099698Y-91561673D01*
X122866309Y-91465000D01*
X122570750Y-91465000D01*
X122412000Y-91623750D01*
X122158000Y-91623750D01*
X121999250Y-91465000D01*
X121703691Y-91465000D01*
X121470302Y-91561673D01*
X121291673Y-91740301D01*
X121195000Y-91973690D01*
X120093674Y-91973690D01*
X120073162Y-91864683D01*
X119934090Y-91648559D01*
X119721890Y-91503569D01*
X119470000Y-91452560D01*
X118560000Y-91452560D01*
X118324683Y-91496838D01*
X118109869Y-91635067D01*
X117885401Y-91410599D01*
X117638839Y-91245852D01*
X117348000Y-91188000D01*
X116836817Y-91188000D01*
X116929699Y-91149527D01*
X117108327Y-90970898D01*
X117205000Y-90737509D01*
X117205000Y-89896950D01*
X117046250Y-89738200D01*
X115697000Y-89738200D01*
X115697000Y-89758200D01*
X115443000Y-89758200D01*
X115443000Y-89738200D01*
X115423000Y-89738200D01*
X115423000Y-89484200D01*
X115443000Y-89484200D01*
X115443000Y-89464200D01*
X115697000Y-89464200D01*
X115697000Y-89484200D01*
X117046250Y-89484200D01*
X117205000Y-89325450D01*
X117205000Y-88484891D01*
X117165695Y-88390000D01*
X117940784Y-88390000D01*
X117956838Y-88475317D01*
X118095910Y-88691441D01*
X118308110Y-88836431D01*
X118560000Y-88887440D01*
X119470000Y-88887440D01*
X119705317Y-88843162D01*
X119921441Y-88704090D01*
X120066431Y-88491890D01*
X120117440Y-88240000D01*
X120117440Y-87915750D01*
X121195000Y-87915750D01*
X121195000Y-88366310D01*
X121291673Y-88599699D01*
X121470302Y-88778327D01*
X121703691Y-88875000D01*
X121999250Y-88875000D01*
X122158000Y-88716250D01*
X122158000Y-87757000D01*
X122412000Y-87757000D01*
X122412000Y-88716250D01*
X122570750Y-88875000D01*
X122866309Y-88875000D01*
X123099698Y-88778327D01*
X123278327Y-88599699D01*
X123375000Y-88366310D01*
X123375000Y-87915750D01*
X123216250Y-87757000D01*
X122412000Y-87757000D01*
X122158000Y-87757000D01*
X121353750Y-87757000D01*
X121195000Y-87915750D01*
X120117440Y-87915750D01*
X120117440Y-87020000D01*
X120093674Y-86893690D01*
X121195000Y-86893690D01*
X121195000Y-87344250D01*
X121353750Y-87503000D01*
X122158000Y-87503000D01*
X122158000Y-86543750D01*
X122412000Y-86543750D01*
X122412000Y-87503000D01*
X123216250Y-87503000D01*
X123375000Y-87344250D01*
X123375000Y-86893690D01*
X123278327Y-86660301D01*
X123099698Y-86481673D01*
X122866309Y-86385000D01*
X122570750Y-86385000D01*
X122412000Y-86543750D01*
X122158000Y-86543750D01*
X121999250Y-86385000D01*
X121703691Y-86385000D01*
X121470302Y-86481673D01*
X121291673Y-86660301D01*
X121195000Y-86893690D01*
X120093674Y-86893690D01*
X120073162Y-86784683D01*
X119934090Y-86568559D01*
X119721890Y-86423569D01*
X119470000Y-86372560D01*
X118560000Y-86372560D01*
X118324683Y-86416838D01*
X118108559Y-86555910D01*
X117963569Y-86768110D01*
X117942936Y-86870000D01*
X114427000Y-86870000D01*
X114427000Y-86857787D01*
X114443690Y-86864700D01*
X115284250Y-86864700D01*
X115443000Y-86705950D01*
X115443000Y-85356700D01*
X115697000Y-85356700D01*
X115697000Y-86705950D01*
X115855750Y-86864700D01*
X116696310Y-86864700D01*
X116929699Y-86768027D01*
X117108327Y-86589398D01*
X117205000Y-86356009D01*
X117205000Y-85515450D01*
X117046250Y-85356700D01*
X115697000Y-85356700D01*
X115443000Y-85356700D01*
X115423000Y-85356700D01*
X115423000Y-85102700D01*
X115443000Y-85102700D01*
X115443000Y-83753450D01*
X115697000Y-83753450D01*
X115697000Y-85102700D01*
X117046250Y-85102700D01*
X117205000Y-84943950D01*
X117205000Y-84103391D01*
X117108327Y-83870002D01*
X116929699Y-83691373D01*
X116696310Y-83594700D01*
X115855750Y-83594700D01*
X115697000Y-83753450D01*
X115443000Y-83753450D01*
X115284250Y-83594700D01*
X114443690Y-83594700D01*
X114427000Y-83601613D01*
X114427000Y-82476287D01*
X114443690Y-82483200D01*
X115284250Y-82483200D01*
X115443000Y-82324450D01*
X115443000Y-80975200D01*
X115697000Y-80975200D01*
X115697000Y-82324450D01*
X115855750Y-82483200D01*
X116696310Y-82483200D01*
X116929699Y-82386527D01*
X117108327Y-82207898D01*
X117205000Y-81974509D01*
X117205000Y-81133950D01*
X117046250Y-80975200D01*
X115697000Y-80975200D01*
X115443000Y-80975200D01*
X115423000Y-80975200D01*
X115423000Y-80721200D01*
X115443000Y-80721200D01*
X115443000Y-80701200D01*
X115697000Y-80701200D01*
X115697000Y-80721200D01*
X117046250Y-80721200D01*
X117205000Y-80562450D01*
X117205000Y-79925802D01*
X118255000Y-80975803D01*
X118255000Y-81381678D01*
X118108559Y-81475910D01*
X117963569Y-81688110D01*
X117912560Y-81940000D01*
X117912560Y-83160000D01*
X117956838Y-83395317D01*
X118095910Y-83611441D01*
X118308110Y-83756431D01*
X118560000Y-83807440D01*
X119470000Y-83807440D01*
X119705317Y-83763162D01*
X119921441Y-83624090D01*
X120066431Y-83411890D01*
X120117440Y-83160000D01*
X120117440Y-82835750D01*
X121195000Y-82835750D01*
X121195000Y-83286310D01*
X121291673Y-83519699D01*
X121470302Y-83698327D01*
X121703691Y-83795000D01*
X121999250Y-83795000D01*
X122158000Y-83636250D01*
X122158000Y-82677000D01*
X122412000Y-82677000D01*
X122412000Y-83636250D01*
X122570750Y-83795000D01*
X122866309Y-83795000D01*
X123099698Y-83698327D01*
X123278327Y-83519699D01*
X123375000Y-83286310D01*
X123375000Y-82835750D01*
X123216250Y-82677000D01*
X122412000Y-82677000D01*
X122158000Y-82677000D01*
X121353750Y-82677000D01*
X121195000Y-82835750D01*
X120117440Y-82835750D01*
X120117440Y-81940000D01*
X120093674Y-81813690D01*
X121195000Y-81813690D01*
X121195000Y-82264250D01*
X121353750Y-82423000D01*
X122158000Y-82423000D01*
X122158000Y-81463750D01*
X122412000Y-81463750D01*
X122412000Y-82423000D01*
X123216250Y-82423000D01*
X123375000Y-82264250D01*
X123375000Y-81813690D01*
X123278327Y-81580301D01*
X123099698Y-81401673D01*
X122866309Y-81305000D01*
X122570750Y-81305000D01*
X122412000Y-81463750D01*
X122158000Y-81463750D01*
X121999250Y-81305000D01*
X121703691Y-81305000D01*
X121470302Y-81401673D01*
X121291673Y-81580301D01*
X121195000Y-81813690D01*
X120093674Y-81813690D01*
X120073162Y-81704683D01*
X119934090Y-81488559D01*
X119775000Y-81379857D01*
X119775000Y-80661000D01*
X119717148Y-80370161D01*
X119662480Y-80288345D01*
X119552401Y-80123598D01*
X117377401Y-77948599D01*
X117130839Y-77783852D01*
X117126322Y-77782954D01*
X117205000Y-77593009D01*
X117205000Y-77206190D01*
X117423063Y-77733943D01*
X118374448Y-78686990D01*
X119618128Y-79203411D01*
X120964764Y-79204586D01*
X122209343Y-78690337D01*
X123162390Y-77738952D01*
X123678811Y-76495272D01*
X123679986Y-75148636D01*
X123165737Y-73904057D01*
X122214352Y-72951010D01*
X120970672Y-72434589D01*
X119624036Y-72433414D01*
X118379457Y-72947663D01*
X117426410Y-73899048D01*
X116978665Y-74977339D01*
X116929699Y-74928373D01*
X116696310Y-74831700D01*
X115855750Y-74831700D01*
X115697000Y-74990450D01*
X115697000Y-76339700D01*
X115717000Y-76339700D01*
X115717000Y-76593700D01*
X115697000Y-76593700D01*
X115697000Y-76613700D01*
X115443000Y-76613700D01*
X115443000Y-76593700D01*
X115423000Y-76593700D01*
X115423000Y-76339700D01*
X115443000Y-76339700D01*
X115443000Y-74990450D01*
X115284250Y-74831700D01*
X114443690Y-74831700D01*
X114427000Y-74838613D01*
X114427000Y-73713287D01*
X114443690Y-73720200D01*
X115284250Y-73720200D01*
X115443000Y-73561450D01*
X115443000Y-72212200D01*
X115697000Y-72212200D01*
X115697000Y-73561450D01*
X115855750Y-73720200D01*
X116696310Y-73720200D01*
X116929699Y-73623527D01*
X117108327Y-73444898D01*
X117205000Y-73211509D01*
X117205000Y-72370950D01*
X117046250Y-72212200D01*
X115697000Y-72212200D01*
X115443000Y-72212200D01*
X115423000Y-72212200D01*
X115423000Y-71958200D01*
X115443000Y-71958200D01*
X115443000Y-70608950D01*
X115697000Y-70608950D01*
X115697000Y-71958200D01*
X117046250Y-71958200D01*
X117205000Y-71799450D01*
X117205000Y-70958891D01*
X117108327Y-70725502D01*
X116929699Y-70546873D01*
X116696310Y-70450200D01*
X115855750Y-70450200D01*
X115697000Y-70608950D01*
X115443000Y-70608950D01*
X115309272Y-70475222D01*
X116884549Y-69215000D01*
X124415451Y-69215000D01*
X125607000Y-70168239D01*
M02*
